%TF.GenerationSoftware,KiCad,Pcbnew,(6.0.2)*%
%TF.CreationDate,2022-04-25T23:22:53+02:00*%
%TF.ProjectId,V3,56332e6b-6963-4616-945f-706362585858,rev?*%
%TF.SameCoordinates,Original*%
%TF.FileFunction,Legend,Bot*%
%TF.FilePolarity,Positive*%
%FSLAX46Y46*%
G04 Gerber Fmt 4.6, Leading zero omitted, Abs format (unit mm)*
G04 Created by KiCad (PCBNEW (6.0.2)) date 2022-04-25 23:22:53*
%MOMM*%
%LPD*%
G01*
G04 APERTURE LIST*
%ADD10C,0.003527*%
%ADD11C,0.200000*%
%ADD12C,0.150000*%
%ADD13C,0.120000*%
G04 APERTURE END LIST*
D10*
X124449110Y-108297833D02*
X124032833Y-108731750D01*
X124032833Y-108731750D02*
X123919944Y-108858750D01*
X123919944Y-108858750D02*
X124300944Y-109236222D01*
X124300944Y-109236222D02*
X124678416Y-109613694D01*
X124678416Y-109613694D02*
X124667833Y-109380861D01*
X124667833Y-109380861D02*
X124665713Y-109326209D01*
X124665713Y-109326209D02*
X124665924Y-109269584D01*
X124665924Y-109269584D02*
X124668399Y-109211243D01*
X124668399Y-109211243D02*
X124673069Y-109151445D01*
X124673069Y-109151445D02*
X124679869Y-109090448D01*
X124679869Y-109090448D02*
X124688731Y-109028510D01*
X124688731Y-109028510D02*
X124699587Y-108965890D01*
X124699587Y-108965890D02*
X124712371Y-108902847D01*
X124712371Y-108902847D02*
X124727015Y-108839638D01*
X124727015Y-108839638D02*
X124743453Y-108776522D01*
X124743453Y-108776522D02*
X124761616Y-108713758D01*
X124761616Y-108713758D02*
X124781439Y-108651603D01*
X124781439Y-108651603D02*
X124802852Y-108590317D01*
X124802852Y-108590317D02*
X124825791Y-108530157D01*
X124825791Y-108530157D02*
X124850186Y-108471382D01*
X124850186Y-108471382D02*
X124875972Y-108414250D01*
X124875972Y-108414250D02*
X124981805Y-108191999D01*
X124981805Y-108191999D02*
X124883028Y-108089695D01*
X124883028Y-108089695D02*
X124864424Y-108070257D01*
X124864424Y-108070257D02*
X124845986Y-108051936D01*
X124845986Y-108051936D02*
X124828209Y-108035186D01*
X124828209Y-108035186D02*
X124811590Y-108020462D01*
X124811590Y-108020462D02*
X124803870Y-108014002D01*
X124803870Y-108014002D02*
X124796625Y-108008218D01*
X124796625Y-108008218D02*
X124789917Y-108003168D01*
X124789917Y-108003168D02*
X124783809Y-107998909D01*
X124783809Y-107998909D02*
X124778362Y-107995498D01*
X124778362Y-107995498D02*
X124773639Y-107992991D01*
X124773639Y-107992991D02*
X124769701Y-107991445D01*
X124769701Y-107991445D02*
X124768046Y-107991050D01*
X124768046Y-107991050D02*
X124766611Y-107990917D01*
X124766611Y-107990917D02*
X124765229Y-107991317D01*
X124765229Y-107991317D02*
X124763084Y-107992503D01*
X124763084Y-107992503D02*
X124756585Y-107997159D01*
X124756585Y-107997159D02*
X124747286Y-108004730D01*
X124747286Y-108004730D02*
X124735357Y-108015060D01*
X124735357Y-108015060D02*
X124704289Y-108043379D01*
X124704289Y-108043379D02*
X124664746Y-108080875D01*
X124664746Y-108080875D02*
X124618092Y-108126309D01*
X124618092Y-108126309D02*
X124565693Y-108178440D01*
X124565693Y-108178440D02*
X124508910Y-108236028D01*
X124508910Y-108236028D02*
X124449110Y-108297833D01*
X124449110Y-108297833D02*
X124449110Y-108297833D01*
G36*
X124768046Y-107991050D02*
G01*
X124769701Y-107991445D01*
X124773639Y-107992991D01*
X124778362Y-107995498D01*
X124783809Y-107998909D01*
X124789917Y-108003168D01*
X124796625Y-108008218D01*
X124803870Y-108014002D01*
X124811590Y-108020462D01*
X124828209Y-108035186D01*
X124845986Y-108051936D01*
X124864424Y-108070257D01*
X124883028Y-108089695D01*
X124981805Y-108191999D01*
X124875972Y-108414250D01*
X124850186Y-108471382D01*
X124825791Y-108530157D01*
X124802852Y-108590317D01*
X124781439Y-108651603D01*
X124761616Y-108713758D01*
X124743453Y-108776522D01*
X124727015Y-108839638D01*
X124712371Y-108902847D01*
X124699587Y-108965890D01*
X124688731Y-109028510D01*
X124679869Y-109090448D01*
X124673069Y-109151445D01*
X124668399Y-109211243D01*
X124665924Y-109269584D01*
X124665713Y-109326209D01*
X124667833Y-109380861D01*
X124678416Y-109613694D01*
X124300944Y-109236222D01*
X123919944Y-108858750D01*
X124032833Y-108731750D01*
X124449110Y-108297833D01*
X124508910Y-108236028D01*
X124565693Y-108178440D01*
X124618092Y-108126309D01*
X124664746Y-108080875D01*
X124704289Y-108043379D01*
X124735357Y-108015060D01*
X124747286Y-108004730D01*
X124756585Y-107997159D01*
X124763084Y-107992503D01*
X124765229Y-107991317D01*
X124766611Y-107990917D01*
X124768046Y-107991050D01*
G37*
X124768046Y-107991050D02*
X124769701Y-107991445D01*
X124773639Y-107992991D01*
X124778362Y-107995498D01*
X124783809Y-107998909D01*
X124789917Y-108003168D01*
X124796625Y-108008218D01*
X124803870Y-108014002D01*
X124811590Y-108020462D01*
X124828209Y-108035186D01*
X124845986Y-108051936D01*
X124864424Y-108070257D01*
X124883028Y-108089695D01*
X124981805Y-108191999D01*
X124875972Y-108414250D01*
X124850186Y-108471382D01*
X124825791Y-108530157D01*
X124802852Y-108590317D01*
X124781439Y-108651603D01*
X124761616Y-108713758D01*
X124743453Y-108776522D01*
X124727015Y-108839638D01*
X124712371Y-108902847D01*
X124699587Y-108965890D01*
X124688731Y-109028510D01*
X124679869Y-109090448D01*
X124673069Y-109151445D01*
X124668399Y-109211243D01*
X124665924Y-109269584D01*
X124665713Y-109326209D01*
X124667833Y-109380861D01*
X124678416Y-109613694D01*
X124300944Y-109236222D01*
X123919944Y-108858750D01*
X124032833Y-108731750D01*
X124449110Y-108297833D01*
X124508910Y-108236028D01*
X124565693Y-108178440D01*
X124618092Y-108126309D01*
X124664746Y-108080875D01*
X124704289Y-108043379D01*
X124735357Y-108015060D01*
X124747286Y-108004730D01*
X124756585Y-107997159D01*
X124763084Y-107992503D01*
X124765229Y-107991317D01*
X124766611Y-107990917D01*
X124768046Y-107991050D01*
X122360667Y-108389556D02*
X121954972Y-108819944D01*
X121954972Y-108819944D02*
X122385361Y-109267972D01*
X122385361Y-109267972D02*
X122819278Y-109712472D01*
X122819278Y-109712472D02*
X123094444Y-109423194D01*
X123094444Y-109423194D02*
X123214554Y-109301320D01*
X123214554Y-109301320D02*
X123333010Y-109178455D01*
X123333010Y-109178455D02*
X123436253Y-109069479D01*
X123436253Y-109069479D02*
X123510722Y-108989278D01*
X123510722Y-108989278D02*
X123648305Y-108841111D01*
X123648305Y-108841111D02*
X123232027Y-108407194D01*
X123232027Y-108407194D02*
X123066387Y-108237530D01*
X123066387Y-108237530D02*
X122928198Y-108097632D01*
X122928198Y-108097632D02*
X122831680Y-108001390D01*
X122831680Y-108001390D02*
X122791055Y-107962694D01*
X122791055Y-107962694D02*
X122789530Y-107962927D01*
X122789530Y-107962927D02*
X122786958Y-107964271D01*
X122786958Y-107964271D02*
X122778784Y-107970184D01*
X122778784Y-107970184D02*
X122766754Y-107980220D01*
X122766754Y-107980220D02*
X122751092Y-107994169D01*
X122751092Y-107994169D02*
X122709758Y-108032953D01*
X122709758Y-108032953D02*
X122656559Y-108084843D01*
X122656559Y-108084843D02*
X122593272Y-108148144D01*
X122593272Y-108148144D02*
X122521676Y-108221159D01*
X122521676Y-108221159D02*
X122443549Y-108302195D01*
X122443549Y-108302195D02*
X122360667Y-108389556D01*
X122360667Y-108389556D02*
X122360667Y-108389556D01*
G36*
X122831680Y-108001390D02*
G01*
X122928198Y-108097632D01*
X123066387Y-108237530D01*
X123232027Y-108407194D01*
X123648305Y-108841111D01*
X123510722Y-108989278D01*
X123436253Y-109069479D01*
X123333010Y-109178455D01*
X123214554Y-109301320D01*
X123094444Y-109423194D01*
X122819278Y-109712472D01*
X122385361Y-109267972D01*
X121954972Y-108819944D01*
X122360667Y-108389556D01*
X122443549Y-108302195D01*
X122521676Y-108221159D01*
X122593272Y-108148144D01*
X122656559Y-108084843D01*
X122709758Y-108032953D01*
X122751092Y-107994169D01*
X122766754Y-107980220D01*
X122778784Y-107970184D01*
X122786958Y-107964271D01*
X122789530Y-107962927D01*
X122791055Y-107962694D01*
X122831680Y-108001390D01*
G37*
X122831680Y-108001390D02*
X122928198Y-108097632D01*
X123066387Y-108237530D01*
X123232027Y-108407194D01*
X123648305Y-108841111D01*
X123510722Y-108989278D01*
X123436253Y-109069479D01*
X123333010Y-109178455D01*
X123214554Y-109301320D01*
X123094444Y-109423194D01*
X122819278Y-109712472D01*
X122385361Y-109267972D01*
X121954972Y-108819944D01*
X122360667Y-108389556D01*
X122443549Y-108302195D01*
X122521676Y-108221159D01*
X122593272Y-108148144D01*
X122656559Y-108084843D01*
X122709758Y-108032953D01*
X122751092Y-107994169D01*
X122766754Y-107980220D01*
X122778784Y-107970184D01*
X122786958Y-107964271D01*
X122789530Y-107962927D01*
X122791055Y-107962694D01*
X122831680Y-108001390D01*
X123341389Y-111472834D02*
X122925111Y-111913806D01*
X122925111Y-111913806D02*
X123186166Y-112185444D01*
X123186166Y-112185444D02*
X123300378Y-112303404D01*
X123300378Y-112303404D02*
X123417236Y-112425333D01*
X123417236Y-112425333D02*
X123605972Y-112622888D01*
X123605972Y-112622888D02*
X123761194Y-112792222D01*
X123761194Y-112792222D02*
X124195111Y-112333611D01*
X124195111Y-112333611D02*
X124629028Y-111875000D01*
X124629028Y-111875000D02*
X124216277Y-111448139D01*
X124216277Y-111448139D02*
X124054716Y-111283821D01*
X124054716Y-111283821D02*
X123918621Y-111149600D01*
X123918621Y-111149600D02*
X123864774Y-111098220D01*
X123864774Y-111098220D02*
X123822875Y-111059697D01*
X123822875Y-111059697D02*
X123794784Y-111035809D01*
X123794784Y-111035809D02*
X123786498Y-111029908D01*
X123786498Y-111029908D02*
X123782361Y-111028333D01*
X123782361Y-111028333D02*
X123780825Y-111028917D01*
X123780825Y-111028917D02*
X123778222Y-111030651D01*
X123778222Y-111030651D02*
X123769924Y-111037449D01*
X123769924Y-111037449D02*
X123757688Y-111048494D01*
X123757688Y-111048494D02*
X123741736Y-111063555D01*
X123741736Y-111063555D02*
X123699575Y-111104793D01*
X123699575Y-111104793D02*
X123645218Y-111159301D01*
X123645218Y-111159301D02*
X123580444Y-111225220D01*
X123580444Y-111225220D02*
X123507029Y-111300688D01*
X123507029Y-111300688D02*
X123341389Y-111472834D01*
X123341389Y-111472834D02*
X123341389Y-111472834D01*
G36*
X123786498Y-111029908D02*
G01*
X123794784Y-111035809D01*
X123822875Y-111059697D01*
X123864774Y-111098220D01*
X123918621Y-111149600D01*
X124054716Y-111283821D01*
X124216277Y-111448139D01*
X124629028Y-111875000D01*
X123761194Y-112792222D01*
X123605972Y-112622888D01*
X123417236Y-112425333D01*
X123300378Y-112303404D01*
X123186166Y-112185444D01*
X122925111Y-111913806D01*
X123341389Y-111472834D01*
X123507029Y-111300688D01*
X123580444Y-111225220D01*
X123645218Y-111159301D01*
X123699575Y-111104793D01*
X123741736Y-111063555D01*
X123757688Y-111048494D01*
X123769924Y-111037449D01*
X123778222Y-111030651D01*
X123780825Y-111028917D01*
X123782361Y-111028333D01*
X123786498Y-111029908D01*
G37*
X123786498Y-111029908D02*
X123794784Y-111035809D01*
X123822875Y-111059697D01*
X123864774Y-111098220D01*
X123918621Y-111149600D01*
X124054716Y-111283821D01*
X124216277Y-111448139D01*
X124629028Y-111875000D01*
X123761194Y-112792222D01*
X123605972Y-112622888D01*
X123417236Y-112425333D01*
X123300378Y-112303404D01*
X123186166Y-112185444D01*
X122925111Y-111913806D01*
X123341389Y-111472834D01*
X123507029Y-111300688D01*
X123580444Y-111225220D01*
X123645218Y-111159301D01*
X123699575Y-111104793D01*
X123741736Y-111063555D01*
X123757688Y-111048494D01*
X123769924Y-111037449D01*
X123778222Y-111030651D01*
X123780825Y-111028917D01*
X123782361Y-111028333D01*
X123786498Y-111029908D01*
X123355499Y-109437305D02*
X122960389Y-109860639D01*
X122960389Y-109860639D02*
X123355499Y-110276916D01*
X123355499Y-110276916D02*
X123511934Y-110437320D01*
X123511934Y-110437320D02*
X123643895Y-110570604D01*
X123643895Y-110570604D02*
X123737492Y-110662877D01*
X123737492Y-110662877D02*
X123765562Y-110689294D01*
X123765562Y-110689294D02*
X123778833Y-110700249D01*
X123778833Y-110700249D02*
X123780689Y-110700026D01*
X123780689Y-110700026D02*
X123783591Y-110698713D01*
X123783591Y-110698713D02*
X123792420Y-110692918D01*
X123792420Y-110692918D02*
X123805095Y-110683072D01*
X123805095Y-110683072D02*
X123821387Y-110669381D01*
X123821387Y-110669381D02*
X123841069Y-110652052D01*
X123841069Y-110652052D02*
X123863913Y-110631292D01*
X123863913Y-110631292D02*
X123918180Y-110580305D01*
X123918180Y-110580305D02*
X123982369Y-110518073D01*
X123982369Y-110518073D02*
X124054661Y-110446250D01*
X124054661Y-110446250D02*
X124133237Y-110366489D01*
X124133237Y-110366489D02*
X124216277Y-110280444D01*
X124216277Y-110280444D02*
X124632555Y-109850055D01*
X124632555Y-109850055D02*
X124230389Y-109437305D01*
X124230389Y-109437305D02*
X124149663Y-109354588D01*
X124149663Y-109354588D02*
X124072741Y-109276956D01*
X124072741Y-109276956D02*
X124001441Y-109206187D01*
X124001441Y-109206187D02*
X123937583Y-109144059D01*
X123937583Y-109144059D02*
X123882985Y-109092348D01*
X123882985Y-109092348D02*
X123839467Y-109052832D01*
X123839467Y-109052832D02*
X123808847Y-109027290D01*
X123808847Y-109027290D02*
X123798942Y-109020315D01*
X123798942Y-109020315D02*
X123792944Y-109017499D01*
X123792944Y-109017499D02*
X123790448Y-109018043D01*
X123790448Y-109018043D02*
X123786946Y-109019656D01*
X123786946Y-109019656D02*
X123777042Y-109025988D01*
X123777042Y-109025988D02*
X123763458Y-109036289D01*
X123763458Y-109036289D02*
X123746422Y-109050352D01*
X123746422Y-109050352D02*
X123726161Y-109067970D01*
X123726161Y-109067970D02*
X123702903Y-109088937D01*
X123702903Y-109088937D02*
X123648305Y-109140090D01*
X123648305Y-109140090D02*
X123584447Y-109202157D01*
X123584447Y-109202157D02*
X123513147Y-109273484D01*
X123513147Y-109273484D02*
X123436225Y-109352418D01*
X123436225Y-109352418D02*
X123355499Y-109437305D01*
X123355499Y-109437305D02*
X123355499Y-109437305D01*
G36*
X123798942Y-109020315D02*
G01*
X123808847Y-109027290D01*
X123839467Y-109052832D01*
X123882985Y-109092348D01*
X123937583Y-109144059D01*
X124001441Y-109206187D01*
X124072741Y-109276956D01*
X124149663Y-109354588D01*
X124230389Y-109437305D01*
X124632555Y-109850055D01*
X124216277Y-110280444D01*
X124133237Y-110366489D01*
X124054661Y-110446250D01*
X123982369Y-110518073D01*
X123918180Y-110580305D01*
X123863913Y-110631292D01*
X123841069Y-110652052D01*
X123821387Y-110669381D01*
X123805095Y-110683072D01*
X123792420Y-110692918D01*
X123783591Y-110698713D01*
X123780689Y-110700026D01*
X123778833Y-110700249D01*
X123765562Y-110689294D01*
X123737492Y-110662877D01*
X123643895Y-110570604D01*
X123511934Y-110437320D01*
X123355499Y-110276916D01*
X122960389Y-109860639D01*
X123355499Y-109437305D01*
X123436225Y-109352418D01*
X123513147Y-109273484D01*
X123584447Y-109202157D01*
X123648305Y-109140090D01*
X123702903Y-109088937D01*
X123726161Y-109067970D01*
X123746422Y-109050352D01*
X123763458Y-109036289D01*
X123777042Y-109025988D01*
X123786946Y-109019656D01*
X123790448Y-109018043D01*
X123792944Y-109017499D01*
X123798942Y-109020315D01*
G37*
X123798942Y-109020315D02*
X123808847Y-109027290D01*
X123839467Y-109052832D01*
X123882985Y-109092348D01*
X123937583Y-109144059D01*
X124001441Y-109206187D01*
X124072741Y-109276956D01*
X124149663Y-109354588D01*
X124230389Y-109437305D01*
X124632555Y-109850055D01*
X124216277Y-110280444D01*
X124133237Y-110366489D01*
X124054661Y-110446250D01*
X123982369Y-110518073D01*
X123918180Y-110580305D01*
X123863913Y-110631292D01*
X123841069Y-110652052D01*
X123821387Y-110669381D01*
X123805095Y-110683072D01*
X123792420Y-110692918D01*
X123783591Y-110698713D01*
X123780689Y-110700026D01*
X123778833Y-110700249D01*
X123765562Y-110689294D01*
X123737492Y-110662877D01*
X123643895Y-110570604D01*
X123511934Y-110437320D01*
X123355499Y-110276916D01*
X122960389Y-109860639D01*
X123355499Y-109437305D01*
X123436225Y-109352418D01*
X123513147Y-109273484D01*
X123584447Y-109202157D01*
X123648305Y-109140090D01*
X123702903Y-109088937D01*
X123726161Y-109067970D01*
X123746422Y-109050352D01*
X123763458Y-109036289D01*
X123777042Y-109025988D01*
X123786946Y-109019656D01*
X123790448Y-109018043D01*
X123792944Y-109017499D01*
X123798942Y-109020315D01*
X124339750Y-110435666D02*
X123930527Y-110866055D01*
X123930527Y-110866055D02*
X124343277Y-111303499D01*
X124343277Y-111303499D02*
X124756027Y-111740944D01*
X124756027Y-111740944D02*
X125112333Y-111374055D01*
X125112333Y-111374055D02*
X125468639Y-111007166D01*
X125468639Y-111007166D02*
X125334583Y-110866055D01*
X125334583Y-110866055D02*
X125261051Y-110785357D01*
X125261051Y-110785357D02*
X125226559Y-110745814D01*
X125226559Y-110745814D02*
X125193472Y-110706643D01*
X125193472Y-110706643D02*
X125161708Y-110667721D01*
X125161708Y-110667721D02*
X125131185Y-110628922D01*
X125131185Y-110628922D02*
X125101819Y-110590124D01*
X125101819Y-110590124D02*
X125073527Y-110551201D01*
X125073527Y-110551201D02*
X125046228Y-110512030D01*
X125046228Y-110512030D02*
X125019839Y-110472488D01*
X125019839Y-110472488D02*
X124994276Y-110432449D01*
X124994276Y-110432449D02*
X124969458Y-110391790D01*
X124969458Y-110391790D02*
X124945301Y-110350387D01*
X124945301Y-110350387D02*
X124921723Y-110308115D01*
X124921723Y-110308115D02*
X124898641Y-110264852D01*
X124898641Y-110264852D02*
X124875972Y-110220472D01*
X124875972Y-110220472D02*
X124832922Y-110135695D01*
X124832922Y-110135695D02*
X124796156Y-110066132D01*
X124796156Y-110066132D02*
X124781266Y-110039329D01*
X124781266Y-110039329D02*
X124769312Y-110019058D01*
X124769312Y-110019058D02*
X124760747Y-110006228D01*
X124760747Y-110006228D02*
X124757878Y-110002888D01*
X124757878Y-110002888D02*
X124756027Y-110001750D01*
X124756027Y-110001750D02*
X124753251Y-110003987D01*
X124753251Y-110003987D02*
X124746388Y-110010555D01*
X124746388Y-110010555D02*
X124721246Y-110035815D01*
X124721246Y-110035815D02*
X124631232Y-110128750D01*
X124631232Y-110128750D02*
X124499547Y-110266663D01*
X124499547Y-110266663D02*
X124339750Y-110435666D01*
X124339750Y-110435666D02*
X124339750Y-110435666D01*
G36*
X124757878Y-110002888D02*
G01*
X124760747Y-110006228D01*
X124769312Y-110019058D01*
X124781266Y-110039329D01*
X124796156Y-110066132D01*
X124832922Y-110135695D01*
X124875972Y-110220472D01*
X124898641Y-110264852D01*
X124921723Y-110308115D01*
X124945301Y-110350387D01*
X124969458Y-110391790D01*
X124994276Y-110432449D01*
X125019839Y-110472488D01*
X125046228Y-110512030D01*
X125073527Y-110551201D01*
X125101819Y-110590124D01*
X125131185Y-110628922D01*
X125161708Y-110667721D01*
X125193472Y-110706643D01*
X125226559Y-110745814D01*
X125261051Y-110785357D01*
X125334583Y-110866055D01*
X125468639Y-111007166D01*
X124756027Y-111740944D01*
X124343277Y-111303499D01*
X123930527Y-110866055D01*
X124339750Y-110435666D01*
X124499547Y-110266663D01*
X124631232Y-110128750D01*
X124721246Y-110035815D01*
X124746388Y-110010555D01*
X124753251Y-110003987D01*
X124756027Y-110001750D01*
X124757878Y-110002888D01*
G37*
X124757878Y-110002888D02*
X124760747Y-110006228D01*
X124769312Y-110019058D01*
X124781266Y-110039329D01*
X124796156Y-110066132D01*
X124832922Y-110135695D01*
X124875972Y-110220472D01*
X124898641Y-110264852D01*
X124921723Y-110308115D01*
X124945301Y-110350387D01*
X124969458Y-110391790D01*
X124994276Y-110432449D01*
X125019839Y-110472488D01*
X125046228Y-110512030D01*
X125073527Y-110551201D01*
X125101819Y-110590124D01*
X125131185Y-110628922D01*
X125161708Y-110667721D01*
X125193472Y-110706643D01*
X125226559Y-110745814D01*
X125261051Y-110785357D01*
X125334583Y-110866055D01*
X125468639Y-111007166D01*
X124756027Y-111740944D01*
X124343277Y-111303499D01*
X123930527Y-110866055D01*
X124339750Y-110435666D01*
X124499547Y-110266663D01*
X124631232Y-110128750D01*
X124721246Y-110035815D01*
X124746388Y-110010555D01*
X124753251Y-110003987D01*
X124756027Y-110001750D01*
X124757878Y-110002888D01*
X123344916Y-107359444D02*
X123185174Y-107530266D01*
X123185174Y-107530266D02*
X123053875Y-107672975D01*
X123053875Y-107672975D02*
X122964908Y-107772690D01*
X122964908Y-107772690D02*
X122940641Y-107801774D01*
X122940641Y-107801774D02*
X122934321Y-107810308D01*
X122934321Y-107810308D02*
X122932166Y-107814528D01*
X122932166Y-107814528D02*
X122932730Y-107816073D01*
X122932730Y-107816073D02*
X122934404Y-107818707D01*
X122934404Y-107818707D02*
X122940972Y-107827130D01*
X122940972Y-107827130D02*
X122966231Y-107855814D01*
X122966231Y-107855814D02*
X123006208Y-107898802D01*
X123006208Y-107898802D02*
X123059166Y-107954316D01*
X123059166Y-107954316D02*
X123123369Y-108020579D01*
X123123369Y-108020579D02*
X123197080Y-108095813D01*
X123197080Y-108095813D02*
X123278564Y-108178240D01*
X123278564Y-108178240D02*
X123366083Y-108266083D01*
X123366083Y-108266083D02*
X123800000Y-108700000D01*
X123800000Y-108700000D02*
X124205695Y-108266083D01*
X124205695Y-108266083D02*
X124614916Y-107832167D01*
X124614916Y-107832167D02*
X124184528Y-107380611D01*
X124184528Y-107380611D02*
X123754139Y-106925528D01*
X123754139Y-106925528D02*
X123344916Y-107359444D01*
X123344916Y-107359444D02*
X123344916Y-107359444D01*
G36*
X124184528Y-107380611D02*
G01*
X124614916Y-107832167D01*
X124205695Y-108266083D01*
X123800000Y-108700000D01*
X123366083Y-108266083D01*
X123278564Y-108178240D01*
X123197080Y-108095813D01*
X123123369Y-108020579D01*
X123059166Y-107954316D01*
X123006208Y-107898802D01*
X122966231Y-107855814D01*
X122940972Y-107827130D01*
X122934404Y-107818707D01*
X122932730Y-107816073D01*
X122932166Y-107814528D01*
X122934321Y-107810308D01*
X122940641Y-107801774D01*
X122964908Y-107772690D01*
X123053875Y-107672975D01*
X123185174Y-107530266D01*
X123344916Y-107359444D01*
X123754139Y-106925528D01*
X124184528Y-107380611D01*
G37*
X124184528Y-107380611D02*
X124614916Y-107832167D01*
X124205695Y-108266083D01*
X123800000Y-108700000D01*
X123366083Y-108266083D01*
X123278564Y-108178240D01*
X123197080Y-108095813D01*
X123123369Y-108020579D01*
X123059166Y-107954316D01*
X123006208Y-107898802D01*
X122966231Y-107855814D01*
X122940972Y-107827130D01*
X122934404Y-107818707D01*
X122932730Y-107816073D01*
X122932166Y-107814528D01*
X122934321Y-107810308D01*
X122940641Y-107801774D01*
X122964908Y-107772690D01*
X123053875Y-107672975D01*
X123185174Y-107530266D01*
X123344916Y-107359444D01*
X123754139Y-106925528D01*
X124184528Y-107380611D01*
X122392416Y-110446249D02*
X122308859Y-110534554D01*
X122308859Y-110534554D02*
X122231296Y-110618228D01*
X122231296Y-110618228D02*
X122161423Y-110695288D01*
X122161423Y-110695288D02*
X122100934Y-110763749D01*
X122100934Y-110763749D02*
X122051524Y-110821627D01*
X122051524Y-110821627D02*
X122014889Y-110866937D01*
X122014889Y-110866937D02*
X121992723Y-110897695D01*
X121992723Y-110897695D02*
X121987596Y-110906996D01*
X121987596Y-110906996D02*
X121986722Y-110911916D01*
X121986722Y-110911916D02*
X121987585Y-110914102D01*
X121987585Y-110914102D02*
X121989495Y-110917335D01*
X121989495Y-110917335D02*
X121996341Y-110926826D01*
X121996341Y-110926826D02*
X122007031Y-110940162D01*
X122007031Y-110940162D02*
X122021338Y-110957115D01*
X122021338Y-110957115D02*
X122059896Y-111000965D01*
X122059896Y-111000965D02*
X122110194Y-111056555D01*
X122110194Y-111056555D02*
X122170415Y-111122067D01*
X122170415Y-111122067D02*
X122238738Y-111195682D01*
X122238738Y-111195682D02*
X122392416Y-111359944D01*
X122392416Y-111359944D02*
X122791055Y-111776221D01*
X122791055Y-111776221D02*
X123203805Y-111342305D01*
X123203805Y-111342305D02*
X123287693Y-111255000D01*
X123287693Y-111255000D02*
X123366248Y-111171704D01*
X123366248Y-111171704D02*
X123437775Y-111094444D01*
X123437775Y-111094444D02*
X123500579Y-111025246D01*
X123500579Y-111025246D02*
X123552966Y-110966135D01*
X123552966Y-110966135D02*
X123593239Y-110919137D01*
X123593239Y-110919137D02*
X123619704Y-110886278D01*
X123619704Y-110886278D02*
X123627229Y-110875784D01*
X123627229Y-110875784D02*
X123630666Y-110869584D01*
X123630666Y-110869584D02*
X123630454Y-110867077D01*
X123630454Y-110867077D02*
X123629172Y-110863543D01*
X123629172Y-110863543D02*
X123623507Y-110853509D01*
X123623507Y-110853509D02*
X123613884Y-110839701D01*
X123613884Y-110839701D02*
X123600515Y-110822344D01*
X123600515Y-110822344D02*
X123583611Y-110801659D01*
X123583611Y-110801659D02*
X123563384Y-110777868D01*
X123563384Y-110777868D02*
X123513809Y-110721857D01*
X123513809Y-110721857D02*
X123453485Y-110656090D01*
X123453485Y-110656090D02*
X123384108Y-110582344D01*
X123384108Y-110582344D02*
X123307372Y-110502397D01*
X123307372Y-110502397D02*
X123224972Y-110418027D01*
X123224972Y-110418027D02*
X122808694Y-110008805D01*
X122808694Y-110008805D02*
X122392416Y-110446249D01*
X122392416Y-110446249D02*
X122392416Y-110446249D01*
G36*
X123224972Y-110418027D02*
G01*
X123307372Y-110502397D01*
X123384108Y-110582344D01*
X123453485Y-110656090D01*
X123513809Y-110721857D01*
X123563384Y-110777868D01*
X123583611Y-110801659D01*
X123600515Y-110822344D01*
X123613884Y-110839701D01*
X123623507Y-110853509D01*
X123629172Y-110863543D01*
X123630454Y-110867077D01*
X123630666Y-110869584D01*
X123627229Y-110875784D01*
X123619704Y-110886278D01*
X123593239Y-110919137D01*
X123552966Y-110966135D01*
X123500579Y-111025246D01*
X123437775Y-111094444D01*
X123366248Y-111171704D01*
X123287693Y-111255000D01*
X123203805Y-111342305D01*
X122791055Y-111776221D01*
X122392416Y-111359944D01*
X122238738Y-111195682D01*
X122170415Y-111122067D01*
X122110194Y-111056555D01*
X122059896Y-111000965D01*
X122021338Y-110957115D01*
X122007031Y-110940162D01*
X121996341Y-110926826D01*
X121989495Y-110917335D01*
X121987585Y-110914102D01*
X121986722Y-110911916D01*
X121987596Y-110906996D01*
X121992723Y-110897695D01*
X122014889Y-110866937D01*
X122051524Y-110821627D01*
X122100934Y-110763749D01*
X122161423Y-110695288D01*
X122231296Y-110618228D01*
X122308859Y-110534554D01*
X122392416Y-110446249D01*
X122808694Y-110008805D01*
X123224972Y-110418027D01*
G37*
X123224972Y-110418027D02*
X123307372Y-110502397D01*
X123384108Y-110582344D01*
X123453485Y-110656090D01*
X123513809Y-110721857D01*
X123563384Y-110777868D01*
X123583611Y-110801659D01*
X123600515Y-110822344D01*
X123613884Y-110839701D01*
X123623507Y-110853509D01*
X123629172Y-110863543D01*
X123630454Y-110867077D01*
X123630666Y-110869584D01*
X123627229Y-110875784D01*
X123619704Y-110886278D01*
X123593239Y-110919137D01*
X123552966Y-110966135D01*
X123500579Y-111025246D01*
X123437775Y-111094444D01*
X123366248Y-111171704D01*
X123287693Y-111255000D01*
X123203805Y-111342305D01*
X122791055Y-111776221D01*
X122392416Y-111359944D01*
X122238738Y-111195682D01*
X122170415Y-111122067D01*
X122110194Y-111056555D01*
X122059896Y-111000965D01*
X122021338Y-110957115D01*
X122007031Y-110940162D01*
X121996341Y-110926826D01*
X121989495Y-110917335D01*
X121987585Y-110914102D01*
X121986722Y-110911916D01*
X121987596Y-110906996D01*
X121992723Y-110897695D01*
X122014889Y-110866937D01*
X122051524Y-110821627D01*
X122100934Y-110763749D01*
X122161423Y-110695288D01*
X122231296Y-110618228D01*
X122308859Y-110534554D01*
X122392416Y-110446249D01*
X122808694Y-110008805D01*
X123224972Y-110418027D01*
X123341389Y-102671027D02*
X123301161Y-102713197D01*
X123301161Y-102713197D02*
X123262489Y-102756370D01*
X123262489Y-102756370D02*
X123225357Y-102800555D01*
X123225357Y-102800555D02*
X123189749Y-102845763D01*
X123189749Y-102845763D02*
X123155651Y-102892005D01*
X123155651Y-102892005D02*
X123123045Y-102939291D01*
X123123045Y-102939291D02*
X123091918Y-102987630D01*
X123091918Y-102987630D02*
X123062253Y-103037035D01*
X123062253Y-103037035D02*
X123034035Y-103087514D01*
X123034035Y-103087514D02*
X123007249Y-103139079D01*
X123007249Y-103139079D02*
X122981878Y-103191739D01*
X122981878Y-103191739D02*
X122957908Y-103245505D01*
X122957908Y-103245505D02*
X122935323Y-103300387D01*
X122935323Y-103300387D02*
X122914107Y-103356395D01*
X122914107Y-103356395D02*
X122894245Y-103413541D01*
X122894245Y-103413541D02*
X122875722Y-103471833D01*
X122875722Y-103471833D02*
X122860584Y-103537828D01*
X122860584Y-103537828D02*
X122842594Y-103634001D01*
X122842594Y-103634001D02*
X122823198Y-103750514D01*
X122823198Y-103750514D02*
X122803844Y-103877528D01*
X122803844Y-103877528D02*
X122785977Y-104005203D01*
X122785977Y-104005203D02*
X122771046Y-104123700D01*
X122771046Y-104123700D02*
X122760497Y-104223181D01*
X122760497Y-104223181D02*
X122755777Y-104293805D01*
X122755777Y-104293805D02*
X122755501Y-104294664D01*
X122755501Y-104294664D02*
X122754680Y-104295258D01*
X122754680Y-104295258D02*
X122753330Y-104295593D01*
X122753330Y-104295593D02*
X122751464Y-104295672D01*
X122751464Y-104295672D02*
X122746243Y-104295084D01*
X122746243Y-104295084D02*
X122739131Y-104293530D01*
X122739131Y-104293530D02*
X122730241Y-104291045D01*
X122730241Y-104291045D02*
X122719687Y-104287666D01*
X122719687Y-104287666D02*
X122707582Y-104283430D01*
X122707582Y-104283430D02*
X122694041Y-104278372D01*
X122694041Y-104278372D02*
X122679177Y-104272528D01*
X122679177Y-104272528D02*
X122663104Y-104265935D01*
X122663104Y-104265935D02*
X122645936Y-104258629D01*
X122645936Y-104258629D02*
X122627785Y-104250646D01*
X122627785Y-104250646D02*
X122608767Y-104242022D01*
X122608767Y-104242022D02*
X122588994Y-104232793D01*
X122588994Y-104232793D02*
X122568580Y-104222996D01*
X122568580Y-104222996D02*
X122547639Y-104212667D01*
X122547639Y-104212667D02*
X122491823Y-104186381D01*
X122491823Y-104186381D02*
X122434323Y-104161796D01*
X122434323Y-104161796D02*
X122375355Y-104138958D01*
X122375355Y-104138958D02*
X122315136Y-104117913D01*
X122315136Y-104117913D02*
X122253884Y-104098707D01*
X122253884Y-104098707D02*
X122191815Y-104081388D01*
X122191815Y-104081388D02*
X122129147Y-104066001D01*
X122129147Y-104066001D02*
X122066097Y-104052594D01*
X122066097Y-104052594D02*
X122002881Y-104041212D01*
X122002881Y-104041212D02*
X121939717Y-104031902D01*
X121939717Y-104031902D02*
X121876822Y-104024712D01*
X121876822Y-104024712D02*
X121814412Y-104019686D01*
X121814412Y-104019686D02*
X121752705Y-104016872D01*
X121752705Y-104016872D02*
X121691918Y-104016317D01*
X121691918Y-104016317D02*
X121632268Y-104018066D01*
X121632268Y-104018066D02*
X121573972Y-104022167D01*
X121573972Y-104022167D02*
X121461834Y-104032288D01*
X121461834Y-104032288D02*
X121415338Y-104037228D01*
X121415338Y-104037228D02*
X121374708Y-104042286D01*
X121374708Y-104042286D02*
X121339555Y-104047613D01*
X121339555Y-104047613D02*
X121309492Y-104053358D01*
X121309492Y-104053358D02*
X121284132Y-104059672D01*
X121284132Y-104059672D02*
X121263087Y-104066705D01*
X121263087Y-104066705D02*
X121245969Y-104074605D01*
X121245969Y-104074605D02*
X121232391Y-104083524D01*
X121232391Y-104083524D02*
X121221965Y-104093610D01*
X121221965Y-104093610D02*
X121214304Y-104105014D01*
X121214304Y-104105014D02*
X121209020Y-104117886D01*
X121209020Y-104117886D02*
X121205726Y-104132375D01*
X121205726Y-104132375D02*
X121204033Y-104148632D01*
X121204033Y-104148632D02*
X121203555Y-104166806D01*
X121203555Y-104166806D02*
X121203672Y-104173310D01*
X121203672Y-104173310D02*
X121204038Y-104179603D01*
X121204038Y-104179603D02*
X121204671Y-104185702D01*
X121204671Y-104185702D02*
X121205595Y-104191624D01*
X121205595Y-104191624D02*
X121206828Y-104197387D01*
X121206828Y-104197387D02*
X121208392Y-104203005D01*
X121208392Y-104203005D02*
X121210308Y-104208497D01*
X121210308Y-104208497D02*
X121212595Y-104213880D01*
X121212595Y-104213880D02*
X121215275Y-104219169D01*
X121215275Y-104219169D02*
X121218369Y-104224382D01*
X121218369Y-104224382D02*
X121221897Y-104229536D01*
X121221897Y-104229536D02*
X121225879Y-104234647D01*
X121225879Y-104234647D02*
X121230337Y-104239732D01*
X121230337Y-104239732D02*
X121235291Y-104244808D01*
X121235291Y-104244808D02*
X121240762Y-104249892D01*
X121240762Y-104249892D02*
X121246770Y-104255000D01*
X121246770Y-104255000D02*
X121253337Y-104260150D01*
X121253337Y-104260150D02*
X121260482Y-104265358D01*
X121260482Y-104265358D02*
X121268227Y-104270641D01*
X121268227Y-104270641D02*
X121276591Y-104276015D01*
X121276591Y-104276015D02*
X121285597Y-104281498D01*
X121285597Y-104281498D02*
X121295264Y-104287107D01*
X121295264Y-104287107D02*
X121316665Y-104298767D01*
X121316665Y-104298767D02*
X121340959Y-104311129D01*
X121340959Y-104311129D02*
X121368314Y-104324329D01*
X121368314Y-104324329D02*
X121398892Y-104338500D01*
X121398892Y-104338500D02*
X121432861Y-104353778D01*
X121432861Y-104353778D02*
X121484376Y-104378629D01*
X121484376Y-104378629D02*
X121534429Y-104405578D01*
X121534429Y-104405578D02*
X121583046Y-104434657D01*
X121583046Y-104434657D02*
X121630251Y-104465895D01*
X121630251Y-104465895D02*
X121676072Y-104499324D01*
X121676072Y-104499324D02*
X121720533Y-104534976D01*
X121720533Y-104534976D02*
X121763662Y-104572881D01*
X121763662Y-104572881D02*
X121805482Y-104613069D01*
X121805482Y-104613069D02*
X121846022Y-104655573D01*
X121846022Y-104655573D02*
X121885305Y-104700423D01*
X121885305Y-104700423D02*
X121923359Y-104747650D01*
X121923359Y-104747650D02*
X121960209Y-104797285D01*
X121960209Y-104797285D02*
X121995880Y-104849360D01*
X121995880Y-104849360D02*
X122030399Y-104903904D01*
X122030399Y-104903904D02*
X122063791Y-104960950D01*
X122063791Y-104960950D02*
X122096083Y-105020527D01*
X122096083Y-105020527D02*
X122122962Y-105071287D01*
X122122962Y-105071287D02*
X122147732Y-105119691D01*
X122147732Y-105119691D02*
X122169939Y-105164704D01*
X122169939Y-105164704D02*
X122189128Y-105205295D01*
X122189128Y-105205295D02*
X122204845Y-105240428D01*
X122204845Y-105240428D02*
X122216634Y-105269070D01*
X122216634Y-105269070D02*
X122224041Y-105290189D01*
X122224041Y-105290189D02*
X122225959Y-105297603D01*
X122225959Y-105297603D02*
X122226611Y-105302750D01*
X122226611Y-105302750D02*
X122226416Y-105304652D01*
X122226416Y-105304652D02*
X122225834Y-105306389D01*
X122225834Y-105306389D02*
X122224873Y-105307965D01*
X122224873Y-105307965D02*
X122223538Y-105309378D01*
X122223538Y-105309378D02*
X122221836Y-105310631D01*
X122221836Y-105310631D02*
X122219774Y-105311726D01*
X122219774Y-105311726D02*
X122217358Y-105312663D01*
X122217358Y-105312663D02*
X122214594Y-105313443D01*
X122214594Y-105313443D02*
X122211490Y-105314069D01*
X122211490Y-105314069D02*
X122208050Y-105314541D01*
X122208050Y-105314541D02*
X122204283Y-105314860D01*
X122204283Y-105314860D02*
X122200194Y-105315028D01*
X122200194Y-105315028D02*
X122195790Y-105315046D01*
X122195790Y-105315046D02*
X122191077Y-105314916D01*
X122191077Y-105314916D02*
X122180750Y-105314215D01*
X122180750Y-105314215D02*
X122169266Y-105312935D01*
X122169266Y-105312935D02*
X122156676Y-105311087D01*
X122156676Y-105311087D02*
X122143031Y-105308680D01*
X122143031Y-105308680D02*
X122128384Y-105305726D01*
X122128384Y-105305726D02*
X122112787Y-105302235D01*
X122112787Y-105302235D02*
X122096290Y-105298216D01*
X122096290Y-105298216D02*
X122078946Y-105293681D01*
X122078946Y-105293681D02*
X122060805Y-105288639D01*
X122060805Y-105288639D02*
X121999138Y-105272376D01*
X121999138Y-105272376D02*
X121930112Y-105259245D01*
X121930112Y-105259245D02*
X121855051Y-105249153D01*
X121855051Y-105249153D02*
X121775276Y-105242006D01*
X121775276Y-105242006D02*
X121692111Y-105237711D01*
X121692111Y-105237711D02*
X121606880Y-105236177D01*
X121606880Y-105236177D02*
X121520904Y-105237308D01*
X121520904Y-105237308D02*
X121435507Y-105241013D01*
X121435507Y-105241013D02*
X121352011Y-105247199D01*
X121352011Y-105247199D02*
X121271741Y-105255772D01*
X121271741Y-105255772D02*
X121196017Y-105266640D01*
X121196017Y-105266640D02*
X121126165Y-105279709D01*
X121126165Y-105279709D02*
X121063505Y-105294886D01*
X121063505Y-105294886D02*
X121009362Y-105312079D01*
X121009362Y-105312079D02*
X120965058Y-105331194D01*
X120965058Y-105331194D02*
X120931916Y-105352138D01*
X120931916Y-105352138D02*
X120924045Y-105358717D01*
X120924045Y-105358717D02*
X120916982Y-105365246D01*
X120916982Y-105365246D02*
X120910751Y-105371758D01*
X120910751Y-105371758D02*
X120905375Y-105378287D01*
X120905375Y-105378287D02*
X120900878Y-105384864D01*
X120900878Y-105384864D02*
X120897283Y-105391524D01*
X120897283Y-105391524D02*
X120894613Y-105398298D01*
X120894613Y-105398298D02*
X120892890Y-105405220D01*
X120892890Y-105405220D02*
X120892140Y-105412324D01*
X120892140Y-105412324D02*
X120892384Y-105419641D01*
X120892384Y-105419641D02*
X120893646Y-105427205D01*
X120893646Y-105427205D02*
X120895950Y-105435048D01*
X120895950Y-105435048D02*
X120899318Y-105443204D01*
X120899318Y-105443204D02*
X120903774Y-105451706D01*
X120903774Y-105451706D02*
X120909340Y-105460586D01*
X120909340Y-105460586D02*
X120916042Y-105469878D01*
X120916042Y-105469878D02*
X120923900Y-105479614D01*
X120923900Y-105479614D02*
X120932940Y-105489828D01*
X120932940Y-105489828D02*
X120943183Y-105500552D01*
X120943183Y-105500552D02*
X120954654Y-105511819D01*
X120954654Y-105511819D02*
X120967376Y-105523662D01*
X120967376Y-105523662D02*
X120981371Y-105536115D01*
X120981371Y-105536115D02*
X120996663Y-105549209D01*
X120996663Y-105549209D02*
X121013276Y-105562979D01*
X121013276Y-105562979D02*
X121031232Y-105577456D01*
X121031232Y-105577456D02*
X121050555Y-105592675D01*
X121050555Y-105592675D02*
X121093395Y-105625466D01*
X121093395Y-105625466D02*
X121141981Y-105661616D01*
X121141981Y-105661616D02*
X121196500Y-105701389D01*
X121196500Y-105701389D02*
X121304870Y-105783400D01*
X121304870Y-105783400D02*
X121414733Y-105872293D01*
X121414733Y-105872293D02*
X121524689Y-105966520D01*
X121524689Y-105966520D02*
X121633338Y-106064530D01*
X121633338Y-106064530D02*
X121739279Y-106164772D01*
X121739279Y-106164772D02*
X121841112Y-106265696D01*
X121841112Y-106265696D02*
X121937436Y-106365751D01*
X121937436Y-106365751D02*
X122026850Y-106463389D01*
X122026850Y-106463389D02*
X122107956Y-106557057D01*
X122107956Y-106557057D02*
X122179351Y-106645207D01*
X122179351Y-106645207D02*
X122239636Y-106726287D01*
X122239636Y-106726287D02*
X122287410Y-106798748D01*
X122287410Y-106798748D02*
X122321273Y-106861039D01*
X122321273Y-106861039D02*
X122332550Y-106887886D01*
X122332550Y-106887886D02*
X122339824Y-106911609D01*
X122339824Y-106911609D02*
X122342920Y-106932015D01*
X122342920Y-106932015D02*
X122341662Y-106948909D01*
X122341662Y-106948909D02*
X122335877Y-106962099D01*
X122335877Y-106962099D02*
X122325389Y-106971389D01*
X122325389Y-106971389D02*
X122258180Y-107011018D01*
X122258180Y-107011018D02*
X122190382Y-107055587D01*
X122190382Y-107055587D02*
X122122316Y-107104745D01*
X122122316Y-107104745D02*
X122054301Y-107158140D01*
X122054301Y-107158140D02*
X121986658Y-107215422D01*
X121986658Y-107215422D02*
X121919708Y-107276238D01*
X121919708Y-107276238D02*
X121853771Y-107340238D01*
X121853771Y-107340238D02*
X121789166Y-107407069D01*
X121789166Y-107407069D02*
X121726216Y-107476381D01*
X121726216Y-107476381D02*
X121665239Y-107547822D01*
X121665239Y-107547822D02*
X121606557Y-107621041D01*
X121606557Y-107621041D02*
X121550490Y-107695686D01*
X121550490Y-107695686D02*
X121497358Y-107771406D01*
X121497358Y-107771406D02*
X121447482Y-107847849D01*
X121447482Y-107847849D02*
X121401182Y-107924664D01*
X121401182Y-107924664D02*
X121358778Y-108001500D01*
X121358778Y-108001500D02*
X121281113Y-108161940D01*
X121281113Y-108161940D02*
X121210900Y-108331692D01*
X121210900Y-108331692D02*
X121148232Y-108509733D01*
X121148232Y-108509733D02*
X121093202Y-108695039D01*
X121093202Y-108695039D02*
X121045903Y-108886588D01*
X121045903Y-108886588D02*
X121006427Y-109083356D01*
X121006427Y-109083356D02*
X120974868Y-109284321D01*
X120974868Y-109284321D02*
X120951319Y-109488458D01*
X120951319Y-109488458D02*
X120935873Y-109694745D01*
X120935873Y-109694745D02*
X120928623Y-109902159D01*
X120928623Y-109902159D02*
X120929662Y-110109676D01*
X120929662Y-110109676D02*
X120939082Y-110316273D01*
X120939082Y-110316273D02*
X120956978Y-110520927D01*
X120956978Y-110520927D02*
X120983441Y-110722615D01*
X120983441Y-110722615D02*
X121018566Y-110920313D01*
X121018566Y-110920313D02*
X121062444Y-111112999D01*
X121062444Y-111112999D02*
X121102140Y-111254924D01*
X121102140Y-111254924D02*
X121148337Y-111393458D01*
X121148337Y-111393458D02*
X121200839Y-111528354D01*
X121200839Y-111528354D02*
X121259449Y-111659364D01*
X121259449Y-111659364D02*
X121323970Y-111786240D01*
X121323970Y-111786240D02*
X121394207Y-111908734D01*
X121394207Y-111908734D02*
X121469963Y-112026598D01*
X121469963Y-112026598D02*
X121551041Y-112139583D01*
X121551041Y-112139583D02*
X121637246Y-112247442D01*
X121637246Y-112247442D02*
X121728381Y-112349927D01*
X121728381Y-112349927D02*
X121824250Y-112446789D01*
X121824250Y-112446789D02*
X121924655Y-112537781D01*
X121924655Y-112537781D02*
X122029402Y-112622654D01*
X122029402Y-112622654D02*
X122138292Y-112701161D01*
X122138292Y-112701161D02*
X122251131Y-112773053D01*
X122251131Y-112773053D02*
X122367722Y-112838083D01*
X122367722Y-112838083D02*
X122515574Y-112910305D01*
X122515574Y-112910305D02*
X122662863Y-112972186D01*
X122662863Y-112972186D02*
X122809687Y-113023722D01*
X122809687Y-113023722D02*
X122956144Y-113064908D01*
X122956144Y-113064908D02*
X123102333Y-113095737D01*
X123102333Y-113095737D02*
X123248350Y-113116205D01*
X123248350Y-113116205D02*
X123394296Y-113126307D01*
X123394296Y-113126307D02*
X123540267Y-113126037D01*
X123540267Y-113126037D02*
X123686362Y-113115391D01*
X123686362Y-113115391D02*
X123832680Y-113094363D01*
X123832680Y-113094363D02*
X123979318Y-113062948D01*
X123979318Y-113062948D02*
X124126374Y-113021141D01*
X124126374Y-113021141D02*
X124273947Y-112968937D01*
X124273947Y-112968937D02*
X124422136Y-112906330D01*
X124422136Y-112906330D02*
X124571037Y-112833315D01*
X124571037Y-112833315D02*
X124720750Y-112749888D01*
X124720750Y-112749888D02*
X124800346Y-112699576D01*
X124800346Y-112699576D02*
X124880113Y-112642897D01*
X124880113Y-112642897D02*
X124959642Y-112580348D01*
X124959642Y-112580348D02*
X125038525Y-112512425D01*
X125038525Y-112512425D02*
X125116354Y-112439623D01*
X125116354Y-112439623D02*
X125192721Y-112362439D01*
X125192721Y-112362439D02*
X125267217Y-112281369D01*
X125267217Y-112281369D02*
X125339434Y-112196909D01*
X125339434Y-112196909D02*
X125408964Y-112109555D01*
X125408964Y-112109555D02*
X125475398Y-112019804D01*
X125475398Y-112019804D02*
X125538329Y-111928150D01*
X125538329Y-111928150D02*
X125597348Y-111835091D01*
X125597348Y-111835091D02*
X125652046Y-111741123D01*
X125652046Y-111741123D02*
X125702017Y-111646741D01*
X125702017Y-111646741D02*
X125746850Y-111552442D01*
X125746850Y-111552442D02*
X125786139Y-111458722D01*
X125786139Y-111458722D02*
X125856694Y-111275277D01*
X125856694Y-111275277D02*
X125757916Y-111201194D01*
X125757916Y-111201194D02*
X125747221Y-111194129D01*
X125747221Y-111194129D02*
X125736350Y-111187503D01*
X125736350Y-111187503D02*
X125725376Y-111181343D01*
X125725376Y-111181343D02*
X125714370Y-111175673D01*
X125714370Y-111175673D02*
X125703406Y-111170520D01*
X125703406Y-111170520D02*
X125692556Y-111165909D01*
X125692556Y-111165909D02*
X125681892Y-111161867D01*
X125681892Y-111161867D02*
X125671486Y-111158420D01*
X125671486Y-111158420D02*
X125661411Y-111155592D01*
X125661411Y-111155592D02*
X125651739Y-111153410D01*
X125651739Y-111153410D02*
X125642542Y-111151901D01*
X125642542Y-111151901D02*
X125633893Y-111151088D01*
X125633893Y-111151088D02*
X125625864Y-111151000D01*
X125625864Y-111151000D02*
X125618528Y-111151661D01*
X125618528Y-111151661D02*
X125611956Y-111153096D01*
X125611956Y-111153096D02*
X125608980Y-111154113D01*
X125608980Y-111154113D02*
X125606222Y-111155333D01*
X125606222Y-111155333D02*
X125599889Y-111159106D01*
X125599889Y-111159106D02*
X125590285Y-111166330D01*
X125590285Y-111166330D02*
X125577611Y-111176820D01*
X125577611Y-111176820D02*
X125562070Y-111190390D01*
X125562070Y-111190390D02*
X125523188Y-111226026D01*
X125523188Y-111226026D02*
X125475253Y-111271750D01*
X125475253Y-111271750D02*
X125419877Y-111326072D01*
X125419877Y-111326072D02*
X125358671Y-111387505D01*
X125358671Y-111387505D02*
X125293249Y-111454561D01*
X125293249Y-111454561D02*
X125225222Y-111525750D01*
X125225222Y-111525750D02*
X124893611Y-111871472D01*
X124893611Y-111871472D02*
X125066472Y-112047860D01*
X125066472Y-112047860D02*
X125122241Y-112105208D01*
X125122241Y-112105208D02*
X125144560Y-112128794D01*
X125144560Y-112128794D02*
X125163376Y-112149450D01*
X125163376Y-112149450D02*
X125178842Y-112167522D01*
X125178842Y-112167522D02*
X125191116Y-112183356D01*
X125191116Y-112183356D02*
X125196103Y-112190543D01*
X125196103Y-112190543D02*
X125200350Y-112197299D01*
X125200350Y-112197299D02*
X125203876Y-112203670D01*
X125203876Y-112203670D02*
X125206701Y-112209697D01*
X125206701Y-112209697D02*
X125208844Y-112215425D01*
X125208844Y-112215425D02*
X125210324Y-112220897D01*
X125210324Y-112220897D02*
X125211160Y-112226155D01*
X125211160Y-112226155D02*
X125211373Y-112231243D01*
X125211373Y-112231243D02*
X125210981Y-112236205D01*
X125210981Y-112236205D02*
X125210003Y-112241083D01*
X125210003Y-112241083D02*
X125208460Y-112245921D01*
X125208460Y-112245921D02*
X125206370Y-112250763D01*
X125206370Y-112250763D02*
X125203754Y-112255651D01*
X125203754Y-112255651D02*
X125200629Y-112260629D01*
X125200629Y-112260629D02*
X125192935Y-112271027D01*
X125192935Y-112271027D02*
X125183442Y-112282303D01*
X125183442Y-112282303D02*
X125172305Y-112294805D01*
X125172305Y-112294805D02*
X125105277Y-112368888D01*
X125105277Y-112368888D02*
X124932416Y-112199555D01*
X124932416Y-112199555D02*
X124759555Y-112030222D01*
X124759555Y-112030222D02*
X124339750Y-112464138D01*
X124339750Y-112464138D02*
X124255876Y-112552773D01*
X124255876Y-112552773D02*
X124177417Y-112637440D01*
X124177417Y-112637440D02*
X124106152Y-112716154D01*
X124106152Y-112716154D02*
X124043857Y-112786930D01*
X124043857Y-112786930D02*
X123992312Y-112847784D01*
X123992312Y-112847784D02*
X123953293Y-112896732D01*
X123953293Y-112896732D02*
X123939036Y-112916121D01*
X123939036Y-112916121D02*
X123928577Y-112931789D01*
X123928577Y-112931789D02*
X123922139Y-112943489D01*
X123922139Y-112943489D02*
X123919944Y-112950972D01*
X123919944Y-112950972D02*
X123919841Y-112953596D01*
X123919841Y-112953596D02*
X123919536Y-112956177D01*
X123919536Y-112956177D02*
X123919031Y-112958711D01*
X123919031Y-112958711D02*
X123918332Y-112961197D01*
X123918332Y-112961197D02*
X123917441Y-112963630D01*
X123917441Y-112963630D02*
X123916363Y-112966009D01*
X123916363Y-112966009D02*
X123915101Y-112968332D01*
X123915101Y-112968332D02*
X123913660Y-112970595D01*
X123913660Y-112970595D02*
X123912043Y-112972796D01*
X123912043Y-112972796D02*
X123910255Y-112974932D01*
X123910255Y-112974932D02*
X123908298Y-112977001D01*
X123908298Y-112977001D02*
X123906177Y-112979001D01*
X123906177Y-112979001D02*
X123903897Y-112980928D01*
X123903897Y-112980928D02*
X123901459Y-112982780D01*
X123901459Y-112982780D02*
X123898870Y-112984555D01*
X123898870Y-112984555D02*
X123896132Y-112986249D01*
X123896132Y-112986249D02*
X123893249Y-112987861D01*
X123893249Y-112987861D02*
X123890225Y-112989388D01*
X123890225Y-112989388D02*
X123887064Y-112990827D01*
X123887064Y-112990827D02*
X123883771Y-112992175D01*
X123883771Y-112992175D02*
X123880348Y-112993430D01*
X123880348Y-112993430D02*
X123876799Y-112994590D01*
X123876799Y-112994590D02*
X123873130Y-112995651D01*
X123873130Y-112995651D02*
X123869343Y-112996612D01*
X123869343Y-112996612D02*
X123865442Y-112997470D01*
X123865442Y-112997470D02*
X123861431Y-112998221D01*
X123861431Y-112998221D02*
X123857314Y-112998864D01*
X123857314Y-112998864D02*
X123853096Y-112999396D01*
X123853096Y-112999396D02*
X123848779Y-112999814D01*
X123848779Y-112999814D02*
X123844367Y-113000116D01*
X123844367Y-113000116D02*
X123839866Y-113000299D01*
X123839866Y-113000299D02*
X123835278Y-113000361D01*
X123835278Y-113000361D02*
X123816075Y-113000843D01*
X123816075Y-113000843D02*
X123793440Y-113002235D01*
X123793440Y-113002235D02*
X123768243Y-113004453D01*
X123768243Y-113004453D02*
X123741350Y-113007416D01*
X123741350Y-113007416D02*
X123713631Y-113011040D01*
X123713631Y-113011040D02*
X123685953Y-113015243D01*
X123685953Y-113015243D02*
X123659185Y-113019943D01*
X123659185Y-113019943D02*
X123634194Y-113025055D01*
X123634194Y-113025055D02*
X123597883Y-113031787D01*
X123597883Y-113031787D02*
X123583143Y-113034194D01*
X123583143Y-113034194D02*
X123570584Y-113035914D01*
X123570584Y-113035914D02*
X123560133Y-113036911D01*
X123560133Y-113036911D02*
X123551718Y-113037148D01*
X123551718Y-113037148D02*
X123548252Y-113036970D01*
X123548252Y-113036970D02*
X123545268Y-113036589D01*
X123545268Y-113036589D02*
X123542756Y-113035999D01*
X123542756Y-113035999D02*
X123540708Y-113035198D01*
X123540708Y-113035198D02*
X123539115Y-113034179D01*
X123539115Y-113034179D02*
X123537967Y-113032939D01*
X123537967Y-113032939D02*
X123537257Y-113031472D01*
X123537257Y-113031472D02*
X123536974Y-113029775D01*
X123536974Y-113029775D02*
X123537109Y-113027843D01*
X123537109Y-113027843D02*
X123537654Y-113025671D01*
X123537654Y-113025671D02*
X123538599Y-113023255D01*
X123538599Y-113023255D02*
X123539936Y-113020591D01*
X123539936Y-113020591D02*
X123543748Y-113014497D01*
X123543748Y-113014497D02*
X123549018Y-113007355D01*
X123549018Y-113007355D02*
X123555672Y-112999127D01*
X123555672Y-112999127D02*
X123563639Y-112989778D01*
X123563639Y-112989778D02*
X123567141Y-112985206D01*
X123567141Y-112985206D02*
X123570368Y-112980739D01*
X123570368Y-112980739D02*
X123573312Y-112976358D01*
X123573312Y-112976358D02*
X123575965Y-112972042D01*
X123575965Y-112972042D02*
X123578322Y-112967773D01*
X123578322Y-112967773D02*
X123580374Y-112963531D01*
X123580374Y-112963531D02*
X123582115Y-112959297D01*
X123582115Y-112959297D02*
X123583537Y-112955051D01*
X123583537Y-112955051D02*
X123584634Y-112950774D01*
X123584634Y-112950774D02*
X123585399Y-112946447D01*
X123585399Y-112946447D02*
X123585823Y-112942050D01*
X123585823Y-112942050D02*
X123585901Y-112937563D01*
X123585901Y-112937563D02*
X123585624Y-112932969D01*
X123585624Y-112932969D02*
X123584987Y-112928246D01*
X123584987Y-112928246D02*
X123583981Y-112923376D01*
X123583981Y-112923376D02*
X123582600Y-112918340D01*
X123582600Y-112918340D02*
X123580837Y-112913117D01*
X123580837Y-112913117D02*
X123578684Y-112907689D01*
X123578684Y-112907689D02*
X123576135Y-112902036D01*
X123576135Y-112902036D02*
X123573181Y-112896140D01*
X123573181Y-112896140D02*
X123569817Y-112889979D01*
X123569817Y-112889979D02*
X123566035Y-112883536D01*
X123566035Y-112883536D02*
X123561828Y-112876790D01*
X123561828Y-112876790D02*
X123557189Y-112869723D01*
X123557189Y-112869723D02*
X123552111Y-112862314D01*
X123552111Y-112862314D02*
X123546586Y-112854545D01*
X123546586Y-112854545D02*
X123534169Y-112837848D01*
X123534169Y-112837848D02*
X123519881Y-112819477D01*
X123519881Y-112819477D02*
X123503666Y-112799277D01*
X123503666Y-112799277D02*
X123475657Y-112766163D01*
X123475657Y-112766163D02*
X123437686Y-112723540D01*
X123437686Y-112723540D02*
X123391363Y-112673146D01*
X123391363Y-112673146D02*
X123338302Y-112616715D01*
X123338302Y-112616715D02*
X123280114Y-112555985D01*
X123280114Y-112555985D02*
X123218412Y-112492692D01*
X123218412Y-112492692D02*
X123154809Y-112428571D01*
X123154809Y-112428571D02*
X123090916Y-112365361D01*
X123090916Y-112365361D02*
X122787528Y-112065500D01*
X122787528Y-112065500D02*
X122501778Y-112358305D01*
X122501778Y-112358305D02*
X122411234Y-112449621D01*
X122411234Y-112449621D02*
X122340988Y-112518654D01*
X122340988Y-112518654D02*
X122312379Y-112545499D01*
X122312379Y-112545499D02*
X122287527Y-112567595D01*
X122287527Y-112567595D02*
X122265993Y-112585215D01*
X122265993Y-112585215D02*
X122247337Y-112598635D01*
X122247337Y-112598635D02*
X122231120Y-112608127D01*
X122231120Y-112608127D02*
X122223789Y-112611486D01*
X122223789Y-112611486D02*
X122216903Y-112613966D01*
X122216903Y-112613966D02*
X122210407Y-112615600D01*
X122210407Y-112615600D02*
X122204246Y-112616424D01*
X122204246Y-112616424D02*
X122198366Y-112616472D01*
X122198366Y-112616472D02*
X122192711Y-112615778D01*
X122192711Y-112615778D02*
X122187227Y-112614375D01*
X122187227Y-112614375D02*
X122181858Y-112612299D01*
X122181858Y-112612299D02*
X122171248Y-112606262D01*
X122171248Y-112606262D02*
X122160442Y-112597941D01*
X122160442Y-112597941D02*
X122149000Y-112587610D01*
X122149000Y-112587610D02*
X122135975Y-112575793D01*
X122135975Y-112575793D02*
X122130201Y-112570314D01*
X122130201Y-112570314D02*
X122125001Y-112565004D01*
X122125001Y-112565004D02*
X122120434Y-112559774D01*
X122120434Y-112559774D02*
X122116560Y-112554535D01*
X122116560Y-112554535D02*
X122114901Y-112551885D01*
X122114901Y-112551885D02*
X122113439Y-112549200D01*
X122113439Y-112549200D02*
X122112180Y-112546468D01*
X122112180Y-112546468D02*
X122111131Y-112543679D01*
X122111131Y-112543679D02*
X122110301Y-112540821D01*
X122110301Y-112540821D02*
X122109697Y-112537884D01*
X122109697Y-112537884D02*
X122109326Y-112534856D01*
X122109326Y-112534856D02*
X122109196Y-112531727D01*
X122109196Y-112531727D02*
X122109314Y-112528485D01*
X122109314Y-112528485D02*
X122109688Y-112525119D01*
X122109688Y-112525119D02*
X122110326Y-112521618D01*
X122110326Y-112521618D02*
X122111235Y-112517972D01*
X122111235Y-112517972D02*
X122112421Y-112514168D01*
X122112421Y-112514168D02*
X122113894Y-112510196D01*
X122113894Y-112510196D02*
X122115661Y-112506046D01*
X122115661Y-112506046D02*
X122117728Y-112501705D01*
X122117728Y-112501705D02*
X122120103Y-112497163D01*
X122120103Y-112497163D02*
X122122795Y-112492408D01*
X122122795Y-112492408D02*
X122129156Y-112482218D01*
X122129156Y-112482218D02*
X122136871Y-112471047D01*
X122136871Y-112471047D02*
X122146000Y-112458805D01*
X122146000Y-112458805D02*
X122156603Y-112445404D01*
X122156603Y-112445404D02*
X122168740Y-112430756D01*
X122168740Y-112430756D02*
X122182471Y-112414772D01*
X122182471Y-112414772D02*
X122197857Y-112397363D01*
X122197857Y-112397363D02*
X122214957Y-112378442D01*
X122214957Y-112378442D02*
X122233832Y-112357919D01*
X122233832Y-112357919D02*
X122254541Y-112335707D01*
X122254541Y-112335707D02*
X122277144Y-112311716D01*
X122277144Y-112311716D02*
X122328275Y-112258046D01*
X122328275Y-112258046D02*
X122387706Y-112196201D01*
X122387706Y-112196201D02*
X122455916Y-112125472D01*
X122455916Y-112125472D02*
X122667583Y-111906749D01*
X122667583Y-111906749D02*
X122244250Y-111483416D01*
X122244250Y-111483416D02*
X121820916Y-111060083D01*
X121820916Y-111060083D02*
X121566917Y-111314083D01*
X121566917Y-111314083D02*
X121312917Y-111564555D01*
X121312917Y-111564555D02*
X121270583Y-111469305D01*
X121270583Y-111469305D02*
X121263262Y-111452950D01*
X121263262Y-111452950D02*
X121260104Y-111445331D01*
X121260104Y-111445331D02*
X121257320Y-111438017D01*
X121257320Y-111438017D02*
X121254936Y-111430959D01*
X121254936Y-111430959D02*
X121252980Y-111424106D01*
X121252980Y-111424106D02*
X121251480Y-111417411D01*
X121251480Y-111417411D02*
X121250464Y-111410821D01*
X121250464Y-111410821D02*
X121249960Y-111404289D01*
X121249960Y-111404289D02*
X121249995Y-111397764D01*
X121249995Y-111397764D02*
X121250597Y-111391196D01*
X121250597Y-111391196D02*
X121251794Y-111384535D01*
X121251794Y-111384535D02*
X121253614Y-111377733D01*
X121253614Y-111377733D02*
X121256084Y-111370739D01*
X121256084Y-111370739D02*
X121259232Y-111363503D01*
X121259232Y-111363503D02*
X121263087Y-111355976D01*
X121263087Y-111355976D02*
X121267675Y-111348107D01*
X121267675Y-111348107D02*
X121273025Y-111339848D01*
X121273025Y-111339848D02*
X121279164Y-111331149D01*
X121279164Y-111331149D02*
X121286121Y-111321959D01*
X121286121Y-111321959D02*
X121293922Y-111312229D01*
X121293922Y-111312229D02*
X121302596Y-111301909D01*
X121302596Y-111301909D02*
X121312170Y-111290950D01*
X121312170Y-111290950D02*
X121322673Y-111279302D01*
X121322673Y-111279302D02*
X121346574Y-111253738D01*
X121346574Y-111253738D02*
X121374522Y-111224821D01*
X121374522Y-111224821D02*
X121406738Y-111192152D01*
X121406738Y-111192152D02*
X121443444Y-111155333D01*
X121443444Y-111155333D02*
X121487280Y-111110705D01*
X121487280Y-111110705D02*
X121528221Y-111067524D01*
X121528221Y-111067524D02*
X121565359Y-111026906D01*
X121565359Y-111026906D02*
X121597784Y-110989968D01*
X121597784Y-110989968D02*
X121624587Y-110957825D01*
X121624587Y-110957825D02*
X121644858Y-110931595D01*
X121644858Y-110931595D02*
X121652260Y-110921045D01*
X121652260Y-110921045D02*
X121657688Y-110912392D01*
X121657688Y-110912392D02*
X121661028Y-110905775D01*
X121661028Y-110905775D02*
X121662167Y-110901333D01*
X121662167Y-110901333D02*
X121661726Y-110898929D01*
X121661726Y-110898929D02*
X121660418Y-110895700D01*
X121660418Y-110895700D02*
X121655290Y-110886864D01*
X121655290Y-110886864D02*
X121646958Y-110875009D01*
X121646958Y-110875009D02*
X121635598Y-110860323D01*
X121635598Y-110860323D02*
X121621385Y-110842990D01*
X121621385Y-110842990D02*
X121604496Y-110823198D01*
X121604496Y-110823198D02*
X121563389Y-110776979D01*
X121563389Y-110776979D02*
X121513683Y-110723153D01*
X121513683Y-110723153D02*
X121456783Y-110663208D01*
X121456783Y-110663208D02*
X121394097Y-110598633D01*
X121394097Y-110598633D02*
X121327027Y-110530916D01*
X121327027Y-110530916D02*
X121222483Y-110426819D01*
X121222483Y-110426819D02*
X121142205Y-110344385D01*
X121142205Y-110344385D02*
X121110172Y-110309896D01*
X121110172Y-110309896D02*
X121083011Y-110279149D01*
X121083011Y-110279149D02*
X121060326Y-110251585D01*
X121060326Y-110251585D02*
X121041719Y-110226646D01*
X121041719Y-110226646D02*
X121026790Y-110203774D01*
X121026790Y-110203774D02*
X121015143Y-110182411D01*
X121015143Y-110182411D02*
X121006380Y-110161998D01*
X121006380Y-110161998D02*
X121000102Y-110141979D01*
X121000102Y-110141979D02*
X120995912Y-110121794D01*
X120995912Y-110121794D02*
X120993412Y-110100886D01*
X120993412Y-110100886D02*
X120992203Y-110078696D01*
X120992203Y-110078696D02*
X120991889Y-110054667D01*
X120991889Y-110054667D02*
X120991889Y-109913556D01*
X120991889Y-109913556D02*
X121401111Y-110326306D01*
X121401111Y-110326306D02*
X121562121Y-110487536D01*
X121562121Y-110487536D02*
X121697003Y-110618670D01*
X121697003Y-110618670D02*
X121750202Y-110668920D01*
X121750202Y-110668920D02*
X121791537Y-110706809D01*
X121791537Y-110706809D02*
X121819228Y-110730725D01*
X121819228Y-110730725D02*
X121827403Y-110736939D01*
X121827403Y-110736939D02*
X121831500Y-110739055D01*
X121831500Y-110739055D02*
X121836298Y-110736117D01*
X121836298Y-110736117D02*
X121845246Y-110728782D01*
X121845246Y-110728782D02*
X121874660Y-110701848D01*
X121874660Y-110701848D02*
X121917882Y-110660114D01*
X121917882Y-110660114D02*
X121973052Y-110605440D01*
X121973052Y-110605440D02*
X122038309Y-110539687D01*
X122038309Y-110539687D02*
X122111793Y-110464715D01*
X122111793Y-110464715D02*
X122191644Y-110382384D01*
X122191644Y-110382384D02*
X122276000Y-110294555D01*
X122276000Y-110294555D02*
X122699333Y-109857111D01*
X122699333Y-109857111D02*
X122254833Y-109412611D01*
X122254833Y-109412611D02*
X121810333Y-108968111D01*
X121810333Y-108968111D02*
X121397583Y-109387916D01*
X121397583Y-109387916D02*
X120988361Y-109807722D01*
X120988361Y-109807722D02*
X121009528Y-109648972D01*
X121009528Y-109648972D02*
X121013136Y-109623470D01*
X121013136Y-109623470D02*
X121017561Y-109599569D01*
X121017561Y-109599569D02*
X121023124Y-109576806D01*
X121023124Y-109576806D02*
X121026431Y-109565705D01*
X121026431Y-109565705D02*
X121030143Y-109554714D01*
X121030143Y-109554714D02*
X121034299Y-109543775D01*
X121034299Y-109543775D02*
X121038940Y-109532829D01*
X121038940Y-109532829D02*
X121044105Y-109521819D01*
X121044105Y-109521819D02*
X121049835Y-109510686D01*
X121049835Y-109510686D02*
X121056170Y-109499372D01*
X121056170Y-109499372D02*
X121063149Y-109487819D01*
X121063149Y-109487819D02*
X121070813Y-109475969D01*
X121070813Y-109475969D02*
X121079201Y-109463764D01*
X121079201Y-109463764D02*
X121098313Y-109438055D01*
X121098313Y-109438055D02*
X121120804Y-109410227D01*
X121120804Y-109410227D02*
X121146995Y-109379815D01*
X121146995Y-109379815D02*
X121177207Y-109346355D01*
X121177207Y-109346355D02*
X121211760Y-109309380D01*
X121211760Y-109309380D02*
X121250974Y-109268427D01*
X121250974Y-109268427D02*
X121344666Y-109172722D01*
X121344666Y-109172722D02*
X121408952Y-109107644D01*
X121408952Y-109107644D02*
X121468690Y-109045667D01*
X121468690Y-109045667D02*
X121522640Y-108988237D01*
X121522640Y-108988237D02*
X121569562Y-108936802D01*
X121569562Y-108936802D02*
X121608216Y-108892808D01*
X121608216Y-108892808D02*
X121637362Y-108857702D01*
X121637362Y-108857702D02*
X121655759Y-108832932D01*
X121655759Y-108832932D02*
X121660539Y-108824875D01*
X121660539Y-108824875D02*
X121662167Y-108819944D01*
X121662167Y-108819944D02*
X121661920Y-108818045D01*
X121661920Y-108818045D02*
X121661190Y-108815664D01*
X121661190Y-108815664D02*
X121658322Y-108809513D01*
X121658322Y-108809513D02*
X121653655Y-108801604D01*
X121653655Y-108801604D02*
X121647284Y-108792053D01*
X121647284Y-108792053D02*
X121639300Y-108780972D01*
X121639300Y-108780972D02*
X121629797Y-108768474D01*
X121629797Y-108768474D02*
X121618867Y-108754675D01*
X121618867Y-108754675D02*
X121606604Y-108739687D01*
X121606604Y-108739687D02*
X121593101Y-108723624D01*
X121593101Y-108723624D02*
X121578451Y-108706600D01*
X121578451Y-108706600D02*
X121546081Y-108670124D01*
X121546081Y-108670124D02*
X121510238Y-108631167D01*
X121510238Y-108631167D02*
X121471667Y-108590638D01*
X121471667Y-108590638D02*
X121408766Y-108526442D01*
X121408766Y-108526442D02*
X121383463Y-108500171D01*
X121383463Y-108500171D02*
X121362030Y-108477253D01*
X121362030Y-108477253D02*
X121344297Y-108457292D01*
X121344297Y-108457292D02*
X121330094Y-108439888D01*
X121330094Y-108439888D02*
X121319249Y-108424644D01*
X121319249Y-108424644D02*
X121315034Y-108417708D01*
X121315034Y-108417708D02*
X121311593Y-108411163D01*
X121311593Y-108411163D02*
X121308908Y-108404958D01*
X121308908Y-108404958D02*
X121306956Y-108399046D01*
X121306956Y-108399046D02*
X121305715Y-108393374D01*
X121305715Y-108393374D02*
X121305165Y-108387895D01*
X121305165Y-108387895D02*
X121305284Y-108382557D01*
X121305284Y-108382557D02*
X121306051Y-108377312D01*
X121306051Y-108377312D02*
X121307445Y-108372110D01*
X121307445Y-108372110D02*
X121309444Y-108366900D01*
X121309444Y-108366900D02*
X121312027Y-108361634D01*
X121312027Y-108361634D02*
X121315172Y-108356261D01*
X121315172Y-108356261D02*
X121323066Y-108344996D01*
X121323066Y-108344996D02*
X121332954Y-108332709D01*
X121332954Y-108332709D02*
X121344666Y-108319000D01*
X121344666Y-108319000D02*
X121408166Y-108237861D01*
X121408166Y-108237861D02*
X121612778Y-108456583D01*
X121612778Y-108456583D02*
X121813861Y-108678833D01*
X121813861Y-108678833D02*
X122233666Y-108237861D01*
X122233666Y-108237861D02*
X122649944Y-107800416D01*
X122649944Y-107800416D02*
X122378305Y-107525250D01*
X122378305Y-107525250D02*
X122324417Y-107470721D01*
X122324417Y-107470721D02*
X122274622Y-107419086D01*
X122274622Y-107419086D02*
X122230035Y-107371585D01*
X122230035Y-107371585D02*
X122191774Y-107329458D01*
X122191774Y-107329458D02*
X122160954Y-107293946D01*
X122160954Y-107293946D02*
X122138692Y-107266289D01*
X122138692Y-107266289D02*
X122131119Y-107255793D01*
X122131119Y-107255793D02*
X122126104Y-107247727D01*
X122126104Y-107247727D02*
X122123786Y-107242244D01*
X122123786Y-107242244D02*
X122123682Y-107240520D01*
X122123682Y-107240520D02*
X122124305Y-107239500D01*
X122124305Y-107239500D02*
X122125952Y-107238555D01*
X122125952Y-107238555D02*
X122128219Y-107237067D01*
X122128219Y-107237067D02*
X122134448Y-107232610D01*
X122134448Y-107232610D02*
X122142661Y-107226415D01*
X122142661Y-107226415D02*
X122152528Y-107218774D01*
X122152528Y-107218774D02*
X122175899Y-107200308D01*
X122175899Y-107200308D02*
X122201916Y-107179528D01*
X122201916Y-107179528D02*
X122207143Y-107175750D01*
X122207143Y-107175750D02*
X122212267Y-107172371D01*
X122212267Y-107172371D02*
X122217332Y-107169421D01*
X122217332Y-107169421D02*
X122222380Y-107166926D01*
X122222380Y-107166926D02*
X122227454Y-107164913D01*
X122227454Y-107164913D02*
X122232597Y-107163412D01*
X122232597Y-107163412D02*
X122237850Y-107162450D01*
X122237850Y-107162450D02*
X122243258Y-107162054D01*
X122243258Y-107162054D02*
X122248861Y-107162253D01*
X122248861Y-107162253D02*
X122254704Y-107163073D01*
X122254704Y-107163073D02*
X122260828Y-107164543D01*
X122260828Y-107164543D02*
X122267277Y-107166691D01*
X122267277Y-107166691D02*
X122274092Y-107169544D01*
X122274092Y-107169544D02*
X122281317Y-107173131D01*
X122281317Y-107173131D02*
X122288994Y-107177478D01*
X122288994Y-107177478D02*
X122297166Y-107182614D01*
X122297166Y-107182614D02*
X122305876Y-107188567D01*
X122305876Y-107188567D02*
X122315165Y-107195364D01*
X122315165Y-107195364D02*
X122325078Y-107203033D01*
X122325078Y-107203033D02*
X122335655Y-107211601D01*
X122335655Y-107211601D02*
X122346941Y-107221098D01*
X122346941Y-107221098D02*
X122358977Y-107231549D01*
X122358977Y-107231549D02*
X122371806Y-107242984D01*
X122371806Y-107242984D02*
X122385471Y-107255430D01*
X122385471Y-107255430D02*
X122415480Y-107283465D01*
X122415480Y-107283465D02*
X122449343Y-107315877D01*
X122449343Y-107315877D02*
X122487403Y-107352889D01*
X122487403Y-107352889D02*
X122530000Y-107394722D01*
X122530000Y-107394722D02*
X122794583Y-107655777D01*
X122794583Y-107655777D02*
X122995666Y-107444111D01*
X122995666Y-107444111D02*
X123203806Y-107223184D01*
X123203806Y-107223184D02*
X123319120Y-107100318D01*
X123319120Y-107100318D02*
X123422528Y-106989027D01*
X123422528Y-106989027D02*
X123478133Y-106930837D01*
X123478133Y-106930837D02*
X123528037Y-106880858D01*
X123528037Y-106880858D02*
X123551241Y-106859060D01*
X123551241Y-106859060D02*
X123573488Y-106839448D01*
X123573488Y-106839448D02*
X123594931Y-106822066D01*
X123594931Y-106822066D02*
X123615729Y-106806961D01*
X123615729Y-106806961D02*
X123636035Y-106794176D01*
X123636035Y-106794176D02*
X123656006Y-106783756D01*
X123656006Y-106783756D02*
X123675798Y-106775745D01*
X123675798Y-106775745D02*
X123695565Y-106770188D01*
X123695565Y-106770188D02*
X123715465Y-106767130D01*
X123715465Y-106767130D02*
X123735652Y-106766615D01*
X123735652Y-106766615D02*
X123756282Y-106768687D01*
X123756282Y-106768687D02*
X123777510Y-106773392D01*
X123777510Y-106773392D02*
X123799494Y-106780774D01*
X123799494Y-106780774D02*
X123822387Y-106790877D01*
X123822387Y-106790877D02*
X123846346Y-106803746D01*
X123846346Y-106803746D02*
X123871527Y-106819426D01*
X123871527Y-106819426D02*
X123898085Y-106837960D01*
X123898085Y-106837960D02*
X123926176Y-106859395D01*
X123926176Y-106859395D02*
X123955955Y-106883774D01*
X123955955Y-106883774D02*
X123987578Y-106911141D01*
X123987578Y-106911141D02*
X124021202Y-106941542D01*
X124021202Y-106941542D02*
X124056981Y-106975021D01*
X124056981Y-106975021D02*
X124135628Y-107051391D01*
X124135628Y-107051391D02*
X124224765Y-107140608D01*
X124224765Y-107140608D02*
X124325639Y-107243028D01*
X124325639Y-107243028D02*
X124766611Y-107691056D01*
X124766611Y-107691056D02*
X124890083Y-107553472D01*
X124890083Y-107553472D02*
X124929963Y-107509195D01*
X124929963Y-107509195D02*
X124946482Y-107491414D01*
X124946482Y-107491414D02*
X124961079Y-107476412D01*
X124961079Y-107476412D02*
X124974022Y-107464098D01*
X124974022Y-107464098D02*
X124979958Y-107458919D01*
X124979958Y-107458919D02*
X124985581Y-107454377D01*
X124985581Y-107454377D02*
X124990925Y-107450461D01*
X124990925Y-107450461D02*
X124996023Y-107447158D01*
X124996023Y-107447158D02*
X125000909Y-107444457D01*
X125000909Y-107444457D02*
X125005617Y-107442347D01*
X125005617Y-107442347D02*
X125010181Y-107440815D01*
X125010181Y-107440815D02*
X125014633Y-107439851D01*
X125014633Y-107439851D02*
X125019008Y-107439442D01*
X125019008Y-107439442D02*
X125023339Y-107439577D01*
X125023339Y-107439577D02*
X125027660Y-107440244D01*
X125027660Y-107440244D02*
X125032003Y-107441432D01*
X125032003Y-107441432D02*
X125036404Y-107443129D01*
X125036404Y-107443129D02*
X125040895Y-107445324D01*
X125040895Y-107445324D02*
X125045510Y-107448004D01*
X125045510Y-107448004D02*
X125050283Y-107451158D01*
X125050283Y-107451158D02*
X125060436Y-107458842D01*
X125060436Y-107458842D02*
X125071622Y-107468284D01*
X125071622Y-107468284D02*
X125084110Y-107479389D01*
X125084110Y-107479389D02*
X125097079Y-107491220D01*
X125097079Y-107491220D02*
X125108157Y-107501775D01*
X125108157Y-107501775D02*
X125112964Y-107506666D01*
X125112964Y-107506666D02*
X125117271Y-107511348D01*
X125117271Y-107511348D02*
X125121069Y-107515858D01*
X125121069Y-107515858D02*
X125124349Y-107520234D01*
X125124349Y-107520234D02*
X125127102Y-107524511D01*
X125127102Y-107524511D02*
X125129319Y-107528727D01*
X125129319Y-107528727D02*
X125130990Y-107532918D01*
X125130990Y-107532918D02*
X125132108Y-107537121D01*
X125132108Y-107537121D02*
X125132662Y-107541374D01*
X125132662Y-107541374D02*
X125132643Y-107545713D01*
X125132643Y-107545713D02*
X125132044Y-107550174D01*
X125132044Y-107550174D02*
X125130854Y-107554795D01*
X125130854Y-107554795D02*
X125129064Y-107559612D01*
X125129064Y-107559612D02*
X125126666Y-107564662D01*
X125126666Y-107564662D02*
X125123651Y-107569983D01*
X125123651Y-107569983D02*
X125120009Y-107575610D01*
X125120009Y-107575610D02*
X125115731Y-107581581D01*
X125115731Y-107581581D02*
X125110808Y-107587932D01*
X125110808Y-107587932D02*
X125105232Y-107594701D01*
X125105232Y-107594701D02*
X125098993Y-107601924D01*
X125098993Y-107601924D02*
X125092083Y-107609637D01*
X125092083Y-107609637D02*
X125084491Y-107617879D01*
X125084491Y-107617879D02*
X125067230Y-107636092D01*
X125067230Y-107636092D02*
X125024139Y-107680472D01*
X125024139Y-107680472D02*
X124893611Y-107814528D01*
X124893611Y-107814528D02*
X124964166Y-107909777D01*
X124964166Y-107909777D02*
X124971556Y-107919609D01*
X124971556Y-107919609D02*
X124979132Y-107929228D01*
X124979132Y-107929228D02*
X124986831Y-107938590D01*
X124986831Y-107938590D02*
X124994593Y-107947646D01*
X124994593Y-107947646D02*
X125002355Y-107956351D01*
X125002355Y-107956351D02*
X125010055Y-107964658D01*
X125010055Y-107964658D02*
X125017631Y-107972520D01*
X125017631Y-107972520D02*
X125025020Y-107979892D01*
X125025020Y-107979892D02*
X125032162Y-107986726D01*
X125032162Y-107986726D02*
X125038994Y-107992977D01*
X125038994Y-107992977D02*
X125045453Y-107998596D01*
X125045453Y-107998596D02*
X125051479Y-108003539D01*
X125051479Y-108003539D02*
X125057008Y-108007759D01*
X125057008Y-108007759D02*
X125061979Y-108011208D01*
X125061979Y-108011208D02*
X125066331Y-108013841D01*
X125066331Y-108013841D02*
X125070000Y-108015611D01*
X125070000Y-108015611D02*
X125072168Y-108016036D01*
X125072168Y-108016036D02*
X125074696Y-108015997D01*
X125074696Y-108015997D02*
X125077572Y-108015502D01*
X125077572Y-108015502D02*
X125080783Y-108014564D01*
X125080783Y-108014564D02*
X125084317Y-108013191D01*
X125084317Y-108013191D02*
X125088161Y-108011394D01*
X125088161Y-108011394D02*
X125096733Y-108006571D01*
X125096733Y-108006571D02*
X125106401Y-108000177D01*
X125106401Y-108000177D02*
X125117066Y-107992295D01*
X125117066Y-107992295D02*
X125128631Y-107983007D01*
X125128631Y-107983007D02*
X125140996Y-107972396D01*
X125140996Y-107972396D02*
X125154064Y-107960545D01*
X125154064Y-107960545D02*
X125167737Y-107947536D01*
X125167737Y-107947536D02*
X125181916Y-107933452D01*
X125181916Y-107933452D02*
X125196503Y-107918377D01*
X125196503Y-107918377D02*
X125211401Y-107902391D01*
X125211401Y-107902391D02*
X125226510Y-107885579D01*
X125226510Y-107885579D02*
X125241733Y-107868023D01*
X125241733Y-107868023D02*
X125256972Y-107849805D01*
X125256972Y-107849805D02*
X125405138Y-107673417D01*
X125405138Y-107673417D02*
X125147610Y-107415889D01*
X125147610Y-107415889D02*
X125093626Y-107362545D01*
X125093626Y-107362545D02*
X125038525Y-107309284D01*
X125038525Y-107309284D02*
X124983838Y-107257511D01*
X124983838Y-107257511D02*
X124931093Y-107208632D01*
X124931093Y-107208632D02*
X124881821Y-107164052D01*
X124881821Y-107164052D02*
X124837552Y-107125178D01*
X124837552Y-107125178D02*
X124799814Y-107093414D01*
X124799814Y-107093414D02*
X124770139Y-107070166D01*
X124770139Y-107070166D02*
X124650194Y-106981972D01*
X124650194Y-106981972D02*
X124741917Y-106805583D01*
X124741917Y-106805583D02*
X124777089Y-106741636D01*
X124777089Y-106741636D02*
X124817585Y-106676992D01*
X124817585Y-106676992D02*
X124863103Y-106611944D01*
X124863103Y-106611944D02*
X124913344Y-106546788D01*
X124913344Y-106546788D02*
X124968009Y-106481817D01*
X124968009Y-106481817D02*
X125026798Y-106417328D01*
X125026798Y-106417328D02*
X125089411Y-106353613D01*
X125089411Y-106353613D02*
X125155548Y-106290969D01*
X125155548Y-106290969D02*
X125224910Y-106229688D01*
X125224910Y-106229688D02*
X125297197Y-106170066D01*
X125297197Y-106170066D02*
X125372109Y-106112398D01*
X125372109Y-106112398D02*
X125449346Y-106056978D01*
X125449346Y-106056978D02*
X125528609Y-106004100D01*
X125528609Y-106004100D02*
X125609598Y-105954059D01*
X125609598Y-105954059D02*
X125692014Y-105907149D01*
X125692014Y-105907149D02*
X125775555Y-105863666D01*
X125775555Y-105863666D02*
X125820563Y-105840180D01*
X125820563Y-105840180D02*
X125860449Y-105818487D01*
X125860449Y-105818487D02*
X125895385Y-105798314D01*
X125895385Y-105798314D02*
X125925541Y-105779386D01*
X125925541Y-105779386D02*
X125951087Y-105761429D01*
X125951087Y-105761429D02*
X125962185Y-105752729D01*
X125962185Y-105752729D02*
X125972195Y-105744170D01*
X125972195Y-105744170D02*
X125981137Y-105735716D01*
X125981137Y-105735716D02*
X125989033Y-105727335D01*
X125989033Y-105727335D02*
X125995905Y-105718990D01*
X125995905Y-105718990D02*
X126001774Y-105710649D01*
X126001774Y-105710649D02*
X126006661Y-105702277D01*
X126006661Y-105702277D02*
X126010587Y-105693840D01*
X126010587Y-105693840D02*
X126013575Y-105685303D01*
X126013575Y-105685303D02*
X126015644Y-105676632D01*
X126015644Y-105676632D02*
X126016817Y-105667794D01*
X126016817Y-105667794D02*
X126017114Y-105658753D01*
X126017114Y-105658753D02*
X126016558Y-105649476D01*
X126016558Y-105649476D02*
X126015169Y-105639928D01*
X126015169Y-105639928D02*
X126012968Y-105630075D01*
X126012968Y-105630075D02*
X126009978Y-105619884D01*
X126009978Y-105619884D02*
X126001712Y-105598346D01*
X126001712Y-105598346D02*
X125990542Y-105575040D01*
X125990542Y-105575040D02*
X125976639Y-105549694D01*
X125976639Y-105549694D02*
X125963231Y-105527889D01*
X125963231Y-105527889D02*
X125948176Y-105506798D01*
X125948176Y-105506798D02*
X125931520Y-105486435D01*
X125931520Y-105486435D02*
X125913311Y-105466812D01*
X125913311Y-105466812D02*
X125893595Y-105447941D01*
X125893595Y-105447941D02*
X125872420Y-105429833D01*
X125872420Y-105429833D02*
X125849833Y-105412503D01*
X125849833Y-105412503D02*
X125825881Y-105395960D01*
X125825881Y-105395960D02*
X125800611Y-105380219D01*
X125800611Y-105380219D02*
X125774071Y-105365291D01*
X125774071Y-105365291D02*
X125746307Y-105351189D01*
X125746307Y-105351189D02*
X125717367Y-105337924D01*
X125717367Y-105337924D02*
X125687298Y-105325510D01*
X125687298Y-105325510D02*
X125656147Y-105313958D01*
X125656147Y-105313958D02*
X125623961Y-105303280D01*
X125623961Y-105303280D02*
X125590788Y-105293489D01*
X125590788Y-105293489D02*
X125521666Y-105276618D01*
X125521666Y-105276618D02*
X125449160Y-105263441D01*
X125449160Y-105263441D02*
X125373646Y-105254058D01*
X125373646Y-105254058D02*
X125295502Y-105248565D01*
X125295502Y-105248565D02*
X125215104Y-105247062D01*
X125215104Y-105247062D02*
X125132831Y-105249647D01*
X125132831Y-105249647D02*
X125049059Y-105256417D01*
X125049059Y-105256417D02*
X124964166Y-105267472D01*
X124964166Y-105267472D02*
X124913730Y-105274899D01*
X124913730Y-105274899D02*
X124866270Y-105281252D01*
X124866270Y-105281252D02*
X124822780Y-105286448D01*
X124822780Y-105286448D02*
X124784250Y-105290403D01*
X124784250Y-105290403D02*
X124751673Y-105293035D01*
X124751673Y-105293035D02*
X124726041Y-105294261D01*
X124726041Y-105294261D02*
X124708348Y-105293999D01*
X124708348Y-105293999D02*
X124702787Y-105293285D01*
X124702787Y-105293285D02*
X124699583Y-105292167D01*
X124699583Y-105292167D02*
X124698973Y-105290857D01*
X124698973Y-105290857D02*
X124698466Y-105288922D01*
X124698466Y-105288922D02*
X124697757Y-105283244D01*
X124697757Y-105283244D02*
X124697452Y-105275261D01*
X124697452Y-105275261D02*
X124697544Y-105265102D01*
X124697544Y-105265102D02*
X124698029Y-105252897D01*
X124698029Y-105252897D02*
X124698901Y-105238774D01*
X124698901Y-105238774D02*
X124701788Y-105205295D01*
X124701788Y-105205295D02*
X124706163Y-105165697D01*
X124706163Y-105165697D02*
X124711985Y-105121014D01*
X124711985Y-105121014D02*
X124719213Y-105072280D01*
X124719213Y-105072280D02*
X124727805Y-105020527D01*
X124727805Y-105020527D02*
X124738427Y-104962905D01*
X124738427Y-104962905D02*
X124751756Y-104903835D01*
X124751756Y-104903835D02*
X124767772Y-104843360D01*
X124767772Y-104843360D02*
X124786455Y-104781520D01*
X124786455Y-104781520D02*
X124807783Y-104718358D01*
X124807783Y-104718358D02*
X124831737Y-104653914D01*
X124831737Y-104653914D02*
X124858295Y-104588230D01*
X124858295Y-104588230D02*
X124887437Y-104521347D01*
X124887437Y-104521347D02*
X124919142Y-104453306D01*
X124919142Y-104453306D02*
X124953390Y-104384150D01*
X124953390Y-104384150D02*
X124990159Y-104313918D01*
X124990159Y-104313918D02*
X125029430Y-104242653D01*
X125029430Y-104242653D02*
X125071181Y-104170395D01*
X125071181Y-104170395D02*
X125115392Y-104097187D01*
X125115392Y-104097187D02*
X125162042Y-104023069D01*
X125162042Y-104023069D02*
X125211111Y-103948083D01*
X125211111Y-103948083D02*
X125249682Y-103888952D01*
X125249682Y-103888952D02*
X125285525Y-103831556D01*
X125285525Y-103831556D02*
X125317895Y-103777303D01*
X125317895Y-103777303D02*
X125346048Y-103727597D01*
X125346048Y-103727597D02*
X125369240Y-103683845D01*
X125369240Y-103683845D02*
X125386728Y-103647451D01*
X125386728Y-103647451D02*
X125393099Y-103632453D01*
X125393099Y-103632453D02*
X125397766Y-103619821D01*
X125397766Y-103619821D02*
X125400634Y-103609732D01*
X125400634Y-103609732D02*
X125401611Y-103602362D01*
X125401611Y-103602362D02*
X125401278Y-103593318D01*
X125401278Y-103593318D02*
X125400276Y-103584705D01*
X125400276Y-103584705D02*
X125398593Y-103576522D01*
X125398593Y-103576522D02*
X125396222Y-103568765D01*
X125396222Y-103568765D02*
X125393154Y-103561431D01*
X125393154Y-103561431D02*
X125389379Y-103554519D01*
X125389379Y-103554519D02*
X125384888Y-103548026D01*
X125384888Y-103548026D02*
X125379672Y-103541948D01*
X125379672Y-103541948D02*
X125373723Y-103536284D01*
X125373723Y-103536284D02*
X125367030Y-103531031D01*
X125367030Y-103531031D02*
X125359586Y-103526185D01*
X125359586Y-103526185D02*
X125351381Y-103521746D01*
X125351381Y-103521746D02*
X125342406Y-103517710D01*
X125342406Y-103517710D02*
X125332652Y-103514074D01*
X125332652Y-103514074D02*
X125322110Y-103510836D01*
X125322110Y-103510836D02*
X125310770Y-103507993D01*
X125310770Y-103507993D02*
X125298625Y-103505543D01*
X125298625Y-103505543D02*
X125285664Y-103503484D01*
X125285664Y-103503484D02*
X125271879Y-103501811D01*
X125271879Y-103501811D02*
X125257261Y-103500524D01*
X125257261Y-103500524D02*
X125241800Y-103499620D01*
X125241800Y-103499620D02*
X125225489Y-103499095D01*
X125225489Y-103499095D02*
X125208316Y-103498947D01*
X125208316Y-103498947D02*
X125190275Y-103499174D01*
X125190275Y-103499174D02*
X125171354Y-103499773D01*
X125171354Y-103499773D02*
X125151547Y-103500741D01*
X125151547Y-103500741D02*
X125130842Y-103502077D01*
X125130842Y-103502077D02*
X125109232Y-103503777D01*
X125109232Y-103503777D02*
X125086708Y-103505838D01*
X125086708Y-103505838D02*
X125063259Y-103508259D01*
X125063259Y-103508259D02*
X125013555Y-103514167D01*
X125013555Y-103514167D02*
X124951171Y-103523222D01*
X124951171Y-103523222D02*
X124889697Y-103534514D01*
X124889697Y-103534514D02*
X124829132Y-103548048D01*
X124829132Y-103548048D02*
X124769477Y-103563831D01*
X124769477Y-103563831D02*
X124710731Y-103581867D01*
X124710731Y-103581867D02*
X124652895Y-103602161D01*
X124652895Y-103602161D02*
X124595968Y-103624719D01*
X124595968Y-103624719D02*
X124539951Y-103649545D01*
X124539951Y-103649545D02*
X124484843Y-103676645D01*
X124484843Y-103676645D02*
X124430645Y-103706024D01*
X124430645Y-103706024D02*
X124377356Y-103737687D01*
X124377356Y-103737687D02*
X124324977Y-103771639D01*
X124324977Y-103771639D02*
X124273507Y-103807886D01*
X124273507Y-103807886D02*
X124222947Y-103846432D01*
X124222947Y-103846432D02*
X124173296Y-103887283D01*
X124173296Y-103887283D02*
X124124555Y-103930444D01*
X124124555Y-103930444D02*
X124076090Y-103973108D01*
X124076090Y-103973108D02*
X124033825Y-104008496D01*
X124033825Y-104008496D02*
X124014993Y-104023462D01*
X124014993Y-104023462D02*
X123997679Y-104036608D01*
X123997679Y-104036608D02*
X123981875Y-104047936D01*
X123981875Y-104047936D02*
X123967569Y-104057444D01*
X123967569Y-104057444D02*
X123954752Y-104065134D01*
X123954752Y-104065134D02*
X123943412Y-104071004D01*
X123943412Y-104071004D02*
X123933541Y-104075055D01*
X123933541Y-104075055D02*
X123925126Y-104077288D01*
X123925126Y-104077288D02*
X123921462Y-104077722D01*
X123921462Y-104077722D02*
X123918158Y-104077701D01*
X123918158Y-104077701D02*
X123915214Y-104077226D01*
X123915214Y-104077226D02*
X123912627Y-104076296D01*
X123912627Y-104076296D02*
X123910397Y-104074911D01*
X123910397Y-104074911D02*
X123908522Y-104073071D01*
X123908522Y-104073071D02*
X123907002Y-104070777D01*
X123907002Y-104070777D02*
X123905833Y-104068028D01*
X123905833Y-104068028D02*
X123879593Y-103988840D01*
X123879593Y-103988840D02*
X123855156Y-103906473D01*
X123855156Y-103906473D02*
X123832590Y-103821554D01*
X123832590Y-103821554D02*
X123811961Y-103734708D01*
X123811961Y-103734708D02*
X123793338Y-103646559D01*
X123793338Y-103646559D02*
X123776787Y-103557733D01*
X123776787Y-103557733D02*
X123762375Y-103468856D01*
X123762375Y-103468856D02*
X123750170Y-103380552D01*
X123750170Y-103380552D02*
X123740238Y-103293447D01*
X123740238Y-103293447D02*
X123732648Y-103208167D01*
X123732648Y-103208167D02*
X123727466Y-103125335D01*
X123727466Y-103125335D02*
X123724759Y-103045579D01*
X123724759Y-103045579D02*
X123724594Y-102969522D01*
X123724594Y-102969522D02*
X123727040Y-102897791D01*
X123727040Y-102897791D02*
X123732162Y-102831011D01*
X123732162Y-102831011D02*
X123740028Y-102769806D01*
X123740028Y-102769806D02*
X123745392Y-102734139D01*
X123745392Y-102734139D02*
X123749581Y-102700561D01*
X123749581Y-102700561D02*
X123752596Y-102669074D01*
X123752596Y-102669074D02*
X123754442Y-102639678D01*
X123754442Y-102639678D02*
X123755119Y-102612375D01*
X123755119Y-102612375D02*
X123754631Y-102587166D01*
X123754631Y-102587166D02*
X123752980Y-102564052D01*
X123752980Y-102564052D02*
X123750170Y-102543036D01*
X123750170Y-102543036D02*
X123746201Y-102524117D01*
X123746201Y-102524117D02*
X123741078Y-102507298D01*
X123741078Y-102507298D02*
X123734802Y-102492580D01*
X123734802Y-102492580D02*
X123727377Y-102479963D01*
X123727377Y-102479963D02*
X123718804Y-102469450D01*
X123718804Y-102469450D02*
X123709087Y-102461041D01*
X123709087Y-102461041D02*
X123698227Y-102454738D01*
X123698227Y-102454738D02*
X123686229Y-102450542D01*
X123686229Y-102450542D02*
X123673093Y-102448454D01*
X123673093Y-102448454D02*
X123658823Y-102448476D01*
X123658823Y-102448476D02*
X123643421Y-102450609D01*
X123643421Y-102450609D02*
X123626890Y-102454855D01*
X123626890Y-102454855D02*
X123609233Y-102461214D01*
X123609233Y-102461214D02*
X123590452Y-102469688D01*
X123590452Y-102469688D02*
X123570549Y-102480278D01*
X123570549Y-102480278D02*
X123549527Y-102492985D01*
X123549527Y-102492985D02*
X123527390Y-102507811D01*
X123527390Y-102507811D02*
X123504138Y-102524757D01*
X123504138Y-102524757D02*
X123479776Y-102543825D01*
X123479776Y-102543825D02*
X123454305Y-102565015D01*
X123454305Y-102565015D02*
X123400048Y-102613768D01*
X123400048Y-102613768D02*
X123341389Y-102671027D01*
X123341389Y-102671027D02*
X123341389Y-102671027D01*
G36*
X123686229Y-102450542D02*
G01*
X123698227Y-102454738D01*
X123709087Y-102461041D01*
X123718804Y-102469450D01*
X123727377Y-102479963D01*
X123734802Y-102492580D01*
X123741078Y-102507298D01*
X123746201Y-102524117D01*
X123750170Y-102543036D01*
X123752980Y-102564052D01*
X123754631Y-102587166D01*
X123755119Y-102612375D01*
X123754442Y-102639678D01*
X123752596Y-102669074D01*
X123749581Y-102700561D01*
X123745392Y-102734139D01*
X123740028Y-102769806D01*
X123732162Y-102831011D01*
X123727040Y-102897791D01*
X123724594Y-102969522D01*
X123724759Y-103045579D01*
X123727466Y-103125335D01*
X123732648Y-103208167D01*
X123740238Y-103293447D01*
X123750170Y-103380552D01*
X123762375Y-103468856D01*
X123776787Y-103557733D01*
X123793338Y-103646559D01*
X123811961Y-103734708D01*
X123832590Y-103821554D01*
X123855156Y-103906473D01*
X123879593Y-103988840D01*
X123905833Y-104068028D01*
X123907002Y-104070777D01*
X123908522Y-104073071D01*
X123910397Y-104074911D01*
X123912627Y-104076296D01*
X123915214Y-104077226D01*
X123918158Y-104077701D01*
X123921462Y-104077722D01*
X123925126Y-104077288D01*
X123933541Y-104075055D01*
X123943412Y-104071004D01*
X123954752Y-104065134D01*
X123967569Y-104057444D01*
X123981875Y-104047936D01*
X123997679Y-104036608D01*
X124014993Y-104023462D01*
X124033825Y-104008496D01*
X124076090Y-103973108D01*
X124124555Y-103930444D01*
X124173296Y-103887283D01*
X124222947Y-103846432D01*
X124273507Y-103807886D01*
X124324977Y-103771639D01*
X124377356Y-103737687D01*
X124430645Y-103706024D01*
X124484843Y-103676645D01*
X124539951Y-103649545D01*
X124595968Y-103624719D01*
X124652895Y-103602161D01*
X124710731Y-103581867D01*
X124769477Y-103563831D01*
X124829132Y-103548048D01*
X124889697Y-103534514D01*
X124951171Y-103523222D01*
X125013555Y-103514167D01*
X125063259Y-103508259D01*
X125086708Y-103505838D01*
X125109232Y-103503777D01*
X125130842Y-103502077D01*
X125151547Y-103500741D01*
X125171354Y-103499773D01*
X125190275Y-103499174D01*
X125208316Y-103498947D01*
X125225489Y-103499095D01*
X125241800Y-103499620D01*
X125257261Y-103500524D01*
X125271879Y-103501811D01*
X125285664Y-103503484D01*
X125298625Y-103505543D01*
X125310770Y-103507993D01*
X125322110Y-103510836D01*
X125332652Y-103514074D01*
X125342406Y-103517710D01*
X125351381Y-103521746D01*
X125359586Y-103526185D01*
X125367030Y-103531031D01*
X125373723Y-103536284D01*
X125379672Y-103541948D01*
X125384888Y-103548026D01*
X125389379Y-103554519D01*
X125393154Y-103561431D01*
X125396222Y-103568765D01*
X125398593Y-103576522D01*
X125400276Y-103584705D01*
X125401278Y-103593318D01*
X125401611Y-103602362D01*
X125400634Y-103609732D01*
X125397766Y-103619821D01*
X125393099Y-103632453D01*
X125386728Y-103647451D01*
X125369240Y-103683845D01*
X125346048Y-103727597D01*
X125317895Y-103777303D01*
X125285525Y-103831556D01*
X125249682Y-103888952D01*
X125211111Y-103948083D01*
X125162042Y-104023069D01*
X125115392Y-104097187D01*
X125071181Y-104170395D01*
X125029430Y-104242653D01*
X124990159Y-104313918D01*
X124953390Y-104384150D01*
X124919142Y-104453306D01*
X124887437Y-104521347D01*
X124858295Y-104588230D01*
X124831737Y-104653914D01*
X124807783Y-104718358D01*
X124786455Y-104781520D01*
X124767772Y-104843360D01*
X124751756Y-104903835D01*
X124738427Y-104962905D01*
X124727805Y-105020527D01*
X124719213Y-105072280D01*
X124711985Y-105121014D01*
X124706163Y-105165697D01*
X124701788Y-105205295D01*
X124698901Y-105238774D01*
X124698029Y-105252897D01*
X124697544Y-105265102D01*
X124697452Y-105275261D01*
X124697757Y-105283244D01*
X124698466Y-105288922D01*
X124698973Y-105290857D01*
X124699583Y-105292167D01*
X124702787Y-105293285D01*
X124708348Y-105293999D01*
X124726041Y-105294261D01*
X124751673Y-105293035D01*
X124784250Y-105290403D01*
X124822780Y-105286448D01*
X124866270Y-105281252D01*
X124913730Y-105274899D01*
X124964166Y-105267472D01*
X125049059Y-105256417D01*
X125132831Y-105249647D01*
X125215104Y-105247062D01*
X125295502Y-105248565D01*
X125373646Y-105254058D01*
X125449160Y-105263441D01*
X125521666Y-105276618D01*
X125590788Y-105293489D01*
X125623961Y-105303280D01*
X125656147Y-105313958D01*
X125687298Y-105325510D01*
X125717367Y-105337924D01*
X125746307Y-105351189D01*
X125774071Y-105365291D01*
X125800611Y-105380219D01*
X125825881Y-105395960D01*
X125849833Y-105412503D01*
X125872420Y-105429833D01*
X125893595Y-105447941D01*
X125913311Y-105466812D01*
X125931520Y-105486435D01*
X125948176Y-105506798D01*
X125963231Y-105527889D01*
X125976639Y-105549694D01*
X125990542Y-105575040D01*
X126001712Y-105598346D01*
X126009978Y-105619884D01*
X126012968Y-105630075D01*
X126015169Y-105639928D01*
X126016558Y-105649476D01*
X126017114Y-105658753D01*
X126016817Y-105667794D01*
X126015644Y-105676632D01*
X126013575Y-105685303D01*
X126010587Y-105693840D01*
X126006661Y-105702277D01*
X126001774Y-105710649D01*
X125995905Y-105718990D01*
X125989033Y-105727335D01*
X125981137Y-105735716D01*
X125972195Y-105744170D01*
X125962185Y-105752729D01*
X125951087Y-105761429D01*
X125925541Y-105779386D01*
X125895385Y-105798314D01*
X125860449Y-105818487D01*
X125820563Y-105840180D01*
X125775555Y-105863666D01*
X125692014Y-105907149D01*
X125609598Y-105954059D01*
X125528609Y-106004100D01*
X125449346Y-106056978D01*
X125372109Y-106112398D01*
X125297197Y-106170066D01*
X125224910Y-106229688D01*
X125155548Y-106290969D01*
X125089411Y-106353613D01*
X125026798Y-106417328D01*
X124968009Y-106481817D01*
X124913344Y-106546788D01*
X124863103Y-106611944D01*
X124817585Y-106676992D01*
X124777089Y-106741636D01*
X124741917Y-106805583D01*
X124650194Y-106981972D01*
X124770139Y-107070166D01*
X124799814Y-107093414D01*
X124837552Y-107125178D01*
X124881821Y-107164052D01*
X124931093Y-107208632D01*
X124983838Y-107257511D01*
X125038525Y-107309284D01*
X125093626Y-107362545D01*
X125147610Y-107415889D01*
X125405138Y-107673417D01*
X125256972Y-107849805D01*
X125241733Y-107868023D01*
X125226510Y-107885579D01*
X125211401Y-107902391D01*
X125196503Y-107918377D01*
X125181916Y-107933452D01*
X125167737Y-107947536D01*
X125154064Y-107960545D01*
X125140996Y-107972396D01*
X125128631Y-107983007D01*
X125117066Y-107992295D01*
X125106401Y-108000177D01*
X125096733Y-108006571D01*
X125088161Y-108011394D01*
X125084317Y-108013191D01*
X125080783Y-108014564D01*
X125077572Y-108015502D01*
X125074696Y-108015997D01*
X125072168Y-108016036D01*
X125070000Y-108015611D01*
X125066331Y-108013841D01*
X125061979Y-108011208D01*
X125057008Y-108007759D01*
X125051479Y-108003539D01*
X125045453Y-107998596D01*
X125038994Y-107992977D01*
X125032162Y-107986726D01*
X125025020Y-107979892D01*
X125017631Y-107972520D01*
X125010055Y-107964658D01*
X125002355Y-107956351D01*
X124994593Y-107947646D01*
X124986831Y-107938590D01*
X124979132Y-107929228D01*
X124971556Y-107919609D01*
X124964166Y-107909777D01*
X124893611Y-107814528D01*
X125024139Y-107680472D01*
X125067230Y-107636092D01*
X125084491Y-107617879D01*
X125092083Y-107609637D01*
X125098993Y-107601924D01*
X125105232Y-107594701D01*
X125110808Y-107587932D01*
X125115731Y-107581581D01*
X125120009Y-107575610D01*
X125123651Y-107569983D01*
X125126666Y-107564662D01*
X125129064Y-107559612D01*
X125130854Y-107554795D01*
X125132044Y-107550174D01*
X125132643Y-107545713D01*
X125132662Y-107541374D01*
X125132108Y-107537121D01*
X125130990Y-107532918D01*
X125129319Y-107528727D01*
X125127102Y-107524511D01*
X125124349Y-107520234D01*
X125121069Y-107515858D01*
X125117271Y-107511348D01*
X125112964Y-107506666D01*
X125108157Y-107501775D01*
X125097079Y-107491220D01*
X125084110Y-107479389D01*
X125071622Y-107468284D01*
X125060436Y-107458842D01*
X125050283Y-107451158D01*
X125045510Y-107448004D01*
X125040895Y-107445324D01*
X125036404Y-107443129D01*
X125032003Y-107441432D01*
X125027660Y-107440244D01*
X125023339Y-107439577D01*
X125019008Y-107439442D01*
X125014633Y-107439851D01*
X125010181Y-107440815D01*
X125005617Y-107442347D01*
X125000909Y-107444457D01*
X124996023Y-107447158D01*
X124990925Y-107450461D01*
X124985581Y-107454377D01*
X124979958Y-107458919D01*
X124974022Y-107464098D01*
X124961079Y-107476412D01*
X124946482Y-107491414D01*
X124929963Y-107509195D01*
X124890083Y-107553472D01*
X124766611Y-107691056D01*
X124325639Y-107243028D01*
X124224765Y-107140608D01*
X124135628Y-107051391D01*
X124056981Y-106975021D01*
X124021202Y-106941542D01*
X123987578Y-106911141D01*
X123955955Y-106883774D01*
X123926176Y-106859395D01*
X123898085Y-106837960D01*
X123871527Y-106819426D01*
X123846346Y-106803746D01*
X123822387Y-106790877D01*
X123799494Y-106780774D01*
X123777510Y-106773392D01*
X123756282Y-106768687D01*
X123735652Y-106766615D01*
X123715465Y-106767130D01*
X123695565Y-106770188D01*
X123675798Y-106775745D01*
X123656006Y-106783756D01*
X123636035Y-106794176D01*
X123615729Y-106806961D01*
X123594931Y-106822066D01*
X123573488Y-106839448D01*
X123551241Y-106859060D01*
X123528037Y-106880858D01*
X123478133Y-106930837D01*
X123422528Y-106989027D01*
X123319120Y-107100318D01*
X123203806Y-107223184D01*
X122995666Y-107444111D01*
X122794583Y-107655777D01*
X122530000Y-107394722D01*
X122487403Y-107352889D01*
X122449343Y-107315877D01*
X122415480Y-107283465D01*
X122385471Y-107255430D01*
X122371806Y-107242984D01*
X122358977Y-107231549D01*
X122346941Y-107221098D01*
X122335655Y-107211601D01*
X122325078Y-107203033D01*
X122315165Y-107195364D01*
X122305876Y-107188567D01*
X122297166Y-107182614D01*
X122288994Y-107177478D01*
X122281317Y-107173131D01*
X122274092Y-107169544D01*
X122267277Y-107166691D01*
X122260828Y-107164543D01*
X122254704Y-107163073D01*
X122248861Y-107162253D01*
X122243258Y-107162054D01*
X122237850Y-107162450D01*
X122232597Y-107163412D01*
X122227454Y-107164913D01*
X122222380Y-107166926D01*
X122217332Y-107169421D01*
X122212267Y-107172371D01*
X122207143Y-107175750D01*
X122201916Y-107179528D01*
X122175899Y-107200308D01*
X122152528Y-107218774D01*
X122142661Y-107226415D01*
X122134448Y-107232610D01*
X122128219Y-107237067D01*
X122125952Y-107238555D01*
X122124305Y-107239500D01*
X122123682Y-107240520D01*
X122123786Y-107242244D01*
X122126104Y-107247727D01*
X122131119Y-107255793D01*
X122138692Y-107266289D01*
X122160954Y-107293946D01*
X122191774Y-107329458D01*
X122230035Y-107371585D01*
X122274622Y-107419086D01*
X122324417Y-107470721D01*
X122378305Y-107525250D01*
X122649944Y-107800416D01*
X122233666Y-108237861D01*
X121813861Y-108678833D01*
X121612778Y-108456583D01*
X121408166Y-108237861D01*
X121344666Y-108319000D01*
X121332954Y-108332709D01*
X121323066Y-108344996D01*
X121315172Y-108356261D01*
X121312027Y-108361634D01*
X121309444Y-108366900D01*
X121307445Y-108372110D01*
X121306051Y-108377312D01*
X121305284Y-108382557D01*
X121305165Y-108387895D01*
X121305715Y-108393374D01*
X121306956Y-108399046D01*
X121308908Y-108404958D01*
X121311593Y-108411163D01*
X121315034Y-108417708D01*
X121319249Y-108424644D01*
X121330094Y-108439888D01*
X121344297Y-108457292D01*
X121362030Y-108477253D01*
X121383463Y-108500171D01*
X121408766Y-108526442D01*
X121471667Y-108590638D01*
X121510238Y-108631167D01*
X121546081Y-108670124D01*
X121578451Y-108706600D01*
X121593101Y-108723624D01*
X121606604Y-108739687D01*
X121618867Y-108754675D01*
X121629797Y-108768474D01*
X121639300Y-108780972D01*
X121647284Y-108792053D01*
X121653655Y-108801604D01*
X121658322Y-108809513D01*
X121661190Y-108815664D01*
X121661920Y-108818045D01*
X121662167Y-108819944D01*
X121660539Y-108824875D01*
X121655759Y-108832932D01*
X121637362Y-108857702D01*
X121608216Y-108892808D01*
X121569562Y-108936802D01*
X121522640Y-108988237D01*
X121468690Y-109045667D01*
X121408952Y-109107644D01*
X121344666Y-109172722D01*
X121250974Y-109268427D01*
X121211760Y-109309380D01*
X121177207Y-109346355D01*
X121146995Y-109379815D01*
X121120804Y-109410227D01*
X121098313Y-109438055D01*
X121079201Y-109463764D01*
X121070813Y-109475969D01*
X121063149Y-109487819D01*
X121056170Y-109499372D01*
X121049835Y-109510686D01*
X121044105Y-109521819D01*
X121038940Y-109532829D01*
X121034299Y-109543775D01*
X121030143Y-109554714D01*
X121026431Y-109565705D01*
X121023124Y-109576806D01*
X121017561Y-109599569D01*
X121013136Y-109623470D01*
X121009528Y-109648972D01*
X120988361Y-109807722D01*
X121397583Y-109387916D01*
X121810333Y-108968111D01*
X122699333Y-109857111D01*
X122276000Y-110294555D01*
X122191644Y-110382384D01*
X122111793Y-110464715D01*
X122038309Y-110539687D01*
X121973052Y-110605440D01*
X121917882Y-110660114D01*
X121874660Y-110701848D01*
X121845246Y-110728782D01*
X121836298Y-110736117D01*
X121831500Y-110739055D01*
X121827403Y-110736939D01*
X121819228Y-110730725D01*
X121791537Y-110706809D01*
X121750202Y-110668920D01*
X121697003Y-110618670D01*
X121562121Y-110487536D01*
X121401111Y-110326306D01*
X120991889Y-109913556D01*
X120991889Y-110054667D01*
X120992203Y-110078696D01*
X120993412Y-110100886D01*
X120995912Y-110121794D01*
X121000102Y-110141979D01*
X121006380Y-110161998D01*
X121015143Y-110182411D01*
X121026790Y-110203774D01*
X121041719Y-110226646D01*
X121060326Y-110251585D01*
X121083011Y-110279149D01*
X121110172Y-110309896D01*
X121142205Y-110344385D01*
X121222483Y-110426819D01*
X121327027Y-110530916D01*
X121394097Y-110598633D01*
X121456783Y-110663208D01*
X121513683Y-110723153D01*
X121563389Y-110776979D01*
X121604496Y-110823198D01*
X121621385Y-110842990D01*
X121635598Y-110860323D01*
X121646958Y-110875009D01*
X121655290Y-110886864D01*
X121660418Y-110895700D01*
X121661726Y-110898929D01*
X121662167Y-110901333D01*
X121661028Y-110905775D01*
X121657688Y-110912392D01*
X121652260Y-110921045D01*
X121644858Y-110931595D01*
X121624587Y-110957825D01*
X121597784Y-110989968D01*
X121565359Y-111026906D01*
X121528221Y-111067524D01*
X121487280Y-111110705D01*
X121443444Y-111155333D01*
X121406738Y-111192152D01*
X121374522Y-111224821D01*
X121346574Y-111253738D01*
X121322673Y-111279302D01*
X121312170Y-111290950D01*
X121302596Y-111301909D01*
X121293922Y-111312229D01*
X121286121Y-111321959D01*
X121279164Y-111331149D01*
X121273025Y-111339848D01*
X121267675Y-111348107D01*
X121263087Y-111355976D01*
X121259232Y-111363503D01*
X121256084Y-111370739D01*
X121253614Y-111377733D01*
X121251794Y-111384535D01*
X121250597Y-111391196D01*
X121249995Y-111397764D01*
X121249960Y-111404289D01*
X121250464Y-111410821D01*
X121251480Y-111417411D01*
X121252980Y-111424106D01*
X121254936Y-111430959D01*
X121257320Y-111438017D01*
X121260104Y-111445331D01*
X121263262Y-111452950D01*
X121270583Y-111469305D01*
X121312917Y-111564555D01*
X121566917Y-111314083D01*
X121820916Y-111060083D01*
X122244250Y-111483416D01*
X122667583Y-111906749D01*
X122455916Y-112125472D01*
X122387706Y-112196201D01*
X122328275Y-112258046D01*
X122277144Y-112311716D01*
X122254541Y-112335707D01*
X122233832Y-112357919D01*
X122214957Y-112378442D01*
X122197857Y-112397363D01*
X122182471Y-112414772D01*
X122168740Y-112430756D01*
X122156603Y-112445404D01*
X122146000Y-112458805D01*
X122136871Y-112471047D01*
X122129156Y-112482218D01*
X122122795Y-112492408D01*
X122120103Y-112497163D01*
X122117728Y-112501705D01*
X122115661Y-112506046D01*
X122113894Y-112510196D01*
X122112421Y-112514168D01*
X122111235Y-112517972D01*
X122110326Y-112521618D01*
X122109688Y-112525119D01*
X122109314Y-112528485D01*
X122109196Y-112531727D01*
X122109326Y-112534856D01*
X122109697Y-112537884D01*
X122110301Y-112540821D01*
X122111131Y-112543679D01*
X122112180Y-112546468D01*
X122113439Y-112549200D01*
X122114901Y-112551885D01*
X122116560Y-112554535D01*
X122120434Y-112559774D01*
X122125001Y-112565004D01*
X122130201Y-112570314D01*
X122135975Y-112575793D01*
X122149000Y-112587610D01*
X122160442Y-112597941D01*
X122171248Y-112606262D01*
X122181858Y-112612299D01*
X122187227Y-112614375D01*
X122192711Y-112615778D01*
X122198366Y-112616472D01*
X122204246Y-112616424D01*
X122210407Y-112615600D01*
X122216903Y-112613966D01*
X122223789Y-112611486D01*
X122231120Y-112608127D01*
X122247337Y-112598635D01*
X122265993Y-112585215D01*
X122287527Y-112567595D01*
X122312379Y-112545499D01*
X122340988Y-112518654D01*
X122411234Y-112449621D01*
X122501778Y-112358305D01*
X122787528Y-112065500D01*
X123090916Y-112365361D01*
X123154809Y-112428571D01*
X123218412Y-112492692D01*
X123280114Y-112555985D01*
X123338302Y-112616715D01*
X123391363Y-112673146D01*
X123437686Y-112723540D01*
X123475657Y-112766163D01*
X123503666Y-112799277D01*
X123519881Y-112819477D01*
X123534169Y-112837848D01*
X123546586Y-112854545D01*
X123552111Y-112862314D01*
X123557189Y-112869723D01*
X123561828Y-112876790D01*
X123566035Y-112883536D01*
X123569817Y-112889979D01*
X123573181Y-112896140D01*
X123576135Y-112902036D01*
X123578684Y-112907689D01*
X123580837Y-112913117D01*
X123582600Y-112918340D01*
X123583981Y-112923376D01*
X123584987Y-112928246D01*
X123585624Y-112932969D01*
X123585901Y-112937563D01*
X123585823Y-112942050D01*
X123585399Y-112946447D01*
X123584634Y-112950774D01*
X123583537Y-112955051D01*
X123582115Y-112959297D01*
X123580374Y-112963531D01*
X123578322Y-112967773D01*
X123575965Y-112972042D01*
X123573312Y-112976358D01*
X123570368Y-112980739D01*
X123567141Y-112985206D01*
X123563639Y-112989778D01*
X123555672Y-112999127D01*
X123549018Y-113007355D01*
X123543748Y-113014497D01*
X123539936Y-113020591D01*
X123538599Y-113023255D01*
X123537654Y-113025671D01*
X123537109Y-113027843D01*
X123536974Y-113029775D01*
X123537257Y-113031472D01*
X123537967Y-113032939D01*
X123539115Y-113034179D01*
X123540708Y-113035198D01*
X123542756Y-113035999D01*
X123545268Y-113036589D01*
X123548252Y-113036970D01*
X123551718Y-113037148D01*
X123560133Y-113036911D01*
X123570584Y-113035914D01*
X123583143Y-113034194D01*
X123597883Y-113031787D01*
X123634194Y-113025055D01*
X123659185Y-113019943D01*
X123685953Y-113015243D01*
X123713631Y-113011040D01*
X123741350Y-113007416D01*
X123768243Y-113004453D01*
X123793440Y-113002235D01*
X123816075Y-113000843D01*
X123835278Y-113000361D01*
X123839866Y-113000299D01*
X123844367Y-113000116D01*
X123848779Y-112999814D01*
X123853096Y-112999396D01*
X123857314Y-112998864D01*
X123861431Y-112998221D01*
X123865442Y-112997470D01*
X123869343Y-112996612D01*
X123873130Y-112995651D01*
X123876799Y-112994590D01*
X123880348Y-112993430D01*
X123883771Y-112992175D01*
X123887064Y-112990827D01*
X123890225Y-112989388D01*
X123893249Y-112987861D01*
X123896132Y-112986249D01*
X123898870Y-112984555D01*
X123901459Y-112982780D01*
X123903897Y-112980928D01*
X123906177Y-112979001D01*
X123908298Y-112977001D01*
X123910255Y-112974932D01*
X123912043Y-112972796D01*
X123913660Y-112970595D01*
X123915101Y-112968332D01*
X123916363Y-112966009D01*
X123917441Y-112963630D01*
X123918332Y-112961197D01*
X123919031Y-112958711D01*
X123919536Y-112956177D01*
X123919841Y-112953596D01*
X123919944Y-112950972D01*
X123922139Y-112943489D01*
X123928577Y-112931789D01*
X123939036Y-112916121D01*
X123953293Y-112896732D01*
X123992312Y-112847784D01*
X124043857Y-112786930D01*
X124106152Y-112716154D01*
X124177417Y-112637440D01*
X124255876Y-112552773D01*
X124339750Y-112464138D01*
X124759555Y-112030222D01*
X125105277Y-112368888D01*
X125172305Y-112294805D01*
X125183442Y-112282303D01*
X125192935Y-112271027D01*
X125200629Y-112260629D01*
X125203754Y-112255651D01*
X125206370Y-112250763D01*
X125208460Y-112245921D01*
X125210003Y-112241083D01*
X125210981Y-112236205D01*
X125211373Y-112231243D01*
X125211160Y-112226155D01*
X125210324Y-112220897D01*
X125208844Y-112215425D01*
X125206701Y-112209697D01*
X125203876Y-112203670D01*
X125200350Y-112197299D01*
X125196103Y-112190543D01*
X125191116Y-112183356D01*
X125178842Y-112167522D01*
X125163376Y-112149450D01*
X125144560Y-112128794D01*
X125122241Y-112105208D01*
X125066472Y-112047860D01*
X124893611Y-111871472D01*
X125225222Y-111525750D01*
X125293249Y-111454561D01*
X125358671Y-111387505D01*
X125419877Y-111326072D01*
X125475253Y-111271750D01*
X125523188Y-111226026D01*
X125562070Y-111190390D01*
X125577611Y-111176820D01*
X125590285Y-111166330D01*
X125599889Y-111159106D01*
X125606222Y-111155333D01*
X125608980Y-111154113D01*
X125611956Y-111153096D01*
X125618528Y-111151661D01*
X125625864Y-111151000D01*
X125633893Y-111151088D01*
X125642542Y-111151901D01*
X125651739Y-111153410D01*
X125661411Y-111155592D01*
X125671486Y-111158420D01*
X125681892Y-111161867D01*
X125692556Y-111165909D01*
X125703406Y-111170520D01*
X125714370Y-111175673D01*
X125725376Y-111181343D01*
X125736350Y-111187503D01*
X125747221Y-111194129D01*
X125757916Y-111201194D01*
X125856694Y-111275277D01*
X125786139Y-111458722D01*
X125746850Y-111552442D01*
X125702017Y-111646741D01*
X125652046Y-111741123D01*
X125597348Y-111835091D01*
X125538329Y-111928150D01*
X125475398Y-112019804D01*
X125408964Y-112109555D01*
X125339434Y-112196909D01*
X125267217Y-112281369D01*
X125192721Y-112362439D01*
X125116354Y-112439623D01*
X125038525Y-112512425D01*
X124959642Y-112580348D01*
X124880113Y-112642897D01*
X124800346Y-112699576D01*
X124720750Y-112749888D01*
X124571037Y-112833315D01*
X124422136Y-112906330D01*
X124273947Y-112968937D01*
X124126374Y-113021141D01*
X123979318Y-113062948D01*
X123832680Y-113094363D01*
X123686362Y-113115391D01*
X123540267Y-113126037D01*
X123394296Y-113126307D01*
X123248350Y-113116205D01*
X123102333Y-113095737D01*
X122956144Y-113064908D01*
X122809687Y-113023722D01*
X122662863Y-112972186D01*
X122515574Y-112910305D01*
X122367722Y-112838083D01*
X122251131Y-112773053D01*
X122138292Y-112701161D01*
X122029402Y-112622654D01*
X121924655Y-112537781D01*
X121824250Y-112446789D01*
X121728381Y-112349927D01*
X121637246Y-112247442D01*
X121551041Y-112139583D01*
X121469963Y-112026598D01*
X121394207Y-111908734D01*
X121323970Y-111786240D01*
X121259449Y-111659364D01*
X121200839Y-111528354D01*
X121148337Y-111393458D01*
X121102140Y-111254924D01*
X121062444Y-111112999D01*
X121018566Y-110920313D01*
X120983441Y-110722615D01*
X120956978Y-110520927D01*
X120939082Y-110316273D01*
X120929662Y-110109676D01*
X120928623Y-109902159D01*
X120935873Y-109694745D01*
X120951319Y-109488458D01*
X120974868Y-109284321D01*
X121006427Y-109083356D01*
X121045903Y-108886588D01*
X121093202Y-108695039D01*
X121148232Y-108509733D01*
X121210900Y-108331692D01*
X121281113Y-108161940D01*
X121358778Y-108001500D01*
X121401182Y-107924664D01*
X121447482Y-107847849D01*
X121497358Y-107771406D01*
X121550490Y-107695686D01*
X121606557Y-107621041D01*
X121665239Y-107547822D01*
X121726216Y-107476381D01*
X121789166Y-107407069D01*
X121853771Y-107340238D01*
X121919708Y-107276238D01*
X121986658Y-107215422D01*
X122054301Y-107158140D01*
X122122316Y-107104745D01*
X122190382Y-107055587D01*
X122258180Y-107011018D01*
X122325389Y-106971389D01*
X122335877Y-106962099D01*
X122341662Y-106948909D01*
X122342920Y-106932015D01*
X122339824Y-106911609D01*
X122332550Y-106887886D01*
X122321273Y-106861039D01*
X122287410Y-106798748D01*
X122239636Y-106726287D01*
X122179351Y-106645207D01*
X122107956Y-106557057D01*
X122026850Y-106463389D01*
X121937436Y-106365751D01*
X121841112Y-106265696D01*
X121739279Y-106164772D01*
X121633338Y-106064530D01*
X121524689Y-105966520D01*
X121414733Y-105872293D01*
X121304870Y-105783400D01*
X121196500Y-105701389D01*
X121141981Y-105661616D01*
X121093395Y-105625466D01*
X121050555Y-105592675D01*
X121031232Y-105577456D01*
X121013276Y-105562979D01*
X120996663Y-105549209D01*
X120981371Y-105536115D01*
X120967376Y-105523662D01*
X120954654Y-105511819D01*
X120943183Y-105500552D01*
X120932940Y-105489828D01*
X120923900Y-105479614D01*
X120916042Y-105469878D01*
X120909340Y-105460586D01*
X120903774Y-105451706D01*
X120899318Y-105443204D01*
X120895950Y-105435048D01*
X120893646Y-105427205D01*
X120892384Y-105419641D01*
X120892140Y-105412324D01*
X120892890Y-105405220D01*
X120894613Y-105398298D01*
X120897283Y-105391524D01*
X120900878Y-105384864D01*
X120905375Y-105378287D01*
X120910751Y-105371758D01*
X120916982Y-105365246D01*
X120924045Y-105358717D01*
X120931916Y-105352138D01*
X120965058Y-105331194D01*
X121009362Y-105312079D01*
X121063505Y-105294886D01*
X121126165Y-105279709D01*
X121196017Y-105266640D01*
X121271741Y-105255772D01*
X121352011Y-105247199D01*
X121435507Y-105241013D01*
X121520904Y-105237308D01*
X121606880Y-105236177D01*
X121692111Y-105237711D01*
X121775276Y-105242006D01*
X121855051Y-105249153D01*
X121930112Y-105259245D01*
X121999138Y-105272376D01*
X122060805Y-105288639D01*
X122078946Y-105293681D01*
X122096290Y-105298216D01*
X122112787Y-105302235D01*
X122128384Y-105305726D01*
X122143031Y-105308680D01*
X122156676Y-105311087D01*
X122169266Y-105312935D01*
X122180750Y-105314215D01*
X122191077Y-105314916D01*
X122195790Y-105315046D01*
X122200194Y-105315028D01*
X122204283Y-105314860D01*
X122208050Y-105314541D01*
X122211490Y-105314069D01*
X122214594Y-105313443D01*
X122217358Y-105312663D01*
X122219774Y-105311726D01*
X122221836Y-105310631D01*
X122223538Y-105309378D01*
X122224873Y-105307965D01*
X122225834Y-105306389D01*
X122226416Y-105304652D01*
X122226611Y-105302750D01*
X122225959Y-105297603D01*
X122224041Y-105290189D01*
X122216634Y-105269070D01*
X122204845Y-105240428D01*
X122189128Y-105205295D01*
X122169939Y-105164704D01*
X122147732Y-105119691D01*
X122122962Y-105071287D01*
X122096083Y-105020527D01*
X122063791Y-104960950D01*
X122030399Y-104903904D01*
X121995880Y-104849360D01*
X121960209Y-104797285D01*
X121923359Y-104747650D01*
X121885305Y-104700423D01*
X121846022Y-104655573D01*
X121805482Y-104613069D01*
X121763662Y-104572881D01*
X121720533Y-104534976D01*
X121676072Y-104499324D01*
X121630251Y-104465895D01*
X121583046Y-104434657D01*
X121534429Y-104405578D01*
X121484376Y-104378629D01*
X121432861Y-104353778D01*
X121398892Y-104338500D01*
X121368314Y-104324329D01*
X121340959Y-104311129D01*
X121316665Y-104298767D01*
X121295264Y-104287107D01*
X121285597Y-104281498D01*
X121276591Y-104276015D01*
X121268227Y-104270641D01*
X121260482Y-104265358D01*
X121253337Y-104260150D01*
X121246770Y-104255000D01*
X121240762Y-104249892D01*
X121235291Y-104244808D01*
X121230337Y-104239732D01*
X121225879Y-104234647D01*
X121221897Y-104229536D01*
X121218369Y-104224382D01*
X121215275Y-104219169D01*
X121212595Y-104213880D01*
X121210308Y-104208497D01*
X121208392Y-104203005D01*
X121206828Y-104197387D01*
X121205595Y-104191624D01*
X121204671Y-104185702D01*
X121204038Y-104179603D01*
X121203672Y-104173310D01*
X121203555Y-104166806D01*
X121204033Y-104148632D01*
X121205726Y-104132375D01*
X121209020Y-104117886D01*
X121214304Y-104105014D01*
X121221965Y-104093610D01*
X121232391Y-104083524D01*
X121245969Y-104074605D01*
X121263087Y-104066705D01*
X121284132Y-104059672D01*
X121309492Y-104053358D01*
X121339555Y-104047613D01*
X121374708Y-104042286D01*
X121415338Y-104037228D01*
X121461834Y-104032288D01*
X121573972Y-104022167D01*
X121632268Y-104018066D01*
X121691918Y-104016317D01*
X121752705Y-104016872D01*
X121814412Y-104019686D01*
X121876822Y-104024712D01*
X121939717Y-104031902D01*
X122002881Y-104041212D01*
X122066097Y-104052594D01*
X122129147Y-104066001D01*
X122191815Y-104081388D01*
X122253884Y-104098707D01*
X122315136Y-104117913D01*
X122375355Y-104138958D01*
X122434323Y-104161796D01*
X122491823Y-104186381D01*
X122547639Y-104212667D01*
X122568580Y-104222996D01*
X122588994Y-104232793D01*
X122608767Y-104242022D01*
X122627785Y-104250646D01*
X122645936Y-104258629D01*
X122663104Y-104265935D01*
X122679177Y-104272528D01*
X122694041Y-104278372D01*
X122707582Y-104283430D01*
X122719687Y-104287666D01*
X122730241Y-104291045D01*
X122739131Y-104293530D01*
X122746243Y-104295084D01*
X122751464Y-104295672D01*
X122753330Y-104295593D01*
X122754680Y-104295258D01*
X122755501Y-104294664D01*
X122755777Y-104293805D01*
X122760497Y-104223181D01*
X122771046Y-104123700D01*
X122785977Y-104005203D01*
X122803844Y-103877528D01*
X122823198Y-103750514D01*
X122842594Y-103634001D01*
X122860584Y-103537828D01*
X122875722Y-103471833D01*
X122894245Y-103413541D01*
X122914107Y-103356395D01*
X122935323Y-103300387D01*
X122957908Y-103245505D01*
X122981878Y-103191739D01*
X123007249Y-103139079D01*
X123034035Y-103087514D01*
X123062253Y-103037035D01*
X123091918Y-102987630D01*
X123123045Y-102939291D01*
X123155651Y-102892005D01*
X123189749Y-102845763D01*
X123225357Y-102800555D01*
X123262489Y-102756370D01*
X123301161Y-102713197D01*
X123341389Y-102671027D01*
X123400048Y-102613768D01*
X123454305Y-102565015D01*
X123479776Y-102543825D01*
X123504138Y-102524757D01*
X123527390Y-102507811D01*
X123549527Y-102492985D01*
X123570549Y-102480278D01*
X123590452Y-102469688D01*
X123609233Y-102461214D01*
X123626890Y-102454855D01*
X123643421Y-102450609D01*
X123658823Y-102448476D01*
X123673093Y-102448454D01*
X123686229Y-102450542D01*
G37*
X123686229Y-102450542D02*
X123698227Y-102454738D01*
X123709087Y-102461041D01*
X123718804Y-102469450D01*
X123727377Y-102479963D01*
X123734802Y-102492580D01*
X123741078Y-102507298D01*
X123746201Y-102524117D01*
X123750170Y-102543036D01*
X123752980Y-102564052D01*
X123754631Y-102587166D01*
X123755119Y-102612375D01*
X123754442Y-102639678D01*
X123752596Y-102669074D01*
X123749581Y-102700561D01*
X123745392Y-102734139D01*
X123740028Y-102769806D01*
X123732162Y-102831011D01*
X123727040Y-102897791D01*
X123724594Y-102969522D01*
X123724759Y-103045579D01*
X123727466Y-103125335D01*
X123732648Y-103208167D01*
X123740238Y-103293447D01*
X123750170Y-103380552D01*
X123762375Y-103468856D01*
X123776787Y-103557733D01*
X123793338Y-103646559D01*
X123811961Y-103734708D01*
X123832590Y-103821554D01*
X123855156Y-103906473D01*
X123879593Y-103988840D01*
X123905833Y-104068028D01*
X123907002Y-104070777D01*
X123908522Y-104073071D01*
X123910397Y-104074911D01*
X123912627Y-104076296D01*
X123915214Y-104077226D01*
X123918158Y-104077701D01*
X123921462Y-104077722D01*
X123925126Y-104077288D01*
X123933541Y-104075055D01*
X123943412Y-104071004D01*
X123954752Y-104065134D01*
X123967569Y-104057444D01*
X123981875Y-104047936D01*
X123997679Y-104036608D01*
X124014993Y-104023462D01*
X124033825Y-104008496D01*
X124076090Y-103973108D01*
X124124555Y-103930444D01*
X124173296Y-103887283D01*
X124222947Y-103846432D01*
X124273507Y-103807886D01*
X124324977Y-103771639D01*
X124377356Y-103737687D01*
X124430645Y-103706024D01*
X124484843Y-103676645D01*
X124539951Y-103649545D01*
X124595968Y-103624719D01*
X124652895Y-103602161D01*
X124710731Y-103581867D01*
X124769477Y-103563831D01*
X124829132Y-103548048D01*
X124889697Y-103534514D01*
X124951171Y-103523222D01*
X125013555Y-103514167D01*
X125063259Y-103508259D01*
X125086708Y-103505838D01*
X125109232Y-103503777D01*
X125130842Y-103502077D01*
X125151547Y-103500741D01*
X125171354Y-103499773D01*
X125190275Y-103499174D01*
X125208316Y-103498947D01*
X125225489Y-103499095D01*
X125241800Y-103499620D01*
X125257261Y-103500524D01*
X125271879Y-103501811D01*
X125285664Y-103503484D01*
X125298625Y-103505543D01*
X125310770Y-103507993D01*
X125322110Y-103510836D01*
X125332652Y-103514074D01*
X125342406Y-103517710D01*
X125351381Y-103521746D01*
X125359586Y-103526185D01*
X125367030Y-103531031D01*
X125373723Y-103536284D01*
X125379672Y-103541948D01*
X125384888Y-103548026D01*
X125389379Y-103554519D01*
X125393154Y-103561431D01*
X125396222Y-103568765D01*
X125398593Y-103576522D01*
X125400276Y-103584705D01*
X125401278Y-103593318D01*
X125401611Y-103602362D01*
X125400634Y-103609732D01*
X125397766Y-103619821D01*
X125393099Y-103632453D01*
X125386728Y-103647451D01*
X125369240Y-103683845D01*
X125346048Y-103727597D01*
X125317895Y-103777303D01*
X125285525Y-103831556D01*
X125249682Y-103888952D01*
X125211111Y-103948083D01*
X125162042Y-104023069D01*
X125115392Y-104097187D01*
X125071181Y-104170395D01*
X125029430Y-104242653D01*
X124990159Y-104313918D01*
X124953390Y-104384150D01*
X124919142Y-104453306D01*
X124887437Y-104521347D01*
X124858295Y-104588230D01*
X124831737Y-104653914D01*
X124807783Y-104718358D01*
X124786455Y-104781520D01*
X124767772Y-104843360D01*
X124751756Y-104903835D01*
X124738427Y-104962905D01*
X124727805Y-105020527D01*
X124719213Y-105072280D01*
X124711985Y-105121014D01*
X124706163Y-105165697D01*
X124701788Y-105205295D01*
X124698901Y-105238774D01*
X124698029Y-105252897D01*
X124697544Y-105265102D01*
X124697452Y-105275261D01*
X124697757Y-105283244D01*
X124698466Y-105288922D01*
X124698973Y-105290857D01*
X124699583Y-105292167D01*
X124702787Y-105293285D01*
X124708348Y-105293999D01*
X124726041Y-105294261D01*
X124751673Y-105293035D01*
X124784250Y-105290403D01*
X124822780Y-105286448D01*
X124866270Y-105281252D01*
X124913730Y-105274899D01*
X124964166Y-105267472D01*
X125049059Y-105256417D01*
X125132831Y-105249647D01*
X125215104Y-105247062D01*
X125295502Y-105248565D01*
X125373646Y-105254058D01*
X125449160Y-105263441D01*
X125521666Y-105276618D01*
X125590788Y-105293489D01*
X125623961Y-105303280D01*
X125656147Y-105313958D01*
X125687298Y-105325510D01*
X125717367Y-105337924D01*
X125746307Y-105351189D01*
X125774071Y-105365291D01*
X125800611Y-105380219D01*
X125825881Y-105395960D01*
X125849833Y-105412503D01*
X125872420Y-105429833D01*
X125893595Y-105447941D01*
X125913311Y-105466812D01*
X125931520Y-105486435D01*
X125948176Y-105506798D01*
X125963231Y-105527889D01*
X125976639Y-105549694D01*
X125990542Y-105575040D01*
X126001712Y-105598346D01*
X126009978Y-105619884D01*
X126012968Y-105630075D01*
X126015169Y-105639928D01*
X126016558Y-105649476D01*
X126017114Y-105658753D01*
X126016817Y-105667794D01*
X126015644Y-105676632D01*
X126013575Y-105685303D01*
X126010587Y-105693840D01*
X126006661Y-105702277D01*
X126001774Y-105710649D01*
X125995905Y-105718990D01*
X125989033Y-105727335D01*
X125981137Y-105735716D01*
X125972195Y-105744170D01*
X125962185Y-105752729D01*
X125951087Y-105761429D01*
X125925541Y-105779386D01*
X125895385Y-105798314D01*
X125860449Y-105818487D01*
X125820563Y-105840180D01*
X125775555Y-105863666D01*
X125692014Y-105907149D01*
X125609598Y-105954059D01*
X125528609Y-106004100D01*
X125449346Y-106056978D01*
X125372109Y-106112398D01*
X125297197Y-106170066D01*
X125224910Y-106229688D01*
X125155548Y-106290969D01*
X125089411Y-106353613D01*
X125026798Y-106417328D01*
X124968009Y-106481817D01*
X124913344Y-106546788D01*
X124863103Y-106611944D01*
X124817585Y-106676992D01*
X124777089Y-106741636D01*
X124741917Y-106805583D01*
X124650194Y-106981972D01*
X124770139Y-107070166D01*
X124799814Y-107093414D01*
X124837552Y-107125178D01*
X124881821Y-107164052D01*
X124931093Y-107208632D01*
X124983838Y-107257511D01*
X125038525Y-107309284D01*
X125093626Y-107362545D01*
X125147610Y-107415889D01*
X125405138Y-107673417D01*
X125256972Y-107849805D01*
X125241733Y-107868023D01*
X125226510Y-107885579D01*
X125211401Y-107902391D01*
X125196503Y-107918377D01*
X125181916Y-107933452D01*
X125167737Y-107947536D01*
X125154064Y-107960545D01*
X125140996Y-107972396D01*
X125128631Y-107983007D01*
X125117066Y-107992295D01*
X125106401Y-108000177D01*
X125096733Y-108006571D01*
X125088161Y-108011394D01*
X125084317Y-108013191D01*
X125080783Y-108014564D01*
X125077572Y-108015502D01*
X125074696Y-108015997D01*
X125072168Y-108016036D01*
X125070000Y-108015611D01*
X125066331Y-108013841D01*
X125061979Y-108011208D01*
X125057008Y-108007759D01*
X125051479Y-108003539D01*
X125045453Y-107998596D01*
X125038994Y-107992977D01*
X125032162Y-107986726D01*
X125025020Y-107979892D01*
X125017631Y-107972520D01*
X125010055Y-107964658D01*
X125002355Y-107956351D01*
X124994593Y-107947646D01*
X124986831Y-107938590D01*
X124979132Y-107929228D01*
X124971556Y-107919609D01*
X124964166Y-107909777D01*
X124893611Y-107814528D01*
X125024139Y-107680472D01*
X125067230Y-107636092D01*
X125084491Y-107617879D01*
X125092083Y-107609637D01*
X125098993Y-107601924D01*
X125105232Y-107594701D01*
X125110808Y-107587932D01*
X125115731Y-107581581D01*
X125120009Y-107575610D01*
X125123651Y-107569983D01*
X125126666Y-107564662D01*
X125129064Y-107559612D01*
X125130854Y-107554795D01*
X125132044Y-107550174D01*
X125132643Y-107545713D01*
X125132662Y-107541374D01*
X125132108Y-107537121D01*
X125130990Y-107532918D01*
X125129319Y-107528727D01*
X125127102Y-107524511D01*
X125124349Y-107520234D01*
X125121069Y-107515858D01*
X125117271Y-107511348D01*
X125112964Y-107506666D01*
X125108157Y-107501775D01*
X125097079Y-107491220D01*
X125084110Y-107479389D01*
X125071622Y-107468284D01*
X125060436Y-107458842D01*
X125050283Y-107451158D01*
X125045510Y-107448004D01*
X125040895Y-107445324D01*
X125036404Y-107443129D01*
X125032003Y-107441432D01*
X125027660Y-107440244D01*
X125023339Y-107439577D01*
X125019008Y-107439442D01*
X125014633Y-107439851D01*
X125010181Y-107440815D01*
X125005617Y-107442347D01*
X125000909Y-107444457D01*
X124996023Y-107447158D01*
X124990925Y-107450461D01*
X124985581Y-107454377D01*
X124979958Y-107458919D01*
X124974022Y-107464098D01*
X124961079Y-107476412D01*
X124946482Y-107491414D01*
X124929963Y-107509195D01*
X124890083Y-107553472D01*
X124766611Y-107691056D01*
X124325639Y-107243028D01*
X124224765Y-107140608D01*
X124135628Y-107051391D01*
X124056981Y-106975021D01*
X124021202Y-106941542D01*
X123987578Y-106911141D01*
X123955955Y-106883774D01*
X123926176Y-106859395D01*
X123898085Y-106837960D01*
X123871527Y-106819426D01*
X123846346Y-106803746D01*
X123822387Y-106790877D01*
X123799494Y-106780774D01*
X123777510Y-106773392D01*
X123756282Y-106768687D01*
X123735652Y-106766615D01*
X123715465Y-106767130D01*
X123695565Y-106770188D01*
X123675798Y-106775745D01*
X123656006Y-106783756D01*
X123636035Y-106794176D01*
X123615729Y-106806961D01*
X123594931Y-106822066D01*
X123573488Y-106839448D01*
X123551241Y-106859060D01*
X123528037Y-106880858D01*
X123478133Y-106930837D01*
X123422528Y-106989027D01*
X123319120Y-107100318D01*
X123203806Y-107223184D01*
X122995666Y-107444111D01*
X122794583Y-107655777D01*
X122530000Y-107394722D01*
X122487403Y-107352889D01*
X122449343Y-107315877D01*
X122415480Y-107283465D01*
X122385471Y-107255430D01*
X122371806Y-107242984D01*
X122358977Y-107231549D01*
X122346941Y-107221098D01*
X122335655Y-107211601D01*
X122325078Y-107203033D01*
X122315165Y-107195364D01*
X122305876Y-107188567D01*
X122297166Y-107182614D01*
X122288994Y-107177478D01*
X122281317Y-107173131D01*
X122274092Y-107169544D01*
X122267277Y-107166691D01*
X122260828Y-107164543D01*
X122254704Y-107163073D01*
X122248861Y-107162253D01*
X122243258Y-107162054D01*
X122237850Y-107162450D01*
X122232597Y-107163412D01*
X122227454Y-107164913D01*
X122222380Y-107166926D01*
X122217332Y-107169421D01*
X122212267Y-107172371D01*
X122207143Y-107175750D01*
X122201916Y-107179528D01*
X122175899Y-107200308D01*
X122152528Y-107218774D01*
X122142661Y-107226415D01*
X122134448Y-107232610D01*
X122128219Y-107237067D01*
X122125952Y-107238555D01*
X122124305Y-107239500D01*
X122123682Y-107240520D01*
X122123786Y-107242244D01*
X122126104Y-107247727D01*
X122131119Y-107255793D01*
X122138692Y-107266289D01*
X122160954Y-107293946D01*
X122191774Y-107329458D01*
X122230035Y-107371585D01*
X122274622Y-107419086D01*
X122324417Y-107470721D01*
X122378305Y-107525250D01*
X122649944Y-107800416D01*
X122233666Y-108237861D01*
X121813861Y-108678833D01*
X121612778Y-108456583D01*
X121408166Y-108237861D01*
X121344666Y-108319000D01*
X121332954Y-108332709D01*
X121323066Y-108344996D01*
X121315172Y-108356261D01*
X121312027Y-108361634D01*
X121309444Y-108366900D01*
X121307445Y-108372110D01*
X121306051Y-108377312D01*
X121305284Y-108382557D01*
X121305165Y-108387895D01*
X121305715Y-108393374D01*
X121306956Y-108399046D01*
X121308908Y-108404958D01*
X121311593Y-108411163D01*
X121315034Y-108417708D01*
X121319249Y-108424644D01*
X121330094Y-108439888D01*
X121344297Y-108457292D01*
X121362030Y-108477253D01*
X121383463Y-108500171D01*
X121408766Y-108526442D01*
X121471667Y-108590638D01*
X121510238Y-108631167D01*
X121546081Y-108670124D01*
X121578451Y-108706600D01*
X121593101Y-108723624D01*
X121606604Y-108739687D01*
X121618867Y-108754675D01*
X121629797Y-108768474D01*
X121639300Y-108780972D01*
X121647284Y-108792053D01*
X121653655Y-108801604D01*
X121658322Y-108809513D01*
X121661190Y-108815664D01*
X121661920Y-108818045D01*
X121662167Y-108819944D01*
X121660539Y-108824875D01*
X121655759Y-108832932D01*
X121637362Y-108857702D01*
X121608216Y-108892808D01*
X121569562Y-108936802D01*
X121522640Y-108988237D01*
X121468690Y-109045667D01*
X121408952Y-109107644D01*
X121344666Y-109172722D01*
X121250974Y-109268427D01*
X121211760Y-109309380D01*
X121177207Y-109346355D01*
X121146995Y-109379815D01*
X121120804Y-109410227D01*
X121098313Y-109438055D01*
X121079201Y-109463764D01*
X121070813Y-109475969D01*
X121063149Y-109487819D01*
X121056170Y-109499372D01*
X121049835Y-109510686D01*
X121044105Y-109521819D01*
X121038940Y-109532829D01*
X121034299Y-109543775D01*
X121030143Y-109554714D01*
X121026431Y-109565705D01*
X121023124Y-109576806D01*
X121017561Y-109599569D01*
X121013136Y-109623470D01*
X121009528Y-109648972D01*
X120988361Y-109807722D01*
X121397583Y-109387916D01*
X121810333Y-108968111D01*
X122699333Y-109857111D01*
X122276000Y-110294555D01*
X122191644Y-110382384D01*
X122111793Y-110464715D01*
X122038309Y-110539687D01*
X121973052Y-110605440D01*
X121917882Y-110660114D01*
X121874660Y-110701848D01*
X121845246Y-110728782D01*
X121836298Y-110736117D01*
X121831500Y-110739055D01*
X121827403Y-110736939D01*
X121819228Y-110730725D01*
X121791537Y-110706809D01*
X121750202Y-110668920D01*
X121697003Y-110618670D01*
X121562121Y-110487536D01*
X121401111Y-110326306D01*
X120991889Y-109913556D01*
X120991889Y-110054667D01*
X120992203Y-110078696D01*
X120993412Y-110100886D01*
X120995912Y-110121794D01*
X121000102Y-110141979D01*
X121006380Y-110161998D01*
X121015143Y-110182411D01*
X121026790Y-110203774D01*
X121041719Y-110226646D01*
X121060326Y-110251585D01*
X121083011Y-110279149D01*
X121110172Y-110309896D01*
X121142205Y-110344385D01*
X121222483Y-110426819D01*
X121327027Y-110530916D01*
X121394097Y-110598633D01*
X121456783Y-110663208D01*
X121513683Y-110723153D01*
X121563389Y-110776979D01*
X121604496Y-110823198D01*
X121621385Y-110842990D01*
X121635598Y-110860323D01*
X121646958Y-110875009D01*
X121655290Y-110886864D01*
X121660418Y-110895700D01*
X121661726Y-110898929D01*
X121662167Y-110901333D01*
X121661028Y-110905775D01*
X121657688Y-110912392D01*
X121652260Y-110921045D01*
X121644858Y-110931595D01*
X121624587Y-110957825D01*
X121597784Y-110989968D01*
X121565359Y-111026906D01*
X121528221Y-111067524D01*
X121487280Y-111110705D01*
X121443444Y-111155333D01*
X121406738Y-111192152D01*
X121374522Y-111224821D01*
X121346574Y-111253738D01*
X121322673Y-111279302D01*
X121312170Y-111290950D01*
X121302596Y-111301909D01*
X121293922Y-111312229D01*
X121286121Y-111321959D01*
X121279164Y-111331149D01*
X121273025Y-111339848D01*
X121267675Y-111348107D01*
X121263087Y-111355976D01*
X121259232Y-111363503D01*
X121256084Y-111370739D01*
X121253614Y-111377733D01*
X121251794Y-111384535D01*
X121250597Y-111391196D01*
X121249995Y-111397764D01*
X121249960Y-111404289D01*
X121250464Y-111410821D01*
X121251480Y-111417411D01*
X121252980Y-111424106D01*
X121254936Y-111430959D01*
X121257320Y-111438017D01*
X121260104Y-111445331D01*
X121263262Y-111452950D01*
X121270583Y-111469305D01*
X121312917Y-111564555D01*
X121566917Y-111314083D01*
X121820916Y-111060083D01*
X122244250Y-111483416D01*
X122667583Y-111906749D01*
X122455916Y-112125472D01*
X122387706Y-112196201D01*
X122328275Y-112258046D01*
X122277144Y-112311716D01*
X122254541Y-112335707D01*
X122233832Y-112357919D01*
X122214957Y-112378442D01*
X122197857Y-112397363D01*
X122182471Y-112414772D01*
X122168740Y-112430756D01*
X122156603Y-112445404D01*
X122146000Y-112458805D01*
X122136871Y-112471047D01*
X122129156Y-112482218D01*
X122122795Y-112492408D01*
X122120103Y-112497163D01*
X122117728Y-112501705D01*
X122115661Y-112506046D01*
X122113894Y-112510196D01*
X122112421Y-112514168D01*
X122111235Y-112517972D01*
X122110326Y-112521618D01*
X122109688Y-112525119D01*
X122109314Y-112528485D01*
X122109196Y-112531727D01*
X122109326Y-112534856D01*
X122109697Y-112537884D01*
X122110301Y-112540821D01*
X122111131Y-112543679D01*
X122112180Y-112546468D01*
X122113439Y-112549200D01*
X122114901Y-112551885D01*
X122116560Y-112554535D01*
X122120434Y-112559774D01*
X122125001Y-112565004D01*
X122130201Y-112570314D01*
X122135975Y-112575793D01*
X122149000Y-112587610D01*
X122160442Y-112597941D01*
X122171248Y-112606262D01*
X122181858Y-112612299D01*
X122187227Y-112614375D01*
X122192711Y-112615778D01*
X122198366Y-112616472D01*
X122204246Y-112616424D01*
X122210407Y-112615600D01*
X122216903Y-112613966D01*
X122223789Y-112611486D01*
X122231120Y-112608127D01*
X122247337Y-112598635D01*
X122265993Y-112585215D01*
X122287527Y-112567595D01*
X122312379Y-112545499D01*
X122340988Y-112518654D01*
X122411234Y-112449621D01*
X122501778Y-112358305D01*
X122787528Y-112065500D01*
X123090916Y-112365361D01*
X123154809Y-112428571D01*
X123218412Y-112492692D01*
X123280114Y-112555985D01*
X123338302Y-112616715D01*
X123391363Y-112673146D01*
X123437686Y-112723540D01*
X123475657Y-112766163D01*
X123503666Y-112799277D01*
X123519881Y-112819477D01*
X123534169Y-112837848D01*
X123546586Y-112854545D01*
X123552111Y-112862314D01*
X123557189Y-112869723D01*
X123561828Y-112876790D01*
X123566035Y-112883536D01*
X123569817Y-112889979D01*
X123573181Y-112896140D01*
X123576135Y-112902036D01*
X123578684Y-112907689D01*
X123580837Y-112913117D01*
X123582600Y-112918340D01*
X123583981Y-112923376D01*
X123584987Y-112928246D01*
X123585624Y-112932969D01*
X123585901Y-112937563D01*
X123585823Y-112942050D01*
X123585399Y-112946447D01*
X123584634Y-112950774D01*
X123583537Y-112955051D01*
X123582115Y-112959297D01*
X123580374Y-112963531D01*
X123578322Y-112967773D01*
X123575965Y-112972042D01*
X123573312Y-112976358D01*
X123570368Y-112980739D01*
X123567141Y-112985206D01*
X123563639Y-112989778D01*
X123555672Y-112999127D01*
X123549018Y-113007355D01*
X123543748Y-113014497D01*
X123539936Y-113020591D01*
X123538599Y-113023255D01*
X123537654Y-113025671D01*
X123537109Y-113027843D01*
X123536974Y-113029775D01*
X123537257Y-113031472D01*
X123537967Y-113032939D01*
X123539115Y-113034179D01*
X123540708Y-113035198D01*
X123542756Y-113035999D01*
X123545268Y-113036589D01*
X123548252Y-113036970D01*
X123551718Y-113037148D01*
X123560133Y-113036911D01*
X123570584Y-113035914D01*
X123583143Y-113034194D01*
X123597883Y-113031787D01*
X123634194Y-113025055D01*
X123659185Y-113019943D01*
X123685953Y-113015243D01*
X123713631Y-113011040D01*
X123741350Y-113007416D01*
X123768243Y-113004453D01*
X123793440Y-113002235D01*
X123816075Y-113000843D01*
X123835278Y-113000361D01*
X123839866Y-113000299D01*
X123844367Y-113000116D01*
X123848779Y-112999814D01*
X123853096Y-112999396D01*
X123857314Y-112998864D01*
X123861431Y-112998221D01*
X123865442Y-112997470D01*
X123869343Y-112996612D01*
X123873130Y-112995651D01*
X123876799Y-112994590D01*
X123880348Y-112993430D01*
X123883771Y-112992175D01*
X123887064Y-112990827D01*
X123890225Y-112989388D01*
X123893249Y-112987861D01*
X123896132Y-112986249D01*
X123898870Y-112984555D01*
X123901459Y-112982780D01*
X123903897Y-112980928D01*
X123906177Y-112979001D01*
X123908298Y-112977001D01*
X123910255Y-112974932D01*
X123912043Y-112972796D01*
X123913660Y-112970595D01*
X123915101Y-112968332D01*
X123916363Y-112966009D01*
X123917441Y-112963630D01*
X123918332Y-112961197D01*
X123919031Y-112958711D01*
X123919536Y-112956177D01*
X123919841Y-112953596D01*
X123919944Y-112950972D01*
X123922139Y-112943489D01*
X123928577Y-112931789D01*
X123939036Y-112916121D01*
X123953293Y-112896732D01*
X123992312Y-112847784D01*
X124043857Y-112786930D01*
X124106152Y-112716154D01*
X124177417Y-112637440D01*
X124255876Y-112552773D01*
X124339750Y-112464138D01*
X124759555Y-112030222D01*
X125105277Y-112368888D01*
X125172305Y-112294805D01*
X125183442Y-112282303D01*
X125192935Y-112271027D01*
X125200629Y-112260629D01*
X125203754Y-112255651D01*
X125206370Y-112250763D01*
X125208460Y-112245921D01*
X125210003Y-112241083D01*
X125210981Y-112236205D01*
X125211373Y-112231243D01*
X125211160Y-112226155D01*
X125210324Y-112220897D01*
X125208844Y-112215425D01*
X125206701Y-112209697D01*
X125203876Y-112203670D01*
X125200350Y-112197299D01*
X125196103Y-112190543D01*
X125191116Y-112183356D01*
X125178842Y-112167522D01*
X125163376Y-112149450D01*
X125144560Y-112128794D01*
X125122241Y-112105208D01*
X125066472Y-112047860D01*
X124893611Y-111871472D01*
X125225222Y-111525750D01*
X125293249Y-111454561D01*
X125358671Y-111387505D01*
X125419877Y-111326072D01*
X125475253Y-111271750D01*
X125523188Y-111226026D01*
X125562070Y-111190390D01*
X125577611Y-111176820D01*
X125590285Y-111166330D01*
X125599889Y-111159106D01*
X125606222Y-111155333D01*
X125608980Y-111154113D01*
X125611956Y-111153096D01*
X125618528Y-111151661D01*
X125625864Y-111151000D01*
X125633893Y-111151088D01*
X125642542Y-111151901D01*
X125651739Y-111153410D01*
X125661411Y-111155592D01*
X125671486Y-111158420D01*
X125681892Y-111161867D01*
X125692556Y-111165909D01*
X125703406Y-111170520D01*
X125714370Y-111175673D01*
X125725376Y-111181343D01*
X125736350Y-111187503D01*
X125747221Y-111194129D01*
X125757916Y-111201194D01*
X125856694Y-111275277D01*
X125786139Y-111458722D01*
X125746850Y-111552442D01*
X125702017Y-111646741D01*
X125652046Y-111741123D01*
X125597348Y-111835091D01*
X125538329Y-111928150D01*
X125475398Y-112019804D01*
X125408964Y-112109555D01*
X125339434Y-112196909D01*
X125267217Y-112281369D01*
X125192721Y-112362439D01*
X125116354Y-112439623D01*
X125038525Y-112512425D01*
X124959642Y-112580348D01*
X124880113Y-112642897D01*
X124800346Y-112699576D01*
X124720750Y-112749888D01*
X124571037Y-112833315D01*
X124422136Y-112906330D01*
X124273947Y-112968937D01*
X124126374Y-113021141D01*
X123979318Y-113062948D01*
X123832680Y-113094363D01*
X123686362Y-113115391D01*
X123540267Y-113126037D01*
X123394296Y-113126307D01*
X123248350Y-113116205D01*
X123102333Y-113095737D01*
X122956144Y-113064908D01*
X122809687Y-113023722D01*
X122662863Y-112972186D01*
X122515574Y-112910305D01*
X122367722Y-112838083D01*
X122251131Y-112773053D01*
X122138292Y-112701161D01*
X122029402Y-112622654D01*
X121924655Y-112537781D01*
X121824250Y-112446789D01*
X121728381Y-112349927D01*
X121637246Y-112247442D01*
X121551041Y-112139583D01*
X121469963Y-112026598D01*
X121394207Y-111908734D01*
X121323970Y-111786240D01*
X121259449Y-111659364D01*
X121200839Y-111528354D01*
X121148337Y-111393458D01*
X121102140Y-111254924D01*
X121062444Y-111112999D01*
X121018566Y-110920313D01*
X120983441Y-110722615D01*
X120956978Y-110520927D01*
X120939082Y-110316273D01*
X120929662Y-110109676D01*
X120928623Y-109902159D01*
X120935873Y-109694745D01*
X120951319Y-109488458D01*
X120974868Y-109284321D01*
X121006427Y-109083356D01*
X121045903Y-108886588D01*
X121093202Y-108695039D01*
X121148232Y-108509733D01*
X121210900Y-108331692D01*
X121281113Y-108161940D01*
X121358778Y-108001500D01*
X121401182Y-107924664D01*
X121447482Y-107847849D01*
X121497358Y-107771406D01*
X121550490Y-107695686D01*
X121606557Y-107621041D01*
X121665239Y-107547822D01*
X121726216Y-107476381D01*
X121789166Y-107407069D01*
X121853771Y-107340238D01*
X121919708Y-107276238D01*
X121986658Y-107215422D01*
X122054301Y-107158140D01*
X122122316Y-107104745D01*
X122190382Y-107055587D01*
X122258180Y-107011018D01*
X122325389Y-106971389D01*
X122335877Y-106962099D01*
X122341662Y-106948909D01*
X122342920Y-106932015D01*
X122339824Y-106911609D01*
X122332550Y-106887886D01*
X122321273Y-106861039D01*
X122287410Y-106798748D01*
X122239636Y-106726287D01*
X122179351Y-106645207D01*
X122107956Y-106557057D01*
X122026850Y-106463389D01*
X121937436Y-106365751D01*
X121841112Y-106265696D01*
X121739279Y-106164772D01*
X121633338Y-106064530D01*
X121524689Y-105966520D01*
X121414733Y-105872293D01*
X121304870Y-105783400D01*
X121196500Y-105701389D01*
X121141981Y-105661616D01*
X121093395Y-105625466D01*
X121050555Y-105592675D01*
X121031232Y-105577456D01*
X121013276Y-105562979D01*
X120996663Y-105549209D01*
X120981371Y-105536115D01*
X120967376Y-105523662D01*
X120954654Y-105511819D01*
X120943183Y-105500552D01*
X120932940Y-105489828D01*
X120923900Y-105479614D01*
X120916042Y-105469878D01*
X120909340Y-105460586D01*
X120903774Y-105451706D01*
X120899318Y-105443204D01*
X120895950Y-105435048D01*
X120893646Y-105427205D01*
X120892384Y-105419641D01*
X120892140Y-105412324D01*
X120892890Y-105405220D01*
X120894613Y-105398298D01*
X120897283Y-105391524D01*
X120900878Y-105384864D01*
X120905375Y-105378287D01*
X120910751Y-105371758D01*
X120916982Y-105365246D01*
X120924045Y-105358717D01*
X120931916Y-105352138D01*
X120965058Y-105331194D01*
X121009362Y-105312079D01*
X121063505Y-105294886D01*
X121126165Y-105279709D01*
X121196017Y-105266640D01*
X121271741Y-105255772D01*
X121352011Y-105247199D01*
X121435507Y-105241013D01*
X121520904Y-105237308D01*
X121606880Y-105236177D01*
X121692111Y-105237711D01*
X121775276Y-105242006D01*
X121855051Y-105249153D01*
X121930112Y-105259245D01*
X121999138Y-105272376D01*
X122060805Y-105288639D01*
X122078946Y-105293681D01*
X122096290Y-105298216D01*
X122112787Y-105302235D01*
X122128384Y-105305726D01*
X122143031Y-105308680D01*
X122156676Y-105311087D01*
X122169266Y-105312935D01*
X122180750Y-105314215D01*
X122191077Y-105314916D01*
X122195790Y-105315046D01*
X122200194Y-105315028D01*
X122204283Y-105314860D01*
X122208050Y-105314541D01*
X122211490Y-105314069D01*
X122214594Y-105313443D01*
X122217358Y-105312663D01*
X122219774Y-105311726D01*
X122221836Y-105310631D01*
X122223538Y-105309378D01*
X122224873Y-105307965D01*
X122225834Y-105306389D01*
X122226416Y-105304652D01*
X122226611Y-105302750D01*
X122225959Y-105297603D01*
X122224041Y-105290189D01*
X122216634Y-105269070D01*
X122204845Y-105240428D01*
X122189128Y-105205295D01*
X122169939Y-105164704D01*
X122147732Y-105119691D01*
X122122962Y-105071287D01*
X122096083Y-105020527D01*
X122063791Y-104960950D01*
X122030399Y-104903904D01*
X121995880Y-104849360D01*
X121960209Y-104797285D01*
X121923359Y-104747650D01*
X121885305Y-104700423D01*
X121846022Y-104655573D01*
X121805482Y-104613069D01*
X121763662Y-104572881D01*
X121720533Y-104534976D01*
X121676072Y-104499324D01*
X121630251Y-104465895D01*
X121583046Y-104434657D01*
X121534429Y-104405578D01*
X121484376Y-104378629D01*
X121432861Y-104353778D01*
X121398892Y-104338500D01*
X121368314Y-104324329D01*
X121340959Y-104311129D01*
X121316665Y-104298767D01*
X121295264Y-104287107D01*
X121285597Y-104281498D01*
X121276591Y-104276015D01*
X121268227Y-104270641D01*
X121260482Y-104265358D01*
X121253337Y-104260150D01*
X121246770Y-104255000D01*
X121240762Y-104249892D01*
X121235291Y-104244808D01*
X121230337Y-104239732D01*
X121225879Y-104234647D01*
X121221897Y-104229536D01*
X121218369Y-104224382D01*
X121215275Y-104219169D01*
X121212595Y-104213880D01*
X121210308Y-104208497D01*
X121208392Y-104203005D01*
X121206828Y-104197387D01*
X121205595Y-104191624D01*
X121204671Y-104185702D01*
X121204038Y-104179603D01*
X121203672Y-104173310D01*
X121203555Y-104166806D01*
X121204033Y-104148632D01*
X121205726Y-104132375D01*
X121209020Y-104117886D01*
X121214304Y-104105014D01*
X121221965Y-104093610D01*
X121232391Y-104083524D01*
X121245969Y-104074605D01*
X121263087Y-104066705D01*
X121284132Y-104059672D01*
X121309492Y-104053358D01*
X121339555Y-104047613D01*
X121374708Y-104042286D01*
X121415338Y-104037228D01*
X121461834Y-104032288D01*
X121573972Y-104022167D01*
X121632268Y-104018066D01*
X121691918Y-104016317D01*
X121752705Y-104016872D01*
X121814412Y-104019686D01*
X121876822Y-104024712D01*
X121939717Y-104031902D01*
X122002881Y-104041212D01*
X122066097Y-104052594D01*
X122129147Y-104066001D01*
X122191815Y-104081388D01*
X122253884Y-104098707D01*
X122315136Y-104117913D01*
X122375355Y-104138958D01*
X122434323Y-104161796D01*
X122491823Y-104186381D01*
X122547639Y-104212667D01*
X122568580Y-104222996D01*
X122588994Y-104232793D01*
X122608767Y-104242022D01*
X122627785Y-104250646D01*
X122645936Y-104258629D01*
X122663104Y-104265935D01*
X122679177Y-104272528D01*
X122694041Y-104278372D01*
X122707582Y-104283430D01*
X122719687Y-104287666D01*
X122730241Y-104291045D01*
X122739131Y-104293530D01*
X122746243Y-104295084D01*
X122751464Y-104295672D01*
X122753330Y-104295593D01*
X122754680Y-104295258D01*
X122755501Y-104294664D01*
X122755777Y-104293805D01*
X122760497Y-104223181D01*
X122771046Y-104123700D01*
X122785977Y-104005203D01*
X122803844Y-103877528D01*
X122823198Y-103750514D01*
X122842594Y-103634001D01*
X122860584Y-103537828D01*
X122875722Y-103471833D01*
X122894245Y-103413541D01*
X122914107Y-103356395D01*
X122935323Y-103300387D01*
X122957908Y-103245505D01*
X122981878Y-103191739D01*
X123007249Y-103139079D01*
X123034035Y-103087514D01*
X123062253Y-103037035D01*
X123091918Y-102987630D01*
X123123045Y-102939291D01*
X123155651Y-102892005D01*
X123189749Y-102845763D01*
X123225357Y-102800555D01*
X123262489Y-102756370D01*
X123301161Y-102713197D01*
X123341389Y-102671027D01*
X123400048Y-102613768D01*
X123454305Y-102565015D01*
X123479776Y-102543825D01*
X123504138Y-102524757D01*
X123527390Y-102507811D01*
X123549527Y-102492985D01*
X123570549Y-102480278D01*
X123590452Y-102469688D01*
X123609233Y-102461214D01*
X123626890Y-102454855D01*
X123643421Y-102450609D01*
X123658823Y-102448476D01*
X123673093Y-102448454D01*
X123686229Y-102450542D01*
D11*
X115609523Y-121617380D02*
X115038095Y-121617380D01*
X115323809Y-122617380D02*
X115323809Y-121617380D01*
X114323809Y-122569761D02*
X114419047Y-122617380D01*
X114609523Y-122617380D01*
X114704761Y-122569761D01*
X114752380Y-122474523D01*
X114752380Y-122093571D01*
X114704761Y-121998333D01*
X114609523Y-121950714D01*
X114419047Y-121950714D01*
X114323809Y-121998333D01*
X114276190Y-122093571D01*
X114276190Y-122188809D01*
X114752380Y-122284047D01*
X113419047Y-122617380D02*
X113419047Y-122093571D01*
X113466666Y-121998333D01*
X113561904Y-121950714D01*
X113752380Y-121950714D01*
X113847619Y-121998333D01*
X113419047Y-122569761D02*
X113514285Y-122617380D01*
X113752380Y-122617380D01*
X113847619Y-122569761D01*
X113895238Y-122474523D01*
X113895238Y-122379285D01*
X113847619Y-122284047D01*
X113752380Y-122236428D01*
X113514285Y-122236428D01*
X113419047Y-122188809D01*
X112942857Y-122617380D02*
X112942857Y-121950714D01*
X112942857Y-122045952D02*
X112895238Y-121998333D01*
X112800000Y-121950714D01*
X112657142Y-121950714D01*
X112561904Y-121998333D01*
X112514285Y-122093571D01*
X112514285Y-122617380D01*
X112514285Y-122093571D02*
X112466666Y-121998333D01*
X112371428Y-121950714D01*
X112228571Y-121950714D01*
X112133333Y-121998333D01*
X112085714Y-122093571D01*
X112085714Y-122617380D01*
X110847619Y-122617380D02*
X110847619Y-121950714D01*
X110847619Y-122045952D02*
X110800000Y-121998333D01*
X110704761Y-121950714D01*
X110561904Y-121950714D01*
X110466666Y-121998333D01*
X110419047Y-122093571D01*
X110419047Y-122617380D01*
X110419047Y-122093571D02*
X110371428Y-121998333D01*
X110276190Y-121950714D01*
X110133333Y-121950714D01*
X110038095Y-121998333D01*
X109990476Y-122093571D01*
X109990476Y-122617380D01*
X109133333Y-122569761D02*
X109228571Y-122617380D01*
X109419047Y-122617380D01*
X109514285Y-122569761D01*
X109561904Y-122474523D01*
X109561904Y-122093571D01*
X109514285Y-121998333D01*
X109419047Y-121950714D01*
X109228571Y-121950714D01*
X109133333Y-121998333D01*
X109085714Y-122093571D01*
X109085714Y-122188809D01*
X109561904Y-122284047D01*
X108657142Y-122617380D02*
X108657142Y-121950714D01*
X108657142Y-122045952D02*
X108609523Y-121998333D01*
X108514285Y-121950714D01*
X108371428Y-121950714D01*
X108276190Y-121998333D01*
X108228571Y-122093571D01*
X108228571Y-122617380D01*
X108228571Y-122093571D02*
X108180952Y-121998333D01*
X108085714Y-121950714D01*
X107942857Y-121950714D01*
X107847619Y-121998333D01*
X107800000Y-122093571D01*
X107800000Y-122617380D01*
X107323809Y-122617380D02*
X107323809Y-121617380D01*
X107323809Y-121998333D02*
X107228571Y-121950714D01*
X107038095Y-121950714D01*
X106942857Y-121998333D01*
X106895238Y-122045952D01*
X106847619Y-122141190D01*
X106847619Y-122426904D01*
X106895238Y-122522142D01*
X106942857Y-122569761D01*
X107038095Y-122617380D01*
X107228571Y-122617380D01*
X107323809Y-122569761D01*
X106038095Y-122569761D02*
X106133333Y-122617380D01*
X106323809Y-122617380D01*
X106419047Y-122569761D01*
X106466666Y-122474523D01*
X106466666Y-122093571D01*
X106419047Y-121998333D01*
X106323809Y-121950714D01*
X106133333Y-121950714D01*
X106038095Y-121998333D01*
X105990476Y-122093571D01*
X105990476Y-122188809D01*
X106466666Y-122284047D01*
X105561904Y-122617380D02*
X105561904Y-121950714D01*
X105561904Y-122141190D02*
X105514285Y-122045952D01*
X105466666Y-121998333D01*
X105371428Y-121950714D01*
X105276190Y-121950714D01*
X104990476Y-122569761D02*
X104895238Y-122617380D01*
X104704761Y-122617380D01*
X104609523Y-122569761D01*
X104561904Y-122474523D01*
X104561904Y-122426904D01*
X104609523Y-122331666D01*
X104704761Y-122284047D01*
X104847619Y-122284047D01*
X104942857Y-122236428D01*
X104990476Y-122141190D01*
X104990476Y-122093571D01*
X104942857Y-121998333D01*
X104847619Y-121950714D01*
X104704761Y-121950714D01*
X104609523Y-121998333D01*
X104133333Y-122522142D02*
X104085714Y-122569761D01*
X104133333Y-122617380D01*
X104180952Y-122569761D01*
X104133333Y-122522142D01*
X104133333Y-122617380D01*
X104133333Y-121998333D02*
X104085714Y-122045952D01*
X104133333Y-122093571D01*
X104180952Y-122045952D01*
X104133333Y-121998333D01*
X104133333Y-122093571D01*
X114490476Y-123703571D02*
X114347619Y-123751190D01*
X114300000Y-123798809D01*
X114252380Y-123894047D01*
X114252380Y-124036904D01*
X114300000Y-124132142D01*
X114347619Y-124179761D01*
X114442857Y-124227380D01*
X114823809Y-124227380D01*
X114823809Y-123227380D01*
X114490476Y-123227380D01*
X114395238Y-123275000D01*
X114347619Y-123322619D01*
X114300000Y-123417857D01*
X114300000Y-123513095D01*
X114347619Y-123608333D01*
X114395238Y-123655952D01*
X114490476Y-123703571D01*
X114823809Y-123703571D01*
X113680952Y-124227380D02*
X113776190Y-124179761D01*
X113823809Y-124132142D01*
X113871428Y-124036904D01*
X113871428Y-123751190D01*
X113823809Y-123655952D01*
X113776190Y-123608333D01*
X113680952Y-123560714D01*
X113538095Y-123560714D01*
X113442857Y-123608333D01*
X113395238Y-123655952D01*
X113347619Y-123751190D01*
X113347619Y-124036904D01*
X113395238Y-124132142D01*
X113442857Y-124179761D01*
X113538095Y-124227380D01*
X113680952Y-124227380D01*
X112919047Y-124227380D02*
X112919047Y-123227380D01*
X112919047Y-123608333D02*
X112823809Y-123560714D01*
X112633333Y-123560714D01*
X112538095Y-123608333D01*
X112490476Y-123655952D01*
X112442857Y-123751190D01*
X112442857Y-124036904D01*
X112490476Y-124132142D01*
X112538095Y-124179761D01*
X112633333Y-124227380D01*
X112823809Y-124227380D01*
X112919047Y-124179761D01*
X111300000Y-123941666D02*
X110823809Y-123941666D01*
X111395238Y-124227380D02*
X111061904Y-123227380D01*
X110728571Y-124227380D01*
X109966666Y-124227380D02*
X109966666Y-123703571D01*
X110014285Y-123608333D01*
X110109523Y-123560714D01*
X110300000Y-123560714D01*
X110395238Y-123608333D01*
X109966666Y-124179761D02*
X110061904Y-124227380D01*
X110300000Y-124227380D01*
X110395238Y-124179761D01*
X110442857Y-124084523D01*
X110442857Y-123989285D01*
X110395238Y-123894047D01*
X110300000Y-123846428D01*
X110061904Y-123846428D01*
X109966666Y-123798809D01*
X109347619Y-124227380D02*
X109442857Y-124179761D01*
X109490476Y-124084523D01*
X109490476Y-123227380D01*
X108538095Y-124227380D02*
X108538095Y-123227380D01*
X108538095Y-124179761D02*
X108633333Y-124227380D01*
X108823809Y-124227380D01*
X108919047Y-124179761D01*
X108966666Y-124132142D01*
X109014285Y-124036904D01*
X109014285Y-123751190D01*
X108966666Y-123655952D01*
X108919047Y-123608333D01*
X108823809Y-123560714D01*
X108633333Y-123560714D01*
X108538095Y-123608333D01*
X107680952Y-124179761D02*
X107776190Y-124227380D01*
X107966666Y-124227380D01*
X108061904Y-124179761D01*
X108109523Y-124084523D01*
X108109523Y-123703571D01*
X108061904Y-123608333D01*
X107966666Y-123560714D01*
X107776190Y-123560714D01*
X107680952Y-123608333D01*
X107633333Y-123703571D01*
X107633333Y-123798809D01*
X108109523Y-123894047D01*
X107204761Y-124227380D02*
X107204761Y-123560714D01*
X107204761Y-123751190D02*
X107157142Y-123655952D01*
X107109523Y-123608333D01*
X107014285Y-123560714D01*
X106919047Y-123560714D01*
X106585714Y-124227380D02*
X106585714Y-123560714D01*
X106585714Y-123227380D02*
X106633333Y-123275000D01*
X106585714Y-123322619D01*
X106538095Y-123275000D01*
X106585714Y-123227380D01*
X106585714Y-123322619D01*
X106109523Y-123560714D02*
X106109523Y-124227380D01*
X106109523Y-123655952D02*
X106061904Y-123608333D01*
X105966666Y-123560714D01*
X105823809Y-123560714D01*
X105728571Y-123608333D01*
X105680952Y-123703571D01*
X105680952Y-124227380D01*
X104776190Y-123560714D02*
X104776190Y-124370238D01*
X104823809Y-124465476D01*
X104871428Y-124513095D01*
X104966666Y-124560714D01*
X105109523Y-124560714D01*
X105204761Y-124513095D01*
X104776190Y-124179761D02*
X104871428Y-124227380D01*
X105061904Y-124227380D01*
X105157142Y-124179761D01*
X105204761Y-124132142D01*
X105252380Y-124036904D01*
X105252380Y-123751190D01*
X105204761Y-123655952D01*
X105157142Y-123608333D01*
X105061904Y-123560714D01*
X104871428Y-123560714D01*
X104776190Y-123608333D01*
X114180952Y-126447380D02*
X114180952Y-127161666D01*
X114228571Y-127304523D01*
X114323809Y-127399761D01*
X114466666Y-127447380D01*
X114561904Y-127447380D01*
X113276190Y-126780714D02*
X113276190Y-127447380D01*
X113704761Y-126780714D02*
X113704761Y-127304523D01*
X113657142Y-127399761D01*
X113561904Y-127447380D01*
X113419047Y-127447380D01*
X113323809Y-127399761D01*
X113276190Y-127352142D01*
X112657142Y-127447380D02*
X112752380Y-127399761D01*
X112800000Y-127304523D01*
X112800000Y-126447380D01*
X112276190Y-127447380D02*
X112276190Y-126780714D01*
X112276190Y-126447380D02*
X112323809Y-126495000D01*
X112276190Y-126542619D01*
X112228571Y-126495000D01*
X112276190Y-126447380D01*
X112276190Y-126542619D01*
X111371428Y-127447380D02*
X111371428Y-126923571D01*
X111419047Y-126828333D01*
X111514285Y-126780714D01*
X111704761Y-126780714D01*
X111800000Y-126828333D01*
X111371428Y-127399761D02*
X111466666Y-127447380D01*
X111704761Y-127447380D01*
X111800000Y-127399761D01*
X111847619Y-127304523D01*
X111847619Y-127209285D01*
X111800000Y-127114047D01*
X111704761Y-127066428D01*
X111466666Y-127066428D01*
X111371428Y-127018809D01*
X110180952Y-127161666D02*
X109704761Y-127161666D01*
X110276190Y-127447380D02*
X109942857Y-126447380D01*
X109609523Y-127447380D01*
X108847619Y-127447380D02*
X108847619Y-126923571D01*
X108895238Y-126828333D01*
X108990476Y-126780714D01*
X109180952Y-126780714D01*
X109276190Y-126828333D01*
X108847619Y-127399761D02*
X108942857Y-127447380D01*
X109180952Y-127447380D01*
X109276190Y-127399761D01*
X109323809Y-127304523D01*
X109323809Y-127209285D01*
X109276190Y-127114047D01*
X109180952Y-127066428D01*
X108942857Y-127066428D01*
X108847619Y-127018809D01*
X108228571Y-127447380D02*
X108323809Y-127399761D01*
X108371428Y-127304523D01*
X108371428Y-126447380D01*
X107847619Y-127447380D02*
X107847619Y-126447380D01*
X107847619Y-126828333D02*
X107752380Y-126780714D01*
X107561904Y-126780714D01*
X107466666Y-126828333D01*
X107419047Y-126875952D01*
X107371428Y-126971190D01*
X107371428Y-127256904D01*
X107419047Y-127352142D01*
X107466666Y-127399761D01*
X107561904Y-127447380D01*
X107752380Y-127447380D01*
X107847619Y-127399761D01*
X106561904Y-127399761D02*
X106657142Y-127447380D01*
X106847619Y-127447380D01*
X106942857Y-127399761D01*
X106990476Y-127304523D01*
X106990476Y-126923571D01*
X106942857Y-126828333D01*
X106847619Y-126780714D01*
X106657142Y-126780714D01*
X106561904Y-126828333D01*
X106514285Y-126923571D01*
X106514285Y-127018809D01*
X106990476Y-127114047D01*
X106085714Y-127447380D02*
X106085714Y-126780714D01*
X106085714Y-126971190D02*
X106038095Y-126875952D01*
X105990476Y-126828333D01*
X105895238Y-126780714D01*
X105800000Y-126780714D01*
X105514285Y-127399761D02*
X105419047Y-127447380D01*
X105228571Y-127447380D01*
X105133333Y-127399761D01*
X105085714Y-127304523D01*
X105085714Y-127256904D01*
X105133333Y-127161666D01*
X105228571Y-127114047D01*
X105371428Y-127114047D01*
X105466666Y-127066428D01*
X105514285Y-126971190D01*
X105514285Y-126923571D01*
X105466666Y-126828333D01*
X105371428Y-126780714D01*
X105228571Y-126780714D01*
X105133333Y-126828333D01*
X113990476Y-129057380D02*
X113990476Y-128057380D01*
X113657142Y-128771666D01*
X113323809Y-128057380D01*
X113323809Y-129057380D01*
X112419047Y-129057380D02*
X112419047Y-128533571D01*
X112466666Y-128438333D01*
X112561904Y-128390714D01*
X112752380Y-128390714D01*
X112847619Y-128438333D01*
X112419047Y-129009761D02*
X112514285Y-129057380D01*
X112752380Y-129057380D01*
X112847619Y-129009761D01*
X112895238Y-128914523D01*
X112895238Y-128819285D01*
X112847619Y-128724047D01*
X112752380Y-128676428D01*
X112514285Y-128676428D01*
X112419047Y-128628809D01*
X111942857Y-129057380D02*
X111942857Y-128390714D01*
X111942857Y-128581190D02*
X111895238Y-128485952D01*
X111847619Y-128438333D01*
X111752380Y-128390714D01*
X111657142Y-128390714D01*
X111323809Y-128390714D02*
X111323809Y-129057380D01*
X111323809Y-128485952D02*
X111276190Y-128438333D01*
X111180952Y-128390714D01*
X111038095Y-128390714D01*
X110942857Y-128438333D01*
X110895238Y-128533571D01*
X110895238Y-129057380D01*
X110419047Y-129057380D02*
X110419047Y-128390714D01*
X110419047Y-128057380D02*
X110466666Y-128105000D01*
X110419047Y-128152619D01*
X110371428Y-128105000D01*
X110419047Y-128057380D01*
X110419047Y-128152619D01*
X110038095Y-129057380D02*
X109514285Y-128390714D01*
X110038095Y-128390714D02*
X109514285Y-129057380D01*
X107895238Y-129057380D02*
X108371428Y-129057380D01*
X108371428Y-128057380D01*
X107133333Y-129057380D02*
X107133333Y-128533571D01*
X107180952Y-128438333D01*
X107276190Y-128390714D01*
X107466666Y-128390714D01*
X107561904Y-128438333D01*
X107133333Y-129009761D02*
X107228571Y-129057380D01*
X107466666Y-129057380D01*
X107561904Y-129009761D01*
X107609523Y-128914523D01*
X107609523Y-128819285D01*
X107561904Y-128724047D01*
X107466666Y-128676428D01*
X107228571Y-128676428D01*
X107133333Y-128628809D01*
X106228571Y-129057380D02*
X106228571Y-128533571D01*
X106276190Y-128438333D01*
X106371428Y-128390714D01*
X106561904Y-128390714D01*
X106657142Y-128438333D01*
X106228571Y-129009761D02*
X106323809Y-129057380D01*
X106561904Y-129057380D01*
X106657142Y-129009761D01*
X106704761Y-128914523D01*
X106704761Y-128819285D01*
X106657142Y-128724047D01*
X106561904Y-128676428D01*
X106323809Y-128676428D01*
X106228571Y-128628809D01*
X105752380Y-129057380D02*
X105752380Y-128390714D01*
X105752380Y-128581190D02*
X105704761Y-128485952D01*
X105657142Y-128438333D01*
X105561904Y-128390714D01*
X105466666Y-128390714D01*
X114680952Y-130667380D02*
X114680952Y-129667380D01*
X114109523Y-130667380D01*
X114109523Y-129667380D01*
X113633333Y-130667380D02*
X113633333Y-130000714D01*
X113633333Y-129667380D02*
X113680952Y-129715000D01*
X113633333Y-129762619D01*
X113585714Y-129715000D01*
X113633333Y-129667380D01*
X113633333Y-129762619D01*
X112728571Y-130667380D02*
X112728571Y-130143571D01*
X112776190Y-130048333D01*
X112871428Y-130000714D01*
X113061904Y-130000714D01*
X113157142Y-130048333D01*
X112728571Y-130619761D02*
X112823809Y-130667380D01*
X113061904Y-130667380D01*
X113157142Y-130619761D01*
X113204761Y-130524523D01*
X113204761Y-130429285D01*
X113157142Y-130334047D01*
X113061904Y-130286428D01*
X112823809Y-130286428D01*
X112728571Y-130238809D01*
X112252380Y-130000714D02*
X112252380Y-130667380D01*
X112252380Y-130095952D02*
X112204761Y-130048333D01*
X112109523Y-130000714D01*
X111966666Y-130000714D01*
X111871428Y-130048333D01*
X111823809Y-130143571D01*
X111823809Y-130667380D01*
X110109523Y-130667380D02*
X110585714Y-130667380D01*
X110585714Y-129667380D01*
X109347619Y-130000714D02*
X109347619Y-130667380D01*
X109776190Y-130000714D02*
X109776190Y-130524523D01*
X109728571Y-130619761D01*
X109633333Y-130667380D01*
X109490476Y-130667380D01*
X109395238Y-130619761D01*
X109347619Y-130572142D01*
X108871428Y-130667380D02*
X108871428Y-130000714D01*
X108871428Y-129667380D02*
X108919047Y-129715000D01*
X108871428Y-129762619D01*
X108823809Y-129715000D01*
X108871428Y-129667380D01*
X108871428Y-129762619D01*
X108442857Y-130619761D02*
X108347619Y-130667380D01*
X108157142Y-130667380D01*
X108061904Y-130619761D01*
X108014285Y-130524523D01*
X108014285Y-130476904D01*
X108061904Y-130381666D01*
X108157142Y-130334047D01*
X108300000Y-130334047D01*
X108395238Y-130286428D01*
X108442857Y-130191190D01*
X108442857Y-130143571D01*
X108395238Y-130048333D01*
X108300000Y-130000714D01*
X108157142Y-130000714D01*
X108061904Y-130048333D01*
X107585714Y-130667380D02*
X107585714Y-130000714D01*
X107585714Y-130095952D02*
X107538095Y-130048333D01*
X107442857Y-130000714D01*
X107300000Y-130000714D01*
X107204761Y-130048333D01*
X107157142Y-130143571D01*
X107157142Y-130667380D01*
X107157142Y-130143571D02*
X107109523Y-130048333D01*
X107014285Y-130000714D01*
X106871428Y-130000714D01*
X106776190Y-130048333D01*
X106728571Y-130143571D01*
X106728571Y-130667380D01*
X105823809Y-130667380D02*
X105823809Y-130143571D01*
X105871428Y-130048333D01*
X105966666Y-130000714D01*
X106157142Y-130000714D01*
X106252380Y-130048333D01*
X105823809Y-130619761D02*
X105919047Y-130667380D01*
X106157142Y-130667380D01*
X106252380Y-130619761D01*
X106300000Y-130524523D01*
X106300000Y-130429285D01*
X106252380Y-130334047D01*
X106157142Y-130286428D01*
X105919047Y-130286428D01*
X105823809Y-130238809D01*
X105347619Y-130000714D02*
X105347619Y-130667380D01*
X105347619Y-130095952D02*
X105300000Y-130048333D01*
X105204761Y-130000714D01*
X105061904Y-130000714D01*
X104966666Y-130048333D01*
X104919047Y-130143571D01*
X104919047Y-130667380D01*
X115109523Y-132277380D02*
X115109523Y-131277380D01*
X114633333Y-132277380D02*
X114633333Y-131610714D01*
X114633333Y-131801190D02*
X114585714Y-131705952D01*
X114538095Y-131658333D01*
X114442857Y-131610714D01*
X114347619Y-131610714D01*
X113633333Y-132229761D02*
X113728571Y-132277380D01*
X113919047Y-132277380D01*
X114014285Y-132229761D01*
X114061904Y-132134523D01*
X114061904Y-131753571D01*
X114014285Y-131658333D01*
X113919047Y-131610714D01*
X113728571Y-131610714D01*
X113633333Y-131658333D01*
X113585714Y-131753571D01*
X113585714Y-131848809D01*
X114061904Y-131944047D01*
X113157142Y-131610714D02*
X113157142Y-132277380D01*
X113157142Y-131705952D02*
X113109523Y-131658333D01*
X113014285Y-131610714D01*
X112871428Y-131610714D01*
X112776190Y-131658333D01*
X112728571Y-131753571D01*
X112728571Y-132277380D01*
X111871428Y-132229761D02*
X111966666Y-132277380D01*
X112157142Y-132277380D01*
X112252380Y-132229761D01*
X112300000Y-132134523D01*
X112300000Y-131753571D01*
X112252380Y-131658333D01*
X112157142Y-131610714D01*
X111966666Y-131610714D01*
X111871428Y-131658333D01*
X111823809Y-131753571D01*
X111823809Y-131848809D01*
X112300000Y-131944047D01*
X110633333Y-132277380D02*
X110633333Y-131277380D01*
X110061904Y-132277380D01*
X110061904Y-131277380D01*
X109442857Y-132277380D02*
X109538095Y-132229761D01*
X109585714Y-132182142D01*
X109633333Y-132086904D01*
X109633333Y-131801190D01*
X109585714Y-131705952D01*
X109538095Y-131658333D01*
X109442857Y-131610714D01*
X109300000Y-131610714D01*
X109204761Y-131658333D01*
X109157142Y-131705952D01*
X109109523Y-131801190D01*
X109109523Y-132086904D01*
X109157142Y-132182142D01*
X109204761Y-132229761D01*
X109300000Y-132277380D01*
X109442857Y-132277380D01*
X108538095Y-132277380D02*
X108633333Y-132229761D01*
X108680952Y-132182142D01*
X108728571Y-132086904D01*
X108728571Y-131801190D01*
X108680952Y-131705952D01*
X108633333Y-131658333D01*
X108538095Y-131610714D01*
X108395238Y-131610714D01*
X108300000Y-131658333D01*
X108252380Y-131705952D01*
X108204761Y-131801190D01*
X108204761Y-132086904D01*
X108252380Y-132182142D01*
X108300000Y-132229761D01*
X108395238Y-132277380D01*
X108538095Y-132277380D01*
X107776190Y-132277380D02*
X107776190Y-131610714D01*
X107776190Y-131801190D02*
X107728571Y-131705952D01*
X107680952Y-131658333D01*
X107585714Y-131610714D01*
X107490476Y-131610714D01*
X107157142Y-132277380D02*
X107157142Y-131610714D01*
X107157142Y-131705952D02*
X107109523Y-131658333D01*
X107014285Y-131610714D01*
X106871428Y-131610714D01*
X106776190Y-131658333D01*
X106728571Y-131753571D01*
X106728571Y-132277380D01*
X106728571Y-131753571D02*
X106680952Y-131658333D01*
X106585714Y-131610714D01*
X106442857Y-131610714D01*
X106347619Y-131658333D01*
X106300000Y-131753571D01*
X106300000Y-132277380D01*
X105395238Y-132277380D02*
X105395238Y-131753571D01*
X105442857Y-131658333D01*
X105538095Y-131610714D01*
X105728571Y-131610714D01*
X105823809Y-131658333D01*
X105395238Y-132229761D02*
X105490476Y-132277380D01*
X105728571Y-132277380D01*
X105823809Y-132229761D01*
X105871428Y-132134523D01*
X105871428Y-132039285D01*
X105823809Y-131944047D01*
X105728571Y-131896428D01*
X105490476Y-131896428D01*
X105395238Y-131848809D01*
X104919047Y-131610714D02*
X104919047Y-132277380D01*
X104919047Y-131705952D02*
X104871428Y-131658333D01*
X104776190Y-131610714D01*
X104633333Y-131610714D01*
X104538095Y-131658333D01*
X104490476Y-131753571D01*
X104490476Y-132277380D01*
X114538095Y-133792142D02*
X114585714Y-133839761D01*
X114728571Y-133887380D01*
X114823809Y-133887380D01*
X114966666Y-133839761D01*
X115061904Y-133744523D01*
X115109523Y-133649285D01*
X115157142Y-133458809D01*
X115157142Y-133315952D01*
X115109523Y-133125476D01*
X115061904Y-133030238D01*
X114966666Y-132935000D01*
X114823809Y-132887380D01*
X114728571Y-132887380D01*
X114585714Y-132935000D01*
X114538095Y-132982619D01*
X113680952Y-133887380D02*
X113680952Y-133363571D01*
X113728571Y-133268333D01*
X113823809Y-133220714D01*
X114014285Y-133220714D01*
X114109523Y-133268333D01*
X113680952Y-133839761D02*
X113776190Y-133887380D01*
X114014285Y-133887380D01*
X114109523Y-133839761D01*
X114157142Y-133744523D01*
X114157142Y-133649285D01*
X114109523Y-133554047D01*
X114014285Y-133506428D01*
X113776190Y-133506428D01*
X113680952Y-133458809D01*
X113204761Y-133887380D02*
X113204761Y-133220714D01*
X113204761Y-133315952D02*
X113157142Y-133268333D01*
X113061904Y-133220714D01*
X112919047Y-133220714D01*
X112823809Y-133268333D01*
X112776190Y-133363571D01*
X112776190Y-133887380D01*
X112776190Y-133363571D02*
X112728571Y-133268333D01*
X112633333Y-133220714D01*
X112490476Y-133220714D01*
X112395238Y-133268333D01*
X112347619Y-133363571D01*
X112347619Y-133887380D01*
X111871428Y-133887380D02*
X111871428Y-133220714D01*
X111871428Y-132887380D02*
X111919047Y-132935000D01*
X111871428Y-132982619D01*
X111823809Y-132935000D01*
X111871428Y-132887380D01*
X111871428Y-132982619D01*
X111014285Y-133839761D02*
X111109523Y-133887380D01*
X111300000Y-133887380D01*
X111395238Y-133839761D01*
X111442857Y-133744523D01*
X111442857Y-133363571D01*
X111395238Y-133268333D01*
X111300000Y-133220714D01*
X111109523Y-133220714D01*
X111014285Y-133268333D01*
X110966666Y-133363571D01*
X110966666Y-133458809D01*
X111442857Y-133554047D01*
X110395238Y-133887380D02*
X110490476Y-133839761D01*
X110538095Y-133744523D01*
X110538095Y-132887380D01*
X109395238Y-132887380D02*
X109061904Y-133887380D01*
X108728571Y-132887380D01*
X108014285Y-133839761D02*
X108109523Y-133887380D01*
X108300000Y-133887380D01*
X108395238Y-133839761D01*
X108442857Y-133744523D01*
X108442857Y-133363571D01*
X108395238Y-133268333D01*
X108300000Y-133220714D01*
X108109523Y-133220714D01*
X108014285Y-133268333D01*
X107966666Y-133363571D01*
X107966666Y-133458809D01*
X108442857Y-133554047D01*
X107538095Y-133887380D02*
X107538095Y-133220714D01*
X107538095Y-133411190D02*
X107490476Y-133315952D01*
X107442857Y-133268333D01*
X107347619Y-133220714D01*
X107252380Y-133220714D01*
X106490476Y-133887380D02*
X106490476Y-132887380D01*
X106490476Y-133839761D02*
X106585714Y-133887380D01*
X106776190Y-133887380D01*
X106871428Y-133839761D01*
X106919047Y-133792142D01*
X106966666Y-133696904D01*
X106966666Y-133411190D01*
X106919047Y-133315952D01*
X106871428Y-133268333D01*
X106776190Y-133220714D01*
X106585714Y-133220714D01*
X106490476Y-133268333D01*
X105585714Y-133220714D02*
X105585714Y-133887380D01*
X106014285Y-133220714D02*
X106014285Y-133744523D01*
X105966666Y-133839761D01*
X105871428Y-133887380D01*
X105728571Y-133887380D01*
X105633333Y-133839761D01*
X105585714Y-133792142D01*
X104966666Y-133887380D02*
X105061904Y-133839761D01*
X105109523Y-133744523D01*
X105109523Y-132887380D01*
X104728571Y-133220714D02*
X104347619Y-133220714D01*
X104585714Y-132887380D02*
X104585714Y-133744523D01*
X104538095Y-133839761D01*
X104442857Y-133887380D01*
X104347619Y-133887380D01*
D12*
X143138832Y-108169336D02*
X143138832Y-107169336D01*
X142900737Y-107169336D01*
X142757879Y-107216956D01*
X142662641Y-107312194D01*
X142615022Y-107407432D01*
X142567403Y-107597908D01*
X142567403Y-107740765D01*
X142615022Y-107931241D01*
X142662641Y-108026479D01*
X142757879Y-108121717D01*
X142900737Y-108169336D01*
X143138832Y-108169336D01*
X141757879Y-108121717D02*
X141853118Y-108169336D01*
X142043594Y-108169336D01*
X142138832Y-108121717D01*
X142186451Y-108026479D01*
X142186451Y-107645527D01*
X142138832Y-107550289D01*
X142043594Y-107502670D01*
X141853118Y-107502670D01*
X141757879Y-107550289D01*
X141710260Y-107645527D01*
X141710260Y-107740765D01*
X142186451Y-107836003D01*
X141329308Y-108121717D02*
X141234070Y-108169336D01*
X141043594Y-108169336D01*
X140948356Y-108121717D01*
X140900737Y-108026479D01*
X140900737Y-107978860D01*
X140948356Y-107883622D01*
X141043594Y-107836003D01*
X141186451Y-107836003D01*
X141281689Y-107788384D01*
X141329308Y-107693146D01*
X141329308Y-107645527D01*
X141281689Y-107550289D01*
X141186451Y-107502670D01*
X141043594Y-107502670D01*
X140948356Y-107550289D01*
X140472165Y-108169336D02*
X140472165Y-107502670D01*
X140472165Y-107169336D02*
X140519784Y-107216956D01*
X140472165Y-107264575D01*
X140424546Y-107216956D01*
X140472165Y-107169336D01*
X140472165Y-107264575D01*
X139567403Y-107502670D02*
X139567403Y-108312194D01*
X139615022Y-108407432D01*
X139662641Y-108455051D01*
X139757879Y-108502670D01*
X139900737Y-108502670D01*
X139995975Y-108455051D01*
X139567403Y-108121717D02*
X139662641Y-108169336D01*
X139853118Y-108169336D01*
X139948356Y-108121717D01*
X139995975Y-108074098D01*
X140043594Y-107978860D01*
X140043594Y-107693146D01*
X139995975Y-107597908D01*
X139948356Y-107550289D01*
X139853118Y-107502670D01*
X139662641Y-107502670D01*
X139567403Y-107550289D01*
X139091213Y-107502670D02*
X139091213Y-108169336D01*
X139091213Y-107597908D02*
X139043594Y-107550289D01*
X138948356Y-107502670D01*
X138805499Y-107502670D01*
X138710260Y-107550289D01*
X138662641Y-107645527D01*
X138662641Y-108169336D01*
X137805499Y-108121717D02*
X137900737Y-108169336D01*
X138091213Y-108169336D01*
X138186451Y-108121717D01*
X138234070Y-108026479D01*
X138234070Y-107645527D01*
X138186451Y-107550289D01*
X138091213Y-107502670D01*
X137900737Y-107502670D01*
X137805499Y-107550289D01*
X137757879Y-107645527D01*
X137757879Y-107740765D01*
X138234070Y-107836003D01*
X136900737Y-108169336D02*
X136900737Y-107169336D01*
X136900737Y-108121717D02*
X136995975Y-108169336D01*
X137186451Y-108169336D01*
X137281689Y-108121717D01*
X137329308Y-108074098D01*
X137376927Y-107978860D01*
X137376927Y-107693146D01*
X137329308Y-107597908D01*
X137281689Y-107550289D01*
X137186451Y-107502670D01*
X136995975Y-107502670D01*
X136900737Y-107550289D01*
X134853118Y-108169336D02*
X134900737Y-108169336D01*
X134995975Y-108121717D01*
X135138832Y-107978860D01*
X135376927Y-107693146D01*
X135472165Y-107550289D01*
X135519784Y-107407432D01*
X135519784Y-107312194D01*
X135472165Y-107216956D01*
X135376927Y-107169336D01*
X135329308Y-107169336D01*
X135234070Y-107216956D01*
X135186451Y-107312194D01*
X135186451Y-107359813D01*
X135234070Y-107455051D01*
X135281689Y-107502670D01*
X135567403Y-107693146D01*
X135615022Y-107740765D01*
X135662641Y-107836003D01*
X135662641Y-107978860D01*
X135615022Y-108074098D01*
X135567403Y-108121717D01*
X135472165Y-108169336D01*
X135329308Y-108169336D01*
X135234070Y-108121717D01*
X135186451Y-108074098D01*
X135043594Y-107883622D01*
X134995975Y-107740765D01*
X134995975Y-107645527D01*
X133234070Y-108169336D02*
X133234070Y-107645527D01*
X133281689Y-107550289D01*
X133376927Y-107502670D01*
X133567403Y-107502670D01*
X133662641Y-107550289D01*
X133234070Y-108121717D02*
X133329308Y-108169336D01*
X133567403Y-108169336D01*
X133662641Y-108121717D01*
X133710260Y-108026479D01*
X133710260Y-107931241D01*
X133662641Y-107836003D01*
X133567403Y-107788384D01*
X133329308Y-107788384D01*
X133234070Y-107740765D01*
X132805499Y-108121717D02*
X132710260Y-108169336D01*
X132519784Y-108169336D01*
X132424546Y-108121717D01*
X132376927Y-108026479D01*
X132376927Y-107978860D01*
X132424546Y-107883622D01*
X132519784Y-107836003D01*
X132662641Y-107836003D01*
X132757879Y-107788384D01*
X132805499Y-107693146D01*
X132805499Y-107645527D01*
X132757879Y-107550289D01*
X132662641Y-107502670D01*
X132519784Y-107502670D01*
X132424546Y-107550289D01*
X131995975Y-108121717D02*
X131900737Y-108169336D01*
X131710260Y-108169336D01*
X131615022Y-108121717D01*
X131567403Y-108026479D01*
X131567403Y-107978860D01*
X131615022Y-107883622D01*
X131710260Y-107836003D01*
X131853118Y-107836003D01*
X131948356Y-107788384D01*
X131995975Y-107693146D01*
X131995975Y-107645527D01*
X131948356Y-107550289D01*
X131853118Y-107502670D01*
X131710260Y-107502670D01*
X131615022Y-107550289D01*
X130757879Y-108121717D02*
X130853118Y-108169336D01*
X131043594Y-108169336D01*
X131138832Y-108121717D01*
X131186451Y-108026479D01*
X131186451Y-107645527D01*
X131138832Y-107550289D01*
X131043594Y-107502670D01*
X130853118Y-107502670D01*
X130757879Y-107550289D01*
X130710260Y-107645527D01*
X130710260Y-107740765D01*
X131186451Y-107836003D01*
X130281689Y-108169336D02*
X130281689Y-107502670D01*
X130281689Y-107597908D02*
X130234070Y-107550289D01*
X130138832Y-107502670D01*
X129995975Y-107502670D01*
X129900737Y-107550289D01*
X129853118Y-107645527D01*
X129853118Y-108169336D01*
X129853118Y-107645527D02*
X129805499Y-107550289D01*
X129710260Y-107502670D01*
X129567403Y-107502670D01*
X129472165Y-107550289D01*
X129424546Y-107645527D01*
X129424546Y-108169336D01*
X128948356Y-108169336D02*
X128948356Y-107169336D01*
X128948356Y-107550289D02*
X128853118Y-107502670D01*
X128662641Y-107502670D01*
X128567403Y-107550289D01*
X128519784Y-107597908D01*
X128472165Y-107693146D01*
X128472165Y-107978860D01*
X128519784Y-108074098D01*
X128567403Y-108121717D01*
X128662641Y-108169336D01*
X128853118Y-108169336D01*
X128948356Y-108121717D01*
X127900737Y-108169336D02*
X127995975Y-108121717D01*
X128043594Y-108026479D01*
X128043594Y-107169336D01*
X127138832Y-108121717D02*
X127234070Y-108169336D01*
X127424546Y-108169336D01*
X127519784Y-108121717D01*
X127567403Y-108026479D01*
X127567403Y-107645527D01*
X127519784Y-107550289D01*
X127424546Y-107502670D01*
X127234070Y-107502670D01*
X127138832Y-107550289D01*
X127091213Y-107645527D01*
X127091213Y-107740765D01*
X127567403Y-107836003D01*
X126234070Y-108169336D02*
X126234070Y-107169336D01*
X126234070Y-108121717D02*
X126329308Y-108169336D01*
X126519784Y-108169336D01*
X126615022Y-108121717D01*
X126662641Y-108074098D01*
X126710260Y-107978860D01*
X126710260Y-107693146D01*
X126662641Y-107597908D01*
X126615022Y-107550289D01*
X126519784Y-107502670D01*
X126329308Y-107502670D01*
X126234070Y-107550289D01*
X138638832Y-109779336D02*
X138638832Y-109112670D01*
X138638832Y-108779336D02*
X138686451Y-108826956D01*
X138638832Y-108874575D01*
X138591213Y-108826956D01*
X138638832Y-108779336D01*
X138638832Y-108874575D01*
X138162641Y-109112670D02*
X138162641Y-109779336D01*
X138162641Y-109207908D02*
X138115022Y-109160289D01*
X138019784Y-109112670D01*
X137876927Y-109112670D01*
X137781689Y-109160289D01*
X137734070Y-109255527D01*
X137734070Y-109779336D01*
X136495975Y-109255527D02*
X136162641Y-109255527D01*
X136019784Y-109779336D02*
X136495975Y-109779336D01*
X136495975Y-108779336D01*
X136019784Y-108779336D01*
X135591213Y-109112670D02*
X135591213Y-109779336D01*
X135591213Y-109207908D02*
X135543594Y-109160289D01*
X135448356Y-109112670D01*
X135305499Y-109112670D01*
X135210260Y-109160289D01*
X135162641Y-109255527D01*
X135162641Y-109779336D01*
X134734070Y-109731717D02*
X134638832Y-109779336D01*
X134448356Y-109779336D01*
X134353118Y-109731717D01*
X134305499Y-109636479D01*
X134305499Y-109588860D01*
X134353118Y-109493622D01*
X134448356Y-109446003D01*
X134591213Y-109446003D01*
X134686451Y-109398384D01*
X134734070Y-109303146D01*
X134734070Y-109255527D01*
X134686451Y-109160289D01*
X134591213Y-109112670D01*
X134448356Y-109112670D01*
X134353118Y-109160289D01*
X133448356Y-109731717D02*
X133543594Y-109779336D01*
X133734070Y-109779336D01*
X133829308Y-109731717D01*
X133876927Y-109684098D01*
X133924546Y-109588860D01*
X133924546Y-109303146D01*
X133876927Y-109207908D01*
X133829308Y-109160289D01*
X133734070Y-109112670D01*
X133543594Y-109112670D01*
X133448356Y-109160289D01*
X133019784Y-109779336D02*
X133019784Y-108779336D01*
X132591213Y-109779336D02*
X132591213Y-109255527D01*
X132638832Y-109160289D01*
X132734070Y-109112670D01*
X132876927Y-109112670D01*
X132972165Y-109160289D01*
X133019784Y-109207908D01*
X131734070Y-109731717D02*
X131829308Y-109779336D01*
X132019784Y-109779336D01*
X132115022Y-109731717D01*
X132162641Y-109636479D01*
X132162641Y-109255527D01*
X132115022Y-109160289D01*
X132019784Y-109112670D01*
X131829308Y-109112670D01*
X131734070Y-109160289D01*
X131686451Y-109255527D01*
X131686451Y-109350765D01*
X132162641Y-109446003D01*
X130829308Y-109779336D02*
X130829308Y-108779336D01*
X130829308Y-109731717D02*
X130924546Y-109779336D01*
X131115022Y-109779336D01*
X131210260Y-109731717D01*
X131257879Y-109684098D01*
X131305499Y-109588860D01*
X131305499Y-109303146D01*
X131257879Y-109207908D01*
X131210260Y-109160289D01*
X131115022Y-109112670D01*
X130924546Y-109112670D01*
X130829308Y-109160289D01*
X129972165Y-109731717D02*
X130067403Y-109779336D01*
X130257879Y-109779336D01*
X130353118Y-109731717D01*
X130400737Y-109636479D01*
X130400737Y-109255527D01*
X130353118Y-109160289D01*
X130257879Y-109112670D01*
X130067403Y-109112670D01*
X129972165Y-109160289D01*
X129924546Y-109255527D01*
X129924546Y-109350765D01*
X130400737Y-109446003D01*
X139019784Y-111389336D02*
X139019784Y-110389336D01*
X139019784Y-110770289D02*
X138924546Y-110722670D01*
X138734070Y-110722670D01*
X138638832Y-110770289D01*
X138591213Y-110817908D01*
X138543594Y-110913146D01*
X138543594Y-111198860D01*
X138591213Y-111294098D01*
X138638832Y-111341717D01*
X138734070Y-111389336D01*
X138924546Y-111389336D01*
X139019784Y-111341717D01*
X138210260Y-110722670D02*
X137972165Y-111389336D01*
X137734070Y-110722670D02*
X137972165Y-111389336D01*
X138067403Y-111627432D01*
X138115022Y-111675051D01*
X138210260Y-111722670D01*
X136591213Y-111389336D02*
X136591213Y-110389336D01*
X136210260Y-110389336D01*
X136115022Y-110436956D01*
X136067403Y-110484575D01*
X136019784Y-110579813D01*
X136019784Y-110722670D01*
X136067403Y-110817908D01*
X136115022Y-110865527D01*
X136210260Y-110913146D01*
X136591213Y-110913146D01*
X135591213Y-111389336D02*
X135591213Y-110722670D01*
X135591213Y-110389336D02*
X135638832Y-110436956D01*
X135591213Y-110484575D01*
X135543594Y-110436956D01*
X135591213Y-110389336D01*
X135591213Y-110484575D01*
X135115022Y-110722670D02*
X135115022Y-111389336D01*
X135115022Y-110817908D02*
X135067403Y-110770289D01*
X134972165Y-110722670D01*
X134829308Y-110722670D01*
X134734070Y-110770289D01*
X134686451Y-110865527D01*
X134686451Y-111389336D01*
X134353118Y-110722670D02*
X133972165Y-110722670D01*
X134210260Y-110389336D02*
X134210260Y-111246479D01*
X134162641Y-111341717D01*
X134067403Y-111389336D01*
X133972165Y-111389336D01*
X133686451Y-111103622D02*
X133210260Y-111103622D01*
X133781689Y-111389336D02*
X133448356Y-110389336D01*
X133115022Y-111389336D01*
X132781689Y-110722670D02*
X132781689Y-111722670D01*
X132781689Y-110770289D02*
X132686451Y-110722670D01*
X132495975Y-110722670D01*
X132400737Y-110770289D01*
X132353118Y-110817908D01*
X132305499Y-110913146D01*
X132305499Y-111198860D01*
X132353118Y-111294098D01*
X132400737Y-111341717D01*
X132495975Y-111389336D01*
X132686451Y-111389336D01*
X132781689Y-111341717D01*
X131876927Y-110722670D02*
X131876927Y-111722670D01*
X131876927Y-110770289D02*
X131781689Y-110722670D01*
X131591213Y-110722670D01*
X131495975Y-110770289D01*
X131448356Y-110817908D01*
X131400737Y-110913146D01*
X131400737Y-111198860D01*
X131448356Y-111294098D01*
X131495975Y-111341717D01*
X131591213Y-111389336D01*
X131781689Y-111389336D01*
X131876927Y-111341717D01*
X130829308Y-111389336D02*
X130924546Y-111341717D01*
X130972165Y-111246479D01*
X130972165Y-110389336D01*
X130067403Y-111341717D02*
X130162641Y-111389336D01*
X130353118Y-111389336D01*
X130448356Y-111341717D01*
X130495975Y-111246479D01*
X130495975Y-110865527D01*
X130448356Y-110770289D01*
X130353118Y-110722670D01*
X130162641Y-110722670D01*
X130067403Y-110770289D01*
X130019784Y-110865527D01*
X130019784Y-110960765D01*
X130495975Y-111056003D01*
X129591213Y-111294098D02*
X129543594Y-111341717D01*
X129591213Y-111389336D01*
X129638832Y-111341717D01*
X129591213Y-111294098D01*
X129591213Y-111389336D01*
%TO.C,R12*%
X121842857Y-135052380D02*
X122176190Y-134576190D01*
X122414285Y-135052380D02*
X122414285Y-134052380D01*
X122033333Y-134052380D01*
X121938095Y-134100000D01*
X121890476Y-134147619D01*
X121842857Y-134242857D01*
X121842857Y-134385714D01*
X121890476Y-134480952D01*
X121938095Y-134528571D01*
X122033333Y-134576190D01*
X122414285Y-134576190D01*
X120890476Y-135052380D02*
X121461904Y-135052380D01*
X121176190Y-135052380D02*
X121176190Y-134052380D01*
X121271428Y-134195238D01*
X121366666Y-134290476D01*
X121461904Y-134338095D01*
X120509523Y-134147619D02*
X120461904Y-134100000D01*
X120366666Y-134052380D01*
X120128571Y-134052380D01*
X120033333Y-134100000D01*
X119985714Y-134147619D01*
X119938095Y-134242857D01*
X119938095Y-134338095D01*
X119985714Y-134480952D01*
X120557142Y-135052380D01*
X119938095Y-135052380D01*
%TO.C,R13*%
X121842857Y-137652380D02*
X122176190Y-137176190D01*
X122414285Y-137652380D02*
X122414285Y-136652380D01*
X122033333Y-136652380D01*
X121938095Y-136700000D01*
X121890476Y-136747619D01*
X121842857Y-136842857D01*
X121842857Y-136985714D01*
X121890476Y-137080952D01*
X121938095Y-137128571D01*
X122033333Y-137176190D01*
X122414285Y-137176190D01*
X120890476Y-137652380D02*
X121461904Y-137652380D01*
X121176190Y-137652380D02*
X121176190Y-136652380D01*
X121271428Y-136795238D01*
X121366666Y-136890476D01*
X121461904Y-136938095D01*
X120557142Y-136652380D02*
X119938095Y-136652380D01*
X120271428Y-137033333D01*
X120128571Y-137033333D01*
X120033333Y-137080952D01*
X119985714Y-137128571D01*
X119938095Y-137223809D01*
X119938095Y-137461904D01*
X119985714Y-137557142D01*
X120033333Y-137604761D01*
X120128571Y-137652380D01*
X120414285Y-137652380D01*
X120509523Y-137604761D01*
X120557142Y-137557142D01*
D13*
%TO.C,R12*%
X118127064Y-135510000D02*
X116672936Y-135510000D01*
X118127064Y-133690000D02*
X116672936Y-133690000D01*
%TO.C,R13*%
X118127064Y-136090000D02*
X116672936Y-136090000D01*
X118127064Y-137910000D02*
X116672936Y-137910000D01*
%TD*%
M02*
