%TF.GenerationSoftware,KiCad,Pcbnew,(6.0.2)*%
%TF.CreationDate,2022-04-10T15:53:23+02:00*%
%TF.ProjectId,V3,56332e6b-6963-4616-945f-706362585858,rev?*%
%TF.SameCoordinates,Original*%
%TF.FileFunction,Soldermask,Bot*%
%TF.FilePolarity,Negative*%
%FSLAX46Y46*%
G04 Gerber Fmt 4.6, Leading zero omitted, Abs format (unit mm)*
G04 Created by KiCad (PCBNEW (6.0.2)) date 2022-04-10 15:53:23*
%MOMM*%
%LPD*%
G01*
G04 APERTURE LIST*
%ADD10C,2.700000*%
%ADD11R,1.700000X1.700000*%
%ADD12O,1.700000X1.700000*%
%ADD13O,0.800000X0.800000*%
%ADD14O,1.450000X2.000000*%
%ADD15O,1.150000X1.800000*%
%ADD16C,0.500000*%
%ADD17C,0.800000*%
G04 APERTURE END LIST*
D10*
%TO.C,REF\u002A\u002A*%
X140700000Y-138700000D03*
%TD*%
D11*
%TO.C,J6*%
X121400000Y-131400000D03*
D12*
X123940000Y-131400000D03*
X126480000Y-131400000D03*
X129020000Y-131400000D03*
%TD*%
D10*
%TO.C,REF\u002A\u002A*%
X106600000Y-138600000D03*
%TD*%
D11*
%TO.C,J2*%
X106600000Y-111925000D03*
D12*
X106600000Y-114465000D03*
%TD*%
D11*
%TO.C,J4*%
X135000000Y-132600000D03*
D12*
X135000000Y-135140000D03*
X135000000Y-137680000D03*
X135000000Y-140220000D03*
%TD*%
D11*
%TO.C,J5*%
X121400000Y-128600000D03*
D12*
X123940000Y-128600000D03*
X126480000Y-128600000D03*
X129020000Y-128600000D03*
%TD*%
D13*
%TO.C,J1*%
X125495000Y-136845000D03*
X130495000Y-136845000D03*
D14*
X124270000Y-135795000D03*
D15*
X124120000Y-139595000D03*
D14*
X131720000Y-135795000D03*
D15*
X131870000Y-139595000D03*
%TD*%
D10*
%TO.C,REF\u002A\u002A*%
X106600000Y-104600000D03*
%TD*%
D16*
X116050000Y-112200000D03*
X116050000Y-111000000D03*
X116050000Y-110400000D03*
X116050000Y-111600000D03*
X118100000Y-108400000D03*
X118100000Y-107800000D03*
X117450000Y-108400000D03*
X117450000Y-107800000D03*
X114800000Y-106000000D03*
X142600000Y-104000000D03*
X111600000Y-139000000D03*
X125900000Y-139800000D03*
X128800000Y-114000000D03*
X129500000Y-139200000D03*
X118500000Y-131700000D03*
X128800000Y-117600000D03*
X141400000Y-120200000D03*
X142600000Y-116600000D03*
X115279402Y-117151989D03*
X114600000Y-140800000D03*
X114000000Y-139000000D03*
X128800000Y-114600000D03*
X129400000Y-115800000D03*
X115400000Y-111600000D03*
X118800000Y-103200000D03*
X114700000Y-125200000D03*
X140800000Y-116600000D03*
X129400000Y-114000000D03*
X117900000Y-132300000D03*
X116700000Y-131700000D03*
X119400000Y-103200000D03*
X110600000Y-121200000D03*
X130000000Y-118200000D03*
X116700000Y-129900000D03*
X133000000Y-115800000D03*
X126500000Y-139800000D03*
X110000000Y-121200000D03*
X112800000Y-140800000D03*
X113400000Y-139600000D03*
X140800000Y-118400000D03*
X112800000Y-139600000D03*
X114800000Y-107200000D03*
X117900000Y-130500000D03*
X140800000Y-119000000D03*
X114800000Y-107800000D03*
X142000000Y-103400000D03*
X111600000Y-139600000D03*
X141400000Y-102800000D03*
X114800000Y-106600000D03*
X112200000Y-139600000D03*
X142000000Y-102800000D03*
X115900000Y-125200000D03*
X111200000Y-121200000D03*
X120000000Y-102000000D03*
X112800000Y-139000000D03*
X114600000Y-139000000D03*
X142000000Y-117200000D03*
X131200000Y-117600000D03*
X109400000Y-118400000D03*
X130600000Y-115800000D03*
X142600000Y-103400000D03*
X116700000Y-132300000D03*
X142600000Y-119000000D03*
X111800000Y-120600000D03*
X142000000Y-118400000D03*
X142000000Y-119000000D03*
X142600000Y-117800000D03*
X141400000Y-117800000D03*
X117300000Y-128700000D03*
X111400000Y-108200000D03*
X111400000Y-108800000D03*
X113500000Y-125200000D03*
X117300000Y-131700000D03*
X116700000Y-129300000D03*
X133000000Y-117600000D03*
X116700000Y-131100000D03*
X113600000Y-120600000D03*
X111200000Y-120600000D03*
X133000000Y-118200000D03*
X117900000Y-128100000D03*
X129400000Y-117600000D03*
X120000000Y-103200000D03*
X140800000Y-102800000D03*
X126500000Y-138600000D03*
X111800000Y-121200000D03*
X117300000Y-129900000D03*
X113000000Y-120600000D03*
X130000000Y-114000000D03*
X110400000Y-140800000D03*
X142000000Y-120200000D03*
X130600000Y-116400000D03*
X110600000Y-120600000D03*
X141400000Y-118400000D03*
X127100000Y-139800000D03*
X130600000Y-117000000D03*
X119400000Y-102600000D03*
X131800000Y-116400000D03*
X131800000Y-114600000D03*
X117300000Y-129300000D03*
X128800000Y-117000000D03*
X127700000Y-138600000D03*
X128900000Y-139800000D03*
X128800000Y-115800000D03*
X119400000Y-102000000D03*
X117300000Y-131100000D03*
X132400000Y-118200000D03*
X141400000Y-102200000D03*
X130000000Y-115200000D03*
X114600000Y-140200000D03*
X112400000Y-120600000D03*
X128300000Y-139800000D03*
X108800000Y-120600000D03*
X140800000Y-117800000D03*
X131200000Y-115200000D03*
X118500000Y-128100000D03*
X114600000Y-139600000D03*
X131800000Y-118200000D03*
X130100000Y-139800000D03*
X131200000Y-118200000D03*
X130000000Y-115800000D03*
X111600000Y-140800000D03*
X129400000Y-114600000D03*
X115300000Y-125200000D03*
X116700000Y-128700000D03*
X141400000Y-116000000D03*
X130600000Y-114000000D03*
X133000000Y-114000000D03*
X120000000Y-102600000D03*
X140800000Y-104000000D03*
X112900000Y-125200000D03*
X142600000Y-120200000D03*
X118500000Y-129900000D03*
X114000000Y-140800000D03*
X140800000Y-120200000D03*
X110000000Y-120600000D03*
X130000000Y-116400000D03*
X125900000Y-138600000D03*
X142000000Y-104000000D03*
X111000000Y-140200000D03*
X112200000Y-140800000D03*
X142600000Y-117200000D03*
X127100000Y-139200000D03*
X129400000Y-117000000D03*
X130100000Y-138600000D03*
X118500000Y-132300000D03*
X130600000Y-117600000D03*
X132400000Y-115200000D03*
X109400000Y-120600000D03*
X112200000Y-140200000D03*
X140800000Y-119600000D03*
X129400000Y-116400000D03*
X131200000Y-117000000D03*
X127700000Y-139800000D03*
X111000000Y-139600000D03*
X112800000Y-140200000D03*
X131800000Y-114000000D03*
X113995004Y-139600000D03*
X116700000Y-128100000D03*
X131800000Y-117000000D03*
X113600000Y-116000000D03*
X117900000Y-129300000D03*
X128900000Y-138600000D03*
X110400000Y-140200000D03*
X128800000Y-115200000D03*
X142600000Y-119600000D03*
X108200000Y-119600000D03*
X114100000Y-125200000D03*
X117900000Y-131100000D03*
X118500000Y-128700000D03*
X132400000Y-115800000D03*
X118800000Y-102600000D03*
X133000000Y-116400000D03*
X115400000Y-110400000D03*
X127100000Y-138600000D03*
X131200000Y-115800000D03*
X132400000Y-114000000D03*
X130100000Y-139200000D03*
X132400000Y-117600000D03*
X117900000Y-129900000D03*
X133000000Y-115200000D03*
X130000000Y-117600000D03*
X112400000Y-121200000D03*
X117300000Y-132300000D03*
X113600000Y-121200000D03*
X141400000Y-119600000D03*
X112000000Y-108200000D03*
X140800000Y-103400000D03*
X126500000Y-139200000D03*
X112300000Y-125200000D03*
X118500000Y-129300000D03*
X142000000Y-119600000D03*
X132400000Y-117000000D03*
X117900000Y-128700000D03*
X115400000Y-106000000D03*
X142000000Y-117800000D03*
X130600000Y-114600000D03*
X128300000Y-139200000D03*
X110400000Y-139600000D03*
X128900000Y-139200000D03*
X111700000Y-125200000D03*
X118800000Y-102000000D03*
X141400000Y-103400000D03*
X142000000Y-116600000D03*
X128300000Y-138600000D03*
X131800000Y-115800000D03*
X140800000Y-117200000D03*
X140800000Y-116000000D03*
X115400000Y-112200000D03*
X108800000Y-119000000D03*
X131200000Y-114600000D03*
X130600000Y-115200000D03*
X127700000Y-139200000D03*
X133000000Y-114600000D03*
X112200000Y-139000000D03*
X115400000Y-111000000D03*
X132400000Y-116400000D03*
X129500000Y-139800000D03*
X130600000Y-118200000D03*
X140800000Y-102200000D03*
X108800000Y-121200000D03*
X130000000Y-117000000D03*
X118500000Y-131100000D03*
X141400000Y-104000000D03*
X129400000Y-118200000D03*
X131800000Y-117600000D03*
X113600000Y-116600000D03*
X115400000Y-106600000D03*
X109400000Y-121200000D03*
X141400000Y-119000000D03*
X109900000Y-117900000D03*
X129400000Y-115200000D03*
X131200000Y-114000000D03*
X113000000Y-121200000D03*
X131200000Y-116400000D03*
X113400000Y-140800000D03*
X113400000Y-139000000D03*
X114650000Y-117150000D03*
X130000000Y-114600000D03*
X113400000Y-140200000D03*
X129500000Y-138600000D03*
X112000000Y-108800000D03*
X118500000Y-130500000D03*
X115939552Y-117154297D03*
X116700000Y-130500000D03*
X128800000Y-116400000D03*
X117300000Y-128100000D03*
X133000000Y-117000000D03*
X117300000Y-130500000D03*
X141400000Y-117200000D03*
X142600000Y-116000000D03*
X110400000Y-139000000D03*
X125900000Y-139200000D03*
X142600000Y-118400000D03*
X114000000Y-140200000D03*
X117900000Y-131700000D03*
X111600000Y-140200000D03*
X141400000Y-116600000D03*
X142000000Y-116000000D03*
X111000000Y-139000000D03*
X128800000Y-118200000D03*
X131800000Y-115200000D03*
X111000000Y-140800000D03*
X132400000Y-114600000D03*
X118825000Y-106400000D03*
X119400000Y-106400000D03*
X119400000Y-105800000D03*
X140900000Y-128075000D03*
X119400000Y-104000000D03*
X115000000Y-103600000D03*
X118825000Y-105800000D03*
X112225000Y-126200000D03*
X112800000Y-126200000D03*
X120000000Y-104600000D03*
X139700000Y-127500000D03*
X113400000Y-126200000D03*
X140900000Y-127500000D03*
X115600000Y-103600000D03*
X118825000Y-104000000D03*
X140300000Y-128075000D03*
X119400000Y-104600000D03*
X120000000Y-104000000D03*
X120000000Y-105800000D03*
X119400000Y-105200000D03*
X140300000Y-127500000D03*
X118825000Y-104600000D03*
X139700000Y-128075000D03*
X118825000Y-105200000D03*
X120000000Y-105200000D03*
X114425000Y-103600000D03*
X119900000Y-111000000D03*
X119550000Y-114250000D03*
D17*
X127200000Y-130000000D03*
M02*
