%TF.GenerationSoftware,KiCad,Pcbnew,(6.0.2)*%
%TF.CreationDate,2022-04-25T23:22:53+02:00*%
%TF.ProjectId,V3,56332e6b-6963-4616-945f-706362585858,rev?*%
%TF.SameCoordinates,Original*%
%TF.FileFunction,Soldermask,Bot*%
%TF.FilePolarity,Negative*%
%FSLAX46Y46*%
G04 Gerber Fmt 4.6, Leading zero omitted, Abs format (unit mm)*
G04 Created by KiCad (PCBNEW (6.0.2)) date 2022-04-25 23:22:53*
%MOMM*%
%LPD*%
G01*
G04 APERTURE LIST*
G04 Aperture macros list*
%AMRoundRect*
0 Rectangle with rounded corners*
0 $1 Rounding radius*
0 $2 $3 $4 $5 $6 $7 $8 $9 X,Y pos of 4 corners*
0 Add a 4 corners polygon primitive as box body*
4,1,4,$2,$3,$4,$5,$6,$7,$8,$9,$2,$3,0*
0 Add four circle primitives for the rounded corners*
1,1,$1+$1,$2,$3*
1,1,$1+$1,$4,$5*
1,1,$1+$1,$6,$7*
1,1,$1+$1,$8,$9*
0 Add four rect primitives between the rounded corners*
20,1,$1+$1,$2,$3,$4,$5,0*
20,1,$1+$1,$4,$5,$6,$7,0*
20,1,$1+$1,$6,$7,$8,$9,0*
20,1,$1+$1,$8,$9,$2,$3,0*%
G04 Aperture macros list end*
%ADD10RoundRect,0.250000X0.312500X0.625000X-0.312500X0.625000X-0.312500X-0.625000X0.312500X-0.625000X0*%
%ADD11C,0.600000*%
%ADD12C,0.630000*%
%ADD13O,1.158000X2.316000*%
%ADD14O,1.200000X2.400000*%
%ADD15C,4.400000*%
%ADD16R,1.700000X1.700000*%
%ADD17O,1.700000X1.700000*%
%ADD18C,0.800000*%
%ADD19C,0.500000*%
G04 APERTURE END LIST*
D10*
%TO.C,R12*%
X118862500Y-134600000D03*
X115937500Y-134600000D03*
%TD*%
D11*
%TO.C,J1*%
X130900000Y-136600000D03*
D12*
X130900000Y-136600000D03*
X124900000Y-136600000D03*
D13*
X123580000Y-135875000D03*
X132220000Y-135875000D03*
D14*
X123580000Y-139700000D03*
X132220000Y-139700000D03*
%TD*%
D15*
%TO.C,H1*%
X106500000Y-104500000D03*
%TD*%
%TO.C,H3*%
X140500000Y-138500000D03*
%TD*%
D16*
%TO.C,J6*%
X121400000Y-131400000D03*
D17*
X123940000Y-131400000D03*
X126480000Y-131400000D03*
X129020000Y-131400000D03*
%TD*%
D16*
%TO.C,J2*%
X106600000Y-111925000D03*
D17*
X106600000Y-114465000D03*
%TD*%
D10*
%TO.C,R13*%
X115937500Y-137000000D03*
X118862500Y-137000000D03*
%TD*%
D16*
%TO.C,J4*%
X137000000Y-132600000D03*
D17*
X137000000Y-135140000D03*
X137000000Y-137680000D03*
X137000000Y-140220000D03*
%TD*%
D16*
%TO.C,J5*%
X121400000Y-128600000D03*
D17*
X123940000Y-128600000D03*
X126480000Y-128600000D03*
X129020000Y-128600000D03*
%TD*%
D15*
%TO.C,H2*%
X106500000Y-138500000D03*
%TD*%
D18*
X116606732Y-117800000D03*
X114000000Y-117800000D03*
X114400000Y-139800000D03*
X117550000Y-133000000D03*
X141500000Y-120500000D03*
X115700000Y-111150000D03*
X141492598Y-119494241D03*
X111700000Y-125250000D03*
X131600000Y-102700000D03*
X130400000Y-102700000D03*
X119450000Y-102600000D03*
X125400000Y-133800000D03*
X109100000Y-121200000D03*
X135000000Y-124000000D03*
X132750000Y-102700000D03*
X117550000Y-129500000D03*
X129250000Y-102700000D03*
X128100000Y-102700000D03*
X115100000Y-107700000D03*
X119750000Y-119300000D03*
X112000000Y-108400000D03*
X110250000Y-121200000D03*
X140500000Y-120500000D03*
X112850000Y-125250000D03*
X115700000Y-112300000D03*
X114000000Y-125250000D03*
X111400000Y-121200000D03*
X140500000Y-119500000D03*
X136000000Y-124000000D03*
X117550000Y-128350000D03*
X119750000Y-120350000D03*
X117550000Y-130650000D03*
X119750000Y-121350000D03*
X134000000Y-124000000D03*
X133000000Y-124000000D03*
X117550000Y-131850000D03*
D11*
X113400000Y-126200000D03*
X118900000Y-103950000D03*
X116050000Y-102050000D03*
X140200000Y-126000000D03*
X120050000Y-105050000D03*
X120050000Y-103950000D03*
X139600000Y-126600000D03*
X118900000Y-105050000D03*
X115550000Y-103700000D03*
X118900000Y-106200000D03*
X112225000Y-126200000D03*
X117450000Y-104350000D03*
X114350000Y-103700000D03*
D19*
X119900000Y-111000000D03*
X119800000Y-114400000D03*
D11*
X111100000Y-110900000D03*
X123700000Y-114000000D03*
D18*
X127700000Y-129600000D03*
D11*
X127400000Y-137000000D03*
X134400000Y-138400000D03*
X110200000Y-139200000D03*
M02*
