%TF.GenerationSoftware,KiCad,Pcbnew,(6.0.2)*%
%TF.CreationDate,2022-04-11T15:07:28+02:00*%
%TF.ProjectId,V3,56332e6b-6963-4616-945f-706362585858,rev?*%
%TF.SameCoordinates,Original*%
%TF.FileFunction,Copper,L2,Bot*%
%TF.FilePolarity,Positive*%
%FSLAX46Y46*%
G04 Gerber Fmt 4.6, Leading zero omitted, Abs format (unit mm)*
G04 Created by KiCad (PCBNEW (6.0.2)) date 2022-04-11 15:07:28*
%MOMM*%
%LPD*%
G01*
G04 APERTURE LIST*
%TA.AperFunction,ComponentPad*%
%ADD10O,1.158000X2.316000*%
%TD*%
%TA.AperFunction,ComponentPad*%
%ADD11O,1.200000X2.400000*%
%TD*%
%TA.AperFunction,ComponentPad*%
%ADD12R,1.700000X1.700000*%
%TD*%
%TA.AperFunction,ComponentPad*%
%ADD13O,1.700000X1.700000*%
%TD*%
%TA.AperFunction,ViaPad*%
%ADD14C,0.600000*%
%TD*%
%TA.AperFunction,ViaPad*%
%ADD15C,0.800000*%
%TD*%
%TA.AperFunction,ViaPad*%
%ADD16C,0.500000*%
%TD*%
%TA.AperFunction,Conductor*%
%ADD17C,0.400000*%
%TD*%
%TA.AperFunction,Conductor*%
%ADD18C,0.254000*%
%TD*%
%TA.AperFunction,Conductor*%
%ADD19C,0.600000*%
%TD*%
G04 APERTURE END LIST*
D10*
%TO.P,J1,S3,SHIELD*%
%TO.N,Net-(J1-PadS1)*%
X123580000Y-135875000D03*
%TO.P,J1,S4,SHIELD*%
X132220000Y-135875000D03*
D11*
%TO.P,J1,S5,SHIELD*%
X123580000Y-139700000D03*
%TO.P,J1,S6,SHIELD*%
X132220000Y-139700000D03*
%TD*%
D12*
%TO.P,J6,1,Pin_1*%
%TO.N,+3V3*%
X121400000Y-131400000D03*
D13*
%TO.P,J6,2,Pin_2*%
%TO.N,/SDA*%
X123940000Y-131400000D03*
%TO.P,J6,3,Pin_3*%
%TO.N,/SCL*%
X126480000Y-131400000D03*
%TO.P,J6,4,Pin_4*%
%TO.N,GND*%
X129020000Y-131400000D03*
%TD*%
D12*
%TO.P,J2,1,Pin_1*%
%TO.N,+BATT*%
X106600000Y-111925000D03*
D13*
%TO.P,J2,2,Pin_2*%
%TO.N,-BATT*%
X106600000Y-114465000D03*
%TD*%
D12*
%TO.P,J4,1,Pin_1*%
%TO.N,+3.3VA*%
X137000000Y-132600000D03*
D13*
%TO.P,J4,2,Pin_2*%
%TO.N,GND*%
X137000000Y-135140000D03*
%TO.P,J4,3,Pin_3*%
%TO.N,unconnected-(J4-Pad3)*%
X137000000Y-137680000D03*
%TO.P,J4,4,Pin_4*%
%TO.N,/MIC*%
X137000000Y-140220000D03*
%TD*%
D12*
%TO.P,J5,1,Pin_1*%
%TO.N,/SDA*%
X121400000Y-128600000D03*
D13*
%TO.P,J5,2,Pin_2*%
%TO.N,/SCL*%
X123940000Y-128600000D03*
%TO.P,J5,3,Pin_3*%
%TO.N,+3V3*%
X126480000Y-128600000D03*
%TO.P,J5,4,Pin_4*%
%TO.N,GND*%
X129020000Y-128600000D03*
%TD*%
D14*
%TO.N,Net-(J1-PadS1)*%
X112025000Y-139675000D03*
D15*
%TO.N,GND*%
X124750000Y-133300000D03*
D14*
%TO.N,Net-(R12-Pad2)*%
X126100000Y-134100000D03*
D15*
%TO.N,GND*%
X140200000Y-126200000D03*
X141500000Y-120500000D03*
X115700000Y-111150000D03*
X141492598Y-119494241D03*
X140200000Y-125200000D03*
X117550000Y-133000000D03*
X111700000Y-125250000D03*
X131600000Y-102700000D03*
X130400000Y-102700000D03*
X109150000Y-120850000D03*
X135000000Y-124000000D03*
X132750000Y-102700000D03*
X117550000Y-129500000D03*
X140200000Y-124200000D03*
X129250000Y-102700000D03*
X128100000Y-102700000D03*
X115100000Y-106100000D03*
X141500000Y-118500000D03*
X112000000Y-108400000D03*
X110300000Y-120850000D03*
X140500000Y-121500000D03*
X140500000Y-120500000D03*
X112850000Y-125250000D03*
X115700000Y-110000000D03*
X115700000Y-112300000D03*
X108900000Y-140000000D03*
X108900000Y-138850000D03*
X114000000Y-125250000D03*
X140500000Y-118500000D03*
X111450000Y-120850000D03*
X140500000Y-119500000D03*
X136000000Y-124000000D03*
X117550000Y-128350000D03*
X117550000Y-130650000D03*
X134000000Y-124000000D03*
X141477796Y-121500000D03*
X133000000Y-124000000D03*
X108900000Y-137700000D03*
X117550000Y-131850000D03*
D14*
%TO.N,+3V3*%
X113400000Y-126200000D03*
X118900000Y-103950000D03*
X140150000Y-127800000D03*
X116050000Y-102050000D03*
X141150000Y-127800000D03*
X120050000Y-105050000D03*
X120050000Y-103950000D03*
X142200000Y-127750000D03*
X118900000Y-105050000D03*
X115550000Y-103700000D03*
X118900000Y-106200000D03*
X112225000Y-126200000D03*
X117450000Y-104350000D03*
X114350000Y-103700000D03*
D16*
%TO.N,Net-(C4-Pad1)*%
X119900000Y-111000000D03*
X119550000Y-114250000D03*
D15*
%TO.N,/MIC*%
X127700000Y-129400000D03*
D14*
%TO.N,Net-(R11-Pad2)*%
X128300000Y-137100000D03*
X133900000Y-136600000D03*
%TO.N,Net-(R12-Pad2)*%
X122250000Y-140150000D03*
%TD*%
D17*
%TO.N,/MIC*%
X135050000Y-136812875D02*
X135050000Y-138270000D01*
X135050000Y-138270000D02*
X137000000Y-140220000D01*
X129967480Y-134367480D02*
X132604605Y-134367480D01*
X127700000Y-132100000D02*
X129967480Y-134367480D01*
X132604605Y-134367480D02*
X135050000Y-136812875D01*
X127700000Y-129400000D02*
X127700000Y-132100000D01*
D18*
%TO.N,Net-(J1-PadS1)*%
X112025000Y-139675000D02*
X112000000Y-139650000D01*
X113076511Y-140726511D02*
X112025000Y-139675000D01*
X122553489Y-140726511D02*
X113076511Y-140726511D01*
X123580000Y-139700000D02*
X122553489Y-140726511D01*
X132220000Y-139700000D02*
X123580000Y-139700000D01*
X132220000Y-135875000D02*
X123580000Y-135875000D01*
X123580000Y-135875000D02*
X123580000Y-139700000D01*
%TO.N,Net-(R11-Pad2)*%
X129125000Y-136919974D02*
X128480026Y-136919974D01*
X128480026Y-136919974D02*
X128300000Y-137100000D01*
X130105026Y-137900000D02*
X129125000Y-136919974D01*
X133900000Y-136600000D02*
X132600000Y-137900000D01*
X132600000Y-137900000D02*
X130105026Y-137900000D01*
%TO.N,Net-(R12-Pad2)*%
X126050000Y-134050000D02*
X126100000Y-134100000D01*
X125200000Y-134050000D02*
X126050000Y-134050000D01*
X122250000Y-134450000D02*
X122250000Y-140150000D01*
X122650000Y-134050000D02*
X122250000Y-134450000D01*
X125200000Y-134050000D02*
X122650000Y-134050000D01*
D19*
%TO.N,+3V3*%
X120450000Y-105050000D02*
X122600000Y-107200000D01*
X122600000Y-107200000D02*
X122600000Y-124720000D01*
D17*
X141150000Y-127800000D02*
X140150000Y-127800000D01*
D19*
X119900000Y-127400000D02*
X121100000Y-126200000D01*
D17*
X132800000Y-127200000D02*
X127880000Y-127200000D01*
D19*
X120050000Y-105050000D02*
X120450000Y-105050000D01*
X126480000Y-128600000D02*
X122600000Y-124720000D01*
D17*
X127880000Y-127200000D02*
X126480000Y-128600000D01*
D19*
X119900000Y-127400000D02*
X119900000Y-129900000D01*
X121120000Y-126200000D02*
X112225000Y-126200000D01*
D17*
X133400000Y-127800000D02*
X132800000Y-127200000D01*
D19*
X122600000Y-124720000D02*
X121120000Y-126200000D01*
X119900000Y-129900000D02*
X121400000Y-131400000D01*
D17*
X142200000Y-127750000D02*
X142150000Y-127800000D01*
D19*
X121100000Y-126200000D02*
X121120000Y-126200000D01*
D17*
X140150000Y-127800000D02*
X133400000Y-127800000D01*
X142150000Y-127800000D02*
X141150000Y-127800000D01*
D18*
%TO.N,Net-(C4-Pad1)*%
X119550000Y-114250000D02*
X119900000Y-113900000D01*
X119900000Y-113900000D02*
X119900000Y-111000000D01*
%TD*%
%TA.AperFunction,Conductor*%
%TO.N,GND*%
G36*
X140655558Y-101750268D02*
G01*
X140668306Y-101750268D01*
X140684329Y-101754561D01*
X140700182Y-101750314D01*
X140705622Y-101750466D01*
X140986903Y-101766262D01*
X141000935Y-101767843D01*
X141146835Y-101792633D01*
X141292729Y-101817421D01*
X141306504Y-101820565D01*
X141590909Y-101902501D01*
X141604246Y-101907168D01*
X141772085Y-101976688D01*
X141877691Y-102020432D01*
X141890414Y-102026559D01*
X142149462Y-102169730D01*
X142161418Y-102177243D01*
X142402805Y-102348518D01*
X142413851Y-102357327D01*
X142634538Y-102554544D01*
X142644530Y-102564536D01*
X142841747Y-102785223D01*
X142850556Y-102796269D01*
X143021831Y-103037656D01*
X143029344Y-103049612D01*
X143166944Y-103298580D01*
X143172513Y-103308656D01*
X143178642Y-103321383D01*
X143200757Y-103374773D01*
X143291906Y-103594828D01*
X143296573Y-103608165D01*
X143378509Y-103892570D01*
X143381653Y-103906345D01*
X143430507Y-104193876D01*
X143431230Y-104198134D01*
X143432812Y-104212171D01*
X143448474Y-104491065D01*
X143448608Y-104493452D01*
X143448760Y-104498892D01*
X143444513Y-104514745D01*
X143448806Y-104530767D01*
X143448806Y-104543392D01*
X143449821Y-104551082D01*
X143454826Y-115469392D01*
X143465458Y-138663671D01*
X143464478Y-138671131D01*
X143464478Y-138683976D01*
X143460184Y-138700000D01*
X143464431Y-138715852D01*
X143464279Y-138721288D01*
X143457803Y-138836616D01*
X143448563Y-139001152D01*
X143448483Y-139002570D01*
X143446902Y-139016606D01*
X143440797Y-139052537D01*
X143397324Y-139308400D01*
X143394180Y-139322175D01*
X143312244Y-139606580D01*
X143307577Y-139619917D01*
X143287064Y-139669440D01*
X143196407Y-139888308D01*
X143194315Y-139893358D01*
X143188186Y-139906085D01*
X143045015Y-140165133D01*
X143037502Y-140177089D01*
X142866227Y-140418476D01*
X142857418Y-140429522D01*
X142660201Y-140650209D01*
X142650209Y-140660201D01*
X142429522Y-140857418D01*
X142418476Y-140866227D01*
X142177089Y-141037502D01*
X142165133Y-141045015D01*
X141906085Y-141188186D01*
X141893362Y-141194313D01*
X141838883Y-141216879D01*
X141619917Y-141307577D01*
X141606580Y-141312244D01*
X141322175Y-141394180D01*
X141308400Y-141397324D01*
X141162506Y-141422112D01*
X141016606Y-141446902D01*
X141002574Y-141448483D01*
X140763655Y-141461900D01*
X140721293Y-141464279D01*
X140715853Y-141464431D01*
X140700000Y-141460184D01*
X140683977Y-141464477D01*
X140671131Y-141464477D01*
X140663672Y-141465457D01*
X137156950Y-141463792D01*
X137088839Y-141443758D01*
X137042372Y-141390080D01*
X137032301Y-141319801D01*
X137061825Y-141255234D01*
X137121569Y-141216879D01*
X137147344Y-141212163D01*
X137156550Y-141211455D01*
X137168433Y-141210541D01*
X137168436Y-141210540D01*
X137174576Y-141210068D01*
X137363556Y-141157303D01*
X137538689Y-141068837D01*
X137568515Y-141045535D01*
X137632854Y-140995268D01*
X137693303Y-140948040D01*
X137699395Y-140940983D01*
X137817485Y-140804173D01*
X137817485Y-140804172D01*
X137821509Y-140799511D01*
X137829932Y-140784685D01*
X137870809Y-140712727D01*
X137918425Y-140628909D01*
X137980358Y-140442732D01*
X138004949Y-140248071D01*
X138005245Y-140226873D01*
X138005292Y-140223523D01*
X138005292Y-140223519D01*
X138005341Y-140220000D01*
X137986194Y-140024728D01*
X137984413Y-140018829D01*
X137984412Y-140018824D01*
X137931265Y-139842793D01*
X137929484Y-139836894D01*
X137837370Y-139663653D01*
X137713361Y-139511602D01*
X137562180Y-139386535D01*
X137389585Y-139293213D01*
X137288238Y-139261841D01*
X137208039Y-139237015D01*
X137208036Y-139237014D01*
X137202152Y-139235193D01*
X137196027Y-139234549D01*
X137196026Y-139234549D01*
X137013147Y-139215327D01*
X137013146Y-139215327D01*
X137007019Y-139214683D01*
X136884383Y-139225844D01*
X136817759Y-139231907D01*
X136817758Y-139231907D01*
X136811618Y-139232466D01*
X136805704Y-139234207D01*
X136805702Y-139234207D01*
X136756895Y-139248572D01*
X136648923Y-139280350D01*
X136577928Y-139280396D01*
X136524254Y-139248572D01*
X135975682Y-138700000D01*
X139094551Y-138700000D01*
X139114317Y-138951148D01*
X139115471Y-138955955D01*
X139115472Y-138955961D01*
X139131055Y-139020869D01*
X139173127Y-139196111D01*
X139175020Y-139200682D01*
X139175021Y-139200684D01*
X139262184Y-139411114D01*
X139269534Y-139428859D01*
X139401164Y-139643659D01*
X139404376Y-139647419D01*
X139404379Y-139647424D01*
X139528174Y-139792369D01*
X139564776Y-139835224D01*
X139568538Y-139838437D01*
X139752576Y-139995621D01*
X139752581Y-139995624D01*
X139756341Y-139998836D01*
X139971141Y-140130466D01*
X139975711Y-140132359D01*
X139975715Y-140132361D01*
X140178834Y-140216495D01*
X140203889Y-140226873D01*
X140277499Y-140244545D01*
X140444039Y-140284528D01*
X140444045Y-140284529D01*
X140448852Y-140285683D01*
X140537149Y-140292632D01*
X140634661Y-140300307D01*
X140634670Y-140300307D01*
X140637118Y-140300500D01*
X140762882Y-140300500D01*
X140765330Y-140300307D01*
X140765339Y-140300307D01*
X140862851Y-140292632D01*
X140951148Y-140285683D01*
X140955955Y-140284529D01*
X140955961Y-140284528D01*
X141122501Y-140244545D01*
X141196111Y-140226873D01*
X141221166Y-140216495D01*
X141424285Y-140132361D01*
X141424289Y-140132359D01*
X141428859Y-140130466D01*
X141643659Y-139998836D01*
X141647419Y-139995624D01*
X141647424Y-139995621D01*
X141831462Y-139838437D01*
X141835224Y-139835224D01*
X141871826Y-139792369D01*
X141995621Y-139647424D01*
X141995624Y-139647419D01*
X141998836Y-139643659D01*
X142130466Y-139428859D01*
X142137817Y-139411114D01*
X142224979Y-139200684D01*
X142224980Y-139200682D01*
X142226873Y-139196111D01*
X142268945Y-139020869D01*
X142284528Y-138955961D01*
X142284529Y-138955955D01*
X142285683Y-138951148D01*
X142305449Y-138700000D01*
X142285683Y-138448852D01*
X142284436Y-138443654D01*
X142241208Y-138263600D01*
X142226873Y-138203889D01*
X142224979Y-138199316D01*
X142132361Y-137975715D01*
X142132359Y-137975711D01*
X142130466Y-137971141D01*
X141998836Y-137756341D01*
X141995624Y-137752581D01*
X141995621Y-137752576D01*
X141838437Y-137568538D01*
X141835224Y-137564776D01*
X141775156Y-137513473D01*
X141647424Y-137404379D01*
X141647419Y-137404376D01*
X141643659Y-137401164D01*
X141428859Y-137269534D01*
X141424289Y-137267641D01*
X141424285Y-137267639D01*
X141200684Y-137175021D01*
X141200682Y-137175020D01*
X141196111Y-137173127D01*
X141103716Y-137150945D01*
X140955961Y-137115472D01*
X140955955Y-137115471D01*
X140951148Y-137114317D01*
X140861964Y-137107298D01*
X140765339Y-137099693D01*
X140765330Y-137099693D01*
X140762882Y-137099500D01*
X140637118Y-137099500D01*
X140634670Y-137099693D01*
X140634661Y-137099693D01*
X140538036Y-137107298D01*
X140448852Y-137114317D01*
X140444045Y-137115471D01*
X140444039Y-137115472D01*
X140296284Y-137150945D01*
X140203889Y-137173127D01*
X140199318Y-137175020D01*
X140199316Y-137175021D01*
X139975715Y-137267639D01*
X139975711Y-137267641D01*
X139971141Y-137269534D01*
X139756341Y-137401164D01*
X139752581Y-137404376D01*
X139752576Y-137404379D01*
X139624844Y-137513473D01*
X139564776Y-137564776D01*
X139561563Y-137568538D01*
X139404379Y-137752576D01*
X139404376Y-137752581D01*
X139401164Y-137756341D01*
X139269534Y-137971141D01*
X139267641Y-137975711D01*
X139267639Y-137975715D01*
X139175021Y-138199316D01*
X139173127Y-138203889D01*
X139158792Y-138263600D01*
X139115565Y-138443654D01*
X139114317Y-138448852D01*
X139094551Y-138700000D01*
X135975682Y-138700000D01*
X135437405Y-138161723D01*
X135403379Y-138099411D01*
X135400500Y-138072628D01*
X135400500Y-137665963D01*
X135994757Y-137665963D01*
X136011175Y-137861483D01*
X136065258Y-138050091D01*
X136068076Y-138055574D01*
X136152123Y-138219113D01*
X136152126Y-138219117D01*
X136154944Y-138224601D01*
X136276818Y-138378369D01*
X136281511Y-138382363D01*
X136281512Y-138382364D01*
X136408946Y-138490818D01*
X136426238Y-138505535D01*
X136431616Y-138508541D01*
X136431618Y-138508542D01*
X136467932Y-138528837D01*
X136597513Y-138601257D01*
X136784118Y-138661889D01*
X136978946Y-138685121D01*
X136985081Y-138684649D01*
X136985083Y-138684649D01*
X137168434Y-138670541D01*
X137168438Y-138670540D01*
X137174576Y-138670068D01*
X137363556Y-138617303D01*
X137538689Y-138528837D01*
X137568515Y-138505535D01*
X137688453Y-138411829D01*
X137693303Y-138408040D01*
X137705192Y-138394267D01*
X137817485Y-138264173D01*
X137817485Y-138264172D01*
X137821509Y-138259511D01*
X137918425Y-138088909D01*
X137980358Y-137902732D01*
X138004949Y-137708071D01*
X138005341Y-137680000D01*
X137986194Y-137484728D01*
X137984413Y-137478829D01*
X137984412Y-137478824D01*
X137931265Y-137302793D01*
X137929484Y-137296894D01*
X137837370Y-137123653D01*
X137713361Y-136971602D01*
X137562180Y-136846535D01*
X137389585Y-136753213D01*
X137271081Y-136716530D01*
X137208039Y-136697015D01*
X137208036Y-136697014D01*
X137202152Y-136695193D01*
X137196027Y-136694549D01*
X137196026Y-136694549D01*
X137013147Y-136675327D01*
X137013146Y-136675327D01*
X137007019Y-136674683D01*
X136884383Y-136685844D01*
X136817759Y-136691907D01*
X136817758Y-136691907D01*
X136811618Y-136692466D01*
X136805704Y-136694207D01*
X136805702Y-136694207D01*
X136741170Y-136713200D01*
X136623393Y-136747864D01*
X136617928Y-136750721D01*
X136454972Y-136835912D01*
X136454968Y-136835915D01*
X136449512Y-136838767D01*
X136444712Y-136842627D01*
X136444711Y-136842627D01*
X136415281Y-136866289D01*
X136296600Y-136961711D01*
X136170480Y-137112016D01*
X136167516Y-137117408D01*
X136167513Y-137117412D01*
X136113340Y-137215953D01*
X136075956Y-137283954D01*
X136074095Y-137289821D01*
X136074094Y-137289823D01*
X136069980Y-137302793D01*
X136016628Y-137470978D01*
X135994757Y-137665963D01*
X135400500Y-137665963D01*
X135400500Y-136863700D01*
X135402533Y-136844601D01*
X135402760Y-136839797D01*
X135404952Y-136829614D01*
X135403728Y-136819272D01*
X135403728Y-136819269D01*
X135401374Y-136799386D01*
X135401064Y-136794128D01*
X135400928Y-136794139D01*
X135400500Y-136788959D01*
X135400500Y-136783760D01*
X135399647Y-136778635D01*
X135399646Y-136778624D01*
X135397611Y-136766399D01*
X135396775Y-136760524D01*
X135392461Y-136724081D01*
X135392460Y-136724077D01*
X135391236Y-136713737D01*
X135387577Y-136706117D01*
X135386188Y-136697772D01*
X135363806Y-136656291D01*
X135361113Y-136651005D01*
X135360040Y-136648771D01*
X135340726Y-136608549D01*
X135337408Y-136604601D01*
X135335475Y-136602668D01*
X135334010Y-136601071D01*
X135333746Y-136600581D01*
X135333766Y-136600562D01*
X135333687Y-136600473D01*
X135330778Y-136595081D01*
X135294364Y-136561420D01*
X135290798Y-136557991D01*
X132888388Y-134155581D01*
X132876310Y-134140627D01*
X132873078Y-134137075D01*
X132867430Y-134128328D01*
X132843519Y-134109478D01*
X132839584Y-134105981D01*
X132839496Y-134106085D01*
X132835537Y-134102730D01*
X132831859Y-134099052D01*
X132827634Y-134096033D01*
X132827626Y-134096026D01*
X132817525Y-134088808D01*
X132812778Y-134085244D01*
X132802323Y-134077002D01*
X132775794Y-134056088D01*
X132767818Y-134053287D01*
X132760936Y-134048369D01*
X132715769Y-134034861D01*
X132710163Y-134033039D01*
X132673182Y-134020052D01*
X132673176Y-134020051D01*
X132665699Y-134017425D01*
X132660561Y-134016980D01*
X132657842Y-134016980D01*
X132655660Y-134016885D01*
X132655125Y-134016725D01*
X132655126Y-134016698D01*
X132655008Y-134016691D01*
X132649141Y-134014936D01*
X132599586Y-134016883D01*
X132594639Y-134016980D01*
X130164852Y-134016980D01*
X130096731Y-133996978D01*
X130075757Y-133980075D01*
X129560502Y-133464820D01*
X135999500Y-133464820D01*
X136008233Y-133508722D01*
X136015127Y-133519040D01*
X136015128Y-133519042D01*
X136034601Y-133548185D01*
X136041496Y-133558504D01*
X136051815Y-133565399D01*
X136080958Y-133584872D01*
X136080960Y-133584873D01*
X136091278Y-133591767D01*
X136135180Y-133600500D01*
X137864820Y-133600500D01*
X137908722Y-133591767D01*
X137919040Y-133584873D01*
X137919042Y-133584872D01*
X137948185Y-133565399D01*
X137958504Y-133558504D01*
X137965399Y-133548185D01*
X137984872Y-133519042D01*
X137984873Y-133519040D01*
X137991767Y-133508722D01*
X138000500Y-133464820D01*
X138000500Y-131735180D01*
X137991767Y-131691278D01*
X137984873Y-131680960D01*
X137984872Y-131680958D01*
X137965399Y-131651815D01*
X137958504Y-131641496D01*
X137939180Y-131628584D01*
X137919042Y-131615128D01*
X137919040Y-131615127D01*
X137908722Y-131608233D01*
X137864820Y-131599500D01*
X136135180Y-131599500D01*
X136091278Y-131608233D01*
X136080960Y-131615127D01*
X136080958Y-131615128D01*
X136060820Y-131628584D01*
X136041496Y-131641496D01*
X136034601Y-131651815D01*
X136015128Y-131680958D01*
X136015127Y-131680960D01*
X136008233Y-131691278D01*
X135999500Y-131735180D01*
X135999500Y-133464820D01*
X129560502Y-133464820D01*
X128087405Y-131991723D01*
X128053379Y-131929411D01*
X128050500Y-131902628D01*
X128050500Y-129885409D01*
X128070502Y-129817288D01*
X128086748Y-129797128D01*
X128092621Y-129792621D01*
X128180861Y-129677625D01*
X128236330Y-129543709D01*
X128255250Y-129400000D01*
X128236330Y-129256291D01*
X128180861Y-129122375D01*
X128092621Y-129007379D01*
X127977625Y-128919139D01*
X127843709Y-128863670D01*
X127700000Y-128844750D01*
X127691812Y-128845828D01*
X127691811Y-128845828D01*
X127615397Y-128855888D01*
X127545248Y-128844949D01*
X127492150Y-128797820D01*
X127472960Y-128729467D01*
X127473944Y-128715183D01*
X127484949Y-128628071D01*
X127485341Y-128600000D01*
X127466194Y-128404728D01*
X127464413Y-128398829D01*
X127464412Y-128398824D01*
X127419523Y-128250145D01*
X127418982Y-128179150D01*
X127451050Y-128124632D01*
X127988277Y-127587405D01*
X128050589Y-127553379D01*
X128077372Y-127550500D01*
X132602628Y-127550500D01*
X132670749Y-127570502D01*
X132691723Y-127587405D01*
X133116217Y-128011899D01*
X133128295Y-128026853D01*
X133131527Y-128030405D01*
X133137175Y-128039152D01*
X133145352Y-128045598D01*
X133161086Y-128058002D01*
X133165021Y-128061499D01*
X133165109Y-128061395D01*
X133169068Y-128064750D01*
X133172746Y-128068428D01*
X133176971Y-128071447D01*
X133176979Y-128071454D01*
X133187080Y-128078672D01*
X133191827Y-128082236D01*
X133228811Y-128111392D01*
X133236787Y-128114193D01*
X133243669Y-128119111D01*
X133253647Y-128122095D01*
X133253649Y-128122096D01*
X133288809Y-128132611D01*
X133294457Y-128134446D01*
X133331423Y-128147428D01*
X133331429Y-128147429D01*
X133338906Y-128150055D01*
X133344044Y-128150500D01*
X133346749Y-128150500D01*
X133348945Y-128150595D01*
X133349480Y-128150755D01*
X133349479Y-128150782D01*
X133349595Y-128150789D01*
X133355463Y-128152544D01*
X133405019Y-128150597D01*
X133409966Y-128150500D01*
X139825378Y-128150500D01*
X139895195Y-128171612D01*
X139954060Y-128210796D01*
X140077233Y-128249278D01*
X140086203Y-128249442D01*
X140086207Y-128249443D01*
X140144942Y-128250519D01*
X140206255Y-128251643D01*
X140276059Y-128232612D01*
X140322096Y-128220061D01*
X140322098Y-128220060D01*
X140330755Y-128217700D01*
X140409867Y-128169125D01*
X140475796Y-128150500D01*
X140825378Y-128150500D01*
X140895195Y-128171612D01*
X140954060Y-128210796D01*
X141077233Y-128249278D01*
X141086203Y-128249442D01*
X141086207Y-128249443D01*
X141144942Y-128250519D01*
X141206255Y-128251643D01*
X141276059Y-128232612D01*
X141322096Y-128220061D01*
X141322098Y-128220060D01*
X141330755Y-128217700D01*
X141409867Y-128169125D01*
X141475796Y-128150500D01*
X141956919Y-128150500D01*
X142003952Y-128161142D01*
X142004060Y-128160796D01*
X142008358Y-128162139D01*
X142008360Y-128162140D01*
X142127233Y-128199278D01*
X142136203Y-128199442D01*
X142136207Y-128199443D01*
X142194942Y-128200519D01*
X142256255Y-128201643D01*
X142321716Y-128183796D01*
X142372092Y-128170062D01*
X142372093Y-128170062D01*
X142380755Y-128167700D01*
X142388405Y-128163003D01*
X142388407Y-128163002D01*
X142483072Y-128104878D01*
X142483075Y-128104875D01*
X142490724Y-128100179D01*
X142496750Y-128093522D01*
X142571300Y-128011161D01*
X142571303Y-128011157D01*
X142577322Y-128004507D01*
X142633588Y-127888375D01*
X142635359Y-127877852D01*
X142654190Y-127765917D01*
X142654997Y-127761120D01*
X142655133Y-127750000D01*
X142636839Y-127622259D01*
X142633125Y-127614090D01*
X142587145Y-127512962D01*
X142587143Y-127512959D01*
X142583428Y-127504788D01*
X142541018Y-127455568D01*
X142505051Y-127413826D01*
X142505049Y-127413824D01*
X142499193Y-127407028D01*
X142390906Y-127336841D01*
X142382311Y-127334271D01*
X142382310Y-127334270D01*
X142275874Y-127302438D01*
X142275872Y-127302438D01*
X142267273Y-127299866D01*
X142258298Y-127299811D01*
X142258297Y-127299811D01*
X142203641Y-127299477D01*
X142138231Y-127299078D01*
X142126475Y-127302438D01*
X142022786Y-127332072D01*
X142022784Y-127332073D01*
X142014155Y-127334539D01*
X142006565Y-127339328D01*
X141935123Y-127384405D01*
X141905019Y-127403399D01*
X141899075Y-127410129D01*
X141892243Y-127415944D01*
X141890611Y-127414026D01*
X141841835Y-127444726D01*
X141807479Y-127449500D01*
X141474841Y-127449500D01*
X141406310Y-127429233D01*
X141348439Y-127391723D01*
X141348436Y-127391722D01*
X141340906Y-127386841D01*
X141324957Y-127382071D01*
X141225874Y-127352438D01*
X141225872Y-127352438D01*
X141217273Y-127349866D01*
X141208298Y-127349811D01*
X141208297Y-127349811D01*
X141153641Y-127349477D01*
X141088231Y-127349078D01*
X140964155Y-127384539D01*
X140914382Y-127415944D01*
X140892008Y-127430061D01*
X140824772Y-127449500D01*
X140474841Y-127449500D01*
X140406310Y-127429233D01*
X140348439Y-127391723D01*
X140348436Y-127391722D01*
X140340906Y-127386841D01*
X140324957Y-127382071D01*
X140225874Y-127352438D01*
X140225872Y-127352438D01*
X140217273Y-127349866D01*
X140208298Y-127349811D01*
X140208297Y-127349811D01*
X140153641Y-127349477D01*
X140088231Y-127349078D01*
X139964155Y-127384539D01*
X139914382Y-127415944D01*
X139892008Y-127430061D01*
X139824772Y-127449500D01*
X133597372Y-127449500D01*
X133529251Y-127429498D01*
X133508277Y-127412595D01*
X133083783Y-126988101D01*
X133071705Y-126973147D01*
X133068473Y-126969595D01*
X133062825Y-126960848D01*
X133038914Y-126941998D01*
X133034979Y-126938501D01*
X133034891Y-126938605D01*
X133030932Y-126935250D01*
X133027254Y-126931572D01*
X133023029Y-126928553D01*
X133023021Y-126928546D01*
X133012920Y-126921328D01*
X133008173Y-126917764D01*
X132993052Y-126905844D01*
X132971189Y-126888608D01*
X132963213Y-126885807D01*
X132956331Y-126880889D01*
X132911164Y-126867381D01*
X132905558Y-126865559D01*
X132868577Y-126852572D01*
X132868571Y-126852571D01*
X132861094Y-126849945D01*
X132855956Y-126849500D01*
X132853237Y-126849500D01*
X132851055Y-126849405D01*
X132850520Y-126849245D01*
X132850521Y-126849218D01*
X132850403Y-126849211D01*
X132844536Y-126847456D01*
X132794981Y-126849403D01*
X132790034Y-126849500D01*
X127930824Y-126849500D01*
X127911725Y-126847467D01*
X127906917Y-126847240D01*
X127896739Y-126845049D01*
X127867523Y-126848507D01*
X127866509Y-126848627D01*
X127861254Y-126848937D01*
X127861265Y-126849072D01*
X127856086Y-126849500D01*
X127850885Y-126849500D01*
X127845757Y-126850354D01*
X127845751Y-126850354D01*
X127833527Y-126852389D01*
X127827651Y-126853226D01*
X127791201Y-126857540D01*
X127791199Y-126857540D01*
X127780862Y-126858764D01*
X127773242Y-126862423D01*
X127764897Y-126863812D01*
X127723420Y-126886192D01*
X127718135Y-126888884D01*
X127675674Y-126909274D01*
X127671726Y-126912592D01*
X127669793Y-126914525D01*
X127668196Y-126915990D01*
X127667706Y-126916254D01*
X127667687Y-126916234D01*
X127667598Y-126916313D01*
X127662206Y-126919222D01*
X127655136Y-126926870D01*
X127655135Y-126926871D01*
X127628545Y-126955636D01*
X127625116Y-126959202D01*
X126955036Y-127629282D01*
X126892724Y-127663308D01*
X126828684Y-127660552D01*
X126682152Y-127615193D01*
X126676027Y-127614549D01*
X126676026Y-127614549D01*
X126493147Y-127595327D01*
X126493146Y-127595327D01*
X126487019Y-127594683D01*
X126420827Y-127600707D01*
X126297757Y-127611907D01*
X126297754Y-127611908D01*
X126291618Y-127612466D01*
X126285708Y-127614205D01*
X126285705Y-127614206D01*
X126276162Y-127617015D01*
X126238187Y-127628192D01*
X126167192Y-127628238D01*
X126113517Y-127596414D01*
X123087405Y-124570302D01*
X123053379Y-124507990D01*
X123050500Y-124481207D01*
X123050500Y-107234219D01*
X123051373Y-107219410D01*
X123054257Y-107195041D01*
X123055364Y-107185689D01*
X123053672Y-107176426D01*
X123053672Y-107176419D01*
X123044825Y-107127982D01*
X123044174Y-107124075D01*
X123036850Y-107075356D01*
X123036850Y-107075355D01*
X123035449Y-107066038D01*
X123032321Y-107059525D01*
X123031025Y-107052427D01*
X123003972Y-107000347D01*
X123002223Y-106996845D01*
X122980887Y-106952413D01*
X122980886Y-106952412D01*
X122976809Y-106943921D01*
X122971923Y-106938636D01*
X122971892Y-106938589D01*
X122968579Y-106932211D01*
X122964275Y-106927172D01*
X122927048Y-106889945D01*
X122923618Y-106886379D01*
X122891246Y-106851359D01*
X122884854Y-106844444D01*
X122878495Y-106840751D01*
X122872337Y-106835234D01*
X120792753Y-104755650D01*
X120782899Y-104744561D01*
X120767707Y-104725291D01*
X120767705Y-104725289D01*
X120761872Y-104717890D01*
X120754125Y-104712535D01*
X120754123Y-104712534D01*
X120713625Y-104684545D01*
X120710403Y-104682243D01*
X120670758Y-104652960D01*
X120670757Y-104652959D01*
X120663184Y-104647366D01*
X120656368Y-104644973D01*
X120650431Y-104640869D01*
X120638002Y-104636938D01*
X120634722Y-104634732D01*
X120632988Y-104633883D01*
X120633105Y-104633645D01*
X120579085Y-104597324D01*
X120550937Y-104532145D01*
X120550000Y-104516804D01*
X120550000Y-103726000D01*
X120546572Y-103694116D01*
X120537536Y-103652576D01*
X120536861Y-103649472D01*
X120536860Y-103649469D01*
X120535186Y-103641774D01*
X120531659Y-103634727D01*
X120505508Y-103582482D01*
X120505506Y-103582478D01*
X120501977Y-103575429D01*
X120493947Y-103566161D01*
X120461385Y-103528583D01*
X120461384Y-103528583D01*
X120455484Y-103521773D01*
X120447907Y-103516903D01*
X120447904Y-103516901D01*
X120391961Y-103480949D01*
X120391959Y-103480948D01*
X120384381Y-103476078D01*
X120375737Y-103473540D01*
X120375735Y-103473539D01*
X120320583Y-103457345D01*
X120320579Y-103457344D01*
X120316260Y-103456076D01*
X120311808Y-103455436D01*
X120311804Y-103455435D01*
X120278447Y-103450639D01*
X120278442Y-103450639D01*
X120274000Y-103450000D01*
X118714322Y-103450000D01*
X118646201Y-103429998D01*
X118625227Y-103413095D01*
X118586905Y-103374773D01*
X118552879Y-103312461D01*
X118550000Y-103285678D01*
X118550000Y-102052190D01*
X118549141Y-102036158D01*
X118548352Y-102028813D01*
X118546924Y-102015533D01*
X118546924Y-102015532D01*
X118546262Y-102009375D01*
X118528772Y-101953518D01*
X118519813Y-101937111D01*
X118504720Y-101867738D01*
X118529529Y-101801217D01*
X118586363Y-101758668D01*
X118630389Y-101750723D01*
X140648000Y-101749273D01*
X140655558Y-101750268D01*
G37*
%TD.AperFunction*%
%TA.AperFunction,Conductor*%
G36*
X113597854Y-101771057D02*
G01*
X113644350Y-101824709D01*
X113654458Y-101894988D01*
X113650640Y-101921548D01*
X113650000Y-101926000D01*
X113650000Y-103547810D01*
X113650859Y-103563842D01*
X113651039Y-103565519D01*
X113651040Y-103565528D01*
X113652863Y-103582482D01*
X113653738Y-103590625D01*
X113671228Y-103646482D01*
X113674190Y-103651906D01*
X113674192Y-103651911D01*
X113697239Y-103694116D01*
X113705254Y-103708794D01*
X113707949Y-103712394D01*
X113728142Y-103739369D01*
X113728146Y-103739374D01*
X113730839Y-103742971D01*
X114057029Y-104069161D01*
X114068971Y-104079888D01*
X114070291Y-104080952D01*
X114070303Y-104080962D01*
X114077633Y-104086869D01*
X114089945Y-104096791D01*
X114095430Y-104099660D01*
X114095431Y-104099661D01*
X114112712Y-104108701D01*
X114141809Y-104123922D01*
X114147747Y-104125665D01*
X114147748Y-104125666D01*
X114205607Y-104142655D01*
X114205611Y-104142656D01*
X114209930Y-104143924D01*
X114214382Y-104144564D01*
X114214386Y-104144565D01*
X114247743Y-104149361D01*
X114247748Y-104149361D01*
X114252190Y-104150000D01*
X114315459Y-104150000D01*
X114317767Y-104150021D01*
X114406255Y-104151643D01*
X114410901Y-104150376D01*
X114416968Y-104150000D01*
X115515459Y-104150000D01*
X115517767Y-104150021D01*
X115606255Y-104151643D01*
X115610901Y-104150376D01*
X115616968Y-104150000D01*
X115685678Y-104150000D01*
X115753799Y-104170002D01*
X115774773Y-104186905D01*
X116657029Y-105069161D01*
X116668971Y-105079888D01*
X116670291Y-105080952D01*
X116670303Y-105080962D01*
X116677633Y-105086869D01*
X116689945Y-105096791D01*
X116741809Y-105123922D01*
X116747747Y-105125665D01*
X116747748Y-105125666D01*
X116805607Y-105142655D01*
X116805611Y-105142656D01*
X116809930Y-105143924D01*
X116814382Y-105144564D01*
X116814386Y-105144565D01*
X116847743Y-105149361D01*
X116847748Y-105149361D01*
X116852190Y-105150000D01*
X118285678Y-105150000D01*
X118353799Y-105170002D01*
X118374773Y-105186905D01*
X118413095Y-105225227D01*
X118447121Y-105287539D01*
X118450000Y-105314322D01*
X118450000Y-106151940D01*
X118448500Y-106171325D01*
X118446282Y-106185567D01*
X118446282Y-106185571D01*
X118444901Y-106194440D01*
X118446065Y-106203342D01*
X118446065Y-106203345D01*
X118448936Y-106225296D01*
X118450000Y-106241634D01*
X118450000Y-106547810D01*
X118450859Y-106563842D01*
X118453738Y-106590625D01*
X118471228Y-106646482D01*
X118474190Y-106651906D01*
X118474192Y-106651911D01*
X118503098Y-106704846D01*
X118505254Y-106708794D01*
X118507949Y-106712394D01*
X118528142Y-106739369D01*
X118528146Y-106739374D01*
X118530839Y-106742971D01*
X118657029Y-106869161D01*
X118668971Y-106879888D01*
X118670291Y-106880952D01*
X118670303Y-106880962D01*
X118677025Y-106886379D01*
X118689945Y-106896791D01*
X118741809Y-106923922D01*
X118747747Y-106925665D01*
X118747748Y-106925666D01*
X118805607Y-106942655D01*
X118805611Y-106942656D01*
X118809930Y-106943924D01*
X118814382Y-106944564D01*
X118814386Y-106944565D01*
X118847743Y-106949361D01*
X118847748Y-106949361D01*
X118852190Y-106950000D01*
X119347810Y-106950000D01*
X119349465Y-106949911D01*
X119349477Y-106949911D01*
X119362162Y-106949231D01*
X119362161Y-106949231D01*
X119363842Y-106949141D01*
X119365519Y-106948961D01*
X119365528Y-106948960D01*
X119384467Y-106946924D01*
X119384468Y-106946924D01*
X119390625Y-106946262D01*
X119421944Y-106936455D01*
X119440578Y-106930621D01*
X119440581Y-106930620D01*
X119446482Y-106928772D01*
X119451906Y-106925810D01*
X119451911Y-106925808D01*
X119504846Y-106896902D01*
X119504848Y-106896901D01*
X119508794Y-106894746D01*
X119528642Y-106879888D01*
X119539369Y-106871858D01*
X119539374Y-106871854D01*
X119542971Y-106869161D01*
X120469161Y-105942971D01*
X120479888Y-105931029D01*
X120487390Y-105921720D01*
X120545709Y-105881233D01*
X120616661Y-105878702D01*
X120674589Y-105911692D01*
X122112595Y-107349698D01*
X122146621Y-107412010D01*
X122149500Y-107438793D01*
X122149500Y-124481207D01*
X122129498Y-124549328D01*
X122112595Y-124570302D01*
X120970302Y-125712595D01*
X120907990Y-125746621D01*
X120881207Y-125749500D01*
X113407778Y-125749500D01*
X113407009Y-125749498D01*
X113338231Y-125749078D01*
X113337011Y-125749427D01*
X113335933Y-125749500D01*
X112232778Y-125749500D01*
X112232009Y-125749498D01*
X112163231Y-125749078D01*
X112154607Y-125751543D01*
X112154604Y-125751543D01*
X112136963Y-125756585D01*
X112121074Y-125760035D01*
X112100347Y-125763151D01*
X112100345Y-125763152D01*
X112091038Y-125764551D01*
X112082553Y-125768625D01*
X112082548Y-125768627D01*
X112074132Y-125772669D01*
X112054217Y-125780235D01*
X112039155Y-125784539D01*
X112012616Y-125801284D01*
X111999941Y-125808295D01*
X111968921Y-125823191D01*
X111962002Y-125829587D01*
X111958127Y-125833169D01*
X111939835Y-125847206D01*
X111930019Y-125853399D01*
X111906577Y-125879943D01*
X111897664Y-125889060D01*
X111876361Y-125908752D01*
X111869444Y-125915146D01*
X111864101Y-125924346D01*
X111852319Y-125940682D01*
X111850536Y-125943396D01*
X111844596Y-125950122D01*
X111829911Y-125981400D01*
X111827821Y-125985851D01*
X111822721Y-125995586D01*
X111801404Y-126032287D01*
X111799278Y-126041460D01*
X111796749Y-126047847D01*
X111795951Y-126050151D01*
X111796193Y-126050225D01*
X111793570Y-126058804D01*
X111789754Y-126066932D01*
X111788373Y-126075802D01*
X111783057Y-126109941D01*
X111781303Y-126119005D01*
X111770815Y-126164255D01*
X111771480Y-126173647D01*
X111771303Y-126175893D01*
X111771371Y-126178232D01*
X111771282Y-126185571D01*
X111769901Y-126194440D01*
X111776074Y-126241645D01*
X111776820Y-126249052D01*
X111780383Y-126299384D01*
X111783783Y-126308172D01*
X111784214Y-126310101D01*
X111785552Y-126314130D01*
X111786633Y-126322394D01*
X111790249Y-126330611D01*
X111807443Y-126369688D01*
X111809607Y-126374924D01*
X111829261Y-126425726D01*
X111835092Y-126433123D01*
X111836212Y-126435086D01*
X111836229Y-126435110D01*
X111838605Y-126440510D01*
X111874537Y-126483257D01*
X111876997Y-126486278D01*
X111913128Y-126532110D01*
X111919034Y-126536192D01*
X111921639Y-126539291D01*
X111928756Y-126544028D01*
X111928758Y-126544030D01*
X111971676Y-126572598D01*
X111973497Y-126573833D01*
X112024569Y-126609131D01*
X112028360Y-126610330D01*
X112029060Y-126610796D01*
X112034828Y-126612598D01*
X112034830Y-126612599D01*
X112070143Y-126623631D01*
X112092743Y-126630692D01*
X112153730Y-126649980D01*
X112160337Y-126650500D01*
X112217736Y-126650500D01*
X112220045Y-126650521D01*
X112272282Y-126651479D01*
X112272285Y-126651479D01*
X112281255Y-126651643D01*
X112284709Y-126650701D01*
X112287952Y-126650500D01*
X113392736Y-126650500D01*
X113395045Y-126650521D01*
X113447282Y-126651479D01*
X113447285Y-126651479D01*
X113456255Y-126651643D01*
X113459709Y-126650701D01*
X113462952Y-126650500D01*
X119708207Y-126650500D01*
X119776328Y-126670502D01*
X119822821Y-126724158D01*
X119832925Y-126794432D01*
X119803431Y-126859012D01*
X119797302Y-126865595D01*
X119605650Y-127057247D01*
X119594561Y-127067101D01*
X119575291Y-127082293D01*
X119575289Y-127082295D01*
X119567890Y-127088128D01*
X119562535Y-127095875D01*
X119562534Y-127095877D01*
X119534545Y-127136375D01*
X119532250Y-127139587D01*
X119497366Y-127186816D01*
X119494973Y-127193632D01*
X119490869Y-127199569D01*
X119488029Y-127208549D01*
X119488028Y-127208551D01*
X119473182Y-127255495D01*
X119471929Y-127259250D01*
X119457943Y-127299078D01*
X119452481Y-127314631D01*
X119452199Y-127321819D01*
X119452188Y-127321878D01*
X119450020Y-127328730D01*
X119449500Y-127335337D01*
X119449500Y-127388016D01*
X119449403Y-127392962D01*
X119447162Y-127449994D01*
X119449046Y-127457100D01*
X119449500Y-127465347D01*
X119449500Y-129865780D01*
X119448627Y-129880589D01*
X119444636Y-129914310D01*
X119446328Y-129923574D01*
X119446328Y-129923575D01*
X119455172Y-129972001D01*
X119455822Y-129975904D01*
X119464551Y-130033962D01*
X119467679Y-130040475D01*
X119468975Y-130047573D01*
X119496025Y-130099647D01*
X119497768Y-130103137D01*
X119523191Y-130156079D01*
X119528077Y-130161365D01*
X119528110Y-130161413D01*
X119531421Y-130167788D01*
X119535725Y-130172828D01*
X119572952Y-130210055D01*
X119576381Y-130213620D01*
X119615146Y-130255556D01*
X119621505Y-130259249D01*
X119627663Y-130264766D01*
X120362595Y-130999698D01*
X120396621Y-131062010D01*
X120399500Y-131088793D01*
X120399500Y-132264820D01*
X120408233Y-132308722D01*
X120415127Y-132319040D01*
X120415128Y-132319042D01*
X120427330Y-132337303D01*
X120441496Y-132358504D01*
X120451815Y-132365399D01*
X120480958Y-132384872D01*
X120480960Y-132384873D01*
X120491278Y-132391767D01*
X120535180Y-132400500D01*
X122264820Y-132400500D01*
X122308722Y-132391767D01*
X122319040Y-132384873D01*
X122319042Y-132384872D01*
X122348185Y-132365399D01*
X122358504Y-132358504D01*
X122372670Y-132337303D01*
X122384872Y-132319042D01*
X122384873Y-132319040D01*
X122391767Y-132308722D01*
X122400500Y-132264820D01*
X122400500Y-131385963D01*
X122934757Y-131385963D01*
X122951175Y-131581483D01*
X123005258Y-131770091D01*
X123008076Y-131775574D01*
X123092123Y-131939113D01*
X123092126Y-131939117D01*
X123094944Y-131944601D01*
X123216818Y-132098369D01*
X123221511Y-132102363D01*
X123221512Y-132102364D01*
X123350424Y-132212076D01*
X123366238Y-132225535D01*
X123371616Y-132228541D01*
X123371618Y-132228542D01*
X123431252Y-132261870D01*
X123537513Y-132321257D01*
X123724118Y-132381889D01*
X123918946Y-132405121D01*
X123925081Y-132404649D01*
X123925083Y-132404649D01*
X124108434Y-132390541D01*
X124108438Y-132390540D01*
X124114576Y-132390068D01*
X124303556Y-132337303D01*
X124478689Y-132248837D01*
X124508515Y-132225535D01*
X124575166Y-132173461D01*
X124633303Y-132128040D01*
X124663084Y-132093539D01*
X124757485Y-131984173D01*
X124757485Y-131984172D01*
X124761509Y-131979511D01*
X124858425Y-131808909D01*
X124920358Y-131622732D01*
X124944949Y-131428071D01*
X124945341Y-131400000D01*
X124926194Y-131204728D01*
X124924413Y-131198829D01*
X124924412Y-131198824D01*
X124871265Y-131022793D01*
X124869484Y-131016894D01*
X124777370Y-130843653D01*
X124653361Y-130691602D01*
X124502180Y-130566535D01*
X124329585Y-130473213D01*
X124227124Y-130441496D01*
X124148039Y-130417015D01*
X124148036Y-130417014D01*
X124142152Y-130415193D01*
X124136027Y-130414549D01*
X124136026Y-130414549D01*
X123953147Y-130395327D01*
X123953146Y-130395327D01*
X123947019Y-130394683D01*
X123824733Y-130405812D01*
X123757759Y-130411907D01*
X123757758Y-130411907D01*
X123751618Y-130412466D01*
X123745704Y-130414207D01*
X123745702Y-130414207D01*
X123676410Y-130434601D01*
X123563393Y-130467864D01*
X123557928Y-130470721D01*
X123394972Y-130555912D01*
X123394968Y-130555915D01*
X123389512Y-130558767D01*
X123384712Y-130562627D01*
X123384711Y-130562627D01*
X123350326Y-130590273D01*
X123236600Y-130681711D01*
X123110480Y-130832016D01*
X123107516Y-130837408D01*
X123107513Y-130837412D01*
X123070862Y-130904081D01*
X123015956Y-131003954D01*
X122956628Y-131190978D01*
X122934757Y-131385963D01*
X122400500Y-131385963D01*
X122400500Y-130535180D01*
X122391767Y-130491278D01*
X122384873Y-130480960D01*
X122384872Y-130480958D01*
X122365399Y-130451815D01*
X122358504Y-130441496D01*
X122348185Y-130434601D01*
X122319042Y-130415128D01*
X122319040Y-130415127D01*
X122308722Y-130408233D01*
X122264820Y-130399500D01*
X121088793Y-130399500D01*
X121020672Y-130379498D01*
X120999698Y-130362595D01*
X120452698Y-129815595D01*
X120418672Y-129753283D01*
X120423737Y-129682468D01*
X120466284Y-129625632D01*
X120532804Y-129600821D01*
X120541793Y-129600500D01*
X122264820Y-129600500D01*
X122308722Y-129591767D01*
X122319040Y-129584873D01*
X122319042Y-129584872D01*
X122348185Y-129565399D01*
X122358504Y-129558504D01*
X122372678Y-129537291D01*
X122384872Y-129519042D01*
X122384873Y-129519040D01*
X122391767Y-129508722D01*
X122400500Y-129464820D01*
X122400500Y-128585963D01*
X122934757Y-128585963D01*
X122951175Y-128781483D01*
X123005258Y-128970091D01*
X123008076Y-128975574D01*
X123092123Y-129139113D01*
X123092126Y-129139117D01*
X123094944Y-129144601D01*
X123216818Y-129298369D01*
X123366238Y-129425535D01*
X123371616Y-129428541D01*
X123371618Y-129428542D01*
X123407932Y-129448837D01*
X123537513Y-129521257D01*
X123724118Y-129581889D01*
X123918946Y-129605121D01*
X123925081Y-129604649D01*
X123925083Y-129604649D01*
X124108434Y-129590541D01*
X124108438Y-129590540D01*
X124114576Y-129590068D01*
X124303556Y-129537303D01*
X124478689Y-129448837D01*
X124508515Y-129425535D01*
X124555996Y-129388439D01*
X124633303Y-129328040D01*
X124663084Y-129293539D01*
X124757485Y-129184173D01*
X124757485Y-129184172D01*
X124761509Y-129179511D01*
X124858425Y-129008909D01*
X124920358Y-128822732D01*
X124944949Y-128628071D01*
X124945341Y-128600000D01*
X124926194Y-128404728D01*
X124924413Y-128398829D01*
X124924412Y-128398824D01*
X124871265Y-128222793D01*
X124869484Y-128216894D01*
X124777370Y-128043653D01*
X124653361Y-127891602D01*
X124502180Y-127766535D01*
X124329585Y-127673213D01*
X124227124Y-127641496D01*
X124148039Y-127617015D01*
X124148036Y-127617014D01*
X124142152Y-127615193D01*
X124136027Y-127614549D01*
X124136026Y-127614549D01*
X123953147Y-127595327D01*
X123953146Y-127595327D01*
X123947019Y-127594683D01*
X123824733Y-127605812D01*
X123757759Y-127611907D01*
X123757758Y-127611907D01*
X123751618Y-127612466D01*
X123745704Y-127614207D01*
X123745702Y-127614207D01*
X123676410Y-127634601D01*
X123563393Y-127667864D01*
X123557928Y-127670721D01*
X123394972Y-127755912D01*
X123394968Y-127755915D01*
X123389512Y-127758767D01*
X123384712Y-127762627D01*
X123384711Y-127762627D01*
X123350326Y-127790273D01*
X123236600Y-127881711D01*
X123110480Y-128032016D01*
X123107516Y-128037408D01*
X123107513Y-128037412D01*
X123038470Y-128163002D01*
X123015956Y-128203954D01*
X123014095Y-128209821D01*
X123014094Y-128209823D01*
X123009980Y-128222793D01*
X122956628Y-128390978D01*
X122934757Y-128585963D01*
X122400500Y-128585963D01*
X122400500Y-127735180D01*
X122391767Y-127691278D01*
X122384873Y-127680960D01*
X122384872Y-127680958D01*
X122365399Y-127651815D01*
X122358504Y-127641496D01*
X122343013Y-127631145D01*
X122319042Y-127615128D01*
X122319040Y-127615127D01*
X122308722Y-127608233D01*
X122264820Y-127599500D01*
X120641793Y-127599500D01*
X120573672Y-127579498D01*
X120527179Y-127525842D01*
X120517075Y-127455568D01*
X120546569Y-127390988D01*
X120552698Y-127384405D01*
X121330522Y-126606581D01*
X121365070Y-126582095D01*
X121376079Y-126576809D01*
X121381365Y-126571923D01*
X121381413Y-126571890D01*
X121387788Y-126568579D01*
X121392828Y-126564275D01*
X121430055Y-126527048D01*
X121433621Y-126523618D01*
X121468641Y-126491246D01*
X121475556Y-126484854D01*
X121479249Y-126478495D01*
X121484766Y-126472337D01*
X122510905Y-125446198D01*
X122573217Y-125412172D01*
X122644032Y-125417237D01*
X122689095Y-125446198D01*
X125475509Y-128232612D01*
X125509535Y-128294924D01*
X125506516Y-128359804D01*
X125498491Y-128385102D01*
X125498490Y-128385109D01*
X125496628Y-128390978D01*
X125474757Y-128585963D01*
X125491175Y-128781483D01*
X125545258Y-128970091D01*
X125548076Y-128975574D01*
X125632123Y-129139113D01*
X125632126Y-129139117D01*
X125634944Y-129144601D01*
X125756818Y-129298369D01*
X125906238Y-129425535D01*
X125911616Y-129428541D01*
X125911618Y-129428542D01*
X125947932Y-129448837D01*
X126077513Y-129521257D01*
X126264118Y-129581889D01*
X126458946Y-129605121D01*
X126465081Y-129604649D01*
X126465083Y-129604649D01*
X126648434Y-129590541D01*
X126648438Y-129590540D01*
X126654576Y-129590068D01*
X126843556Y-129537303D01*
X126849056Y-129534525D01*
X126849058Y-129534524D01*
X126986590Y-129465052D01*
X127056412Y-129452192D01*
X127122103Y-129479121D01*
X127162806Y-129537291D01*
X127162840Y-129537403D01*
X127163670Y-129543709D01*
X127219139Y-129677625D01*
X127307379Y-129792621D01*
X127312889Y-129796849D01*
X127346621Y-129858630D01*
X127349500Y-129885409D01*
X127349500Y-130553008D01*
X127329498Y-130621129D01*
X127275842Y-130667622D01*
X127205568Y-130677726D01*
X127143185Y-130650093D01*
X127108173Y-130621129D01*
X127042180Y-130566535D01*
X126869585Y-130473213D01*
X126767124Y-130441496D01*
X126688039Y-130417015D01*
X126688036Y-130417014D01*
X126682152Y-130415193D01*
X126676027Y-130414549D01*
X126676026Y-130414549D01*
X126493147Y-130395327D01*
X126493146Y-130395327D01*
X126487019Y-130394683D01*
X126364733Y-130405812D01*
X126297759Y-130411907D01*
X126297758Y-130411907D01*
X126291618Y-130412466D01*
X126285704Y-130414207D01*
X126285702Y-130414207D01*
X126216410Y-130434601D01*
X126103393Y-130467864D01*
X126097928Y-130470721D01*
X125934972Y-130555912D01*
X125934968Y-130555915D01*
X125929512Y-130558767D01*
X125924712Y-130562627D01*
X125924711Y-130562627D01*
X125890326Y-130590273D01*
X125776600Y-130681711D01*
X125650480Y-130832016D01*
X125647516Y-130837408D01*
X125647513Y-130837412D01*
X125610862Y-130904081D01*
X125555956Y-131003954D01*
X125496628Y-131190978D01*
X125474757Y-131385963D01*
X125491175Y-131581483D01*
X125545258Y-131770091D01*
X125548076Y-131775574D01*
X125632123Y-131939113D01*
X125632126Y-131939117D01*
X125634944Y-131944601D01*
X125756818Y-132098369D01*
X125761511Y-132102363D01*
X125761512Y-132102364D01*
X125890424Y-132212076D01*
X125906238Y-132225535D01*
X125911616Y-132228541D01*
X125911618Y-132228542D01*
X125971252Y-132261870D01*
X126077513Y-132321257D01*
X126264118Y-132381889D01*
X126458946Y-132405121D01*
X126465081Y-132404649D01*
X126465083Y-132404649D01*
X126648434Y-132390541D01*
X126648438Y-132390540D01*
X126654576Y-132390068D01*
X126843556Y-132337303D01*
X127018689Y-132248837D01*
X127048515Y-132225535D01*
X127162060Y-132136824D01*
X127228054Y-132110647D01*
X127297725Y-132124305D01*
X127348952Y-132173461D01*
X127358123Y-132193720D01*
X127358764Y-132199138D01*
X127362423Y-132206758D01*
X127363812Y-132215103D01*
X127379970Y-132245048D01*
X127386192Y-132256580D01*
X127388884Y-132261865D01*
X127409274Y-132304326D01*
X127412592Y-132308274D01*
X127414525Y-132310207D01*
X127415990Y-132311804D01*
X127416254Y-132312294D01*
X127416234Y-132312313D01*
X127416313Y-132312402D01*
X127419222Y-132317794D01*
X127426870Y-132324863D01*
X127426871Y-132324865D01*
X127455637Y-132351455D01*
X127459204Y-132354885D01*
X129683695Y-134579376D01*
X129695777Y-134594335D01*
X129699007Y-134597884D01*
X129704655Y-134606632D01*
X129712832Y-134613078D01*
X129728570Y-134625485D01*
X129732500Y-134628978D01*
X129732588Y-134628874D01*
X129736552Y-134632233D01*
X129740227Y-134635908D01*
X129744452Y-134638928D01*
X129744454Y-134638929D01*
X129754539Y-134646136D01*
X129759285Y-134649699D01*
X129796291Y-134678872D01*
X129804267Y-134681673D01*
X129811149Y-134686591D01*
X129856316Y-134700099D01*
X129861922Y-134701921D01*
X129898903Y-134714908D01*
X129898909Y-134714909D01*
X129906386Y-134717535D01*
X129911524Y-134717980D01*
X129914243Y-134717980D01*
X129916425Y-134718075D01*
X129916960Y-134718235D01*
X129916959Y-134718262D01*
X129917077Y-134718269D01*
X129922944Y-134720024D01*
X129972499Y-134718077D01*
X129977446Y-134717980D01*
X131490208Y-134717980D01*
X131558329Y-134737982D01*
X131604822Y-134791638D01*
X131614926Y-134861912D01*
X131602426Y-134901279D01*
X131531598Y-135039986D01*
X131491166Y-135205219D01*
X131490500Y-135215954D01*
X131490500Y-135471500D01*
X131470498Y-135539621D01*
X131416842Y-135586114D01*
X131364500Y-135597500D01*
X124435500Y-135597500D01*
X124367379Y-135577498D01*
X124320886Y-135523842D01*
X124309500Y-135471500D01*
X124309500Y-135253405D01*
X124294767Y-135127036D01*
X124236726Y-134967136D01*
X124143457Y-134824877D01*
X124019962Y-134707890D01*
X124013635Y-134704215D01*
X124013631Y-134704212D01*
X123879198Y-134626128D01*
X123872868Y-134622451D01*
X123865864Y-134620330D01*
X123865860Y-134620328D01*
X123713193Y-134574090D01*
X123653794Y-134535201D01*
X123624851Y-134470372D01*
X123635551Y-134400187D01*
X123682498Y-134346928D01*
X123749716Y-134327500D01*
X125643981Y-134327500D01*
X125712102Y-134347502D01*
X125740430Y-134372422D01*
X125796639Y-134439291D01*
X125904060Y-134510796D01*
X126027233Y-134549278D01*
X126036203Y-134549442D01*
X126036207Y-134549443D01*
X126094942Y-134550519D01*
X126156255Y-134551643D01*
X126242825Y-134528041D01*
X126272092Y-134520062D01*
X126272093Y-134520062D01*
X126280755Y-134517700D01*
X126288405Y-134513003D01*
X126288407Y-134513002D01*
X126383072Y-134454878D01*
X126383075Y-134454875D01*
X126390724Y-134450179D01*
X126396750Y-134443522D01*
X126471300Y-134361161D01*
X126471303Y-134361157D01*
X126477322Y-134354507D01*
X126533588Y-134238375D01*
X126536115Y-134223359D01*
X126554190Y-134115917D01*
X126554997Y-134111120D01*
X126555065Y-134105530D01*
X126555074Y-134104859D01*
X126555074Y-134104853D01*
X126555133Y-134100000D01*
X126545684Y-134034018D01*
X126538112Y-133981145D01*
X126538111Y-133981142D01*
X126536839Y-133972259D01*
X126491838Y-133873284D01*
X126487145Y-133862962D01*
X126487143Y-133862959D01*
X126483428Y-133854788D01*
X126421409Y-133782811D01*
X126405051Y-133763826D01*
X126405049Y-133763824D01*
X126399193Y-133757028D01*
X126290906Y-133686841D01*
X126282311Y-133684271D01*
X126282310Y-133684270D01*
X126175874Y-133652438D01*
X126175872Y-133652438D01*
X126167273Y-133649866D01*
X126158298Y-133649811D01*
X126158297Y-133649811D01*
X126103641Y-133649477D01*
X126038231Y-133649078D01*
X126026475Y-133652438D01*
X125922786Y-133682072D01*
X125922784Y-133682073D01*
X125914155Y-133684539D01*
X125906565Y-133689328D01*
X125805553Y-133753062D01*
X125738317Y-133772500D01*
X122697949Y-133772500D01*
X122696001Y-133772357D01*
X122691240Y-133770722D01*
X122647453Y-133772366D01*
X122646259Y-133772411D01*
X122641531Y-133772500D01*
X122624190Y-133772500D01*
X122619709Y-133773334D01*
X122617028Y-133773508D01*
X122599558Y-133774164D01*
X122599556Y-133774165D01*
X122587936Y-133774601D01*
X122577249Y-133779192D01*
X122570097Y-133780804D01*
X122566637Y-133781855D01*
X122559806Y-133784491D01*
X122548370Y-133786621D01*
X122538468Y-133792725D01*
X122538465Y-133792726D01*
X122529598Y-133798192D01*
X122513222Y-133806699D01*
X122501130Y-133811894D01*
X122492953Y-133815407D01*
X122488447Y-133819109D01*
X122486264Y-133821292D01*
X122483998Y-133823347D01*
X122483747Y-133823070D01*
X122478869Y-133826926D01*
X122478889Y-133826948D01*
X122470272Y-133834762D01*
X122460369Y-133840866D01*
X122445468Y-133860462D01*
X122434272Y-133873284D01*
X122259186Y-134048369D01*
X122087683Y-134219872D01*
X122086204Y-134221149D01*
X122081682Y-134223359D01*
X122073805Y-134231851D01*
X122073801Y-134231854D01*
X122051060Y-134256370D01*
X122047780Y-134259775D01*
X122035527Y-134272028D01*
X122032947Y-134275789D01*
X122031190Y-134277790D01*
X122011377Y-134299149D01*
X122007065Y-134309956D01*
X122003151Y-134316148D01*
X122001451Y-134319331D01*
X121998482Y-134326031D01*
X121991900Y-134335626D01*
X121989214Y-134346945D01*
X121986807Y-134357086D01*
X121981244Y-134374674D01*
X121973069Y-134395166D01*
X121972500Y-134400970D01*
X121972500Y-134404049D01*
X121972350Y-134407122D01*
X121971977Y-134407104D01*
X121971255Y-134413270D01*
X121971286Y-134413272D01*
X121970718Y-134424887D01*
X121968031Y-134436209D01*
X121969600Y-134447739D01*
X121969600Y-134447740D01*
X121971349Y-134460592D01*
X121972500Y-134477581D01*
X121972500Y-139735931D01*
X121952498Y-139804052D01*
X121940941Y-139819339D01*
X121926912Y-139835224D01*
X121869596Y-139900122D01*
X121814754Y-140016932D01*
X121812647Y-140030466D01*
X121796282Y-140135567D01*
X121796282Y-140135571D01*
X121794901Y-140144440D01*
X121796065Y-140153342D01*
X121796065Y-140153345D01*
X121810468Y-140263489D01*
X121810469Y-140263493D01*
X121811633Y-140272394D01*
X121815249Y-140280613D01*
X121817627Y-140289128D01*
X121816680Y-140360118D01*
X121777504Y-140419327D01*
X121712535Y-140447956D01*
X121696268Y-140449011D01*
X113243645Y-140449011D01*
X113175524Y-140429009D01*
X113154550Y-140412106D01*
X112516921Y-139774477D01*
X112482895Y-139712165D01*
X112480025Y-139683843D01*
X112480074Y-139679861D01*
X112480074Y-139679855D01*
X112480133Y-139675000D01*
X112471308Y-139613378D01*
X112463112Y-139556145D01*
X112463111Y-139556142D01*
X112461839Y-139547259D01*
X112455724Y-139533809D01*
X112412145Y-139437962D01*
X112412143Y-139437959D01*
X112408428Y-139429788D01*
X112324193Y-139332028D01*
X112215906Y-139261841D01*
X112207311Y-139259271D01*
X112207310Y-139259270D01*
X112100874Y-139227438D01*
X112100872Y-139227438D01*
X112092273Y-139224866D01*
X112083298Y-139224811D01*
X112083297Y-139224811D01*
X112028641Y-139224477D01*
X111963231Y-139224078D01*
X111917965Y-139237015D01*
X111847786Y-139257072D01*
X111847784Y-139257073D01*
X111839155Y-139259539D01*
X111831565Y-139264328D01*
X111761700Y-139308410D01*
X111730019Y-139328399D01*
X111724076Y-139335128D01*
X111724075Y-139335129D01*
X111678675Y-139386535D01*
X111644596Y-139425122D01*
X111640782Y-139433245D01*
X111640781Y-139433247D01*
X111614794Y-139488598D01*
X111589754Y-139541932D01*
X111588374Y-139550798D01*
X111571282Y-139660567D01*
X111571282Y-139660571D01*
X111569901Y-139669440D01*
X111571065Y-139678342D01*
X111571065Y-139678345D01*
X111585468Y-139788489D01*
X111585469Y-139788493D01*
X111586633Y-139797394D01*
X111638605Y-139915510D01*
X111644382Y-139922383D01*
X111644383Y-139922384D01*
X111690713Y-139977500D01*
X111721639Y-140014291D01*
X111829060Y-140085796D01*
X111952233Y-140124278D01*
X112033421Y-140125766D01*
X112101163Y-140147013D01*
X112120206Y-140162650D01*
X112846378Y-140888822D01*
X112847659Y-140890306D01*
X112849870Y-140894829D01*
X112858369Y-140902713D01*
X112882894Y-140925463D01*
X112886299Y-140928743D01*
X112898539Y-140940983D01*
X112902296Y-140943561D01*
X112904299Y-140945320D01*
X112916129Y-140956293D01*
X112925660Y-140965134D01*
X112936464Y-140969444D01*
X112942663Y-140973363D01*
X112945840Y-140975059D01*
X112952544Y-140978030D01*
X112962137Y-140984611D01*
X112973453Y-140987297D01*
X112973454Y-140987297D01*
X112983597Y-140989704D01*
X113001185Y-140995267D01*
X113021677Y-141003442D01*
X113027481Y-141004011D01*
X113030560Y-141004011D01*
X113033633Y-141004161D01*
X113033615Y-141004534D01*
X113039780Y-141005256D01*
X113039782Y-141005225D01*
X113051398Y-141005793D01*
X113062720Y-141008480D01*
X113074249Y-141006911D01*
X113074250Y-141006911D01*
X113085690Y-141005354D01*
X113087101Y-141005162D01*
X113104092Y-141004011D01*
X122505538Y-141004011D01*
X122507487Y-141004154D01*
X122512248Y-141005789D01*
X122557241Y-141004100D01*
X122561968Y-141004011D01*
X122579299Y-141004011D01*
X122583783Y-141003176D01*
X122586437Y-141003004D01*
X122615553Y-141001911D01*
X122626241Y-140997319D01*
X122633395Y-140995707D01*
X122636835Y-140994662D01*
X122643681Y-140992020D01*
X122655119Y-140989890D01*
X122673892Y-140978318D01*
X122690268Y-140969811D01*
X122710535Y-140961104D01*
X122715042Y-140957403D01*
X122717224Y-140955221D01*
X122719502Y-140953155D01*
X122719754Y-140953433D01*
X122724619Y-140949586D01*
X122724599Y-140949564D01*
X122733217Y-140941749D01*
X122743120Y-140935645D01*
X122758022Y-140916049D01*
X122769217Y-140903228D01*
X122855801Y-140816644D01*
X122918113Y-140782618D01*
X122988928Y-140787683D01*
X123031549Y-140814266D01*
X123077101Y-140857418D01*
X123127372Y-140905040D01*
X123278702Y-140992939D01*
X123446193Y-141043667D01*
X123620862Y-141054503D01*
X123628078Y-141053263D01*
X123628080Y-141053263D01*
X123786125Y-141026106D01*
X123786127Y-141026105D01*
X123793340Y-141024866D01*
X123954373Y-140956346D01*
X124095324Y-140852617D01*
X124100063Y-140847039D01*
X124100066Y-140847036D01*
X124203893Y-140724824D01*
X124203896Y-140724820D01*
X124208632Y-140719245D01*
X124288219Y-140563384D01*
X124329815Y-140393394D01*
X124330500Y-140382352D01*
X124330500Y-140103500D01*
X124350502Y-140035379D01*
X124404158Y-139988886D01*
X124456500Y-139977500D01*
X131343500Y-139977500D01*
X131411621Y-139997502D01*
X131458114Y-140051158D01*
X131469500Y-140103500D01*
X131469500Y-140343822D01*
X131484657Y-140473828D01*
X131487153Y-140480705D01*
X131487154Y-140480708D01*
X131524709Y-140584169D01*
X131544369Y-140638331D01*
X131640323Y-140784685D01*
X131767372Y-140905040D01*
X131918702Y-140992939D01*
X132086193Y-141043667D01*
X132260862Y-141054503D01*
X132268078Y-141053263D01*
X132268080Y-141053263D01*
X132426125Y-141026106D01*
X132426127Y-141026105D01*
X132433340Y-141024866D01*
X132594373Y-140956346D01*
X132735324Y-140852617D01*
X132740063Y-140847039D01*
X132740066Y-140847036D01*
X132843893Y-140724824D01*
X132843896Y-140724820D01*
X132848632Y-140719245D01*
X132928219Y-140563384D01*
X132969815Y-140393394D01*
X132970500Y-140382352D01*
X132970500Y-139056178D01*
X132955343Y-138926172D01*
X132928111Y-138851148D01*
X132898128Y-138768548D01*
X132895631Y-138761669D01*
X132799677Y-138615315D01*
X132672628Y-138494960D01*
X132666298Y-138491283D01*
X132666297Y-138491282D01*
X132531470Y-138412969D01*
X132482611Y-138361458D01*
X132469357Y-138291710D01*
X132495917Y-138225868D01*
X132553856Y-138184837D01*
X132590029Y-138178104D01*
X132598593Y-138177783D01*
X132603754Y-138177589D01*
X132608479Y-138177500D01*
X132625810Y-138177500D01*
X132630294Y-138176665D01*
X132632948Y-138176493D01*
X132662064Y-138175400D01*
X132672752Y-138170808D01*
X132679906Y-138169196D01*
X132683346Y-138168151D01*
X132690192Y-138165509D01*
X132701630Y-138163379D01*
X132720403Y-138151807D01*
X132736779Y-138143300D01*
X132757046Y-138134593D01*
X132761553Y-138130892D01*
X132763735Y-138128710D01*
X132766013Y-138126644D01*
X132766265Y-138126922D01*
X132771130Y-138123075D01*
X132771110Y-138123053D01*
X132779728Y-138115238D01*
X132789631Y-138109134D01*
X132804533Y-138089538D01*
X132815728Y-138076717D01*
X133306850Y-137585595D01*
X133805014Y-137087430D01*
X133867326Y-137053405D01*
X133896416Y-137050546D01*
X133956255Y-137051643D01*
X134018505Y-137034671D01*
X134072092Y-137020062D01*
X134072093Y-137020062D01*
X134080755Y-137017700D01*
X134088405Y-137013003D01*
X134088407Y-137013002D01*
X134183072Y-136954878D01*
X134183075Y-136954875D01*
X134190724Y-136950179D01*
X134216998Y-136921152D01*
X134271300Y-136861161D01*
X134271303Y-136861157D01*
X134277322Y-136854507D01*
X134297635Y-136812581D01*
X134304080Y-136799280D01*
X134351783Y-136746697D01*
X134420342Y-136728252D01*
X134487989Y-136749800D01*
X134506567Y-136765124D01*
X134662595Y-136921152D01*
X134696621Y-136983464D01*
X134699500Y-137010247D01*
X134699500Y-138219176D01*
X134697467Y-138238275D01*
X134697240Y-138243083D01*
X134695049Y-138253261D01*
X134696273Y-138263600D01*
X134698627Y-138283491D01*
X134698937Y-138288746D01*
X134699072Y-138288735D01*
X134699500Y-138293914D01*
X134699500Y-138299115D01*
X134700354Y-138304243D01*
X134700354Y-138304249D01*
X134702389Y-138316473D01*
X134703226Y-138322349D01*
X134708764Y-138369138D01*
X134712423Y-138376758D01*
X134713812Y-138385103D01*
X134723675Y-138403382D01*
X134736192Y-138426580D01*
X134738884Y-138431865D01*
X134759274Y-138474326D01*
X134762592Y-138478274D01*
X134764525Y-138480207D01*
X134765990Y-138481804D01*
X134766254Y-138482294D01*
X134766234Y-138482313D01*
X134766313Y-138482402D01*
X134769222Y-138487794D01*
X134776870Y-138494864D01*
X134776871Y-138494865D01*
X134805636Y-138521455D01*
X134809202Y-138524884D01*
X136029567Y-139745249D01*
X136063593Y-139807561D01*
X136060574Y-139872443D01*
X136020903Y-139997502D01*
X136016628Y-140010978D01*
X135994757Y-140205963D01*
X136011175Y-140401483D01*
X136065258Y-140590091D01*
X136068076Y-140595574D01*
X136152123Y-140759113D01*
X136152126Y-140759117D01*
X136154944Y-140764601D01*
X136276818Y-140918369D01*
X136281511Y-140922363D01*
X136281512Y-140922364D01*
X136377624Y-141004161D01*
X136426238Y-141045535D01*
X136431616Y-141048541D01*
X136431618Y-141048542D01*
X136467932Y-141068837D01*
X136597513Y-141141257D01*
X136784118Y-141201889D01*
X136823807Y-141206622D01*
X136873412Y-141212537D01*
X136938685Y-141240465D01*
X136978498Y-141299248D01*
X136980210Y-141370224D01*
X136943277Y-141430858D01*
X136879427Y-141461900D01*
X136858436Y-141463651D01*
X106551253Y-141449264D01*
X106543561Y-141448249D01*
X106530939Y-141448249D01*
X106514915Y-141443955D01*
X106499063Y-141448202D01*
X106493627Y-141448050D01*
X106340464Y-141439449D01*
X106212341Y-141432254D01*
X106198309Y-141430673D01*
X106052409Y-141405883D01*
X105906515Y-141381095D01*
X105892740Y-141377951D01*
X105608335Y-141296015D01*
X105594998Y-141291348D01*
X105379023Y-141201889D01*
X105321553Y-141178084D01*
X105308830Y-141171957D01*
X105049782Y-141028786D01*
X105037826Y-141021273D01*
X104796439Y-140849998D01*
X104785393Y-140841189D01*
X104564706Y-140643972D01*
X104554714Y-140633980D01*
X104357497Y-140413293D01*
X104348688Y-140402247D01*
X104177413Y-140160860D01*
X104169900Y-140148904D01*
X104026729Y-139889856D01*
X104020600Y-139877129D01*
X104004574Y-139838437D01*
X103962114Y-139735931D01*
X103907338Y-139603688D01*
X103902671Y-139590351D01*
X103820735Y-139305946D01*
X103817591Y-139292171D01*
X103784279Y-139096111D01*
X103768013Y-139000377D01*
X103766432Y-138986341D01*
X103763462Y-138933444D01*
X103751547Y-138721288D01*
X103750636Y-138705059D01*
X103750484Y-138699623D01*
X103754731Y-138683771D01*
X103750437Y-138667748D01*
X103750437Y-138655022D01*
X103749438Y-138647437D01*
X103749437Y-138614526D01*
X103749436Y-138600000D01*
X104994551Y-138600000D01*
X105014317Y-138851148D01*
X105015471Y-138855955D01*
X105015472Y-138855961D01*
X105050670Y-139002570D01*
X105073127Y-139096111D01*
X105075020Y-139100682D01*
X105075021Y-139100684D01*
X105161064Y-139308410D01*
X105169534Y-139328859D01*
X105301164Y-139543659D01*
X105304376Y-139547419D01*
X105304379Y-139547424D01*
X105420892Y-139683843D01*
X105464776Y-139735224D01*
X105468538Y-139738437D01*
X105652576Y-139895621D01*
X105652581Y-139895624D01*
X105656341Y-139898836D01*
X105871141Y-140030466D01*
X105875711Y-140032359D01*
X105875715Y-140032361D01*
X106047461Y-140103500D01*
X106103889Y-140126873D01*
X106177061Y-140144440D01*
X106344039Y-140184528D01*
X106344045Y-140184529D01*
X106348852Y-140185683D01*
X106437149Y-140192632D01*
X106534661Y-140200307D01*
X106534670Y-140200307D01*
X106537118Y-140200500D01*
X106662882Y-140200500D01*
X106665330Y-140200307D01*
X106665339Y-140200307D01*
X106762851Y-140192632D01*
X106851148Y-140185683D01*
X106855955Y-140184529D01*
X106855961Y-140184528D01*
X107022939Y-140144440D01*
X107096111Y-140126873D01*
X107152539Y-140103500D01*
X107324285Y-140032361D01*
X107324289Y-140032359D01*
X107328859Y-140030466D01*
X107543659Y-139898836D01*
X107547419Y-139895624D01*
X107547424Y-139895621D01*
X107731462Y-139738437D01*
X107735224Y-139735224D01*
X107779108Y-139683843D01*
X107895621Y-139547424D01*
X107895624Y-139547419D01*
X107898836Y-139543659D01*
X108030466Y-139328859D01*
X108038937Y-139308410D01*
X108124979Y-139100684D01*
X108124980Y-139100682D01*
X108126873Y-139096111D01*
X108149330Y-139002570D01*
X108184528Y-138855961D01*
X108184529Y-138855955D01*
X108185683Y-138851148D01*
X108205449Y-138600000D01*
X108185683Y-138348852D01*
X108179321Y-138322349D01*
X108141155Y-138163379D01*
X108126873Y-138103889D01*
X108115618Y-138076717D01*
X108032361Y-137875715D01*
X108032359Y-137875711D01*
X108030466Y-137871141D01*
X107898836Y-137656341D01*
X107895624Y-137652581D01*
X107895621Y-137652576D01*
X107738437Y-137468538D01*
X107735224Y-137464776D01*
X107660744Y-137401164D01*
X107547424Y-137304379D01*
X107547419Y-137304376D01*
X107543659Y-137301164D01*
X107328859Y-137169534D01*
X107324289Y-137167641D01*
X107324285Y-137167639D01*
X107100684Y-137075021D01*
X107100682Y-137075020D01*
X107096111Y-137073127D01*
X106982223Y-137045785D01*
X106855961Y-137015472D01*
X106855955Y-137015471D01*
X106851148Y-137014317D01*
X106762851Y-137007368D01*
X106665339Y-136999693D01*
X106665330Y-136999693D01*
X106662882Y-136999500D01*
X106537118Y-136999500D01*
X106534670Y-136999693D01*
X106534661Y-136999693D01*
X106437149Y-137007368D01*
X106348852Y-137014317D01*
X106344045Y-137015471D01*
X106344039Y-137015472D01*
X106217777Y-137045785D01*
X106103889Y-137073127D01*
X106099318Y-137075020D01*
X106099316Y-137075021D01*
X105875715Y-137167639D01*
X105875711Y-137167641D01*
X105871141Y-137169534D01*
X105656341Y-137301164D01*
X105652581Y-137304376D01*
X105652576Y-137304379D01*
X105539256Y-137401164D01*
X105464776Y-137464776D01*
X105461563Y-137468538D01*
X105304379Y-137652576D01*
X105304376Y-137652581D01*
X105301164Y-137656341D01*
X105169534Y-137871141D01*
X105167641Y-137875711D01*
X105167639Y-137875715D01*
X105084382Y-138076717D01*
X105073127Y-138103889D01*
X105058845Y-138163379D01*
X105020680Y-138322349D01*
X105014317Y-138348852D01*
X104994551Y-138600000D01*
X103749436Y-138600000D01*
X103748349Y-114873909D01*
X103748330Y-114450963D01*
X105594757Y-114450963D01*
X105611175Y-114646483D01*
X105665258Y-114835091D01*
X105668076Y-114840574D01*
X105752123Y-115004113D01*
X105752126Y-115004117D01*
X105754944Y-115009601D01*
X105876818Y-115163369D01*
X106026238Y-115290535D01*
X106031616Y-115293541D01*
X106031618Y-115293542D01*
X106067932Y-115313837D01*
X106197513Y-115386257D01*
X106384118Y-115446889D01*
X106578946Y-115470121D01*
X106585081Y-115469649D01*
X106585083Y-115469649D01*
X106768434Y-115455541D01*
X106768438Y-115455540D01*
X106774576Y-115455068D01*
X106963556Y-115402303D01*
X107138689Y-115313837D01*
X107168515Y-115290535D01*
X107288453Y-115196829D01*
X107293303Y-115193040D01*
X107323084Y-115158539D01*
X107417485Y-115049173D01*
X107417485Y-115049172D01*
X107421509Y-115044511D01*
X107518425Y-114873909D01*
X107580358Y-114687732D01*
X107604949Y-114493071D01*
X107605341Y-114465000D01*
X107586194Y-114269728D01*
X107584413Y-114263829D01*
X107584412Y-114263824D01*
X107580238Y-114250000D01*
X119124258Y-114250000D01*
X119145095Y-114381562D01*
X119205567Y-114500245D01*
X119299755Y-114594433D01*
X119418438Y-114654905D01*
X119550000Y-114675742D01*
X119681562Y-114654905D01*
X119800245Y-114594433D01*
X119894433Y-114500245D01*
X119954905Y-114381562D01*
X119971646Y-114275862D01*
X119975604Y-114250872D01*
X120006016Y-114186718D01*
X120010958Y-114181487D01*
X120062313Y-114130132D01*
X120063797Y-114128851D01*
X120068318Y-114126641D01*
X120098940Y-114093630D01*
X120102220Y-114090225D01*
X120114473Y-114077972D01*
X120117053Y-114074210D01*
X120118811Y-114072208D01*
X120130712Y-114059379D01*
X120138623Y-114050851D01*
X120142934Y-114040047D01*
X120146850Y-114033852D01*
X120148554Y-114030661D01*
X120151519Y-114023968D01*
X120158101Y-114014374D01*
X120163193Y-113992915D01*
X120168758Y-113975318D01*
X120173635Y-113963095D01*
X120176931Y-113954834D01*
X120177500Y-113949030D01*
X120177500Y-113945950D01*
X120177650Y-113942878D01*
X120178024Y-113942896D01*
X120178745Y-113936730D01*
X120178715Y-113936729D01*
X120179283Y-113925113D01*
X120181970Y-113913791D01*
X120178651Y-113889402D01*
X120177500Y-113872412D01*
X120177500Y-111369368D01*
X120197502Y-111301247D01*
X120214405Y-111280273D01*
X120244433Y-111250245D01*
X120304905Y-111131562D01*
X120316211Y-111060180D01*
X120324191Y-111009793D01*
X120325742Y-111000000D01*
X120304905Y-110868438D01*
X120244433Y-110749755D01*
X120150245Y-110655567D01*
X120031562Y-110595095D01*
X119900000Y-110574258D01*
X119768438Y-110595095D01*
X119649755Y-110655567D01*
X119555567Y-110749755D01*
X119495095Y-110868438D01*
X119474258Y-111000000D01*
X119475809Y-111009793D01*
X119483789Y-111060180D01*
X119495095Y-111131562D01*
X119555567Y-111250245D01*
X119585595Y-111280273D01*
X119619621Y-111342585D01*
X119622500Y-111369368D01*
X119622500Y-113705161D01*
X119602498Y-113773282D01*
X119548842Y-113819775D01*
X119516212Y-113829609D01*
X119455356Y-113839248D01*
X119428230Y-113843544D01*
X119428229Y-113843544D01*
X119418438Y-113845095D01*
X119299755Y-113905567D01*
X119205567Y-113999755D01*
X119145095Y-114118438D01*
X119124258Y-114250000D01*
X107580238Y-114250000D01*
X107531265Y-114087793D01*
X107529484Y-114081894D01*
X107437370Y-113908653D01*
X107313361Y-113756602D01*
X107162180Y-113631535D01*
X106989585Y-113538213D01*
X106895869Y-113509203D01*
X106808039Y-113482015D01*
X106808036Y-113482014D01*
X106802152Y-113480193D01*
X106796027Y-113479549D01*
X106796026Y-113479549D01*
X106613147Y-113460327D01*
X106613146Y-113460327D01*
X106607019Y-113459683D01*
X106484383Y-113470844D01*
X106417759Y-113476907D01*
X106417758Y-113476907D01*
X106411618Y-113477466D01*
X106405704Y-113479207D01*
X106405702Y-113479207D01*
X106276734Y-113517165D01*
X106223393Y-113532864D01*
X106217928Y-113535721D01*
X106054972Y-113620912D01*
X106054968Y-113620915D01*
X106049512Y-113623767D01*
X106044712Y-113627627D01*
X106044711Y-113627627D01*
X106010326Y-113655273D01*
X105896600Y-113746711D01*
X105770480Y-113897016D01*
X105767516Y-113902408D01*
X105767513Y-113902412D01*
X105712185Y-114003053D01*
X105675956Y-114068954D01*
X105674095Y-114074821D01*
X105674094Y-114074823D01*
X105673095Y-114077972D01*
X105616628Y-114255978D01*
X105594757Y-114450963D01*
X103748330Y-114450963D01*
X103748254Y-112789820D01*
X105599500Y-112789820D01*
X105608233Y-112833722D01*
X105615127Y-112844040D01*
X105615128Y-112844042D01*
X105634601Y-112873185D01*
X105641496Y-112883504D01*
X105651815Y-112890399D01*
X105680958Y-112909872D01*
X105680960Y-112909873D01*
X105691278Y-112916767D01*
X105735180Y-112925500D01*
X107464820Y-112925500D01*
X107508722Y-112916767D01*
X107519040Y-112909873D01*
X107519042Y-112909872D01*
X107548185Y-112890399D01*
X107558504Y-112883504D01*
X107565399Y-112873185D01*
X107584872Y-112844042D01*
X107584873Y-112844040D01*
X107591767Y-112833722D01*
X107600500Y-112789820D01*
X107600500Y-111060180D01*
X107591767Y-111016278D01*
X107584873Y-111005960D01*
X107584872Y-111005958D01*
X107565399Y-110976815D01*
X107558504Y-110966496D01*
X107548185Y-110959601D01*
X107519042Y-110940128D01*
X107519040Y-110940127D01*
X107508722Y-110933233D01*
X107464820Y-110924500D01*
X105735180Y-110924500D01*
X105691278Y-110933233D01*
X105680960Y-110940127D01*
X105680958Y-110940128D01*
X105651815Y-110959601D01*
X105641496Y-110966496D01*
X105634601Y-110976815D01*
X105615128Y-111005958D01*
X105615127Y-111005960D01*
X105608233Y-111016278D01*
X105599500Y-111060180D01*
X105599500Y-112789820D01*
X103748254Y-112789820D01*
X103747878Y-104600000D01*
X104994551Y-104600000D01*
X105014317Y-104851148D01*
X105073127Y-105096111D01*
X105075020Y-105100682D01*
X105075021Y-105100684D01*
X105163513Y-105314322D01*
X105169534Y-105328859D01*
X105301164Y-105543659D01*
X105304376Y-105547419D01*
X105304379Y-105547424D01*
X105449256Y-105717052D01*
X105464776Y-105735224D01*
X105468538Y-105738437D01*
X105652576Y-105895621D01*
X105652581Y-105895624D01*
X105656341Y-105898836D01*
X105871141Y-106030466D01*
X105875711Y-106032359D01*
X105875715Y-106032361D01*
X106099316Y-106124979D01*
X106103889Y-106126873D01*
X106188289Y-106147135D01*
X106344039Y-106184528D01*
X106344045Y-106184529D01*
X106348852Y-106185683D01*
X106437149Y-106192632D01*
X106534661Y-106200307D01*
X106534670Y-106200307D01*
X106537118Y-106200500D01*
X106662882Y-106200500D01*
X106665330Y-106200307D01*
X106665339Y-106200307D01*
X106762851Y-106192632D01*
X106851148Y-106185683D01*
X106855955Y-106184529D01*
X106855961Y-106184528D01*
X107011711Y-106147135D01*
X107096111Y-106126873D01*
X107100684Y-106124979D01*
X107324285Y-106032361D01*
X107324289Y-106032359D01*
X107328859Y-106030466D01*
X107543659Y-105898836D01*
X107547419Y-105895624D01*
X107547424Y-105895621D01*
X107731462Y-105738437D01*
X107735224Y-105735224D01*
X107750744Y-105717052D01*
X107895621Y-105547424D01*
X107895624Y-105547419D01*
X107898836Y-105543659D01*
X108030466Y-105328859D01*
X108036488Y-105314322D01*
X108124979Y-105100684D01*
X108124980Y-105100682D01*
X108126873Y-105096111D01*
X108185683Y-104851148D01*
X108205449Y-104600000D01*
X108185683Y-104348852D01*
X108151715Y-104207362D01*
X108128028Y-104108701D01*
X108126873Y-104103889D01*
X108122324Y-104092906D01*
X108032361Y-103875715D01*
X108032359Y-103875711D01*
X108030466Y-103871141D01*
X107898836Y-103656341D01*
X107895624Y-103652581D01*
X107895621Y-103652576D01*
X107738437Y-103468538D01*
X107735224Y-103464776D01*
X107694504Y-103429998D01*
X107547424Y-103304379D01*
X107547419Y-103304376D01*
X107543659Y-103301164D01*
X107328859Y-103169534D01*
X107324289Y-103167641D01*
X107324285Y-103167639D01*
X107100684Y-103075021D01*
X107100682Y-103075020D01*
X107096111Y-103073127D01*
X106981769Y-103045676D01*
X106855961Y-103015472D01*
X106855955Y-103015471D01*
X106851148Y-103014317D01*
X106762851Y-103007368D01*
X106665339Y-102999693D01*
X106665330Y-102999693D01*
X106662882Y-102999500D01*
X106537118Y-102999500D01*
X106534670Y-102999693D01*
X106534661Y-102999693D01*
X106437149Y-103007368D01*
X106348852Y-103014317D01*
X106344045Y-103015471D01*
X106344039Y-103015472D01*
X106218231Y-103045676D01*
X106103889Y-103073127D01*
X106099318Y-103075020D01*
X106099316Y-103075021D01*
X105875715Y-103167639D01*
X105875711Y-103167641D01*
X105871141Y-103169534D01*
X105656341Y-103301164D01*
X105652581Y-103304376D01*
X105652576Y-103304379D01*
X105505496Y-103429998D01*
X105464776Y-103464776D01*
X105461563Y-103468538D01*
X105304379Y-103652576D01*
X105304376Y-103652581D01*
X105301164Y-103656341D01*
X105169534Y-103871141D01*
X105167641Y-103875711D01*
X105167639Y-103875715D01*
X105077676Y-104092906D01*
X105073127Y-104103889D01*
X105071972Y-104108701D01*
X105048286Y-104207362D01*
X105014317Y-104348852D01*
X104994551Y-104600000D01*
X103747878Y-104600000D01*
X103747876Y-104553332D01*
X103748872Y-104545763D01*
X103748872Y-104533019D01*
X103753165Y-104516997D01*
X103748918Y-104501144D01*
X103749070Y-104495704D01*
X103764866Y-104214427D01*
X103766448Y-104200386D01*
X103767172Y-104196128D01*
X103816025Y-103908597D01*
X103819169Y-103894822D01*
X103901105Y-103610417D01*
X103905772Y-103597080D01*
X104019034Y-103323639D01*
X104025165Y-103310908D01*
X104026410Y-103308656D01*
X104168334Y-103051864D01*
X104175847Y-103039908D01*
X104347122Y-102798521D01*
X104355931Y-102787475D01*
X104553148Y-102566788D01*
X104563140Y-102556796D01*
X104783827Y-102359579D01*
X104794873Y-102350770D01*
X105036260Y-102179495D01*
X105048216Y-102171982D01*
X105307264Y-102028811D01*
X105319987Y-102022684D01*
X105526579Y-101937111D01*
X105593432Y-101909420D01*
X105606769Y-101904753D01*
X105891174Y-101822817D01*
X105904949Y-101819673D01*
X106050843Y-101794885D01*
X106196743Y-101770095D01*
X106210775Y-101768514D01*
X106338898Y-101761319D01*
X106492061Y-101752718D01*
X106497497Y-101752566D01*
X106513349Y-101756813D01*
X106529372Y-101752519D01*
X106542092Y-101752519D01*
X106549687Y-101751519D01*
X107948363Y-101751427D01*
X113529733Y-101751059D01*
X113597854Y-101771057D01*
G37*
%TD.AperFunction*%
%TD*%
%TA.AperFunction,Conductor*%
%TO.N,+3V3*%
G36*
X118215931Y-101820002D02*
G01*
X118236905Y-101836905D01*
X118363095Y-101963095D01*
X118397121Y-102025407D01*
X118400000Y-102052190D01*
X118400000Y-103400000D01*
X118600000Y-103600000D01*
X120274000Y-103600000D01*
X120342121Y-103620002D01*
X120388614Y-103673658D01*
X120400000Y-103726000D01*
X120400000Y-105747810D01*
X120379998Y-105815931D01*
X120363095Y-105836905D01*
X119436905Y-106763095D01*
X119374593Y-106797121D01*
X119347810Y-106800000D01*
X118852190Y-106800000D01*
X118784069Y-106779998D01*
X118763095Y-106763095D01*
X118636905Y-106636905D01*
X118602879Y-106574593D01*
X118600000Y-106547810D01*
X118600000Y-105200000D01*
X118400000Y-105000000D01*
X116852190Y-105000000D01*
X116784069Y-104979998D01*
X116763095Y-104963095D01*
X115800000Y-104000000D01*
X114252190Y-104000000D01*
X114184069Y-103979998D01*
X114163095Y-103963095D01*
X113836905Y-103636905D01*
X113802879Y-103574593D01*
X113800000Y-103547810D01*
X113800000Y-101926000D01*
X113820002Y-101857879D01*
X113873658Y-101811386D01*
X113926000Y-101800000D01*
X118147810Y-101800000D01*
X118215931Y-101820002D01*
G37*
%TD.AperFunction*%
%TD*%
M02*
