%TF.GenerationSoftware,KiCad,Pcbnew,(6.0.2)*%
%TF.CreationDate,2022-04-25T23:22:53+02:00*%
%TF.ProjectId,V3,56332e6b-6963-4616-945f-706362585858,rev?*%
%TF.SameCoordinates,Original*%
%TF.FileFunction,Legend,Top*%
%TF.FilePolarity,Positive*%
%FSLAX46Y46*%
G04 Gerber Fmt 4.6, Leading zero omitted, Abs format (unit mm)*
G04 Created by KiCad (PCBNEW (6.0.2)) date 2022-04-25 23:22:53*
%MOMM*%
%LPD*%
G01*
G04 APERTURE LIST*
%ADD10C,0.150000*%
%ADD11C,0.120000*%
%ADD12C,0.127000*%
%ADD13C,0.200000*%
G04 APERTURE END LIST*
D10*
%TO.C,SW1*%
X116866666Y-135164761D02*
X117009523Y-135212380D01*
X117247619Y-135212380D01*
X117342857Y-135164761D01*
X117390476Y-135117142D01*
X117438095Y-135021904D01*
X117438095Y-134926666D01*
X117390476Y-134831428D01*
X117342857Y-134783809D01*
X117247619Y-134736190D01*
X117057142Y-134688571D01*
X116961904Y-134640952D01*
X116914285Y-134593333D01*
X116866666Y-134498095D01*
X116866666Y-134402857D01*
X116914285Y-134307619D01*
X116961904Y-134260000D01*
X117057142Y-134212380D01*
X117295238Y-134212380D01*
X117438095Y-134260000D01*
X117771428Y-134212380D02*
X118009523Y-135212380D01*
X118200000Y-134498095D01*
X118390476Y-135212380D01*
X118628571Y-134212380D01*
X119533333Y-135212380D02*
X118961904Y-135212380D01*
X119247619Y-135212380D02*
X119247619Y-134212380D01*
X119152380Y-134355238D01*
X119057142Y-134450476D01*
X118961904Y-134498095D01*
%TO.C,J1*%
X126241666Y-132667380D02*
X126241666Y-133381666D01*
X126194047Y-133524523D01*
X126098809Y-133619761D01*
X125955952Y-133667380D01*
X125860714Y-133667380D01*
X127241666Y-133667380D02*
X126670238Y-133667380D01*
X126955952Y-133667380D02*
X126955952Y-132667380D01*
X126860714Y-132810238D01*
X126765476Y-132905476D01*
X126670238Y-132953095D01*
%TO.C,R11*%
X140552380Y-111142857D02*
X140076190Y-111476190D01*
X140552380Y-111714285D02*
X139552380Y-111714285D01*
X139552380Y-111333333D01*
X139600000Y-111238095D01*
X139647619Y-111190476D01*
X139742857Y-111142857D01*
X139885714Y-111142857D01*
X139980952Y-111190476D01*
X140028571Y-111238095D01*
X140076190Y-111333333D01*
X140076190Y-111714285D01*
X140552380Y-110190476D02*
X140552380Y-110761904D01*
X140552380Y-110476190D02*
X139552380Y-110476190D01*
X139695238Y-110571428D01*
X139790476Y-110666666D01*
X139838095Y-110761904D01*
X140552380Y-109238095D02*
X140552380Y-109809523D01*
X140552380Y-109523809D02*
X139552380Y-109523809D01*
X139695238Y-109619047D01*
X139790476Y-109714285D01*
X139838095Y-109809523D01*
%TO.C,C2*%
X117233333Y-104757142D02*
X117185714Y-104804761D01*
X117042857Y-104852380D01*
X116947619Y-104852380D01*
X116804761Y-104804761D01*
X116709523Y-104709523D01*
X116661904Y-104614285D01*
X116614285Y-104423809D01*
X116614285Y-104280952D01*
X116661904Y-104090476D01*
X116709523Y-103995238D01*
X116804761Y-103900000D01*
X116947619Y-103852380D01*
X117042857Y-103852380D01*
X117185714Y-103900000D01*
X117233333Y-103947619D01*
X117614285Y-103947619D02*
X117661904Y-103900000D01*
X117757142Y-103852380D01*
X117995238Y-103852380D01*
X118090476Y-103900000D01*
X118138095Y-103947619D01*
X118185714Y-104042857D01*
X118185714Y-104138095D01*
X118138095Y-104280952D01*
X117566666Y-104852380D01*
X118185714Y-104852380D01*
%TO.C,R8*%
X106852380Y-117966666D02*
X106376190Y-118300000D01*
X106852380Y-118538095D02*
X105852380Y-118538095D01*
X105852380Y-118157142D01*
X105900000Y-118061904D01*
X105947619Y-118014285D01*
X106042857Y-117966666D01*
X106185714Y-117966666D01*
X106280952Y-118014285D01*
X106328571Y-118061904D01*
X106376190Y-118157142D01*
X106376190Y-118538095D01*
X106280952Y-117395238D02*
X106233333Y-117490476D01*
X106185714Y-117538095D01*
X106090476Y-117585714D01*
X106042857Y-117585714D01*
X105947619Y-117538095D01*
X105900000Y-117490476D01*
X105852380Y-117395238D01*
X105852380Y-117204761D01*
X105900000Y-117109523D01*
X105947619Y-117061904D01*
X106042857Y-117014285D01*
X106090476Y-117014285D01*
X106185714Y-117061904D01*
X106233333Y-117109523D01*
X106280952Y-117204761D01*
X106280952Y-117395238D01*
X106328571Y-117490476D01*
X106376190Y-117538095D01*
X106471428Y-117585714D01*
X106661904Y-117585714D01*
X106757142Y-117538095D01*
X106804761Y-117490476D01*
X106852380Y-117395238D01*
X106852380Y-117204761D01*
X106804761Y-117109523D01*
X106757142Y-117061904D01*
X106661904Y-117014285D01*
X106471428Y-117014285D01*
X106376190Y-117061904D01*
X106328571Y-117109523D01*
X106280952Y-117204761D01*
%TO.C,C4*%
X141333333Y-105857142D02*
X141285714Y-105904761D01*
X141142857Y-105952380D01*
X141047619Y-105952380D01*
X140904761Y-105904761D01*
X140809523Y-105809523D01*
X140761904Y-105714285D01*
X140714285Y-105523809D01*
X140714285Y-105380952D01*
X140761904Y-105190476D01*
X140809523Y-105095238D01*
X140904761Y-105000000D01*
X141047619Y-104952380D01*
X141142857Y-104952380D01*
X141285714Y-105000000D01*
X141333333Y-105047619D01*
X142190476Y-105285714D02*
X142190476Y-105952380D01*
X141952380Y-104904761D02*
X141714285Y-105619047D01*
X142333333Y-105619047D01*
%TO.C,R6*%
X111652380Y-118766666D02*
X111176190Y-119100000D01*
X111652380Y-119338095D02*
X110652380Y-119338095D01*
X110652380Y-118957142D01*
X110700000Y-118861904D01*
X110747619Y-118814285D01*
X110842857Y-118766666D01*
X110985714Y-118766666D01*
X111080952Y-118814285D01*
X111128571Y-118861904D01*
X111176190Y-118957142D01*
X111176190Y-119338095D01*
X110652380Y-117909523D02*
X110652380Y-118100000D01*
X110700000Y-118195238D01*
X110747619Y-118242857D01*
X110890476Y-118338095D01*
X111080952Y-118385714D01*
X111461904Y-118385714D01*
X111557142Y-118338095D01*
X111604761Y-118290476D01*
X111652380Y-118195238D01*
X111652380Y-118004761D01*
X111604761Y-117909523D01*
X111557142Y-117861904D01*
X111461904Y-117814285D01*
X111223809Y-117814285D01*
X111128571Y-117861904D01*
X111080952Y-117909523D01*
X111033333Y-118004761D01*
X111033333Y-118195238D01*
X111080952Y-118290476D01*
X111128571Y-118338095D01*
X111223809Y-118385714D01*
%TO.C,J3*%
X112566270Y-128951729D02*
X112566270Y-129666864D01*
X112518594Y-129809891D01*
X112423243Y-129905243D01*
X112280216Y-129952918D01*
X112184865Y-129952918D01*
X112947675Y-128951729D02*
X113567459Y-128951729D01*
X113233729Y-129333135D01*
X113376756Y-129333135D01*
X113472108Y-129380810D01*
X113519783Y-129428486D01*
X113567459Y-129523837D01*
X113567459Y-129762216D01*
X113519783Y-129857567D01*
X113472108Y-129905243D01*
X113376756Y-129952918D01*
X113090702Y-129952918D01*
X112995351Y-129905243D01*
X112947675Y-129857567D01*
%TO.C,TP2*%
X104038095Y-107152380D02*
X104609523Y-107152380D01*
X104323809Y-108152380D02*
X104323809Y-107152380D01*
X104942857Y-108152380D02*
X104942857Y-107152380D01*
X105323809Y-107152380D01*
X105419047Y-107200000D01*
X105466666Y-107247619D01*
X105514285Y-107342857D01*
X105514285Y-107485714D01*
X105466666Y-107580952D01*
X105419047Y-107628571D01*
X105323809Y-107676190D01*
X104942857Y-107676190D01*
X105895238Y-107247619D02*
X105942857Y-107200000D01*
X106038095Y-107152380D01*
X106276190Y-107152380D01*
X106371428Y-107200000D01*
X106419047Y-107247619D01*
X106466666Y-107342857D01*
X106466666Y-107438095D01*
X106419047Y-107580952D01*
X105847619Y-108152380D01*
X106466666Y-108152380D01*
%TO.C,C5*%
X118433333Y-116357142D02*
X118385714Y-116404761D01*
X118242857Y-116452380D01*
X118147619Y-116452380D01*
X118004761Y-116404761D01*
X117909523Y-116309523D01*
X117861904Y-116214285D01*
X117814285Y-116023809D01*
X117814285Y-115880952D01*
X117861904Y-115690476D01*
X117909523Y-115595238D01*
X118004761Y-115500000D01*
X118147619Y-115452380D01*
X118242857Y-115452380D01*
X118385714Y-115500000D01*
X118433333Y-115547619D01*
X119338095Y-115452380D02*
X118861904Y-115452380D01*
X118814285Y-115928571D01*
X118861904Y-115880952D01*
X118957142Y-115833333D01*
X119195238Y-115833333D01*
X119290476Y-115880952D01*
X119338095Y-115928571D01*
X119385714Y-116023809D01*
X119385714Y-116261904D01*
X119338095Y-116357142D01*
X119290476Y-116404761D01*
X119195238Y-116452380D01*
X118957142Y-116452380D01*
X118861904Y-116404761D01*
X118814285Y-116357142D01*
%TO.C,U1*%
X110438095Y-117052380D02*
X110438095Y-117861904D01*
X110485714Y-117957142D01*
X110533333Y-118004761D01*
X110628571Y-118052380D01*
X110819047Y-118052380D01*
X110914285Y-118004761D01*
X110961904Y-117957142D01*
X111009523Y-117861904D01*
X111009523Y-117052380D01*
X112009523Y-118052380D02*
X111438095Y-118052380D01*
X111723809Y-118052380D02*
X111723809Y-117052380D01*
X111628571Y-117195238D01*
X111533333Y-117290476D01*
X111438095Y-117338095D01*
%TO.C,J2*%
X106166666Y-109402380D02*
X106166666Y-110116666D01*
X106119047Y-110259523D01*
X106023809Y-110354761D01*
X105880952Y-110402380D01*
X105785714Y-110402380D01*
X106595238Y-109497619D02*
X106642857Y-109450000D01*
X106738095Y-109402380D01*
X106976190Y-109402380D01*
X107071428Y-109450000D01*
X107119047Y-109497619D01*
X107166666Y-109592857D01*
X107166666Y-109688095D01*
X107119047Y-109830952D01*
X106547619Y-110402380D01*
X107166666Y-110402380D01*
%TO.C,Q2*%
X115504761Y-113947619D02*
X115409523Y-113900000D01*
X115314285Y-113804761D01*
X115171428Y-113661904D01*
X115076190Y-113614285D01*
X114980952Y-113614285D01*
X115028571Y-113852380D02*
X114933333Y-113804761D01*
X114838095Y-113709523D01*
X114790476Y-113519047D01*
X114790476Y-113185714D01*
X114838095Y-112995238D01*
X114933333Y-112900000D01*
X115028571Y-112852380D01*
X115219047Y-112852380D01*
X115314285Y-112900000D01*
X115409523Y-112995238D01*
X115457142Y-113185714D01*
X115457142Y-113519047D01*
X115409523Y-113709523D01*
X115314285Y-113804761D01*
X115219047Y-113852380D01*
X115028571Y-113852380D01*
X115838095Y-112947619D02*
X115885714Y-112900000D01*
X115980952Y-112852380D01*
X116219047Y-112852380D01*
X116314285Y-112900000D01*
X116361904Y-112947619D01*
X116409523Y-113042857D01*
X116409523Y-113138095D01*
X116361904Y-113280952D01*
X115790476Y-113852380D01*
X116409523Y-113852380D01*
%TO.C,J4*%
X136666666Y-130052380D02*
X136666666Y-130766666D01*
X136619047Y-130909523D01*
X136523809Y-131004761D01*
X136380952Y-131052380D01*
X136285714Y-131052380D01*
X137571428Y-130385714D02*
X137571428Y-131052380D01*
X137333333Y-130004761D02*
X137095238Y-130719047D01*
X137714285Y-130719047D01*
%TO.C,C1*%
X112557142Y-106966666D02*
X112604761Y-107014285D01*
X112652380Y-107157142D01*
X112652380Y-107252380D01*
X112604761Y-107395238D01*
X112509523Y-107490476D01*
X112414285Y-107538095D01*
X112223809Y-107585714D01*
X112080952Y-107585714D01*
X111890476Y-107538095D01*
X111795238Y-107490476D01*
X111700000Y-107395238D01*
X111652380Y-107252380D01*
X111652380Y-107157142D01*
X111700000Y-107014285D01*
X111747619Y-106966666D01*
X112652380Y-106014285D02*
X112652380Y-106585714D01*
X112652380Y-106300000D02*
X111652380Y-106300000D01*
X111795238Y-106395238D01*
X111890476Y-106490476D01*
X111938095Y-106585714D01*
%TO.C,R16*%
X137357142Y-127852380D02*
X137023809Y-127376190D01*
X136785714Y-127852380D02*
X136785714Y-126852380D01*
X137166666Y-126852380D01*
X137261904Y-126900000D01*
X137309523Y-126947619D01*
X137357142Y-127042857D01*
X137357142Y-127185714D01*
X137309523Y-127280952D01*
X137261904Y-127328571D01*
X137166666Y-127376190D01*
X136785714Y-127376190D01*
X138309523Y-127852380D02*
X137738095Y-127852380D01*
X138023809Y-127852380D02*
X138023809Y-126852380D01*
X137928571Y-126995238D01*
X137833333Y-127090476D01*
X137738095Y-127138095D01*
X139166666Y-126852380D02*
X138976190Y-126852380D01*
X138880952Y-126900000D01*
X138833333Y-126947619D01*
X138738095Y-127090476D01*
X138690476Y-127280952D01*
X138690476Y-127661904D01*
X138738095Y-127757142D01*
X138785714Y-127804761D01*
X138880952Y-127852380D01*
X139071428Y-127852380D01*
X139166666Y-127804761D01*
X139214285Y-127757142D01*
X139261904Y-127661904D01*
X139261904Y-127423809D01*
X139214285Y-127328571D01*
X139166666Y-127280952D01*
X139071428Y-127233333D01*
X138880952Y-127233333D01*
X138785714Y-127280952D01*
X138738095Y-127328571D01*
X138690476Y-127423809D01*
%TO.C,Q1*%
X109104761Y-108947619D02*
X109009523Y-108900000D01*
X108914285Y-108804761D01*
X108771428Y-108661904D01*
X108676190Y-108614285D01*
X108580952Y-108614285D01*
X108628571Y-108852380D02*
X108533333Y-108804761D01*
X108438095Y-108709523D01*
X108390476Y-108519047D01*
X108390476Y-108185714D01*
X108438095Y-107995238D01*
X108533333Y-107900000D01*
X108628571Y-107852380D01*
X108819047Y-107852380D01*
X108914285Y-107900000D01*
X109009523Y-107995238D01*
X109057142Y-108185714D01*
X109057142Y-108519047D01*
X109009523Y-108709523D01*
X108914285Y-108804761D01*
X108819047Y-108852380D01*
X108628571Y-108852380D01*
X110009523Y-108852380D02*
X109438095Y-108852380D01*
X109723809Y-108852380D02*
X109723809Y-107852380D01*
X109628571Y-107995238D01*
X109533333Y-108090476D01*
X109438095Y-108138095D01*
%TO.C,R17*%
X143552380Y-129042857D02*
X143076190Y-129376190D01*
X143552380Y-129614285D02*
X142552380Y-129614285D01*
X142552380Y-129233333D01*
X142600000Y-129138095D01*
X142647619Y-129090476D01*
X142742857Y-129042857D01*
X142885714Y-129042857D01*
X142980952Y-129090476D01*
X143028571Y-129138095D01*
X143076190Y-129233333D01*
X143076190Y-129614285D01*
X143552380Y-128090476D02*
X143552380Y-128661904D01*
X143552380Y-128376190D02*
X142552380Y-128376190D01*
X142695238Y-128471428D01*
X142790476Y-128566666D01*
X142838095Y-128661904D01*
X142552380Y-127757142D02*
X142552380Y-127090476D01*
X143552380Y-127519047D01*
%TO.C,U4*%
X117238095Y-109652380D02*
X117238095Y-110461904D01*
X117285714Y-110557142D01*
X117333333Y-110604761D01*
X117428571Y-110652380D01*
X117619047Y-110652380D01*
X117714285Y-110604761D01*
X117761904Y-110557142D01*
X117809523Y-110461904D01*
X117809523Y-109652380D01*
X118714285Y-109985714D02*
X118714285Y-110652380D01*
X118476190Y-109604761D02*
X118238095Y-110319047D01*
X118857142Y-110319047D01*
%TO.C,R5*%
X112233333Y-136852380D02*
X111900000Y-136376190D01*
X111661904Y-136852380D02*
X111661904Y-135852380D01*
X112042857Y-135852380D01*
X112138095Y-135900000D01*
X112185714Y-135947619D01*
X112233333Y-136042857D01*
X112233333Y-136185714D01*
X112185714Y-136280952D01*
X112138095Y-136328571D01*
X112042857Y-136376190D01*
X111661904Y-136376190D01*
X113138095Y-135852380D02*
X112661904Y-135852380D01*
X112614285Y-136328571D01*
X112661904Y-136280952D01*
X112757142Y-136233333D01*
X112995238Y-136233333D01*
X113090476Y-136280952D01*
X113138095Y-136328571D01*
X113185714Y-136423809D01*
X113185714Y-136661904D01*
X113138095Y-136757142D01*
X113090476Y-136804761D01*
X112995238Y-136852380D01*
X112757142Y-136852380D01*
X112661904Y-136804761D01*
X112614285Y-136757142D01*
%TO.C,U2*%
X114552380Y-107161904D02*
X115361904Y-107161904D01*
X115457142Y-107114285D01*
X115504761Y-107066666D01*
X115552380Y-106971428D01*
X115552380Y-106780952D01*
X115504761Y-106685714D01*
X115457142Y-106638095D01*
X115361904Y-106590476D01*
X114552380Y-106590476D01*
X114647619Y-106161904D02*
X114600000Y-106114285D01*
X114552380Y-106019047D01*
X114552380Y-105780952D01*
X114600000Y-105685714D01*
X114647619Y-105638095D01*
X114742857Y-105590476D01*
X114838095Y-105590476D01*
X114980952Y-105638095D01*
X115552380Y-106209523D01*
X115552380Y-105590476D01*
%TO.C,R9*%
X141602380Y-132266666D02*
X141126190Y-132600000D01*
X141602380Y-132838095D02*
X140602380Y-132838095D01*
X140602380Y-132457142D01*
X140650000Y-132361904D01*
X140697619Y-132314285D01*
X140792857Y-132266666D01*
X140935714Y-132266666D01*
X141030952Y-132314285D01*
X141078571Y-132361904D01*
X141126190Y-132457142D01*
X141126190Y-132838095D01*
X141602380Y-131790476D02*
X141602380Y-131600000D01*
X141554761Y-131504761D01*
X141507142Y-131457142D01*
X141364285Y-131361904D01*
X141173809Y-131314285D01*
X140792857Y-131314285D01*
X140697619Y-131361904D01*
X140650000Y-131409523D01*
X140602380Y-131504761D01*
X140602380Y-131695238D01*
X140650000Y-131790476D01*
X140697619Y-131838095D01*
X140792857Y-131885714D01*
X141030952Y-131885714D01*
X141126190Y-131838095D01*
X141173809Y-131790476D01*
X141221428Y-131695238D01*
X141221428Y-131504761D01*
X141173809Y-131409523D01*
X141126190Y-131361904D01*
X141030952Y-131314285D01*
%TO.C,TP3*%
X109038095Y-103852380D02*
X109609523Y-103852380D01*
X109323809Y-104852380D02*
X109323809Y-103852380D01*
X109942857Y-104852380D02*
X109942857Y-103852380D01*
X110323809Y-103852380D01*
X110419047Y-103900000D01*
X110466666Y-103947619D01*
X110514285Y-104042857D01*
X110514285Y-104185714D01*
X110466666Y-104280952D01*
X110419047Y-104328571D01*
X110323809Y-104376190D01*
X109942857Y-104376190D01*
X110847619Y-103852380D02*
X111466666Y-103852380D01*
X111133333Y-104233333D01*
X111276190Y-104233333D01*
X111371428Y-104280952D01*
X111419047Y-104328571D01*
X111466666Y-104423809D01*
X111466666Y-104661904D01*
X111419047Y-104757142D01*
X111371428Y-104804761D01*
X111276190Y-104852380D01*
X110990476Y-104852380D01*
X110895238Y-104804761D01*
X110847619Y-104757142D01*
%TO.C,C3*%
X141507142Y-134566666D02*
X141554761Y-134614285D01*
X141602380Y-134757142D01*
X141602380Y-134852380D01*
X141554761Y-134995238D01*
X141459523Y-135090476D01*
X141364285Y-135138095D01*
X141173809Y-135185714D01*
X141030952Y-135185714D01*
X140840476Y-135138095D01*
X140745238Y-135090476D01*
X140650000Y-134995238D01*
X140602380Y-134852380D01*
X140602380Y-134757142D01*
X140650000Y-134614285D01*
X140697619Y-134566666D01*
X140602380Y-134233333D02*
X140602380Y-133614285D01*
X140983333Y-133947619D01*
X140983333Y-133804761D01*
X141030952Y-133709523D01*
X141078571Y-133661904D01*
X141173809Y-133614285D01*
X141411904Y-133614285D01*
X141507142Y-133661904D01*
X141554761Y-133709523D01*
X141602380Y-133804761D01*
X141602380Y-134090476D01*
X141554761Y-134185714D01*
X141507142Y-134233333D01*
%TO.C,U3*%
X129138095Y-104402380D02*
X129138095Y-105211904D01*
X129185714Y-105307142D01*
X129233333Y-105354761D01*
X129328571Y-105402380D01*
X129519047Y-105402380D01*
X129614285Y-105354761D01*
X129661904Y-105307142D01*
X129709523Y-105211904D01*
X129709523Y-104402380D01*
X130090476Y-104402380D02*
X130709523Y-104402380D01*
X130376190Y-104783333D01*
X130519047Y-104783333D01*
X130614285Y-104830952D01*
X130661904Y-104878571D01*
X130709523Y-104973809D01*
X130709523Y-105211904D01*
X130661904Y-105307142D01*
X130614285Y-105354761D01*
X130519047Y-105402380D01*
X130233333Y-105402380D01*
X130138095Y-105354761D01*
X130090476Y-105307142D01*
%TO.C,R15*%
X140857142Y-118952380D02*
X140523809Y-118476190D01*
X140285714Y-118952380D02*
X140285714Y-117952380D01*
X140666666Y-117952380D01*
X140761904Y-118000000D01*
X140809523Y-118047619D01*
X140857142Y-118142857D01*
X140857142Y-118285714D01*
X140809523Y-118380952D01*
X140761904Y-118428571D01*
X140666666Y-118476190D01*
X140285714Y-118476190D01*
X141809523Y-118952380D02*
X141238095Y-118952380D01*
X141523809Y-118952380D02*
X141523809Y-117952380D01*
X141428571Y-118095238D01*
X141333333Y-118190476D01*
X141238095Y-118238095D01*
X142714285Y-117952380D02*
X142238095Y-117952380D01*
X142190476Y-118428571D01*
X142238095Y-118380952D01*
X142333333Y-118333333D01*
X142571428Y-118333333D01*
X142666666Y-118380952D01*
X142714285Y-118428571D01*
X142761904Y-118523809D01*
X142761904Y-118761904D01*
X142714285Y-118857142D01*
X142666666Y-118904761D01*
X142571428Y-118952380D01*
X142333333Y-118952380D01*
X142238095Y-118904761D01*
X142190476Y-118857142D01*
%TO.C,D1*%
X115161904Y-110452380D02*
X115161904Y-109452380D01*
X115400000Y-109452380D01*
X115542857Y-109500000D01*
X115638095Y-109595238D01*
X115685714Y-109690476D01*
X115733333Y-109880952D01*
X115733333Y-110023809D01*
X115685714Y-110214285D01*
X115638095Y-110309523D01*
X115542857Y-110404761D01*
X115400000Y-110452380D01*
X115161904Y-110452380D01*
X116685714Y-110452380D02*
X116114285Y-110452380D01*
X116400000Y-110452380D02*
X116400000Y-109452380D01*
X116304761Y-109595238D01*
X116209523Y-109690476D01*
X116114285Y-109738095D01*
%TO.C,R7*%
X110083333Y-136852380D02*
X109750000Y-136376190D01*
X109511904Y-136852380D02*
X109511904Y-135852380D01*
X109892857Y-135852380D01*
X109988095Y-135900000D01*
X110035714Y-135947619D01*
X110083333Y-136042857D01*
X110083333Y-136185714D01*
X110035714Y-136280952D01*
X109988095Y-136328571D01*
X109892857Y-136376190D01*
X109511904Y-136376190D01*
X110416666Y-135852380D02*
X111083333Y-135852380D01*
X110654761Y-136852380D01*
%TO.C,R10*%
X140252380Y-123842857D02*
X139776190Y-124176190D01*
X140252380Y-124414285D02*
X139252380Y-124414285D01*
X139252380Y-124033333D01*
X139300000Y-123938095D01*
X139347619Y-123890476D01*
X139442857Y-123842857D01*
X139585714Y-123842857D01*
X139680952Y-123890476D01*
X139728571Y-123938095D01*
X139776190Y-124033333D01*
X139776190Y-124414285D01*
X140252380Y-122890476D02*
X140252380Y-123461904D01*
X140252380Y-123176190D02*
X139252380Y-123176190D01*
X139395238Y-123271428D01*
X139490476Y-123366666D01*
X139538095Y-123461904D01*
X139252380Y-122271428D02*
X139252380Y-122176190D01*
X139300000Y-122080952D01*
X139347619Y-122033333D01*
X139442857Y-121985714D01*
X139633333Y-121938095D01*
X139871428Y-121938095D01*
X140061904Y-121985714D01*
X140157142Y-122033333D01*
X140204761Y-122080952D01*
X140252380Y-122176190D01*
X140252380Y-122271428D01*
X140204761Y-122366666D01*
X140157142Y-122414285D01*
X140061904Y-122461904D01*
X139871428Y-122509523D01*
X139633333Y-122509523D01*
X139442857Y-122461904D01*
X139347619Y-122414285D01*
X139300000Y-122366666D01*
X139252380Y-122271428D01*
D11*
%TO.C,SW1*%
X121410000Y-136200000D02*
X121410000Y-135790000D01*
X121410000Y-135790000D02*
X114990000Y-135790000D01*
X121410000Y-142210000D02*
X121410000Y-141800000D01*
X121410000Y-140200000D02*
X121410000Y-137800000D01*
X114990000Y-137800000D02*
X114990000Y-140200000D01*
X114990000Y-135790000D02*
X114990000Y-136070000D01*
X114990000Y-142210000D02*
X121410000Y-142210000D01*
X114990000Y-141800000D02*
X114990000Y-142210000D01*
D12*
%TO.C,J1*%
X132370000Y-137405000D02*
X132370000Y-138170000D01*
X132370000Y-141230000D02*
X132370000Y-141650000D01*
X132370000Y-141650000D02*
X123430000Y-141650000D01*
X123430000Y-141650000D02*
X123430000Y-141230000D01*
X123430000Y-137405000D02*
X123430000Y-138170000D01*
D13*
X124900000Y-134100000D02*
G75*
G03*
X124900000Y-134100000I-100000J0D01*
G01*
D11*
%TO.C,R11*%
X140590000Y-109772936D02*
X140590000Y-111227064D01*
X142410000Y-109772936D02*
X142410000Y-111227064D01*
%TO.C,C2*%
X116490000Y-103688748D02*
X116490000Y-105111252D01*
X118310000Y-103688748D02*
X118310000Y-105111252D01*
%TO.C,R8*%
X107127064Y-118710000D02*
X105672936Y-118710000D01*
X107127064Y-116890000D02*
X105672936Y-116890000D01*
%TO.C,C4*%
X142410000Y-106211252D02*
X142410000Y-104788748D01*
X140590000Y-106211252D02*
X140590000Y-104788748D01*
%TO.C,R6*%
X110472936Y-117690000D02*
X111927064Y-117690000D01*
X110472936Y-119510000D02*
X111927064Y-119510000D01*
D12*
%TO.C,J3*%
X106700000Y-129400000D02*
X106100000Y-132000000D01*
X118800000Y-134600000D02*
X116400000Y-134600000D01*
X104350000Y-121000000D02*
X104350000Y-134600000D01*
X106700000Y-125900000D02*
X106700000Y-129400000D01*
X105100000Y-121800000D02*
X106100000Y-123500000D01*
X104400000Y-133800000D02*
X105100000Y-133800000D01*
X116400000Y-121000000D02*
X116400000Y-134600000D01*
X104400000Y-121800000D02*
X105100000Y-121800000D01*
X106100000Y-132000000D02*
X105100000Y-133800000D01*
X118850000Y-121000000D02*
X118850000Y-134600000D01*
X118800000Y-121000000D02*
X116400000Y-121000000D01*
X106100000Y-123500000D02*
X106700000Y-125900000D01*
D11*
%TO.C,TP2*%
X105500000Y-109000000D02*
G75*
G03*
X105500000Y-109000000I-700000J0D01*
G01*
%TO.C,C5*%
X117690000Y-115288748D02*
X117690000Y-116711252D01*
X119510000Y-115288748D02*
X119510000Y-116711252D01*
%TO.C,R1*%
X132710000Y-130127064D02*
X132710000Y-128672936D01*
X130890000Y-130127064D02*
X130890000Y-128672936D01*
%TO.C,J6*%
X122670000Y-132730000D02*
X130350000Y-132730000D01*
X121400000Y-132730000D02*
X120070000Y-132730000D01*
X122670000Y-132730000D02*
X122670000Y-130070000D01*
X130350000Y-132730000D02*
X130350000Y-130070000D01*
X122670000Y-130070000D02*
X130350000Y-130070000D01*
X120070000Y-132730000D02*
X120070000Y-131400000D01*
%TO.C,U1*%
X111200000Y-113640000D02*
X110400000Y-113640000D01*
X111200000Y-116760000D02*
X113000000Y-116760000D01*
X111200000Y-113640000D02*
X112000000Y-113640000D01*
X111200000Y-116760000D02*
X110400000Y-116760000D01*
%TO.C,J2*%
X105270000Y-113195000D02*
X105270000Y-115795000D01*
X107930000Y-113195000D02*
X107930000Y-115795000D01*
X105270000Y-110595000D02*
X106600000Y-110595000D01*
X105270000Y-115795000D02*
X107930000Y-115795000D01*
X105270000Y-113195000D02*
X107930000Y-113195000D01*
X105270000Y-111925000D02*
X105270000Y-110595000D01*
%TO.C,Q2*%
X114900000Y-116560000D02*
X116300000Y-116560000D01*
X116300000Y-114240000D02*
X114400000Y-114240000D01*
%TO.C,R14*%
X118527064Y-109110000D02*
X117072936Y-109110000D01*
X118527064Y-107290000D02*
X117072936Y-107290000D01*
%TO.C,J4*%
X135670000Y-132600000D02*
X135670000Y-131270000D01*
X138330000Y-133870000D02*
X138330000Y-141550000D01*
X135670000Y-141550000D02*
X138330000Y-141550000D01*
X135670000Y-133870000D02*
X138330000Y-133870000D01*
X135670000Y-131270000D02*
X137000000Y-131270000D01*
X135670000Y-133870000D02*
X135670000Y-141550000D01*
%TO.C,C1*%
X111488748Y-105890000D02*
X112911252Y-105890000D01*
X111488748Y-107710000D02*
X112911252Y-107710000D01*
%TO.C,J5*%
X122670000Y-129930000D02*
X130350000Y-129930000D01*
X120070000Y-129930000D02*
X120070000Y-128600000D01*
X122670000Y-129930000D02*
X122670000Y-127270000D01*
X122670000Y-127270000D02*
X130350000Y-127270000D01*
X121400000Y-129930000D02*
X120070000Y-129930000D01*
X130350000Y-129930000D02*
X130350000Y-127270000D01*
%TO.C,R16*%
X138689564Y-129910000D02*
X137235436Y-129910000D01*
X138689564Y-128090000D02*
X137235436Y-128090000D01*
%TO.C,Q1*%
X110200000Y-109240000D02*
X110850000Y-109240000D01*
X110200000Y-112360000D02*
X109550000Y-112360000D01*
X110200000Y-112360000D02*
X111875000Y-112360000D01*
X110200000Y-109240000D02*
X109550000Y-109240000D01*
%TO.C,R17*%
X140490000Y-129227064D02*
X140490000Y-127772936D01*
X142310000Y-129227064D02*
X142310000Y-127772936D01*
%TO.C,U4*%
X117000000Y-113100000D02*
X118000000Y-113100000D01*
X117000000Y-110900000D02*
X119000000Y-110900000D01*
%TO.C,R5*%
X113310000Y-139927064D02*
X113310000Y-138472936D01*
X111490000Y-139927064D02*
X111490000Y-138472936D01*
%TO.C,U2*%
X113800000Y-105360000D02*
X114600000Y-105360000D01*
X113800000Y-102240000D02*
X112000000Y-102240000D01*
X113800000Y-105360000D02*
X113000000Y-105360000D01*
X113800000Y-102240000D02*
X114600000Y-102240000D01*
%TO.C,R4*%
X133727064Y-131890000D02*
X132272936Y-131890000D01*
X133727064Y-133710000D02*
X132272936Y-133710000D01*
%TO.C,R3*%
X135310000Y-139327064D02*
X135310000Y-137872936D01*
X133490000Y-139327064D02*
X133490000Y-137872936D01*
%TO.C,R9*%
X140422936Y-131190000D02*
X141877064Y-131190000D01*
X140422936Y-133010000D02*
X141877064Y-133010000D01*
%TO.C,TP3*%
X111200000Y-102600000D02*
G75*
G03*
X111200000Y-102600000I-700000J0D01*
G01*
%TO.C,C3*%
X140438748Y-133490000D02*
X141861252Y-133490000D01*
X140438748Y-135310000D02*
X141861252Y-135310000D01*
%TO.C,R2*%
X133290000Y-128672936D02*
X133290000Y-130127064D01*
X135110000Y-128672936D02*
X135110000Y-130127064D01*
%TO.C,U3*%
X139160000Y-126150000D02*
X137500000Y-126150000D01*
X120930000Y-101980000D02*
X120540000Y-101980000D01*
X120920000Y-125790000D02*
X120920000Y-126150000D01*
X139170000Y-101320000D02*
X139170000Y-94900000D01*
X120915000Y-94900000D02*
X139170000Y-94900000D01*
X120920000Y-126150000D02*
X122580000Y-126150000D01*
X139160000Y-125890000D02*
X139160000Y-126150000D01*
X120930000Y-101980000D02*
X120915000Y-94900000D01*
%TO.C,R15*%
X142410000Y-114810436D02*
X142410000Y-116264564D01*
X140590000Y-114810436D02*
X140590000Y-116264564D01*
%TO.C,D1*%
X114800000Y-108550000D02*
X112800000Y-108550000D01*
X112800000Y-108550000D02*
X112800000Y-112450000D01*
X114800000Y-108550000D02*
X114800000Y-112450000D01*
%TO.C,R7*%
X111110000Y-138472936D02*
X111110000Y-139927064D01*
X109290000Y-138472936D02*
X109290000Y-139927064D01*
%TO.C,R10*%
X142310000Y-122772936D02*
X142310000Y-124227064D01*
X140490000Y-122772936D02*
X140490000Y-124227064D01*
%TD*%
M02*
