%TF.GenerationSoftware,KiCad,Pcbnew,(6.0.2)*%
%TF.CreationDate,2022-04-10T13:15:26+02:00*%
%TF.ProjectId,V3,56332e6b-6963-4616-945f-706362585858,rev?*%
%TF.SameCoordinates,Original*%
%TF.FileFunction,Legend,Top*%
%TF.FilePolarity,Positive*%
%FSLAX46Y46*%
G04 Gerber Fmt 4.6, Leading zero omitted, Abs format (unit mm)*
G04 Created by KiCad (PCBNEW (6.0.2)) date 2022-04-10 13:15:26*
%MOMM*%
%LPD*%
G01*
G04 APERTURE LIST*
%ADD10C,0.150000*%
%ADD11C,0.120000*%
%ADD12C,0.127000*%
G04 APERTURE END LIST*
D10*
%TO.C,R9*%
X121083333Y-136052380D02*
X120750000Y-135576190D01*
X120511904Y-136052380D02*
X120511904Y-135052380D01*
X120892857Y-135052380D01*
X120988095Y-135100000D01*
X121035714Y-135147619D01*
X121083333Y-135242857D01*
X121083333Y-135385714D01*
X121035714Y-135480952D01*
X120988095Y-135528571D01*
X120892857Y-135576190D01*
X120511904Y-135576190D01*
X121559523Y-136052380D02*
X121750000Y-136052380D01*
X121845238Y-136004761D01*
X121892857Y-135957142D01*
X121988095Y-135814285D01*
X122035714Y-135623809D01*
X122035714Y-135242857D01*
X121988095Y-135147619D01*
X121940476Y-135100000D01*
X121845238Y-135052380D01*
X121654761Y-135052380D01*
X121559523Y-135100000D01*
X121511904Y-135147619D01*
X121464285Y-135242857D01*
X121464285Y-135480952D01*
X121511904Y-135576190D01*
X121559523Y-135623809D01*
X121654761Y-135671428D01*
X121845238Y-135671428D01*
X121940476Y-135623809D01*
X121988095Y-135576190D01*
X122035714Y-135480952D01*
%TO.C,U5*%
X134502380Y-130311904D02*
X135311904Y-130311904D01*
X135407142Y-130264285D01*
X135454761Y-130216666D01*
X135502380Y-130121428D01*
X135502380Y-129930952D01*
X135454761Y-129835714D01*
X135407142Y-129788095D01*
X135311904Y-129740476D01*
X134502380Y-129740476D01*
X134502380Y-128788095D02*
X134502380Y-129264285D01*
X134978571Y-129311904D01*
X134930952Y-129264285D01*
X134883333Y-129169047D01*
X134883333Y-128930952D01*
X134930952Y-128835714D01*
X134978571Y-128788095D01*
X135073809Y-128740476D01*
X135311904Y-128740476D01*
X135407142Y-128788095D01*
X135454761Y-128835714D01*
X135502380Y-128930952D01*
X135502380Y-129169047D01*
X135454761Y-129264285D01*
X135407142Y-129311904D01*
%TO.C,R6*%
X141433333Y-107452380D02*
X141100000Y-106976190D01*
X140861904Y-107452380D02*
X140861904Y-106452380D01*
X141242857Y-106452380D01*
X141338095Y-106500000D01*
X141385714Y-106547619D01*
X141433333Y-106642857D01*
X141433333Y-106785714D01*
X141385714Y-106880952D01*
X141338095Y-106928571D01*
X141242857Y-106976190D01*
X140861904Y-106976190D01*
X142290476Y-106452380D02*
X142100000Y-106452380D01*
X142004761Y-106500000D01*
X141957142Y-106547619D01*
X141861904Y-106690476D01*
X141814285Y-106880952D01*
X141814285Y-107261904D01*
X141861904Y-107357142D01*
X141909523Y-107404761D01*
X142004761Y-107452380D01*
X142195238Y-107452380D01*
X142290476Y-107404761D01*
X142338095Y-107357142D01*
X142385714Y-107261904D01*
X142385714Y-107023809D01*
X142338095Y-106928571D01*
X142290476Y-106880952D01*
X142195238Y-106833333D01*
X142004761Y-106833333D01*
X141909523Y-106880952D01*
X141861904Y-106928571D01*
X141814285Y-107023809D01*
%TO.C,C2*%
X117233333Y-104757142D02*
X117185714Y-104804761D01*
X117042857Y-104852380D01*
X116947619Y-104852380D01*
X116804761Y-104804761D01*
X116709523Y-104709523D01*
X116661904Y-104614285D01*
X116614285Y-104423809D01*
X116614285Y-104280952D01*
X116661904Y-104090476D01*
X116709523Y-103995238D01*
X116804761Y-103900000D01*
X116947619Y-103852380D01*
X117042857Y-103852380D01*
X117185714Y-103900000D01*
X117233333Y-103947619D01*
X117614285Y-103947619D02*
X117661904Y-103900000D01*
X117757142Y-103852380D01*
X117995238Y-103852380D01*
X118090476Y-103900000D01*
X118138095Y-103947619D01*
X118185714Y-104042857D01*
X118185714Y-104138095D01*
X118138095Y-104280952D01*
X117566666Y-104852380D01*
X118185714Y-104852380D01*
%TO.C,R3*%
X106852380Y-117966666D02*
X106376190Y-118300000D01*
X106852380Y-118538095D02*
X105852380Y-118538095D01*
X105852380Y-118157142D01*
X105900000Y-118061904D01*
X105947619Y-118014285D01*
X106042857Y-117966666D01*
X106185714Y-117966666D01*
X106280952Y-118014285D01*
X106328571Y-118061904D01*
X106376190Y-118157142D01*
X106376190Y-118538095D01*
X105852380Y-117633333D02*
X105852380Y-117014285D01*
X106233333Y-117347619D01*
X106233333Y-117204761D01*
X106280952Y-117109523D01*
X106328571Y-117061904D01*
X106423809Y-117014285D01*
X106661904Y-117014285D01*
X106757142Y-117061904D01*
X106804761Y-117109523D01*
X106852380Y-117204761D01*
X106852380Y-117490476D01*
X106804761Y-117585714D01*
X106757142Y-117633333D01*
%TO.C,3v3*%
X106909523Y-101902380D02*
X107528571Y-101902380D01*
X107195238Y-102283333D01*
X107338095Y-102283333D01*
X107433333Y-102330952D01*
X107480952Y-102378571D01*
X107528571Y-102473809D01*
X107528571Y-102711904D01*
X107480952Y-102807142D01*
X107433333Y-102854761D01*
X107338095Y-102902380D01*
X107052380Y-102902380D01*
X106957142Y-102854761D01*
X106909523Y-102807142D01*
X107861904Y-102235714D02*
X108100000Y-102902380D01*
X108338095Y-102235714D01*
X108623809Y-101902380D02*
X109242857Y-101902380D01*
X108909523Y-102283333D01*
X109052380Y-102283333D01*
X109147619Y-102330952D01*
X109195238Y-102378571D01*
X109242857Y-102473809D01*
X109242857Y-102711904D01*
X109195238Y-102807142D01*
X109147619Y-102854761D01*
X109052380Y-102902380D01*
X108766666Y-102902380D01*
X108671428Y-102854761D01*
X108623809Y-102807142D01*
%TO.C,R2*%
X114852380Y-118766666D02*
X114376190Y-119100000D01*
X114852380Y-119338095D02*
X113852380Y-119338095D01*
X113852380Y-118957142D01*
X113900000Y-118861904D01*
X113947619Y-118814285D01*
X114042857Y-118766666D01*
X114185714Y-118766666D01*
X114280952Y-118814285D01*
X114328571Y-118861904D01*
X114376190Y-118957142D01*
X114376190Y-119338095D01*
X113947619Y-118385714D02*
X113900000Y-118338095D01*
X113852380Y-118242857D01*
X113852380Y-118004761D01*
X113900000Y-117909523D01*
X113947619Y-117861904D01*
X114042857Y-117814285D01*
X114138095Y-117814285D01*
X114280952Y-117861904D01*
X114852380Y-118433333D01*
X114852380Y-117814285D01*
%TO.C,J3*%
X107816270Y-135951729D02*
X107816270Y-136666864D01*
X107768594Y-136809891D01*
X107673243Y-136905243D01*
X107530216Y-136952918D01*
X107434865Y-136952918D01*
X108197675Y-135951729D02*
X108817459Y-135951729D01*
X108483729Y-136333135D01*
X108626756Y-136333135D01*
X108722108Y-136380810D01*
X108769783Y-136428486D01*
X108817459Y-136523837D01*
X108817459Y-136762216D01*
X108769783Y-136857567D01*
X108722108Y-136905243D01*
X108626756Y-136952918D01*
X108340702Y-136952918D01*
X108245351Y-136905243D01*
X108197675Y-136857567D01*
%TO.C,VCC*%
X104016666Y-106752380D02*
X104350000Y-107752380D01*
X104683333Y-106752380D01*
X105588095Y-107657142D02*
X105540476Y-107704761D01*
X105397619Y-107752380D01*
X105302380Y-107752380D01*
X105159523Y-107704761D01*
X105064285Y-107609523D01*
X105016666Y-107514285D01*
X104969047Y-107323809D01*
X104969047Y-107180952D01*
X105016666Y-106990476D01*
X105064285Y-106895238D01*
X105159523Y-106800000D01*
X105302380Y-106752380D01*
X105397619Y-106752380D01*
X105540476Y-106800000D01*
X105588095Y-106847619D01*
X106588095Y-107657142D02*
X106540476Y-107704761D01*
X106397619Y-107752380D01*
X106302380Y-107752380D01*
X106159523Y-107704761D01*
X106064285Y-107609523D01*
X106016666Y-107514285D01*
X105969047Y-107323809D01*
X105969047Y-107180952D01*
X106016666Y-106990476D01*
X106064285Y-106895238D01*
X106159523Y-106800000D01*
X106302380Y-106752380D01*
X106397619Y-106752380D01*
X106540476Y-106800000D01*
X106588095Y-106847619D01*
%TO.C,C4*%
X118233333Y-116957142D02*
X118185714Y-117004761D01*
X118042857Y-117052380D01*
X117947619Y-117052380D01*
X117804761Y-117004761D01*
X117709523Y-116909523D01*
X117661904Y-116814285D01*
X117614285Y-116623809D01*
X117614285Y-116480952D01*
X117661904Y-116290476D01*
X117709523Y-116195238D01*
X117804761Y-116100000D01*
X117947619Y-116052380D01*
X118042857Y-116052380D01*
X118185714Y-116100000D01*
X118233333Y-116147619D01*
X119090476Y-116385714D02*
X119090476Y-117052380D01*
X118852380Y-116004761D02*
X118614285Y-116719047D01*
X119233333Y-116719047D01*
%TO.C,U1*%
X110438095Y-117052380D02*
X110438095Y-117861904D01*
X110485714Y-117957142D01*
X110533333Y-118004761D01*
X110628571Y-118052380D01*
X110819047Y-118052380D01*
X110914285Y-118004761D01*
X110961904Y-117957142D01*
X111009523Y-117861904D01*
X111009523Y-117052380D01*
X112009523Y-118052380D02*
X111438095Y-118052380D01*
X111723809Y-118052380D02*
X111723809Y-117052380D01*
X111628571Y-117195238D01*
X111533333Y-117290476D01*
X111438095Y-117338095D01*
%TO.C,J2*%
X106166666Y-109402380D02*
X106166666Y-110116666D01*
X106119047Y-110259523D01*
X106023809Y-110354761D01*
X105880952Y-110402380D01*
X105785714Y-110402380D01*
X106595238Y-109497619D02*
X106642857Y-109450000D01*
X106738095Y-109402380D01*
X106976190Y-109402380D01*
X107071428Y-109450000D01*
X107119047Y-109497619D01*
X107166666Y-109592857D01*
X107166666Y-109688095D01*
X107119047Y-109830952D01*
X106547619Y-110402380D01*
X107166666Y-110402380D01*
%TO.C,Q3*%
X115504761Y-113947619D02*
X115409523Y-113900000D01*
X115314285Y-113804761D01*
X115171428Y-113661904D01*
X115076190Y-113614285D01*
X114980952Y-113614285D01*
X115028571Y-113852380D02*
X114933333Y-113804761D01*
X114838095Y-113709523D01*
X114790476Y-113519047D01*
X114790476Y-113185714D01*
X114838095Y-112995238D01*
X114933333Y-112900000D01*
X115028571Y-112852380D01*
X115219047Y-112852380D01*
X115314285Y-112900000D01*
X115409523Y-112995238D01*
X115457142Y-113185714D01*
X115457142Y-113519047D01*
X115409523Y-113709523D01*
X115314285Y-113804761D01*
X115219047Y-113852380D01*
X115028571Y-113852380D01*
X115790476Y-112852380D02*
X116409523Y-112852380D01*
X116076190Y-113233333D01*
X116219047Y-113233333D01*
X116314285Y-113280952D01*
X116361904Y-113328571D01*
X116409523Y-113423809D01*
X116409523Y-113661904D01*
X116361904Y-113757142D01*
X116314285Y-113804761D01*
X116219047Y-113852380D01*
X115933333Y-113852380D01*
X115838095Y-113804761D01*
X115790476Y-113757142D01*
%TO.C,R4*%
X118252380Y-108366666D02*
X117776190Y-108700000D01*
X118252380Y-108938095D02*
X117252380Y-108938095D01*
X117252380Y-108557142D01*
X117300000Y-108461904D01*
X117347619Y-108414285D01*
X117442857Y-108366666D01*
X117585714Y-108366666D01*
X117680952Y-108414285D01*
X117728571Y-108461904D01*
X117776190Y-108557142D01*
X117776190Y-108938095D01*
X117585714Y-107509523D02*
X118252380Y-107509523D01*
X117204761Y-107747619D02*
X117919047Y-107985714D01*
X117919047Y-107366666D01*
%TO.C,VBUS*%
X116116666Y-140302380D02*
X116450000Y-141302380D01*
X116783333Y-140302380D01*
X117450000Y-140778571D02*
X117592857Y-140826190D01*
X117640476Y-140873809D01*
X117688095Y-140969047D01*
X117688095Y-141111904D01*
X117640476Y-141207142D01*
X117592857Y-141254761D01*
X117497619Y-141302380D01*
X117116666Y-141302380D01*
X117116666Y-140302380D01*
X117450000Y-140302380D01*
X117545238Y-140350000D01*
X117592857Y-140397619D01*
X117640476Y-140492857D01*
X117640476Y-140588095D01*
X117592857Y-140683333D01*
X117545238Y-140730952D01*
X117450000Y-140778571D01*
X117116666Y-140778571D01*
X118116666Y-140302380D02*
X118116666Y-141111904D01*
X118164285Y-141207142D01*
X118211904Y-141254761D01*
X118307142Y-141302380D01*
X118497619Y-141302380D01*
X118592857Y-141254761D01*
X118640476Y-141207142D01*
X118688095Y-141111904D01*
X118688095Y-140302380D01*
X119116666Y-141254761D02*
X119259523Y-141302380D01*
X119497619Y-141302380D01*
X119592857Y-141254761D01*
X119640476Y-141207142D01*
X119688095Y-141111904D01*
X119688095Y-141016666D01*
X119640476Y-140921428D01*
X119592857Y-140873809D01*
X119497619Y-140826190D01*
X119307142Y-140778571D01*
X119211904Y-140730952D01*
X119164285Y-140683333D01*
X119116666Y-140588095D01*
X119116666Y-140492857D01*
X119164285Y-140397619D01*
X119211904Y-140350000D01*
X119307142Y-140302380D01*
X119545238Y-140302380D01*
X119688095Y-140350000D01*
%TO.C,J4*%
X132002380Y-132683333D02*
X132716666Y-132683333D01*
X132859523Y-132730952D01*
X132954761Y-132826190D01*
X133002380Y-132969047D01*
X133002380Y-133064285D01*
X132335714Y-131778571D02*
X133002380Y-131778571D01*
X131954761Y-132016666D02*
X132669047Y-132254761D01*
X132669047Y-131635714D01*
%TO.C,C1*%
X112557142Y-106966666D02*
X112604761Y-107014285D01*
X112652380Y-107157142D01*
X112652380Y-107252380D01*
X112604761Y-107395238D01*
X112509523Y-107490476D01*
X112414285Y-107538095D01*
X112223809Y-107585714D01*
X112080952Y-107585714D01*
X111890476Y-107538095D01*
X111795238Y-107490476D01*
X111700000Y-107395238D01*
X111652380Y-107252380D01*
X111652380Y-107157142D01*
X111700000Y-107014285D01*
X111747619Y-106966666D01*
X112652380Y-106014285D02*
X112652380Y-106585714D01*
X112652380Y-106300000D02*
X111652380Y-106300000D01*
X111795238Y-106395238D01*
X111890476Y-106490476D01*
X111938095Y-106585714D01*
%TO.C,Q1*%
X109104761Y-108947619D02*
X109009523Y-108900000D01*
X108914285Y-108804761D01*
X108771428Y-108661904D01*
X108676190Y-108614285D01*
X108580952Y-108614285D01*
X108628571Y-108852380D02*
X108533333Y-108804761D01*
X108438095Y-108709523D01*
X108390476Y-108519047D01*
X108390476Y-108185714D01*
X108438095Y-107995238D01*
X108533333Y-107900000D01*
X108628571Y-107852380D01*
X108819047Y-107852380D01*
X108914285Y-107900000D01*
X109009523Y-107995238D01*
X109057142Y-108185714D01*
X109057142Y-108519047D01*
X109009523Y-108709523D01*
X108914285Y-108804761D01*
X108819047Y-108852380D01*
X108628571Y-108852380D01*
X110009523Y-108852380D02*
X109438095Y-108852380D01*
X109723809Y-108852380D02*
X109723809Y-107852380D01*
X109628571Y-107995238D01*
X109533333Y-108090476D01*
X109438095Y-108138095D01*
%TO.C,J1*%
X121752380Y-140733333D02*
X122466666Y-140733333D01*
X122609523Y-140780952D01*
X122704761Y-140876190D01*
X122752380Y-141019047D01*
X122752380Y-141114285D01*
X122752380Y-139733333D02*
X122752380Y-140304761D01*
X122752380Y-140019047D02*
X121752380Y-140019047D01*
X121895238Y-140114285D01*
X121990476Y-140209523D01*
X122038095Y-140304761D01*
%TO.C,U4*%
X117238095Y-109652380D02*
X117238095Y-110461904D01*
X117285714Y-110557142D01*
X117333333Y-110604761D01*
X117428571Y-110652380D01*
X117619047Y-110652380D01*
X117714285Y-110604761D01*
X117761904Y-110557142D01*
X117809523Y-110461904D01*
X117809523Y-109652380D01*
X118714285Y-109985714D02*
X118714285Y-110652380D01*
X118476190Y-109604761D02*
X118238095Y-110319047D01*
X118857142Y-110319047D01*
%TO.C,R1*%
X112402380Y-137266666D02*
X111926190Y-137600000D01*
X112402380Y-137838095D02*
X111402380Y-137838095D01*
X111402380Y-137457142D01*
X111450000Y-137361904D01*
X111497619Y-137314285D01*
X111592857Y-137266666D01*
X111735714Y-137266666D01*
X111830952Y-137314285D01*
X111878571Y-137361904D01*
X111926190Y-137457142D01*
X111926190Y-137838095D01*
X112402380Y-136314285D02*
X112402380Y-136885714D01*
X112402380Y-136600000D02*
X111402380Y-136600000D01*
X111545238Y-136695238D01*
X111640476Y-136790476D01*
X111688095Y-136885714D01*
%TO.C,U2*%
X109838095Y-104452380D02*
X109838095Y-105261904D01*
X109885714Y-105357142D01*
X109933333Y-105404761D01*
X110028571Y-105452380D01*
X110219047Y-105452380D01*
X110314285Y-105404761D01*
X110361904Y-105357142D01*
X110409523Y-105261904D01*
X110409523Y-104452380D01*
X110838095Y-104547619D02*
X110885714Y-104500000D01*
X110980952Y-104452380D01*
X111219047Y-104452380D01*
X111314285Y-104500000D01*
X111361904Y-104547619D01*
X111409523Y-104642857D01*
X111409523Y-104738095D01*
X111361904Y-104880952D01*
X110790476Y-105452380D01*
X111409523Y-105452380D01*
%TO.C,3v3A*%
X135230952Y-127252380D02*
X135850000Y-127252380D01*
X135516666Y-127633333D01*
X135659523Y-127633333D01*
X135754761Y-127680952D01*
X135802380Y-127728571D01*
X135850000Y-127823809D01*
X135850000Y-128061904D01*
X135802380Y-128157142D01*
X135754761Y-128204761D01*
X135659523Y-128252380D01*
X135373809Y-128252380D01*
X135278571Y-128204761D01*
X135230952Y-128157142D01*
X136183333Y-127585714D02*
X136421428Y-128252380D01*
X136659523Y-127585714D01*
X136945238Y-127252380D02*
X137564285Y-127252380D01*
X137230952Y-127633333D01*
X137373809Y-127633333D01*
X137469047Y-127680952D01*
X137516666Y-127728571D01*
X137564285Y-127823809D01*
X137564285Y-128061904D01*
X137516666Y-128157142D01*
X137469047Y-128204761D01*
X137373809Y-128252380D01*
X137088095Y-128252380D01*
X136992857Y-128204761D01*
X136945238Y-128157142D01*
X137945238Y-127966666D02*
X138421428Y-127966666D01*
X137850000Y-128252380D02*
X138183333Y-127252380D01*
X138516666Y-128252380D01*
%TO.C,R5*%
X140852380Y-129866666D02*
X140376190Y-130200000D01*
X140852380Y-130438095D02*
X139852380Y-130438095D01*
X139852380Y-130057142D01*
X139900000Y-129961904D01*
X139947619Y-129914285D01*
X140042857Y-129866666D01*
X140185714Y-129866666D01*
X140280952Y-129914285D01*
X140328571Y-129961904D01*
X140376190Y-130057142D01*
X140376190Y-130438095D01*
X139852380Y-128961904D02*
X139852380Y-129438095D01*
X140328571Y-129485714D01*
X140280952Y-129438095D01*
X140233333Y-129342857D01*
X140233333Y-129104761D01*
X140280952Y-129009523D01*
X140328571Y-128961904D01*
X140423809Y-128914285D01*
X140661904Y-128914285D01*
X140757142Y-128961904D01*
X140804761Y-129009523D01*
X140852380Y-129104761D01*
X140852380Y-129342857D01*
X140804761Y-129438095D01*
X140757142Y-129485714D01*
%TO.C,C3*%
X140757142Y-133166666D02*
X140804761Y-133214285D01*
X140852380Y-133357142D01*
X140852380Y-133452380D01*
X140804761Y-133595238D01*
X140709523Y-133690476D01*
X140614285Y-133738095D01*
X140423809Y-133785714D01*
X140280952Y-133785714D01*
X140090476Y-133738095D01*
X139995238Y-133690476D01*
X139900000Y-133595238D01*
X139852380Y-133452380D01*
X139852380Y-133357142D01*
X139900000Y-133214285D01*
X139947619Y-133166666D01*
X139852380Y-132833333D02*
X139852380Y-132214285D01*
X140233333Y-132547619D01*
X140233333Y-132404761D01*
X140280952Y-132309523D01*
X140328571Y-132261904D01*
X140423809Y-132214285D01*
X140661904Y-132214285D01*
X140757142Y-132261904D01*
X140804761Y-132309523D01*
X140852380Y-132404761D01*
X140852380Y-132690476D01*
X140804761Y-132785714D01*
X140757142Y-132833333D01*
%TO.C,U3*%
X129138095Y-104402380D02*
X129138095Y-105211904D01*
X129185714Y-105307142D01*
X129233333Y-105354761D01*
X129328571Y-105402380D01*
X129519047Y-105402380D01*
X129614285Y-105354761D01*
X129661904Y-105307142D01*
X129709523Y-105211904D01*
X129709523Y-104402380D01*
X130090476Y-104402380D02*
X130709523Y-104402380D01*
X130376190Y-104783333D01*
X130519047Y-104783333D01*
X130614285Y-104830952D01*
X130661904Y-104878571D01*
X130709523Y-104973809D01*
X130709523Y-105211904D01*
X130661904Y-105307142D01*
X130614285Y-105354761D01*
X130519047Y-105402380D01*
X130233333Y-105402380D01*
X130138095Y-105354761D01*
X130090476Y-105307142D01*
%TO.C,R7*%
X141433333Y-113252380D02*
X141100000Y-112776190D01*
X140861904Y-113252380D02*
X140861904Y-112252380D01*
X141242857Y-112252380D01*
X141338095Y-112300000D01*
X141385714Y-112347619D01*
X141433333Y-112442857D01*
X141433333Y-112585714D01*
X141385714Y-112680952D01*
X141338095Y-112728571D01*
X141242857Y-112776190D01*
X140861904Y-112776190D01*
X141766666Y-112252380D02*
X142433333Y-112252380D01*
X142004761Y-113252380D01*
%TO.C,D1*%
X114252380Y-111538095D02*
X113252380Y-111538095D01*
X113252380Y-111300000D01*
X113300000Y-111157142D01*
X113395238Y-111061904D01*
X113490476Y-111014285D01*
X113680952Y-110966666D01*
X113823809Y-110966666D01*
X114014285Y-111014285D01*
X114109523Y-111061904D01*
X114204761Y-111157142D01*
X114252380Y-111300000D01*
X114252380Y-111538095D01*
X114252380Y-110014285D02*
X114252380Y-110585714D01*
X114252380Y-110300000D02*
X113252380Y-110300000D01*
X113395238Y-110395238D01*
X113490476Y-110490476D01*
X113538095Y-110585714D01*
%TO.C,R8*%
X141633333Y-125052380D02*
X141300000Y-124576190D01*
X141061904Y-125052380D02*
X141061904Y-124052380D01*
X141442857Y-124052380D01*
X141538095Y-124100000D01*
X141585714Y-124147619D01*
X141633333Y-124242857D01*
X141633333Y-124385714D01*
X141585714Y-124480952D01*
X141538095Y-124528571D01*
X141442857Y-124576190D01*
X141061904Y-124576190D01*
X142204761Y-124480952D02*
X142109523Y-124433333D01*
X142061904Y-124385714D01*
X142014285Y-124290476D01*
X142014285Y-124242857D01*
X142061904Y-124147619D01*
X142109523Y-124100000D01*
X142204761Y-124052380D01*
X142395238Y-124052380D01*
X142490476Y-124100000D01*
X142538095Y-124147619D01*
X142585714Y-124242857D01*
X142585714Y-124290476D01*
X142538095Y-124385714D01*
X142490476Y-124433333D01*
X142395238Y-124480952D01*
X142204761Y-124480952D01*
X142109523Y-124528571D01*
X142061904Y-124576190D01*
X142014285Y-124671428D01*
X142014285Y-124861904D01*
X142061904Y-124957142D01*
X142109523Y-125004761D01*
X142204761Y-125052380D01*
X142395238Y-125052380D01*
X142490476Y-125004761D01*
X142538095Y-124957142D01*
X142585714Y-124861904D01*
X142585714Y-124671428D01*
X142538095Y-124576190D01*
X142490476Y-124528571D01*
X142395238Y-124480952D01*
D11*
%TO.C,R10*%
X118327064Y-136190000D02*
X116872936Y-136190000D01*
X118327064Y-138010000D02*
X116872936Y-138010000D01*
%TO.C,R9*%
X122210000Y-134922936D02*
X122210000Y-136377064D01*
X120390000Y-134922936D02*
X120390000Y-136377064D01*
%TO.C,U5*%
X134160000Y-129100000D02*
X134160000Y-127300000D01*
X131040000Y-129100000D02*
X131040000Y-129900000D01*
X134160000Y-129100000D02*
X134160000Y-129900000D01*
X131040000Y-129100000D02*
X131040000Y-128300000D01*
%TO.C,R6*%
X140690000Y-106272936D02*
X140690000Y-107727064D01*
X142510000Y-106272936D02*
X142510000Y-107727064D01*
%TO.C,C2*%
X116490000Y-103688748D02*
X116490000Y-105111252D01*
X118310000Y-103688748D02*
X118310000Y-105111252D01*
%TO.C,R3*%
X107127064Y-118710000D02*
X105672936Y-118710000D01*
X107127064Y-116890000D02*
X105672936Y-116890000D01*
%TO.C,3v3*%
X111100000Y-102600000D02*
G75*
G03*
X111100000Y-102600000I-700000J0D01*
G01*
%TO.C,R2*%
X115127064Y-119510000D02*
X113672936Y-119510000D01*
X115127064Y-117690000D02*
X113672936Y-117690000D01*
D12*
%TO.C,J3*%
X106700000Y-129400000D02*
X106100000Y-132000000D01*
X118800000Y-134600000D02*
X116400000Y-134600000D01*
X104350000Y-121000000D02*
X104350000Y-134600000D01*
X106700000Y-125900000D02*
X106700000Y-129400000D01*
X105100000Y-121800000D02*
X106100000Y-123500000D01*
X104400000Y-133800000D02*
X105100000Y-133800000D01*
X116400000Y-121000000D02*
X116400000Y-134600000D01*
X104400000Y-121800000D02*
X105100000Y-121800000D01*
X106100000Y-132000000D02*
X105100000Y-133800000D01*
X118850000Y-121000000D02*
X118850000Y-134600000D01*
X118800000Y-121000000D02*
X116400000Y-121000000D01*
X106100000Y-123500000D02*
X106700000Y-125900000D01*
D11*
%TO.C,VCC*%
X105500000Y-109000000D02*
G75*
G03*
X105500000Y-109000000I-700000J0D01*
G01*
%TO.C,C4*%
X119310000Y-115888748D02*
X119310000Y-117311252D01*
X117490000Y-115888748D02*
X117490000Y-117311252D01*
%TO.C,J6*%
X122670000Y-132730000D02*
X130350000Y-132730000D01*
X121400000Y-132730000D02*
X120070000Y-132730000D01*
X122670000Y-132730000D02*
X122670000Y-130070000D01*
X130350000Y-132730000D02*
X130350000Y-130070000D01*
X122670000Y-130070000D02*
X130350000Y-130070000D01*
X120070000Y-132730000D02*
X120070000Y-131400000D01*
%TO.C,U1*%
X111200000Y-113640000D02*
X110400000Y-113640000D01*
X111200000Y-116760000D02*
X113000000Y-116760000D01*
X111200000Y-113640000D02*
X112000000Y-113640000D01*
X111200000Y-116760000D02*
X110400000Y-116760000D01*
%TO.C,J2*%
X105270000Y-113195000D02*
X105270000Y-115795000D01*
X107930000Y-113195000D02*
X107930000Y-115795000D01*
X105270000Y-110595000D02*
X106600000Y-110595000D01*
X105270000Y-115795000D02*
X107930000Y-115795000D01*
X105270000Y-113195000D02*
X107930000Y-113195000D01*
X105270000Y-111925000D02*
X105270000Y-110595000D01*
%TO.C,Q3*%
X114900000Y-116560000D02*
X116300000Y-116560000D01*
X116300000Y-114240000D02*
X114400000Y-114240000D01*
%TO.C,R4*%
X118527064Y-109110000D02*
X117072936Y-109110000D01*
X118527064Y-107290000D02*
X117072936Y-107290000D01*
%TO.C,VBUS*%
X118700000Y-139400000D02*
G75*
G03*
X118700000Y-139400000I-700000J0D01*
G01*
%TO.C,J4*%
X133670000Y-132600000D02*
X133670000Y-131270000D01*
X136330000Y-133870000D02*
X136330000Y-141550000D01*
X133670000Y-141550000D02*
X136330000Y-141550000D01*
X133670000Y-133870000D02*
X136330000Y-133870000D01*
X133670000Y-131270000D02*
X135000000Y-131270000D01*
X133670000Y-133870000D02*
X133670000Y-141550000D01*
%TO.C,C1*%
X111488748Y-105890000D02*
X112911252Y-105890000D01*
X111488748Y-107710000D02*
X112911252Y-107710000D01*
%TO.C,J5*%
X122670000Y-129930000D02*
X130350000Y-129930000D01*
X120070000Y-129930000D02*
X120070000Y-128600000D01*
X122670000Y-129930000D02*
X122670000Y-127270000D01*
X122670000Y-127270000D02*
X130350000Y-127270000D01*
X121400000Y-129930000D02*
X120070000Y-129930000D01*
X130350000Y-129930000D02*
X130350000Y-127270000D01*
%TO.C,Q1*%
X110200000Y-109240000D02*
X110850000Y-109240000D01*
X110200000Y-112360000D02*
X109550000Y-112360000D01*
X110200000Y-112360000D02*
X111875000Y-112360000D01*
X110200000Y-109240000D02*
X109550000Y-109240000D01*
D10*
%TO.C,J1*%
X131845000Y-140945000D02*
X132145000Y-140945000D01*
X123845000Y-136995000D02*
X123845000Y-138395000D01*
X126195000Y-135245000D02*
X125195000Y-135245000D01*
X132145000Y-138395000D02*
X132145000Y-136995000D01*
X132145000Y-140945000D02*
X132145000Y-140795000D01*
X123845000Y-140945000D02*
X124145000Y-140945000D01*
X124145000Y-140945000D02*
X124145000Y-141395000D01*
X123845000Y-140795000D02*
X123845000Y-140945000D01*
X131845000Y-141395000D02*
X131845000Y-140945000D01*
X126920000Y-134820000D02*
X126195000Y-134820000D01*
X126195000Y-134820000D02*
X126195000Y-135245000D01*
X129795000Y-135245000D02*
X130795000Y-135245000D01*
D11*
%TO.C,U4*%
X117000000Y-113100000D02*
X118000000Y-113100000D01*
X117000000Y-110900000D02*
X119000000Y-110900000D01*
%TO.C,R1*%
X111222936Y-138010000D02*
X112677064Y-138010000D01*
X111222936Y-136190000D02*
X112677064Y-136190000D01*
%TO.C,U2*%
X113800000Y-105360000D02*
X114600000Y-105360000D01*
X113800000Y-102240000D02*
X112000000Y-102240000D01*
X113800000Y-105360000D02*
X113000000Y-105360000D01*
X113800000Y-102240000D02*
X114600000Y-102240000D01*
%TO.C,3v3A*%
X137500000Y-129300000D02*
G75*
G03*
X137500000Y-129300000I-700000J0D01*
G01*
%TO.C,R5*%
X139672936Y-130610000D02*
X141127064Y-130610000D01*
X139672936Y-128790000D02*
X141127064Y-128790000D01*
%TO.C,C3*%
X139688748Y-132090000D02*
X141111252Y-132090000D01*
X139688748Y-133910000D02*
X141111252Y-133910000D01*
%TO.C,U3*%
X139160000Y-126150000D02*
X137500000Y-126150000D01*
X120930000Y-101980000D02*
X120540000Y-101980000D01*
X120920000Y-125790000D02*
X120920000Y-126150000D01*
X139170000Y-101320000D02*
X139170000Y-94900000D01*
X120915000Y-94900000D02*
X139170000Y-94900000D01*
X120920000Y-126150000D02*
X122580000Y-126150000D01*
X139160000Y-125890000D02*
X139160000Y-126150000D01*
X120930000Y-101980000D02*
X120915000Y-94900000D01*
%TO.C,R7*%
X142510000Y-112072936D02*
X142510000Y-113527064D01*
X140690000Y-112072936D02*
X140690000Y-113527064D01*
%TO.C,D1*%
X114800000Y-108550000D02*
X112800000Y-108550000D01*
X112800000Y-108550000D02*
X112800000Y-112450000D01*
X114800000Y-108550000D02*
X114800000Y-112450000D01*
%TO.C,R8*%
X142710000Y-123872936D02*
X142710000Y-125327064D01*
X140890000Y-123872936D02*
X140890000Y-125327064D01*
%TD*%
M02*
