%TF.GenerationSoftware,KiCad,Pcbnew,(6.0.2)*%
%TF.CreationDate,2022-04-10T15:53:23+02:00*%
%TF.ProjectId,V3,56332e6b-6963-4616-945f-706362585858,rev?*%
%TF.SameCoordinates,Original*%
%TF.FileFunction,Soldermask,Top*%
%TF.FilePolarity,Negative*%
%FSLAX46Y46*%
G04 Gerber Fmt 4.6, Leading zero omitted, Abs format (unit mm)*
G04 Created by KiCad (PCBNEW (6.0.2)) date 2022-04-10 15:53:23*
%MOMM*%
%LPD*%
G01*
G04 APERTURE LIST*
G04 Aperture macros list*
%AMRoundRect*
0 Rectangle with rounded corners*
0 $1 Rounding radius*
0 $2 $3 $4 $5 $6 $7 $8 $9 X,Y pos of 4 corners*
0 Add a 4 corners polygon primitive as box body*
4,1,4,$2,$3,$4,$5,$6,$7,$8,$9,$2,$3,0*
0 Add four circle primitives for the rounded corners*
1,1,$1+$1,$2,$3*
1,1,$1+$1,$4,$5*
1,1,$1+$1,$6,$7*
1,1,$1+$1,$8,$9*
0 Add four rect primitives between the rounded corners*
20,1,$1+$1,$2,$3,$4,$5,0*
20,1,$1+$1,$4,$5,$6,$7,0*
20,1,$1+$1,$6,$7,$8,$9,0*
20,1,$1+$1,$8,$9,$2,$3,0*%
G04 Aperture macros list end*
%ADD10RoundRect,0.250000X-0.625000X0.312500X-0.625000X-0.312500X0.625000X-0.312500X0.625000X0.312500X0*%
%ADD11RoundRect,0.250000X-0.650000X0.325000X-0.650000X-0.325000X0.650000X-0.325000X0.650000X0.325000X0*%
%ADD12RoundRect,0.250000X0.312500X0.625000X-0.312500X0.625000X-0.312500X-0.625000X0.312500X-0.625000X0*%
%ADD13C,1.000000*%
%ADD14R,2.050000X1.500000*%
%ADD15R,1.500000X0.800000*%
%ADD16C,2.700000*%
%ADD17R,1.700000X1.700000*%
%ADD18O,1.700000X1.700000*%
%ADD19RoundRect,0.150000X0.512500X0.150000X-0.512500X0.150000X-0.512500X-0.150000X0.512500X-0.150000X0*%
%ADD20R,0.650000X0.400000*%
%ADD21RoundRect,0.250000X-0.325000X-0.650000X0.325000X-0.650000X0.325000X0.650000X-0.325000X0.650000X0*%
%ADD22RoundRect,0.150000X0.587500X0.150000X-0.587500X0.150000X-0.587500X-0.150000X0.587500X-0.150000X0*%
%ADD23O,0.800000X0.800000*%
%ADD24R,0.450000X1.300000*%
%ADD25O,1.450000X2.000000*%
%ADD26O,1.150000X1.800000*%
%ADD27R,0.700000X0.250000*%
%ADD28RoundRect,0.150000X-0.150000X0.512500X-0.150000X-0.512500X0.150000X-0.512500X0.150000X0.512500X0*%
%ADD29RoundRect,0.250000X-0.312500X-0.625000X0.312500X-0.625000X0.312500X0.625000X-0.312500X0.625000X0*%
%ADD30RoundRect,0.150000X-0.512500X-0.150000X0.512500X-0.150000X0.512500X0.150000X-0.512500X0.150000X0*%
%ADD31R,1.500000X0.900000*%
%ADD32R,0.900000X1.500000*%
%ADD33R,4.100000X4.100000*%
%ADD34R,1.200000X0.900000*%
%ADD35C,0.500000*%
%ADD36C,0.800000*%
G04 APERTURE END LIST*
D10*
%TO.C,R6*%
X141600000Y-105537500D03*
X141600000Y-108462500D03*
%TD*%
D11*
%TO.C,C2*%
X117400000Y-102925000D03*
X117400000Y-105875000D03*
%TD*%
D12*
%TO.C,R3*%
X107862500Y-117800000D03*
X104937500Y-117800000D03*
%TD*%
D13*
%TO.C,3v3*%
X110400000Y-102600000D03*
%TD*%
D12*
%TO.C,R2*%
X115862500Y-118600000D03*
X112937500Y-118600000D03*
%TD*%
D14*
%TO.C,J3*%
X106900000Y-120925000D03*
X115200000Y-120925000D03*
X115200000Y-134675000D03*
X106900000Y-134675000D03*
D15*
X109500000Y-123300000D03*
X109500000Y-124400000D03*
X109500000Y-125500000D03*
X109500000Y-126600000D03*
X109500000Y-127700000D03*
X109500000Y-128800000D03*
X109500000Y-129900000D03*
X109500000Y-131000000D03*
%TD*%
D16*
%TO.C,REF\u002A\u002A*%
X140700000Y-138700000D03*
%TD*%
D13*
%TO.C,VCC*%
X104800000Y-109000000D03*
%TD*%
D11*
%TO.C,C4*%
X118400000Y-115125000D03*
X118400000Y-118075000D03*
%TD*%
D17*
%TO.C,J6*%
X121400000Y-131400000D03*
D18*
X123940000Y-131400000D03*
X126480000Y-131400000D03*
X129020000Y-131400000D03*
%TD*%
D16*
%TO.C,REF\u002A\u002A*%
X106600000Y-138600000D03*
%TD*%
D19*
%TO.C,U1*%
X112337500Y-116150000D03*
X112337500Y-115200000D03*
X112337500Y-114250000D03*
X110062500Y-114250000D03*
X110062500Y-115200000D03*
X110062500Y-116150000D03*
%TD*%
D17*
%TO.C,J2*%
X106600000Y-111925000D03*
D18*
X106600000Y-114465000D03*
%TD*%
D20*
%TO.C,Q3*%
X114650000Y-114750000D03*
X114650000Y-115400000D03*
X114650000Y-116050000D03*
X116550000Y-116050000D03*
X116550000Y-115400000D03*
X116550000Y-114750000D03*
%TD*%
D12*
%TO.C,R4*%
X119262500Y-108200000D03*
X116337500Y-108200000D03*
%TD*%
D13*
%TO.C,VBUS*%
X118000000Y-139400000D03*
%TD*%
D12*
%TO.C,R10*%
X119062500Y-137100000D03*
X116137500Y-137100000D03*
%TD*%
D17*
%TO.C,J4*%
X135000000Y-132600000D03*
D18*
X135000000Y-135140000D03*
X135000000Y-137680000D03*
X135000000Y-140220000D03*
%TD*%
D21*
%TO.C,C1*%
X110725000Y-106800000D03*
X113675000Y-106800000D03*
%TD*%
D17*
%TO.C,J5*%
X121400000Y-128600000D03*
D18*
X123940000Y-128600000D03*
X126480000Y-128600000D03*
X129020000Y-128600000D03*
%TD*%
D22*
%TO.C,Q1*%
X111137500Y-111750000D03*
X111137500Y-109850000D03*
X109262500Y-110800000D03*
%TD*%
D23*
%TO.C,J1*%
X125495000Y-136845000D03*
X130495000Y-136845000D03*
D24*
X126695000Y-135745000D03*
X127345000Y-135745000D03*
X127995000Y-135745000D03*
X128645000Y-135745000D03*
X129295000Y-135745000D03*
D25*
X124270000Y-135795000D03*
D26*
X124120000Y-139595000D03*
D25*
X131720000Y-135795000D03*
D26*
X131870000Y-139595000D03*
%TD*%
D27*
%TO.C,U4*%
X118800000Y-112800000D03*
X118800000Y-112400000D03*
X118800000Y-112000000D03*
X118800000Y-111600000D03*
X118800000Y-111200000D03*
X117200000Y-111200000D03*
X117200000Y-111600000D03*
X117200000Y-112000000D03*
X117200000Y-112400000D03*
X117200000Y-112800000D03*
%TD*%
D28*
%TO.C,U5*%
X133550000Y-127962500D03*
X132600000Y-127962500D03*
X131650000Y-127962500D03*
X131650000Y-130237500D03*
X132600000Y-130237500D03*
X133550000Y-130237500D03*
%TD*%
D29*
%TO.C,R1*%
X110487500Y-137100000D03*
X113412500Y-137100000D03*
%TD*%
D30*
%TO.C,U2*%
X112662500Y-102850000D03*
X112662500Y-103800000D03*
X112662500Y-104750000D03*
X114937500Y-104750000D03*
X114937500Y-102850000D03*
%TD*%
D13*
%TO.C,3v3A*%
X136800000Y-129300000D03*
%TD*%
D29*
%TO.C,R5*%
X138937500Y-129700000D03*
X141862500Y-129700000D03*
%TD*%
D21*
%TO.C,C3*%
X141875000Y-133000000D03*
X138925000Y-133000000D03*
%TD*%
D16*
%TO.C,REF\u002A\u002A*%
X106600000Y-104600000D03*
%TD*%
D31*
%TO.C,U3*%
X121415000Y-102575000D03*
X121415000Y-104075000D03*
X121415000Y-105575000D03*
X121415000Y-107075000D03*
X121415000Y-108575000D03*
X121415000Y-110075000D03*
X121415000Y-111575000D03*
X121415000Y-113075000D03*
X121415000Y-114575000D03*
X121415000Y-116075000D03*
X121415000Y-117575000D03*
X121415000Y-119075000D03*
X121415000Y-120575000D03*
X121415000Y-122075000D03*
X121415000Y-123575000D03*
X121415000Y-125075000D03*
D32*
X123290000Y-125825000D03*
X124790000Y-125825000D03*
X126290000Y-125825000D03*
X127790000Y-125825000D03*
X129290000Y-125825000D03*
X130790000Y-125825000D03*
X132290000Y-125825000D03*
X133790000Y-125825000D03*
X135290000Y-125825000D03*
X136790000Y-125825000D03*
D31*
X138665000Y-125175000D03*
X138665000Y-123675000D03*
X138665000Y-122175000D03*
X138665000Y-120675000D03*
X138665000Y-119175000D03*
X138665000Y-117675000D03*
X138665000Y-116175000D03*
X138665000Y-114675000D03*
X138665000Y-113175000D03*
X138665000Y-111675000D03*
X138665000Y-110175000D03*
X138665000Y-108675000D03*
X138665000Y-107175000D03*
X138665000Y-105575000D03*
X138665000Y-104075000D03*
X138665000Y-102675000D03*
D33*
X128850000Y-110615000D03*
%TD*%
D10*
%TO.C,R7*%
X141600000Y-111337500D03*
X141600000Y-114262500D03*
%TD*%
D34*
%TO.C,D1*%
X113800000Y-109150000D03*
X113800000Y-112450000D03*
%TD*%
D10*
%TO.C,R8*%
X141800000Y-123137500D03*
X141800000Y-126062500D03*
%TD*%
%TO.C,R9*%
X121300000Y-134187500D03*
X121300000Y-137112500D03*
%TD*%
D35*
X116050000Y-112200000D03*
X116050000Y-111000000D03*
X116050000Y-110400000D03*
X116050000Y-111600000D03*
X118100000Y-108400000D03*
X118100000Y-107800000D03*
X117450000Y-108400000D03*
X117450000Y-107800000D03*
X114800000Y-106000000D03*
X142600000Y-104000000D03*
X111600000Y-139000000D03*
X125900000Y-139800000D03*
X128800000Y-114000000D03*
X129500000Y-139200000D03*
X118500000Y-131700000D03*
X128800000Y-117600000D03*
X141400000Y-120200000D03*
X142600000Y-116600000D03*
X115279402Y-117151989D03*
X114600000Y-140800000D03*
X114000000Y-139000000D03*
X128800000Y-114600000D03*
X129400000Y-115800000D03*
X115400000Y-111600000D03*
X118800000Y-103200000D03*
X114700000Y-125200000D03*
X140800000Y-116600000D03*
X129400000Y-114000000D03*
X117900000Y-132300000D03*
X116700000Y-131700000D03*
X119400000Y-103200000D03*
X110600000Y-121200000D03*
X130000000Y-118200000D03*
X116700000Y-129900000D03*
X133000000Y-115800000D03*
X126500000Y-139800000D03*
X110000000Y-121200000D03*
X112800000Y-140800000D03*
X113400000Y-139600000D03*
X140800000Y-118400000D03*
X112800000Y-139600000D03*
X114800000Y-107200000D03*
X117900000Y-130500000D03*
X140800000Y-119000000D03*
X114800000Y-107800000D03*
X142000000Y-103400000D03*
X111600000Y-139600000D03*
X141400000Y-102800000D03*
X114800000Y-106600000D03*
X112200000Y-139600000D03*
X142000000Y-102800000D03*
X115900000Y-125200000D03*
X111200000Y-121200000D03*
X120000000Y-102000000D03*
X112800000Y-139000000D03*
X114600000Y-139000000D03*
X142000000Y-117200000D03*
X131200000Y-117600000D03*
X109400000Y-118400000D03*
X130600000Y-115800000D03*
X142600000Y-103400000D03*
X116700000Y-132300000D03*
X142600000Y-119000000D03*
X111800000Y-120600000D03*
X142000000Y-118400000D03*
X142000000Y-119000000D03*
X142600000Y-117800000D03*
X141400000Y-117800000D03*
X117300000Y-128700000D03*
X111400000Y-108200000D03*
X111400000Y-108800000D03*
X113500000Y-125200000D03*
X117300000Y-131700000D03*
X116700000Y-129300000D03*
X133000000Y-117600000D03*
X116700000Y-131100000D03*
X113600000Y-120600000D03*
X111200000Y-120600000D03*
X133000000Y-118200000D03*
X117900000Y-128100000D03*
X129400000Y-117600000D03*
X120000000Y-103200000D03*
X140800000Y-102800000D03*
X126500000Y-138600000D03*
X111800000Y-121200000D03*
X117300000Y-129900000D03*
X113000000Y-120600000D03*
X130000000Y-114000000D03*
X110400000Y-140800000D03*
X142000000Y-120200000D03*
X130600000Y-116400000D03*
X110600000Y-120600000D03*
X141400000Y-118400000D03*
X127100000Y-139800000D03*
X130600000Y-117000000D03*
X119400000Y-102600000D03*
X131800000Y-116400000D03*
X131800000Y-114600000D03*
X117300000Y-129300000D03*
X128800000Y-117000000D03*
X127700000Y-138600000D03*
X128900000Y-139800000D03*
X128800000Y-115800000D03*
X119400000Y-102000000D03*
X117300000Y-131100000D03*
X132400000Y-118200000D03*
X141400000Y-102200000D03*
X130000000Y-115200000D03*
X114600000Y-140200000D03*
X112400000Y-120600000D03*
X128300000Y-139800000D03*
X108800000Y-120600000D03*
X140800000Y-117800000D03*
X131200000Y-115200000D03*
X118500000Y-128100000D03*
X114600000Y-139600000D03*
X131800000Y-118200000D03*
X130100000Y-139800000D03*
X131200000Y-118200000D03*
X130000000Y-115800000D03*
X111600000Y-140800000D03*
X129400000Y-114600000D03*
X115300000Y-125200000D03*
X116700000Y-128700000D03*
X141400000Y-116000000D03*
X130600000Y-114000000D03*
X133000000Y-114000000D03*
X120000000Y-102600000D03*
X140800000Y-104000000D03*
X112900000Y-125200000D03*
X142600000Y-120200000D03*
X118500000Y-129900000D03*
X114000000Y-140800000D03*
X140800000Y-120200000D03*
X110000000Y-120600000D03*
X130000000Y-116400000D03*
X125900000Y-138600000D03*
X142000000Y-104000000D03*
X111000000Y-140200000D03*
X112200000Y-140800000D03*
X142600000Y-117200000D03*
X127100000Y-139200000D03*
X129400000Y-117000000D03*
X130100000Y-138600000D03*
X118500000Y-132300000D03*
X130600000Y-117600000D03*
X132400000Y-115200000D03*
X109400000Y-120600000D03*
X112200000Y-140200000D03*
X140800000Y-119600000D03*
X129400000Y-116400000D03*
X131200000Y-117000000D03*
X127700000Y-139800000D03*
X111000000Y-139600000D03*
X112800000Y-140200000D03*
X131800000Y-114000000D03*
X113995004Y-139600000D03*
X116700000Y-128100000D03*
X131800000Y-117000000D03*
X113600000Y-116000000D03*
X117900000Y-129300000D03*
X128900000Y-138600000D03*
X110400000Y-140200000D03*
X128800000Y-115200000D03*
X142600000Y-119600000D03*
X108200000Y-119600000D03*
X114100000Y-125200000D03*
X117900000Y-131100000D03*
X118500000Y-128700000D03*
X132400000Y-115800000D03*
X118800000Y-102600000D03*
X133000000Y-116400000D03*
X115400000Y-110400000D03*
X127100000Y-138600000D03*
X131200000Y-115800000D03*
X132400000Y-114000000D03*
X130100000Y-139200000D03*
X132400000Y-117600000D03*
X117900000Y-129900000D03*
X133000000Y-115200000D03*
X130000000Y-117600000D03*
X112400000Y-121200000D03*
X117300000Y-132300000D03*
X113600000Y-121200000D03*
X141400000Y-119600000D03*
X112000000Y-108200000D03*
X140800000Y-103400000D03*
X126500000Y-139200000D03*
X112300000Y-125200000D03*
X118500000Y-129300000D03*
X142000000Y-119600000D03*
X132400000Y-117000000D03*
X117900000Y-128700000D03*
X115400000Y-106000000D03*
X142000000Y-117800000D03*
X130600000Y-114600000D03*
X128300000Y-139200000D03*
X110400000Y-139600000D03*
X128900000Y-139200000D03*
X111700000Y-125200000D03*
X118800000Y-102000000D03*
X141400000Y-103400000D03*
X142000000Y-116600000D03*
X128300000Y-138600000D03*
X131800000Y-115800000D03*
X140800000Y-117200000D03*
X140800000Y-116000000D03*
X115400000Y-112200000D03*
X108800000Y-119000000D03*
X131200000Y-114600000D03*
X130600000Y-115200000D03*
X127700000Y-139200000D03*
X133000000Y-114600000D03*
X112200000Y-139000000D03*
X115400000Y-111000000D03*
X132400000Y-116400000D03*
X129500000Y-139800000D03*
X130600000Y-118200000D03*
X140800000Y-102200000D03*
X108800000Y-121200000D03*
X130000000Y-117000000D03*
X118500000Y-131100000D03*
X141400000Y-104000000D03*
X129400000Y-118200000D03*
X131800000Y-117600000D03*
X113600000Y-116600000D03*
X115400000Y-106600000D03*
X109400000Y-121200000D03*
X141400000Y-119000000D03*
X109900000Y-117900000D03*
X129400000Y-115200000D03*
X131200000Y-114000000D03*
X113000000Y-121200000D03*
X131200000Y-116400000D03*
X113400000Y-140800000D03*
X113400000Y-139000000D03*
X114650000Y-117150000D03*
X130000000Y-114600000D03*
X113400000Y-140200000D03*
X129500000Y-138600000D03*
X112000000Y-108800000D03*
X118500000Y-130500000D03*
X115939552Y-117154297D03*
X116700000Y-130500000D03*
X128800000Y-116400000D03*
X117300000Y-128100000D03*
X133000000Y-117000000D03*
X117300000Y-130500000D03*
X141400000Y-117200000D03*
X142600000Y-116000000D03*
X110400000Y-139000000D03*
X125900000Y-139200000D03*
X142600000Y-118400000D03*
X114000000Y-140200000D03*
X117900000Y-131700000D03*
X111600000Y-140200000D03*
X141400000Y-116600000D03*
X142000000Y-116000000D03*
X111000000Y-139000000D03*
X128800000Y-118200000D03*
X131800000Y-115200000D03*
X111000000Y-140800000D03*
X132400000Y-114600000D03*
X118825000Y-106400000D03*
X119400000Y-106400000D03*
X119400000Y-105800000D03*
X140900000Y-128075000D03*
X119400000Y-104000000D03*
X115000000Y-103600000D03*
X118825000Y-105800000D03*
X112225000Y-126200000D03*
X112800000Y-126200000D03*
X120000000Y-104600000D03*
X139700000Y-127500000D03*
X113400000Y-126200000D03*
X140900000Y-127500000D03*
X115600000Y-103600000D03*
X118825000Y-104000000D03*
X140300000Y-128075000D03*
X119400000Y-104600000D03*
X120000000Y-104000000D03*
X120000000Y-105800000D03*
X119400000Y-105200000D03*
X140300000Y-127500000D03*
X118825000Y-104600000D03*
X139700000Y-128075000D03*
X118825000Y-105200000D03*
X120000000Y-105200000D03*
X114425000Y-103600000D03*
X119900000Y-111000000D03*
X119550000Y-114250000D03*
D36*
X127200000Y-130000000D03*
M02*
