%TF.GenerationSoftware,KiCad,Pcbnew,(6.0.2)*%
%TF.CreationDate,2022-04-11T15:07:28+02:00*%
%TF.ProjectId,V3,56332e6b-6963-4616-945f-706362585858,rev?*%
%TF.SameCoordinates,Original*%
%TF.FileFunction,Soldermask,Top*%
%TF.FilePolarity,Negative*%
%FSLAX46Y46*%
G04 Gerber Fmt 4.6, Leading zero omitted, Abs format (unit mm)*
G04 Created by KiCad (PCBNEW (6.0.2)) date 2022-04-11 15:07:28*
%MOMM*%
%LPD*%
G01*
G04 APERTURE LIST*
G04 Aperture macros list*
%AMRoundRect*
0 Rectangle with rounded corners*
0 $1 Rounding radius*
0 $2 $3 $4 $5 $6 $7 $8 $9 X,Y pos of 4 corners*
0 Add a 4 corners polygon primitive as box body*
4,1,4,$2,$3,$4,$5,$6,$7,$8,$9,$2,$3,0*
0 Add four circle primitives for the rounded corners*
1,1,$1+$1,$2,$3*
1,1,$1+$1,$4,$5*
1,1,$1+$1,$6,$7*
1,1,$1+$1,$8,$9*
0 Add four rect primitives between the rounded corners*
20,1,$1+$1,$2,$3,$4,$5,0*
20,1,$1+$1,$4,$5,$6,$7,0*
20,1,$1+$1,$6,$7,$8,$9,0*
20,1,$1+$1,$8,$9,$2,$3,0*%
G04 Aperture macros list end*
%ADD10RoundRect,0.250000X-0.312500X-0.625000X0.312500X-0.625000X0.312500X0.625000X-0.312500X0.625000X0*%
%ADD11R,0.520000X1.000000*%
%ADD12R,0.270000X1.000000*%
%ADD13C,0.600000*%
%ADD14C,0.630000*%
%ADD15R,1.000000X2.000000*%
%ADD16O,1.158000X2.316000*%
%ADD17O,1.200000X2.400000*%
%ADD18RoundRect,0.250000X-0.625000X0.312500X-0.625000X-0.312500X0.625000X-0.312500X0.625000X0.312500X0*%
%ADD19RoundRect,0.250000X-0.650000X0.325000X-0.650000X-0.325000X0.650000X-0.325000X0.650000X0.325000X0*%
%ADD20RoundRect,0.250000X0.312500X0.625000X-0.312500X0.625000X-0.312500X-0.625000X0.312500X-0.625000X0*%
%ADD21RoundRect,0.250000X0.650000X-0.325000X0.650000X0.325000X-0.650000X0.325000X-0.650000X-0.325000X0*%
%ADD22R,1.500000X0.800000*%
%ADD23R,2.050000X1.500000*%
%ADD24C,2.700000*%
%ADD25C,1.000000*%
%ADD26R,1.700000X1.700000*%
%ADD27O,1.700000X1.700000*%
%ADD28RoundRect,0.150000X0.512500X0.150000X-0.512500X0.150000X-0.512500X-0.150000X0.512500X-0.150000X0*%
%ADD29R,0.650000X0.400000*%
%ADD30RoundRect,0.250000X-0.325000X-0.650000X0.325000X-0.650000X0.325000X0.650000X-0.325000X0.650000X0*%
%ADD31RoundRect,0.150000X0.587500X0.150000X-0.587500X0.150000X-0.587500X-0.150000X0.587500X-0.150000X0*%
%ADD32R,0.700000X0.250000*%
%ADD33RoundRect,0.150000X-0.150000X0.512500X-0.150000X-0.512500X0.150000X-0.512500X0.150000X0.512500X0*%
%ADD34RoundRect,0.150000X-0.512500X-0.150000X0.512500X-0.150000X0.512500X0.150000X-0.512500X0.150000X0*%
%ADD35RoundRect,0.250000X0.625000X-0.312500X0.625000X0.312500X-0.625000X0.312500X-0.625000X-0.312500X0*%
%ADD36R,1.500000X0.900000*%
%ADD37R,0.900000X1.500000*%
%ADD38R,4.100000X4.100000*%
%ADD39R,1.200000X0.900000*%
%ADD40C,0.800000*%
%ADD41C,0.500000*%
G04 APERTURE END LIST*
D10*
%TO.C,R15*%
X110487500Y-139450000D03*
X113412500Y-139450000D03*
%TD*%
D11*
%TO.C,J1*%
X124800000Y-135500000D03*
X131000000Y-135500000D03*
X125550000Y-135500000D03*
X130250000Y-135500000D03*
D12*
X126150000Y-135500000D03*
X129650000Y-135500000D03*
X126650000Y-135500000D03*
X127150000Y-135500000D03*
X127650000Y-135500000D03*
X128150000Y-135500000D03*
X128650000Y-135500000D03*
X129150000Y-135500000D03*
D13*
X130900000Y-136600000D03*
D14*
X130900000Y-136600000D03*
D15*
X126500000Y-139700000D03*
X129300000Y-139700000D03*
D14*
X124900000Y-136600000D03*
D16*
X123580000Y-135875000D03*
X132220000Y-135875000D03*
D17*
X123580000Y-139700000D03*
X132220000Y-139700000D03*
%TD*%
D18*
%TO.C,R6*%
X141500000Y-109037500D03*
X141500000Y-111962500D03*
%TD*%
D19*
%TO.C,C2*%
X117400000Y-102925000D03*
X117400000Y-105875000D03*
%TD*%
D20*
%TO.C,R3*%
X107862500Y-117800000D03*
X104937500Y-117800000D03*
%TD*%
D21*
%TO.C,C5*%
X141500000Y-106975000D03*
X141500000Y-104025000D03*
%TD*%
D20*
%TO.C,R2*%
X115862500Y-118600000D03*
X112937500Y-118600000D03*
%TD*%
D22*
%TO.C,J3*%
X109500000Y-131000000D03*
X109500000Y-129900000D03*
X109500000Y-128800000D03*
X109500000Y-127700000D03*
X109500000Y-126600000D03*
X109500000Y-125500000D03*
X109500000Y-124400000D03*
X109500000Y-123300000D03*
D23*
X106900000Y-134675000D03*
X115200000Y-134675000D03*
X115200000Y-120925000D03*
X106900000Y-120925000D03*
%TD*%
D24*
%TO.C,REF\u002A\u002A*%
X140700000Y-138700000D03*
%TD*%
D25*
%TO.C,TP2*%
X104800000Y-109000000D03*
%TD*%
D19*
%TO.C,C4*%
X118400000Y-115125000D03*
X118400000Y-118075000D03*
%TD*%
D10*
%TO.C,R14*%
X131437500Y-132400000D03*
X134362500Y-132400000D03*
%TD*%
D26*
%TO.C,J6*%
X121400000Y-131400000D03*
D27*
X123940000Y-131400000D03*
X126480000Y-131400000D03*
X129020000Y-131400000D03*
%TD*%
D24*
%TO.C,REF\u002A\u002A*%
X106600000Y-138600000D03*
%TD*%
D28*
%TO.C,U1*%
X112337500Y-116150000D03*
X112337500Y-115200000D03*
X112337500Y-114250000D03*
X110062500Y-114250000D03*
X110062500Y-115200000D03*
X110062500Y-116150000D03*
%TD*%
D26*
%TO.C,J2*%
X106600000Y-111925000D03*
D27*
X106600000Y-114465000D03*
%TD*%
D29*
%TO.C,Q3*%
X114650000Y-114750000D03*
X114650000Y-115400000D03*
X114650000Y-116050000D03*
X116550000Y-116050000D03*
X116550000Y-115400000D03*
X116550000Y-114750000D03*
%TD*%
D20*
%TO.C,R4*%
X119262500Y-108200000D03*
X116337500Y-108200000D03*
%TD*%
D25*
%TO.C,TP1*%
X115500000Y-139450000D03*
%TD*%
D20*
%TO.C,R10*%
X119062500Y-137100000D03*
X116137500Y-137100000D03*
%TD*%
D26*
%TO.C,J4*%
X137000000Y-132600000D03*
D27*
X137000000Y-135140000D03*
X137000000Y-137680000D03*
X137000000Y-140220000D03*
%TD*%
D30*
%TO.C,C1*%
X110725000Y-106800000D03*
X113675000Y-106800000D03*
%TD*%
D26*
%TO.C,J5*%
X121400000Y-128600000D03*
D27*
X123940000Y-128600000D03*
X126480000Y-128600000D03*
X129020000Y-128600000D03*
%TD*%
D31*
%TO.C,Q1*%
X111137500Y-111750000D03*
X111137500Y-109850000D03*
X109262500Y-110800000D03*
%TD*%
D32*
%TO.C,U4*%
X118800000Y-112800000D03*
X118800000Y-112400000D03*
X118800000Y-112000000D03*
X118800000Y-111600000D03*
X118800000Y-111200000D03*
X117200000Y-111200000D03*
X117200000Y-111600000D03*
X117200000Y-112000000D03*
X117200000Y-112400000D03*
X117200000Y-112800000D03*
%TD*%
D33*
%TO.C,U5*%
X133450000Y-127762500D03*
X132500000Y-127762500D03*
X131550000Y-127762500D03*
X131550000Y-130037500D03*
X132500000Y-130037500D03*
X133450000Y-130037500D03*
%TD*%
D10*
%TO.C,R1*%
X110487500Y-137100000D03*
X113412500Y-137100000D03*
%TD*%
D34*
%TO.C,U2*%
X112662500Y-102850000D03*
X112662500Y-103800000D03*
X112662500Y-104750000D03*
X114937500Y-104750000D03*
X114937500Y-102850000D03*
%TD*%
D35*
%TO.C,R11*%
X134350000Y-138412500D03*
X134350000Y-135487500D03*
%TD*%
D10*
%TO.C,R12*%
X118187500Y-139700000D03*
X121112500Y-139700000D03*
%TD*%
%TO.C,R5*%
X139687500Y-132100000D03*
X142612500Y-132100000D03*
%TD*%
D25*
%TO.C,TP3*%
X110500000Y-102600000D03*
%TD*%
D30*
%TO.C,C3*%
X139675000Y-134400000D03*
X142625000Y-134400000D03*
%TD*%
D10*
%TO.C,R13*%
X135837500Y-129500000D03*
X138762500Y-129500000D03*
%TD*%
D24*
%TO.C,REF\u002A\u002A*%
X106600000Y-104600000D03*
%TD*%
D36*
%TO.C,U3*%
X121415000Y-102575000D03*
X121415000Y-104075000D03*
X121415000Y-105575000D03*
X121415000Y-107075000D03*
X121415000Y-108575000D03*
X121415000Y-110075000D03*
X121415000Y-111575000D03*
X121415000Y-113075000D03*
X121415000Y-114575000D03*
X121415000Y-116075000D03*
X121415000Y-117575000D03*
X121415000Y-119075000D03*
X121415000Y-120575000D03*
X121415000Y-122075000D03*
X121415000Y-123575000D03*
X121415000Y-125075000D03*
D37*
X123290000Y-125825000D03*
X124790000Y-125825000D03*
X126290000Y-125825000D03*
X127790000Y-125825000D03*
X129290000Y-125825000D03*
X130790000Y-125825000D03*
X132290000Y-125825000D03*
X133790000Y-125825000D03*
X135290000Y-125825000D03*
X136790000Y-125825000D03*
D36*
X138665000Y-125175000D03*
X138665000Y-123675000D03*
X138665000Y-122175000D03*
X138665000Y-120675000D03*
X138665000Y-119175000D03*
X138665000Y-117675000D03*
X138665000Y-116175000D03*
X138665000Y-114675000D03*
X138665000Y-113175000D03*
X138665000Y-111675000D03*
X138665000Y-110175000D03*
X138665000Y-108675000D03*
X138665000Y-107175000D03*
X138665000Y-105575000D03*
X138665000Y-104075000D03*
X138665000Y-102675000D03*
D38*
X128850000Y-110615000D03*
%TD*%
D18*
%TO.C,R7*%
X141500000Y-114075000D03*
X141500000Y-117000000D03*
%TD*%
D39*
%TO.C,D1*%
X113800000Y-109150000D03*
X113800000Y-112450000D03*
%TD*%
D18*
%TO.C,R8*%
X141800000Y-123137500D03*
X141800000Y-126062500D03*
%TD*%
%TO.C,R9*%
X121300000Y-134187500D03*
X121300000Y-137112500D03*
%TD*%
D13*
X112025000Y-139675000D03*
D40*
X124750000Y-133300000D03*
D13*
X126100000Y-134100000D03*
D40*
X140200000Y-126200000D03*
X141500000Y-120500000D03*
X115700000Y-111150000D03*
X141492598Y-119494241D03*
X140200000Y-125200000D03*
X117550000Y-133000000D03*
X111700000Y-125250000D03*
X131600000Y-102700000D03*
X130400000Y-102700000D03*
X109150000Y-120850000D03*
X135000000Y-124000000D03*
X132750000Y-102700000D03*
X117550000Y-129500000D03*
X140200000Y-124200000D03*
X129250000Y-102700000D03*
X128100000Y-102700000D03*
X115100000Y-106100000D03*
X141500000Y-118500000D03*
X112000000Y-108400000D03*
X110300000Y-120850000D03*
X140500000Y-121500000D03*
X140500000Y-120500000D03*
X112850000Y-125250000D03*
X115700000Y-110000000D03*
X115700000Y-112300000D03*
X108900000Y-140000000D03*
X108900000Y-138850000D03*
X114000000Y-125250000D03*
X140500000Y-118500000D03*
X111450000Y-120850000D03*
X140500000Y-119500000D03*
X136000000Y-124000000D03*
X117550000Y-128350000D03*
X117550000Y-130650000D03*
X134000000Y-124000000D03*
X141477796Y-121500000D03*
X133000000Y-124000000D03*
X108900000Y-137700000D03*
X117550000Y-131850000D03*
D13*
X113400000Y-126200000D03*
X118900000Y-103950000D03*
X140150000Y-127800000D03*
X116050000Y-102050000D03*
X141150000Y-127800000D03*
X120050000Y-105050000D03*
X120050000Y-103950000D03*
X142200000Y-127750000D03*
X118900000Y-105050000D03*
X115550000Y-103700000D03*
X118900000Y-106200000D03*
X112225000Y-126200000D03*
X117450000Y-104350000D03*
X114350000Y-103700000D03*
D41*
X119900000Y-111000000D03*
X119550000Y-114250000D03*
D40*
X127700000Y-129400000D03*
D13*
X128300000Y-137100000D03*
X133900000Y-136600000D03*
X122250000Y-140150000D03*
M02*
