M48
; DRILL file {KiCad (6.0.2)} date Sun Apr 10 13:15:19 2022
; FORMAT={-:-/ absolute / inch / decimal}
; #@! TF.CreationDate,2022-04-10T13:15:19+02:00
; #@! TF.GenerationSoftware,Kicad,Pcbnew,(6.0.2)
; #@! TF.FileFunction,Plated,1,2,PTH
FMAT,2
INCH
; #@! TA.AperFunction,Plated,PTH,ViaDrill
T1C0.0118
; #@! TA.AperFunction,Plated,PTH,ViaDrill
T2C0.0157
; #@! TA.AperFunction,Plated,PTH,ComponentDrill
T3C0.0217
; #@! TA.AperFunction,Plated,PTH,ComponentDrill
T4C0.0335
; #@! TA.AperFunction,Plated,PTH,ComponentDrill
T5C0.0394
%
G90
G05
T1
X4.2598Y-4.7087
X4.2835Y-4.685
X4.2835Y-4.748
X4.2835Y-4.7717
X4.3071Y-4.6614
X4.3071Y-4.748
X4.3071Y-4.7717
X4.3268Y-4.6417
X4.3307Y-4.748
X4.3307Y-4.7717
X4.3465Y-5.4724
X4.3465Y-5.4961
X4.3465Y-5.5197
X4.3465Y-5.5433
X4.3543Y-4.748
X4.3543Y-4.7717
X4.3701Y-5.4724
X4.3701Y-5.4961
X4.3701Y-5.5197
X4.3701Y-5.5433
X4.378Y-4.748
X4.378Y-4.7717
X4.3858Y-4.2598
X4.3858Y-4.2835
X4.3937Y-5.4724
X4.3937Y-5.4961
X4.3937Y-5.5197
X4.3937Y-5.5433
X4.3976Y-4.9291
X4.4016Y-4.748
X4.4016Y-4.7717
X4.4094Y-4.2598
X4.4094Y-4.2835
X4.4173Y-5.4724
X4.4173Y-5.4961
X4.4173Y-5.5197
X4.4173Y-5.5433
X4.4183Y-4.9685
X4.4213Y-4.9291
X4.4252Y-4.748
X4.4252Y-4.7717
X4.4409Y-4.9685
X4.4409Y-5.4724
X4.4409Y-5.4961
X4.4409Y-5.5197
X4.4409Y-5.5433
X4.4449Y-4.9291
X4.4488Y-4.748
X4.4488Y-4.7717
X4.4646Y-4.9685
X4.4646Y-5.4724
X4.4646Y-5.4961
X4.4646Y-5.5197
X4.4646Y-5.5433
X4.4685Y-4.9291
X4.4724Y-4.5669
X4.4724Y-4.5906
X4.4724Y-4.748
X4.4724Y-4.7717
X4.4724Y-5.0709
X4.4724Y-5.0945
X4.4724Y-5.1181
X4.4724Y-5.1417
X4.4724Y-5.1654
X4.4724Y-5.189
X4.4724Y-5.2126
X4.4724Y-5.2362
X4.488Y-5.4961
X4.4882Y-5.4724
X4.4882Y-5.5197
X4.4882Y-5.5433
X4.4921Y-4.9291
X4.4961Y-5.0709
X4.4961Y-5.0945
X4.4961Y-5.1181
X4.4961Y-5.1417
X4.4961Y-5.1654
X4.4961Y-5.189
X4.4961Y-5.2126
X4.4961Y-5.2362
X4.5049Y-4.0787
X4.5118Y-5.4724
X4.5118Y-5.4961
X4.5118Y-5.5197
X4.5118Y-5.5433
X4.5138Y-4.6122
X4.5157Y-4.9291
X4.5197Y-4.1732
X4.5197Y-4.1969
X4.5197Y-4.2205
X4.5197Y-4.2441
X4.5197Y-5.0709
X4.5197Y-5.0945
X4.5197Y-5.1181
X4.5197Y-5.1417
X4.5197Y-5.1654
X4.5197Y-5.189
X4.5197Y-5.2126
X4.5197Y-5.2362
X4.5276Y-4.0787
X4.5386Y-4.6123
X4.5394Y-4.9291
X4.5433Y-4.1732
X4.5433Y-4.1969
X4.5433Y-4.3465
X4.5433Y-4.3701
X4.5433Y-4.3937
X4.5433Y-4.4173
X4.5433Y-5.0709
X4.5433Y-5.0945
X4.5433Y-5.1181
X4.5433Y-5.1417
X4.5433Y-5.1654
X4.5433Y-5.189
X4.5433Y-5.2126
X4.5433Y-5.2362
X4.5512Y-4.0787
X4.563Y-4.9291
X4.5645Y-4.6124
X4.6772Y-4.0157
X4.6772Y-4.0394
X4.6772Y-4.063
X4.6781Y-4.0945
X4.6781Y-4.1181
X4.6781Y-4.1417
X4.6781Y-4.1654
X4.6781Y-4.189
X4.7008Y-4.0157
X4.7008Y-4.0394
X4.7008Y-4.063
X4.7008Y-4.0945
X4.7008Y-4.1181
X4.7008Y-4.1417
X4.7008Y-4.1654
X4.7008Y-4.189
X4.7067Y-4.498
X4.7205Y-4.3701
X4.7244Y-4.0157
X4.7244Y-4.0394
X4.7244Y-4.063
X4.7244Y-4.0945
X4.7244Y-4.1181
X4.7244Y-4.1417
X4.7244Y-4.1654
X4.9567Y-5.4567
X4.9567Y-5.4803
X4.9567Y-5.5039
X4.9764Y-4.4882
X4.9764Y-4.5118
X4.9764Y-4.5354
X4.9764Y-4.5591
X4.9764Y-4.5827
X4.9764Y-4.6063
X4.9764Y-4.6299
X4.9764Y-4.6535
X4.9803Y-5.4567
X4.9803Y-5.4803
X4.9803Y-5.5039
X5.0Y-4.4882
X5.0Y-4.5118
X5.0Y-4.5354
X5.0Y-4.5591
X5.0Y-4.5827
X5.0Y-4.6063
X5.0Y-4.6299
X5.0Y-4.6535
X5.0039Y-5.4567
X5.0039Y-5.4803
X5.0039Y-5.5039
X5.0236Y-4.4882
X5.0236Y-4.5118
X5.0236Y-4.5354
X5.0236Y-4.5591
X5.0236Y-4.5827
X5.0236Y-4.6063
X5.0236Y-4.6299
X5.0236Y-4.6535
X5.0276Y-5.4567
X5.0276Y-5.4803
X5.0276Y-5.5039
X5.0472Y-4.4882
X5.0472Y-4.5118
X5.0472Y-4.5354
X5.0472Y-4.5591
X5.0472Y-4.5827
X5.0472Y-4.6063
X5.0472Y-4.6299
X5.0472Y-4.6535
X5.0512Y-5.4567
X5.0512Y-5.4803
X5.0512Y-5.5039
X5.0709Y-4.4882
X5.0709Y-4.5118
X5.0709Y-4.5354
X5.0709Y-4.5591
X5.0709Y-4.5827
X5.0709Y-4.6063
X5.0709Y-4.6299
X5.0709Y-4.6535
X5.0748Y-5.4567
X5.0748Y-5.4803
X5.0748Y-5.5039
X5.0945Y-4.4882
X5.0945Y-4.5118
X5.0945Y-4.5354
X5.0945Y-4.5591
X5.0945Y-4.5827
X5.0945Y-4.6063
X5.0945Y-4.6299
X5.0945Y-4.6535
X5.0984Y-5.4567
X5.0984Y-5.4803
X5.0984Y-5.5039
X5.1181Y-4.4882
X5.1181Y-4.5118
X5.1181Y-4.5354
X5.1181Y-4.5591
X5.1181Y-4.5827
X5.1181Y-4.6063
X5.1181Y-4.6299
X5.1181Y-4.6535
X5.122Y-5.4567
X5.122Y-5.4803
X5.122Y-5.5039
X5.1417Y-4.4882
X5.1417Y-4.5118
X5.1417Y-4.5354
X5.1417Y-4.5591
X5.1417Y-4.5827
X5.1417Y-4.6063
X5.1417Y-4.6299
X5.1417Y-4.6535
X5.1654Y-4.4882
X5.1654Y-4.5118
X5.1654Y-4.5354
X5.1654Y-4.5591
X5.1654Y-4.5827
X5.1654Y-4.6063
X5.1654Y-4.6299
X5.1654Y-4.6535
X5.189Y-4.4882
X5.189Y-4.5118
X5.189Y-4.5354
X5.189Y-4.5591
X5.189Y-4.5827
X5.189Y-4.6063
X5.189Y-4.6299
X5.189Y-4.6535
X5.2126Y-4.4882
X5.2126Y-4.5118
X5.2126Y-4.5354
X5.2126Y-4.5591
X5.2126Y-4.5827
X5.2126Y-4.6063
X5.2126Y-4.6299
X5.2126Y-4.6535
X5.2362Y-4.4882
X5.2362Y-4.5118
X5.2362Y-4.5354
X5.2362Y-4.5591
X5.2362Y-4.5827
X5.2362Y-4.6063
X5.2362Y-4.6299
X5.2362Y-4.6535
X5.5Y-5.0197
X5.5Y-5.0423
X5.5236Y-5.0197
X5.5236Y-5.0423
X5.5433Y-4.0236
X5.5433Y-4.0472
X5.5433Y-4.0709
X5.5433Y-4.0945
X5.5433Y-4.5669
X5.5433Y-4.5906
X5.5433Y-4.6142
X5.5433Y-4.6378
X5.5433Y-4.6614
X5.5433Y-4.685
X5.5433Y-4.7087
X5.5433Y-4.7323
X5.5472Y-5.0197
X5.5472Y-5.0423
X5.5669Y-4.0236
X5.5669Y-4.0472
X5.5669Y-4.0709
X5.5669Y-4.0945
X5.5669Y-4.5669
X5.5669Y-4.5906
X5.5669Y-4.6142
X5.5669Y-4.6378
X5.5669Y-4.6614
X5.5669Y-4.685
X5.5669Y-4.7087
X5.5669Y-4.7323
X5.5906Y-4.0472
X5.5906Y-4.0709
X5.5906Y-4.0945
X5.5906Y-4.5669
X5.5906Y-4.5906
X5.5906Y-4.6142
X5.5906Y-4.6378
X5.5906Y-4.6614
X5.5906Y-4.685
X5.5906Y-4.7087
X5.5906Y-4.7323
X5.6142Y-4.0709
X5.6142Y-4.0945
X5.6142Y-4.5669
X5.6142Y-4.5906
X5.6142Y-4.6142
X5.6142Y-4.6378
X5.6142Y-4.6614
X5.6142Y-4.685
X5.6142Y-4.7087
X5.6142Y-4.7323
T2
X5.0079Y-5.1181
T5
X4.1969Y-4.4065
X4.1969Y-4.5065
X4.7795Y-5.063
X4.7795Y-5.1732
X4.8795Y-5.063
X4.8795Y-5.1732
X4.9795Y-5.063
X4.9795Y-5.1732
X5.0795Y-5.063
X5.0795Y-5.1732
X5.315Y-5.2205
X5.315Y-5.3205
X5.315Y-5.4205
X5.315Y-5.5205
T3
G00X4.8866Y-5.4831
M15
G01X4.8866Y-5.5087
M16
G05
G00X5.1917Y-5.4831
M15
G01X5.1917Y-5.5087
M16
G05
T4
G00X4.8925Y-5.3354
M15
G01X4.8925Y-5.3571
M16
G05
G00X5.1858Y-5.3354
M15
G01X5.1858Y-5.3571
M16
G05
T0
M30
