M48
; DRILL file {KiCad (6.0.2)} date Mon Apr 25 23:22:51 2022
; FORMAT={-:-/ absolute / inch / decimal}
; #@! TF.CreationDate,2022-04-25T23:22:51+02:00
; #@! TF.GenerationSoftware,Kicad,Pcbnew,(6.0.2)
; #@! TF.FileFunction,Plated,1,2,PTH
FMAT,2
INCH
; #@! TA.AperFunction,Plated,PTH,ViaDrill
T1C0.0118
; #@! TA.AperFunction,Plated,PTH,ViaDrill
T2C0.0157
; #@! TA.AperFunction,Plated,PTH,ComponentDrill
T3C0.0256
; #@! TA.AperFunction,Plated,PTH,ComponentDrill
T4C0.0394
; #@! TA.AperFunction,Plated,PTH,ComponentDrill
T5C0.0866
%
G90
G05
T1
X4.3386Y-5.4803
X4.374Y-4.3661
X4.4183Y-4.9685
X4.4646Y-4.9685
X4.502Y-4.0827
X4.5492Y-4.0827
X4.5689Y-4.0177
X4.624Y-4.1083
X4.6811Y-4.0925
X4.6811Y-4.1358
X4.6811Y-4.1811
X4.7165Y-4.5039
X4.7205Y-4.3701
X4.7264Y-4.0925
X4.7264Y-4.1358
X4.8701Y-4.4882
X5.0157Y-5.3937
X5.2913Y-5.4488
X5.4961Y-4.9843
X5.5197Y-4.9606
T2
X4.2953Y-4.7717
X4.3406Y-4.7717
X4.3858Y-4.7717
X4.3976Y-4.9311
X4.4094Y-4.2677
X4.4429Y-4.9311
X4.4882Y-4.6378
X4.4882Y-4.9311
X4.5039Y-5.5039
X4.5315Y-4.2402
X4.5551Y-4.376
X4.5551Y-4.4213
X4.5908Y-4.6378
X4.628Y-5.0531
X4.628Y-5.0984
X4.628Y-5.1437
X4.628Y-5.1909
X4.628Y-5.2362
X4.7028Y-4.0394
X4.7146Y-4.6969
X4.7146Y-4.7382
X4.7146Y-4.7776
X4.937Y-5.2677
X5.0276Y-5.1024
X5.0433Y-4.0433
X5.0886Y-4.0433
X5.1339Y-4.0433
X5.1811Y-4.0433
X5.2264Y-4.0433
X5.2362Y-4.8819
X5.2756Y-4.8819
X5.315Y-4.8819
X5.3543Y-4.8819
X5.5315Y-4.7047
X5.5315Y-4.7441
X5.5706Y-4.7045
X5.5709Y-4.7441
T4
X4.1969Y-4.4065
X4.1969Y-4.5065
X4.7795Y-5.063
X4.7795Y-5.1732
X4.8795Y-5.063
X4.8795Y-5.1732
X4.9795Y-5.063
X4.9795Y-5.1732
X5.0795Y-5.063
X5.0795Y-5.1732
X5.3937Y-5.2205
X5.3937Y-5.3205
X5.3937Y-5.4205
X5.3937Y-5.5205
T5
X4.1929Y-4.1142
X4.1929Y-5.4528
X5.5315Y-5.4528
T3
G00X4.8654Y-5.3297
M15
G01X4.8654Y-5.3691
M16
G05
G00X4.8654Y-5.4744
M15
G01X4.8654Y-5.5256
M16
G05
G00X5.2055Y-5.3297
M15
G01X5.2055Y-5.3691
M16
G05
G00X5.2055Y-5.4744
M15
G01X5.2055Y-5.5256
M16
G05
T0
M30
