M48
; DRILL file {KiCad (6.0.2)} date Mon Apr 11 15:07:27 2022
; FORMAT={-:-/ absolute / inch / decimal}
; #@! TF.CreationDate,2022-04-11T15:07:27+02:00
; #@! TF.GenerationSoftware,Kicad,Pcbnew,(6.0.2)
; #@! TF.FileFunction,Plated,1,2,PTH
FMAT,2
INCH
; #@! TA.AperFunction,Plated,PTH,ViaDrill
T1C0.0118
; #@! TA.AperFunction,Plated,PTH,ViaDrill
T2C0.0157
; #@! TA.AperFunction,Plated,PTH,ComponentDrill
T3C0.0256
; #@! TA.AperFunction,Plated,PTH,ComponentDrill
T4C0.0394
%
G90
G05
T1
X4.4104Y-5.499
X4.4183Y-4.9685
X4.4646Y-4.9685
X4.502Y-4.0827
X4.5492Y-4.0827
X4.5689Y-4.0177
X4.624Y-4.1083
X4.6811Y-4.0925
X4.6811Y-4.1358
X4.6811Y-4.1811
X4.7067Y-4.498
X4.7205Y-4.3701
X4.7264Y-4.0925
X4.7264Y-4.1358
X4.813Y-5.5177
X4.9646Y-5.2795
X5.0512Y-5.3976
X5.2717Y-5.378
X5.5177Y-5.0315
X5.5571Y-5.0315
X5.5984Y-5.0295
T2
X4.2874Y-5.4213
X4.2874Y-5.4665
X4.2874Y-5.5118
X4.2972Y-4.7579
X4.3425Y-4.7579
X4.3878Y-4.7579
X4.3976Y-4.9311
X4.4094Y-4.2677
X4.4429Y-4.9311
X4.4882Y-4.9311
X4.5315Y-4.1772
X4.5551Y-4.3307
X4.5551Y-4.376
X4.5551Y-4.4213
X4.628Y-5.0531
X4.628Y-5.0984
X4.628Y-5.1437
X4.628Y-5.1909
X4.628Y-5.2362
X4.9114Y-5.248
X5.0276Y-5.0945
X5.0433Y-4.0433
X5.0886Y-4.0433
X5.1339Y-4.0433
X5.1811Y-4.0433
X5.2264Y-4.0433
X5.2362Y-4.8819
X5.2756Y-4.8819
X5.315Y-4.8819
X5.3543Y-4.8819
X5.5197Y-4.8898
X5.5197Y-4.9291
X5.5197Y-4.9685
X5.5315Y-4.6654
X5.5315Y-4.7047
X5.5315Y-4.7441
X5.5315Y-4.7835
X5.57Y-4.7835
X5.5706Y-4.7045
X5.5709Y-4.6654
X5.5709Y-4.7441
T4
X4.1969Y-4.4065
X4.1969Y-4.5065
X4.7795Y-5.063
X4.7795Y-5.1732
X4.8795Y-5.063
X4.8795Y-5.1732
X4.9795Y-5.063
X4.9795Y-5.1732
X5.0795Y-5.063
X5.0795Y-5.1732
X5.3937Y-5.2205
X5.3937Y-5.3205
X5.3937Y-5.4205
X5.3937Y-5.5205
T3
G00X4.8654Y-5.3297
M15
G01X4.8654Y-5.3691
M16
G05
G00X4.8654Y-5.4744
M15
G01X4.8654Y-5.5256
M16
G05
G00X5.2055Y-5.3297
M15
G01X5.2055Y-5.3691
M16
G05
G00X5.2055Y-5.4744
M15
G01X5.2055Y-5.5256
M16
G05
T0
M30
